<svg xmlns="http://www.w3.org/2000/svg" width="14.203" height="14.606" viewBox="0 0 14.203 14.606">
  <g id="Discount" transform="translate(-0.864 0.008)">
    <path id="Path_28709" data-name="Path 28709" d="M15.267,11.586l-.31.041a1.057,1.057,0,0,0-.9,1.239l.068.3a1.054,1.054,0,0,1-1.538,1.12l-.329-.178a1.052,1.052,0,0,0-1.429.42l-.356.614a1.052,1.052,0,0,1-1.846,0L8.3,14.529a1.052,1.052,0,0,0-1.429-.42l-.329.178A1.054,1.054,0,0,1,5,13.167l.057-.308a1.057,1.057,0,0,0-.9-1.239l-.3-.034A1.057,1.057,0,0,1,3.268,9.76L3.5,9.546a1.059,1.059,0,0,0,0-1.533L3.268,7.8a1.057,1.057,0,0,1,.586-1.826l.31-.039a1.057,1.057,0,0,0,.9-1.239L5,4.4a1.054,1.054,0,0,1,1.547-1.12l.363.2A1.052,1.052,0,0,0,8.316,3.09l.333-.573a1.052,1.052,0,0,1,1.81,0l.34.573a1.052,1.052,0,0,0,1.408.388l.363-.2A1.054,1.054,0,0,1,14.126,4.4l-.057.31a1.057,1.057,0,0,0,.9,1.239l.31.039a1.057,1.057,0,0,1,.586,1.826l-.228.215a1.059,1.059,0,0,0,0,1.533l.228.215a1.057,1.057,0,0,1-.6,1.81Z" transform="translate(-1.592 -1.551)" fill="#fff0c0"/>
    <path id="Path_28710" data-name="Path 28710" d="M6.643,13.811,6.308,13.2a.6.6,0,0,0-.808-.228l-.329.18a1.511,1.511,0,0,1-2.207-1.6c.057-.308.135-.523-.048-.774s-.406-.228-.714-.281a1.513,1.513,0,0,1-.851-2.615c.228-.215.413-.342.413-.65s-.185-.436-.413-.65a1.513,1.513,0,0,1,.851-2.6c.308-.041.534-.032.714-.281s.1-.456.048-.774a1.511,1.511,0,0,1,2.207-1.6l.363.2a.593.593,0,0,0,.8-.228l.34-.573a1.508,1.508,0,0,1,2.595,0l.34.573a.593.593,0,0,0,.8.228l.363-.2a1.511,1.511,0,0,1,2.207,1.6c-.057.308-.135.525.048.774s.4.228.714.281a1.513,1.513,0,0,1,.853,2.6c-.228.215-.413.342-.413.65s.185.436.413.65a1.513,1.513,0,0,1-.853,2.608c.023,0-.288.039-.31.041a.6.6,0,0,0-.509.7l.057.31a1.511,1.511,0,0,1-2.207,1.6l-.329-.18a.6.6,0,0,0-.808.228l-.335.621a1.508,1.508,0,0,1-2.649,0Zm-.86-1.826a1.508,1.508,0,0,1,1.326.785l.335.614a.6.6,0,0,0,1.047,0l.335-.614a1.511,1.511,0,0,1,2.054-.6c.331.18.612.395.963.139s.228-.6.18-.913a1.513,1.513,0,0,1,1.289-1.775c.347-.046.669-.046.8-.456s-.171-.634-.383-.837a1.513,1.513,0,0,1,0-2.2c.253-.24.516-.434.383-.835s-.5-.411-.8-.456a1.513,1.513,0,0,1-1.289-1.775c.064-.338.164-.655-.18-.913s-.644-.034-.995.157A1.506,1.506,0,0,1,8.82,1.774L8.48,1.2a.6.6,0,0,0-1.025,0l-.34.573a1.5,1.5,0,0,1-2.02.552c-.351-.192-.637-.418-1-.157s-.228.6-.178.913A1.513,1.513,0,0,1,2.632,4.857c-.335.043-.669.046-.8.456s.171.614.383.822a1.513,1.513,0,0,1,0,2.2c-.253.242-.516.434-.383.837s.5.408.8.456A1.513,1.513,0,0,1,3.921,11.4c-.064.338-.167.655.178.913.552.383.822-.338,1.684-.338Zm7.891-1.951Z" transform="translate(0)" fill="#e8b65e"/>
    <path id="Path_28711" data-name="Path 28711" d="M20.463,25.561a.456.456,0,0,1-.322-.778l4.564-4.564a.456.456,0,0,1,.644.644C20.394,25.819,20.732,25.561,20.463,25.561Z" transform="translate(-14.776 -15.526)" fill="#e8b65e"/>
    <circle id="Ellipse_3149" data-name="Ellipse 3149" cx="1.141" cy="1.141" r="1.141" transform="translate(8.654 7.981)" fill="#fff0c0"/>
    <path id="Path_28712" data-name="Path 28712" d="M34.6,36.195a1.6,1.6,0,1,1,1.6-1.6A1.6,1.6,0,0,1,34.6,36.195Zm0-2.282a.685.685,0,1,0,.685.685A.685.685,0,0,0,34.6,33.913Z" transform="translate(-24.803 -25.475)" fill="#e8b65e"/>
    <circle id="Ellipse_3150" data-name="Ellipse 3150" cx="1.141" cy="1.141" r="1.141" transform="translate(5.003 4.33)" fill="#fff0c0"/>
    <path id="Path_28713" data-name="Path 28713" d="M18.6,20.195a1.6,1.6,0,1,1,1.6-1.6,1.6,1.6,0,0,1-1.6,1.6Zm0-2.282a.685.685,0,1,0,.685.685A.685.685,0,0,0,18.6,17.913Z" transform="translate(-12.454 -13.127)" fill="#e8b65e"/>
  </g>
</svg>
