<svg id="heading-border-img" xmlns="http://www.w3.org/2000/svg" width="156.236" height="8" viewBox="0 0 156.236 8">
  <g id="Group_277" data-name="Group 277" transform="translate(0 3.82)">
    <rect id="Rectangle_141" data-name="Rectangle 141" width="156.236" height="0.36" fill="#e8b65e"/>
  </g>
  <g id="Group_278" data-name="Group 278" transform="translate(71.075)">
    <path id="Path_662" data-name="Path 662" d="M296.9,301.154l-1.094-1.045-1.093,1.045a.42.42,0,0,0,.106.7l.987.634.987-.634A.42.42,0,0,0,296.9,301.154Z" transform="translate(-288.759 -300.109)" fill="#e8b65e"/>
    <path id="Path_663" data-name="Path 663" d="M294.709,313.358,295.8,314.4l1.094-1.045a.42.42,0,0,0-.106-.7l-.987-.634-.987.634A.42.42,0,0,0,294.709,313.358Z" transform="translate(-288.759 -306.402)" fill="#e8b65e"/>
    <path id="Path_664" data-name="Path 664" d="M279.535,305.773l-1.56,2.21-.81-1.152c-.185-.263-.446-.23-.61.079-.3.559-.013,1.355.487,1.355-.5,0-.785.8-.487,1.355h0c.164.308.424.342.61.078l.81-1.152,1.56,2.21a.9.9,0,0,0,1.485.145l2.457-2.636-2.457-2.636A.9.9,0,0,0,279.535,305.773Z" transform="translate(-276.433 -304.265)" fill="#e8b65e"/>
    <path id="Path_665" data-name="Path 665" d="M304.876,308.265c.535,0,.8-.9.43-1.434-.185-.263-.445-.23-.61.079l-.652,1.223-1.666-2.36a.9.9,0,0,0-1.485-.144l-2.457,2.636,2.457,2.636a.9.9,0,0,0,1.485-.145l1.666-2.36.652,1.223c.164.308.424.342.61.078C305.68,309.165,305.41,308.265,304.876,308.265Z" transform="translate(-291.393 -304.265)" fill="#e8b65e"/>
  </g>
  <g id="Group_279" data-name="Group 279" transform="translate(55.2 2.831)">
    <path id="Path_666" data-name="Path 666" d="M360.535,306.689l-.536-.513-.536.513a.206.206,0,0,0,.052.345l.484.311.484-.311A.206.206,0,0,0,360.535,306.689Z" transform="translate(-316.96 -306.176)" fill="#e8b65e"/>
    <path id="Path_667" data-name="Path 667" d="M359.463,312.677l.536.513.536-.513a.206.206,0,0,0-.052-.345l-.484-.311-.484.311A.206.206,0,0,0,359.463,312.677Z" transform="translate(-316.96 -310.853)" fill="#e8b65e"/>
    <path id="Path_668" data-name="Path 668" d="M363.226,308.829a.8.8,0,0,0-.729-.032l-1.205.586,1.205.586a.8.8,0,0,0,.729-.032l.863-.555Z" transform="translate(-318.253 -308.215)" fill="#e8b65e"/>
    <path id="Path_669" data-name="Path 669" d="M353.416,308.829l-.863.554.863.555a.8.8,0,0,0,.729.032l1.206-.586-1.206-.586A.8.8,0,0,0,353.416,308.829Z" transform="translate(-312.311 -308.215)" fill="#e8b65e"/>
    <path id="Path_670" data-name="Path 670" d="M234.825,306.689l-.537-.513-.537.513a.206.206,0,0,0,.052.345l.484.311.484-.311A.206.206,0,0,0,234.825,306.689Z" transform="translate(-231.491 -306.176)" fill="#e8b65e"/>
    <path id="Path_671" data-name="Path 671" d="M233.752,312.677l.537.513.537-.513a.206.206,0,0,0-.052-.345l-.484-.311-.484.311A.206.206,0,0,0,233.752,312.677Z" transform="translate(-231.491 -310.853)" fill="#e8b65e"/>
    <path id="Path_672" data-name="Path 672" d="M236.787,308.8l-1.206.586,1.206.586a.8.8,0,0,0,.729-.032l.863-.555-.863-.554A.8.8,0,0,0,236.787,308.8Z" transform="translate(-232.784 -308.215)" fill="#e8b65e"/>
    <path id="Path_673" data-name="Path 673" d="M227.705,308.829l-.863.554.863.555a.8.8,0,0,0,.729.032l1.206-.586-1.206-.586A.8.8,0,0,0,227.705,308.829Z" transform="translate(-226.842 -308.215)" fill="#e8b65e"/>
  </g>
</svg>
