<svg id="home-icon" xmlns="http://www.w3.org/2000/svg" width="16" height="15.995" viewBox="0 0 16 15.995">
  <path id="Path_28666" data-name="Path 28666" d="M13,7.291a.151.151,0,0,0-.192,0l-6,4.8a.162.162,0,0,0-.058.119v8.843a.077.077,0,0,0,.077.077h4.152a.077.077,0,0,0,.077-.077V15.669a.077.077,0,0,1,.077-.077H14.67a.077.077,0,0,1,.077.077v5.383a.077.077,0,0,0,.077.077h4.152a.077.077,0,0,0,.077-.077V12.208A.155.155,0,0,0,19,12.089Z" transform="translate(-4.904 -5.134)" fill="#b19151"/>
  <path id="Path_28667" data-name="Path 28667" d="M19.165,9.381,11.9,3.56a.844.844,0,0,0-1.054,0L7.681,6.132V4.509A.077.077,0,0,0,7.6,4.432H5.3a.077.077,0,0,0-.077.077V8.054L3.578,9.4a.538.538,0,0,0-.046.8.535.535,0,0,0,.381.158.542.542,0,0,0,.338-.119l7.071-5.69a.069.069,0,0,1,.05-.015.093.093,0,0,1,.05.015l7.071,5.667a.542.542,0,0,0,.338.119.546.546,0,0,0,.542-.569A.546.546,0,0,0,19.165,9.381Z" transform="translate(-3.374 -3.375)" fill="#b19151"/>
</svg>
