<svg xmlns="http://www.w3.org/2000/svg" width="58.572" height="41.977" viewBox="0 0 58.572 41.977">
  <g id="how-its-works-img3" transform="translate(0 -72.533)">
    <g id="Group_299" data-name="Group 299" transform="translate(7.81 102.796)">
      <g id="Group_298" data-name="Group 298" transform="translate(0 0)">
        <path id="Path_681" data-name="Path 681" d="M74.124,337.067a5.857,5.857,0,1,0,5.857,5.857A5.863,5.863,0,0,0,74.124,337.067Zm0,9.762a3.9,3.9,0,1,1,3.9-3.9A3.909,3.909,0,0,1,74.124,346.829Z" transform="translate(-68.267 -337.067)" fill="#e8b65e"/>
      </g>
    </g>
    <g id="Group_301" data-name="Group 301" transform="translate(41.001 102.796)">
      <g id="Group_300" data-name="Group 300" transform="translate(0 0)">
        <path id="Path_682" data-name="Path 682" d="M364.257,337.067a5.857,5.857,0,1,0,5.857,5.857A5.863,5.863,0,0,0,364.257,337.067Zm0,9.762a3.9,3.9,0,1,1,3.9-3.9A3.909,3.909,0,0,1,364.257,346.829Z" transform="translate(-358.4 -337.067)" fill="#e8b65e"/>
      </g>
    </g>
    <g id="Group_303" data-name="Group 303" transform="translate(37.096 83.271)">
      <g id="Group_302" data-name="Group 302" transform="translate(0 0)">
        <path id="Path_683" data-name="Path 683" d="M345.588,180.515,336.8,166.848a.976.976,0,0,0-.821-.448H325.243a.976.976,0,0,0-.976.976v24.405a.975.975,0,0,0,.976.976h3.9v-1.952h-2.929V168.352h9.229l8.343,12.978v9.475H338.91v1.952h5.857a.975.975,0,0,0,.976-.976V181.043A.974.974,0,0,0,345.588,180.515Z" transform="translate(-324.267 -166.4)" fill="#e8b65e"/>
      </g>
    </g>
    <g id="Group_305" data-name="Group 305" transform="translate(41.001 87.176)">
      <g id="Group_304" data-name="Group 304">
        <path id="Path_684" data-name="Path 684" d="M360.353,209.319v-6.833h7.81v-1.952h-8.786a.976.976,0,0,0-.976.976V210.3a.975.975,0,0,0,.976.976H374.02v-1.952H360.353Z" transform="translate(-358.401 -200.533)" fill="#e8b65e"/>
      </g>
    </g>
    <g id="Group_307" data-name="Group 307" transform="translate(0 76.438)">
      <g id="Group_306" data-name="Group 306" transform="translate(0 0)">
        <path id="Path_685" data-name="Path 685" d="M38.072,106.667H.976a.977.977,0,0,0-.976.976v31.239a.976.976,0,0,0,.976.976h7.81v-1.952H1.952V108.619H37.1v29.286H18.548v1.952H38.072a.975.975,0,0,0,.976-.976V107.643A.976.976,0,0,0,38.072,106.667Z" transform="translate(0 -106.667)" fill="#e8b65e"/>
      </g>
    </g>
    <g id="Group_309" data-name="Group 309" transform="translate(0.976 103.772)">
      <g id="Group_308" data-name="Group 308">
        <rect id="Rectangle_142" data-name="Rectangle 142" width="5.857" height="1.952" fill="#e8b65e"/>
      </g>
    </g>
    <g id="Group_311" data-name="Group 311" transform="translate(20.5 103.772)">
      <g id="Group_310" data-name="Group 310">
        <rect id="Rectangle_143" data-name="Rectangle 143" width="16.596" height="1.952" fill="#e8b65e"/>
      </g>
    </g>
    <g id="Group_313" data-name="Group 313" transform="translate(53.691 103.772)">
      <g id="Group_312" data-name="Group 312">
        <rect id="Rectangle_144" data-name="Rectangle 144" width="3.905" height="1.952" fill="#e8b65e"/>
      </g>
    </g>
    <g id="Group_315" data-name="Group 315" transform="translate(3.905 80.343)">
      <g id="Group_314" data-name="Group 314">
        <rect id="Rectangle_145" data-name="Rectangle 145" width="34.167" height="1.952" fill="#e8b65e"/>
      </g>
    </g>
    <g id="Group_317" data-name="Group 317" transform="translate(12.691 107.676)">
      <g id="Group_316" data-name="Group 316" transform="translate(0 0)">
        <rect id="Rectangle_146" data-name="Rectangle 146" width="1.952" height="1.952" fill="#e8b65e"/>
      </g>
    </g>
    <g id="Group_319" data-name="Group 319" transform="translate(45.882 107.676)">
      <g id="Group_318" data-name="Group 318" transform="translate(0 0)">
        <rect id="Rectangle_147" data-name="Rectangle 147" width="1.952" height="1.952" fill="#e8b65e"/>
      </g>
    </g>
    <g id="Group_321" data-name="Group 321" transform="translate(3.905 72.533)">
      <g id="Group_320" data-name="Group 320" transform="translate(0 0)">
        <rect id="Rectangle_148" data-name="Rectangle 148" width="13.667" height="1.952" fill="#e8b65e"/>
      </g>
    </g>
    <g id="Group_323" data-name="Group 323" transform="translate(0 72.533)">
      <g id="Group_322" data-name="Group 322" transform="translate(0 0)">
        <rect id="Rectangle_149" data-name="Rectangle 149" width="1.952" height="1.952" fill="#e8b65e"/>
      </g>
    </g>
  </g>
</svg>
