<svg xmlns="http://www.w3.org/2000/svg" width="60.774" height="41.985" viewBox="0 0 60.774 41.985">
  <g id="how-its-works-2" transform="translate(0 -79.144)">
    <g id="Group_325" data-name="Group 325" transform="translate(0 79.144)">
      <g id="Group_324" data-name="Group 324">
        <path id="Path_686" data-name="Path 686" d="M106.426,249.705a.95.95,0,1,0,1.564,1.078l.018-.028a17.828,17.828,0,0,1,14.877-8,.95.95,0,0,0,0-1.9A19.722,19.722,0,0,0,106.426,249.705Z" transform="translate(-93.646 -221.661)" fill="#e8b65e"/>
        <path id="Path_687" data-name="Path 687" d="M59.825,212.394h-5.7v-1.147a22.4,22.4,0,0,0-6.938-16.289.95.95,0,0,0-1.351,1.335l.034.033a20.525,20.525,0,0,1,6.355,14.921v1.147H8.546v-1.147A20.716,20.716,0,0,1,29.24,190.554h2.294a20.785,20.785,0,0,1,5.228.665.95.95,0,1,0,.545-1.819l-.07-.018a22.585,22.585,0,0,0-4-.656v-2.919a.95.95,0,0,0-.95-.95h-3.8a.95.95,0,0,0-.95.95v2.919A22.618,22.618,0,0,0,6.647,211.247v1.147H.95a.95.95,0,1,0,0,1.9H59.825a.95.95,0,1,0,0-1.9ZM29.438,186.755h1.9v1.9h-1.9Z" transform="translate(0 -172.308)" fill="#e8b65e"/>
        <path id="Path_688" data-name="Path 688" d="M322.216,90.973c.884.789,1.582,1.412,1.582,2.684s-.7,1.894-1.582,2.688a5.194,5.194,0,0,0-2.216,4.1.95.95,0,0,0,1.9,0c0-1.272.7-1.894,1.582-2.684a4.9,4.9,0,0,0,0-8.2c-.884-.789-1.582-1.412-1.582-2.683s.7-1.893,1.582-2.682a5.192,5.192,0,0,0,2.216-4.1.95.95,0,1,0-1.9,0c0,1.27-.7,1.892-1.582,2.681a4.9,4.9,0,0,0,0,8.2Z" transform="translate(-282.016 -79.144)" fill="#e8b65e"/>
        <path id="Path_689" data-name="Path 689" d="M370.216,90.973c.884.789,1.582,1.412,1.582,2.684s-.7,1.9-1.582,2.684a5.194,5.194,0,0,0-2.216,4.1.95.95,0,0,0,1.9,0c0-1.272.7-1.894,1.582-2.684a4.9,4.9,0,0,0,0-8.2c-.884-.789-1.582-1.412-1.582-2.683s.7-1.893,1.582-2.682a5.192,5.192,0,0,0,2.216-4.1.95.95,0,0,0-1.9,0c0,1.27-.7,1.892-1.582,2.681a4.9,4.9,0,0,0,0,8.2Z" transform="translate(-324.319 -79.144)" fill="#e8b65e"/>
        <path id="Path_690" data-name="Path 690" d="M418.216,90.973c.884.789,1.582,1.412,1.582,2.684s-.7,1.9-1.582,2.684a5.194,5.194,0,0,0-2.216,4.1.95.95,0,0,0,1.9,0c0-1.272.7-1.894,1.582-2.684a4.9,4.9,0,0,0,0-8.2c-.884-.789-1.582-1.412-1.582-2.683s.7-1.893,1.582-2.682a5.192,5.192,0,0,0,2.216-4.1.95.95,0,1,0-1.9,0c0,1.27-.7,1.892-1.582,2.681a4.9,4.9,0,0,0,0,8.2Z" transform="translate(-366.621 -79.144)" fill="#e8b65e"/>
      </g>
    </g>
  </g>
</svg>
