<svg xmlns="http://www.w3.org/2000/svg" width="41.991" height="41.985" viewBox="0 0 41.991 41.985">
  <g id="how-its-works-img1" transform="translate(0)">
    <path id="Path_678" data-name="Path 678" d="M41.364,292.492h-.91v-12.6a.615.615,0,1,0-1.231,0v7.932h-3.4a1.05,1.05,0,0,0-1.07,1.026v3.645H33.4a1.671,1.671,0,0,0,.061-.439.615.615,0,1,0-1.231,0,.439.439,0,1,1-.878,0v-5.538h4.39a1.882,1.882,0,0,0,1.88-1.88v-.612a.743.743,0,0,0-.742-.742H33.487a3.051,3.051,0,0,0-2.076-2.534.615.615,0,0,0-1.209,0,3.05,3.05,0,0,0-2.076,2.534H24.59a.743.743,0,0,0-.742.742v.612a1.882,1.882,0,0,0,1.88,1.88h4.39v5.538a.439.439,0,1,1-.878,0,.615.615,0,1,0-1.231,0,1.658,1.658,0,0,0,.061.439h-1.2v-3.645a1.05,1.05,0,0,0-1.07-1.026h-3.4v-7.932a.615.615,0,1,0-1.231,0v12.6h-2.4v-1.413a1,1,0,0,0-.994-.994h-.205v-8.616a.615.615,0,0,0-1.231,0v8.616H8.559V275.61a.153.153,0,0,1,.153-.153h7.467a.153.153,0,0,1,.153.153V278.6a.615.615,0,0,0,1.231,0V275.61a1.385,1.385,0,0,0-1.383-1.383H8.712a1.385,1.385,0,0,0-1.383,1.383v14.474H7.124a1,1,0,0,0-.994.994v1.413H5.24v-3.5a.615.615,0,0,0-1.231,0v3.5H.615a.615.615,0,0,0,0,1.23H41.364a.615.615,0,1,0,0-1.23ZM30.806,281.9a1.62,1.62,0,0,1,1.428,1.384H29.378a1.62,1.62,0,0,1,1.428-1.384Zm-5.729,2.738v-.124H36.387v.124a.65.65,0,0,1-.649.649H25.727a.65.65,0,0,1-.649-.649Zm10.9,4.417h3.244v3.441H35.979Zm-13.59,0h3.244v3.441H22.389ZM7.36,292.492v-1.177h10.17v1.177Zm0,0" transform="translate(0 -251.737)" fill="#e8b65e"/>
    <path id="Path_679" data-name="Path 679" d="M41.812,12.316l-3.152-4.66a3.27,3.27,0,0,0-2.38-1.422V1.88A1.882,1.882,0,0,0,34.4,0H7.588a1.882,1.882,0,0,0-1.88,1.88V6.233a3.27,3.27,0,0,0-2.38,1.422L.136,12.374a.613.613,0,0,0-.12.263c0,.011,0,.022,0,.033s0,.02,0,.03,0,.041,0,.061v2.657a2.879,2.879,0,0,0,4.009,2.649v16.3a.615.615,0,0,0,1.231,0V17.309a2.874,2.874,0,0,0,4.434-.115,2.874,2.874,0,0,0,4.529,0,2.874,2.874,0,0,0,4.529,0,2.874,2.874,0,0,0,4.529,0,2.874,2.874,0,0,0,4.529,0,2.874,2.874,0,0,0,4.529,0,2.874,2.874,0,0,0,4.422.129v11.8a.615.615,0,0,0,1.231,0V18.062a2.878,2.878,0,0,0,4.021-2.643V12.754a.613.613,0,0,0-.183-.438ZM9.357,7.445h1.692a3.676,3.676,0,0,0-.147.339L9.267,12.138H6.159L8.186,8.287a1.4,1.4,0,0,1,1.171-.841ZM33.8,8.287l2.028,3.852h-3.1L31.1,7.784a3.591,3.591,0,0,0-.147-.339H32.63a1.394,1.394,0,0,1,1.171.841Zm-3.856-.07,1.472,3.922H28.292l-.965-4.274c-.029-.127-.067-.27-.116-.419H29.3c.172,0,.448.241.647.771Zm-3.818-.08.9,4h-3.2l-.314-4.184c-.013-.168-.026-.341-.045-.509h2.4a2.1,2.1,0,0,1,.254.69Zm-3.839-.09.307,4.092H19.4l.307-4.092c.021-.27.043-.464.064-.6h2.45c.021.136.043.33.063.6Zm-3.8-.092-.314,4.184h-3.2l.9-4a2.1,2.1,0,0,1,.254-.69h2.4c-.019.168-.032.341-.045.509Zm-3.812-.089-.965,4.274H10.581l1.472-3.922c.2-.53.475-.771.647-.771h2.087c-.049.149-.087.293-.116.419Zm22.969.48,2.566,3.794H37.219L34.889,7.714c-.049-.094-.1-.182-.159-.268h1.216a2.044,2.044,0,0,1,1.694.9ZM7.588,1.231H34.4a.65.65,0,0,1,.65.65V2.919H31.393a.615.615,0,0,0,0,1.23h3.655V6.215H6.938V4.149H28.343a.615.615,0,0,0,0-1.231H6.938V1.88a.65.65,0,0,1,.65-.65ZM4.347,8.345a2.043,2.043,0,0,1,1.694-.9H7.256c-.056.086-.11.175-.159.268L4.768,12.138H1.78ZM1.235,15.419V13.374h3.3v2.044a1.649,1.649,0,1,1-3.3,0Zm6.178,1.649a1.651,1.651,0,0,1-1.649-1.649V13.374h3.3v2.044A1.651,1.651,0,0,1,7.413,17.068Zm4.529,0a1.651,1.651,0,0,1-1.649-1.649V13.374h3.3v2.044A1.651,1.651,0,0,1,11.942,17.068Zm4.529,0a1.651,1.651,0,0,1-1.649-1.649V13.374h3.3v2.044a1.651,1.651,0,0,1-1.649,1.649Zm4.529,0a1.651,1.651,0,0,1-1.649-1.649V13.374h3.3v2.044A1.651,1.651,0,0,1,21,17.068Zm4.529,0a1.651,1.651,0,0,1-1.649-1.649V13.374h3.3v2.044a1.651,1.651,0,0,1-1.65,1.649Zm4.529,0a1.651,1.651,0,0,1-1.649-1.649V13.374h3.3v2.044A1.651,1.651,0,0,1,30.057,17.068Zm4.529,0a1.651,1.651,0,0,1-1.649-1.649V13.374h3.3v2.044A1.651,1.651,0,0,1,34.586,17.068Zm4.529,0a1.651,1.651,0,0,1-1.649-1.649V13.374h3.3v2.044A1.651,1.651,0,0,1,39.115,17.068Zm0,0" transform="translate(-0.004 0)" fill="#e8b65e"/>
    <path id="Path_680" data-name="Path 680" d="M172.3,373.67a.615.615,0,1,1-.615-.615A.615.615,0,0,1,172.3,373.67Zm0,0" transform="translate(-157.043 -342.459)" fill="#e8b65e"/>
  </g>
</svg>
