<svg xmlns="http://www.w3.org/2000/svg" width="69" height="35" viewBox="0 0 69 35">
  <g id="MASTER-CARD" transform="translate(0.076 -0.485)">
    <g id="Rectangle_1871" data-name="Rectangle 1871" transform="translate(-0.076 0.485)" fill="#fff" stroke="#cfced6" stroke-width="1">
      <rect width="69" height="35" rx="4" stroke="none"/>
      <rect x="0.5" y="0.5" width="68" height="34" rx="3.5" fill="none"/>
    </g>
    <g id="mastercard_4_" data-name="mastercard(4)" transform="translate(16.534 6.496)">
      <path id="Path_18853" data-name="Path 18853" d="M41.521,20.76a11.094,11.094,0,1,1-22.187,0h0a11.094,11.094,0,1,1,22.187,0Z" transform="translate(-4.542 -9.667)" fill="#ffb600"/>
      <path id="Path_18854" data-name="Path 18854" d="M30.427,9.667A11.122,11.122,0,0,1,41.521,20.76h0a11.094,11.094,0,1,1-22.187,0" transform="translate(-4.542 -9.667)" fill="#f7981d"/>
      <path id="Path_18855" data-name="Path 18855" d="M33.833,9.667A11.122,11.122,0,0,1,44.927,20.76h0A11.085,11.085,0,0,1,33.833,31.854" transform="translate(-7.948 -9.667)" fill="#ff8500"/>
      <path id="Path_18856" data-name="Path 18856" d="M10.976,9.667a11.094,11.094,0,0,0,.117,22.187,11.223,11.223,0,0,0,7.454-2.876h0A10.547,10.547,0,0,0,19.663,27.8H17.374a13.54,13.54,0,0,1-.822-1.115h3.933a7.519,7.519,0,0,0,.646-1.174H15.907a7,7,0,0,1-.47-1.174h6.1a11.655,11.655,0,0,0,.587-3.522,15.151,15.151,0,0,0-.235-2.348H15.085a8.581,8.581,0,0,1,.293-1.174h6.1a7,7,0,0,0-.47-1.174H15.848a11.641,11.641,0,0,1,.646-1.174h3.933a5.582,5.582,0,0,0-.88-1.174H17.374a10,10,0,0,1,1.115-1.115,10.831,10.831,0,0,0-7.454-2.876C11.035,9.667,11.035,9.667,10.976,9.667Z" transform="translate(0 -9.667)" fill="#ff5050"/>
      <path id="Path_18857" data-name="Path 18857" d="M0,20.8A11.085,11.085,0,0,0,11.094,31.89a11.223,11.223,0,0,0,7.454-2.876h0a10.548,10.548,0,0,0,1.115-1.174H17.374a13.541,13.541,0,0,1-.822-1.115h3.933a7.518,7.518,0,0,0,.646-1.174H15.907a7,7,0,0,1-.47-1.174h6.1a11.655,11.655,0,0,0,.587-3.522,15.151,15.151,0,0,0-.235-2.348H15.085a8.581,8.581,0,0,1,.293-1.174h6.1a7,7,0,0,0-.47-1.174H15.848a11.64,11.64,0,0,1,.646-1.174h3.933a5.582,5.582,0,0,0-.88-1.174H17.374A10,10,0,0,1,18.489,12.7,10.831,10.831,0,0,0,11.035,9.82h-.059" transform="translate(0 -9.703)" fill="#e52836"/>
      <path id="Path_18858" data-name="Path 18858" d="M14.464,31.89a11.223,11.223,0,0,0,7.454-2.876h0a10.548,10.548,0,0,0,1.115-1.174H20.744a13.541,13.541,0,0,1-.822-1.115h3.933a7.518,7.518,0,0,0,.646-1.174H19.277a7,7,0,0,1-.47-1.174h6.1a11.655,11.655,0,0,0,.587-3.522,15.151,15.151,0,0,0-.235-2.348H18.455a8.582,8.582,0,0,1,.293-1.174h6.1a7,7,0,0,0-.47-1.174H19.218a11.64,11.64,0,0,1,.646-1.174H23.8a5.582,5.582,0,0,0-.88-1.174H20.744A10,10,0,0,1,21.86,12.7,10.831,10.831,0,0,0,14.405,9.82h-.059" transform="translate(-3.37 -9.703)" fill="#cb2026"/>
      <g id="Group_26693" data-name="Group 26693" transform="translate(1.057 8.218)">
        <path id="Path_18859" data-name="Path 18859" d="M19.118,26.263l.176-1a2.542,2.542,0,0,1-.293.059c-.411,0-.47-.235-.411-.352l.352-2.054h.646l.176-1.115h-.587l.117-.7H18.12s-.7,3.874-.7,4.344a.881.881,0,0,0,.939,1A1.8,1.8,0,0,0,19.118,26.263Z" transform="translate(-5.148 -20.57)" fill="#fff"/>
        <path id="Path_18860" data-name="Path 18860" d="M20.177,24.581a1.867,1.867,0,0,0,2.054,2.054,3.047,3.047,0,0,0,1.233-.176l.235-1.115a3.519,3.519,0,0,1-1.233.293c-1.291,0-1.057-.939-1.057-.939h2.407a7.61,7.61,0,0,0,.176-1.057,1.59,1.59,0,0,0-1.7-1.7C21.058,21.822,20.177,23.113,20.177,24.581Zm2.054-1.7c.646,0,.528.763.528.822H21.469C21.469,23.642,21.586,22.879,22.232,22.879Z" transform="translate(-5.797 -20.766)" fill="#fff"/>
        <path id="Path_18861" data-name="Path 18861" d="M31.615,26.1l.235-1.291a2.885,2.885,0,0,1-1,.293c-.822,0-1.174-.646-1.174-1.35,0-1.409.7-2.172,1.526-2.172a1.96,1.96,0,0,1,1.057.352l.176-1.233a4.127,4.127,0,0,0-1.35-.293c-1.35,0-2.7,1.174-2.7,3.4,0,1.467.7,2.465,2.113,2.465A5.268,5.268,0,0,0,31.615,26.1Z" transform="translate(-7.725 -20.407)" fill="#fff"/>
        <path id="Path_18862" data-name="Path 18862" d="M10.516,21.788a4.157,4.157,0,0,0-1.409.235l-.176,1a3.47,3.47,0,0,1,1.291-.235c.411,0,.763.059.763.411,0,.235-.059.293-.059.293H10.4c-1,0-2.113.411-2.113,1.761,0,1.057.7,1.291,1.115,1.291a1.764,1.764,0,0,0,1.233-.528l-.059.47h1.057l.47-3.228A1.391,1.391,0,0,0,10.516,21.788Zm.235,2.641c0,.176-.117,1.115-.822,1.115a.458.458,0,0,1-.47-.47c0-.293.176-.7,1.057-.7A.926.926,0,0,0,10.751,24.43Z" transform="translate(-3.003 -20.732)" fill="#fff"/>
        <path id="Path_18863" data-name="Path 18863" d="M14.316,26.525A1.5,1.5,0,0,0,16.077,25c0-1.467-1.409-1.174-1.409-1.761,0-.293.235-.411.646-.411.176,0,.822.059.822.059l.176-1.057a4.459,4.459,0,0,0-1.115-.117c-.88,0-1.761.352-1.761,1.526,0,1.35,1.467,1.233,1.467,1.761,0,.352-.411.411-.7.411a3.839,3.839,0,0,1-1.057-.176l-.176,1.057C13.024,26.407,13.318,26.525,14.316,26.525Z" transform="translate(-4.102 -20.714)" fill="#fff"/>
        <path id="Path_18864" data-name="Path 18864" d="M44.314,20.561l-.235,1.585a1.628,1.628,0,0,0-1.115-.587c-1.057,0-2,1.291-2,2.817,0,.939.47,1.937,1.467,1.937a1.567,1.567,0,0,0,1.115-.47l-.059.411h1.174l.88-5.635Zm-.528,3.111c0,.646-.293,1.467-.939,1.467-.411,0-.646-.352-.646-.939,0-.939.411-1.526.939-1.526C43.551,22.674,43.786,22.967,43.786,23.672Z" transform="translate(-10.681 -20.443)" fill="#fff"/>
        <path id="Path_18865" data-name="Path 18865" d="M2.5,26.2l.7-4.226L3.318,26.2H4.14L5.666,21.97,5.02,26.2H6.253l.939-5.635H5.255L4.081,24.024l-.059-3.463H2.32L1.381,26.2Z" transform="translate(-1.381 -20.443)" fill="#fff"/>
        <path id="Path_18866" data-name="Path 18866" d="M26.225,26.52c.352-1.937.411-3.522,1.233-3.228a4.607,4.607,0,0,1,.411-1.35h-.235c-.528,0-.939.7-.939.7L26.812,22H25.7l-.763,4.578h1.291Z" transform="translate(-6.914 -20.768)" fill="#fff"/>
        <path id="Path_18867" data-name="Path 18867" d="M35.45,21.788a4.157,4.157,0,0,0-1.409.235l-.176,1a3.47,3.47,0,0,1,1.291-.235c.411,0,.763.059.763.411,0,.235-.059.293-.059.293h-.528c-1,0-2.113.411-2.113,1.761,0,1.057.7,1.291,1.115,1.291a1.764,1.764,0,0,0,1.233-.528l-.059.47h1.057l.47-3.228A1.371,1.371,0,0,0,35.45,21.788Zm.293,2.641c0,.176-.117,1.115-.822,1.115a.458.458,0,0,1-.47-.47c0-.293.176-.7,1.057-.7C35.685,24.43,35.685,24.43,35.744,24.43Z" transform="translate(-8.861 -20.732)" fill="#fff"/>
        <path id="Path_18868" data-name="Path 18868" d="M39.114,26.52c.352-1.937.411-3.522,1.233-3.228a4.607,4.607,0,0,1,.411-1.35h-.235c-.528,0-.939.7-.939.7L39.7,22H38.586l-.763,4.578h1.291Z" transform="translate(-9.942 -20.768)" fill="#fff"/>
      </g>
      <g id="Group_26694" data-name="Group 26694" transform="translate(1.057 8.218)">
        <path id="Path_18869" data-name="Path 18869" d="M17.262,25.441a.881.881,0,0,0,.939,1,2.234,2.234,0,0,0,.88-.176l.176-1a2.542,2.542,0,0,1-.293.059c-.411,0-.47-.235-.411-.352l.352-2.054h.646l.176-1.115H19.14l.117-.7" transform="translate(-5.112 -20.57)" fill="#dce5e5"/>
        <path id="Path_18870" data-name="Path 18870" d="M20.944,24.581c0,1.644.528,2.054,1.467,2.054a3.047,3.047,0,0,0,1.233-.176l.235-1.115a3.519,3.519,0,0,1-1.233.293c-1.291,0-1.057-.939-1.057-.939H24a7.61,7.61,0,0,0,.176-1.057,1.59,1.59,0,0,0-1.7-1.7C21.238,21.822,20.944,23.113,20.944,24.581Zm1.467-1.7c.646,0,.763.763.763.822H21.649C21.649,23.642,21.766,22.879,22.412,22.879Z" transform="translate(-5.977 -20.766)" fill="#dce5e5"/>
        <path id="Path_18871" data-name="Path 18871" d="M31.795,26.1l.235-1.291a2.885,2.885,0,0,1-1,.293c-.822,0-1.174-.646-1.174-1.35,0-1.409.7-2.172,1.526-2.172a1.96,1.96,0,0,1,1.057.352l.176-1.233a4.127,4.127,0,0,0-1.35-.293c-1.35,0-2.113,1.174-2.113,3.4,0,1.467.117,2.465,1.526,2.465A5.268,5.268,0,0,0,31.795,26.1Z" transform="translate(-7.905 -20.407)" fill="#dce5e5"/>
        <path id="Path_18872" data-name="Path 18872" d="M8.931,23.116a3.47,3.47,0,0,1,1.291-.235c.411,0,.763.059.763.411,0,.235-.059.293-.059.293H10.4c-1,0-2.113.411-2.113,1.761,0,1.057.7,1.291,1.115,1.291a1.764,1.764,0,0,0,1.233-.528l-.059.47h1.057l.47-3.228c0-1.35-1.174-1.409-1.644-1.409m.88,2.524a1.922,1.922,0,0,1-1.409,1.115.458.458,0,0,1-.47-.47c0-.293.176-.7,1.057-.7A4.8,4.8,0,0,0,11.338,24.466Z" transform="translate(-3.003 -20.768)" fill="#dce5e5"/>
        <path id="Path_18873" data-name="Path 18873" d="M13.042,26.407a4.968,4.968,0,0,0,1.35.117A1.5,1.5,0,0,0,16.153,25c0-1.467-1.409-1.174-1.409-1.761,0-.293.235-.411.646-.411.176,0,.822.059.822.059l.176-1.057a4.459,4.459,0,0,0-1.115-.117c-.88,0-1.174.352-1.174,1.526,0,1.35.88,1.233.88,1.761,0,.352-.411.411-.7.411" transform="translate(-4.12 -20.714)" fill="#dce5e5"/>
        <path id="Path_18874" data-name="Path 18874" d="M44.258,22.164a1.628,1.628,0,0,0-1.115-.587c-1.057,0-1.409,1.291-1.409,2.817,0,.939-.117,1.937.88,1.937a1.567,1.567,0,0,0,1.115-.47l-.059.411h1.174l.88-5.635M44.2,23.69c0,.646-.528,1.467-1.174,1.467-.411,0-.646-.352-.646-.939,0-.939.411-1.526.939-1.526A.9.9,0,0,1,44.2,23.69Z" transform="translate(-10.86 -20.461)" fill="#dce5e5"/>
        <path id="Path_18875" data-name="Path 18875" d="M2.5,26.2l.7-4.226L3.318,26.2H4.14L5.666,21.97,5.02,26.2H6.253l.939-5.635H5.724L4.081,24.024l-.059-3.463H3.377l-2,5.635Z" transform="translate(-1.381 -20.443)" fill="#dce5e5"/>
        <path id="Path_18876" data-name="Path 18876" d="M25.011,26.52h1.233c.352-1.937.411-3.522,1.233-3.228a4.607,4.607,0,0,1,.411-1.35h-.235c-.528,0-.939.7-.939.7L26.83,22" transform="translate(-6.932 -20.768)" fill="#dce5e5"/>
        <path id="Path_18877" data-name="Path 18877" d="M33.865,23.116a3.47,3.47,0,0,1,1.291-.235c.411,0,.763.059.763.411,0,.235-.059.293-.059.293h-.528c-1,0-2.113.411-2.113,1.761,0,1.057.7,1.291,1.115,1.291a1.764,1.764,0,0,0,1.233-.528l-.059.47h1.057l.47-3.228c0-1.35-1.174-1.409-1.644-1.409m.88,2.524a1.922,1.922,0,0,1-1.409,1.115.458.458,0,0,1-.47-.47c0-.293.176-.7,1.057-.7A5.164,5.164,0,0,0,36.272,24.466Z" transform="translate(-8.861 -20.768)" fill="#dce5e5"/>
        <path id="Path_18878" data-name="Path 18878" d="M37.9,26.52h1.233c.352-1.937.411-3.522,1.233-3.228a4.607,4.607,0,0,1,.411-1.35h-.235c-.528,0-.939.7-.939.7L39.719,22" transform="translate(-9.96 -20.768)" fill="#dce5e5"/>
      </g>
    </g>
  </g>
</svg>
