<svg xmlns="http://www.w3.org/2000/svg" width="10.685" height="10.685" viewBox="0 0 10.685 10.685">
  <path id="on-way" d="M9.123,1a.509.509,0,0,1,.509.509v.509h2.544V5.07H11.149l1.4,3.839a2.036,2.036,0,1,1-3.867,1.249H6.515a2.036,2.036,0,0,1-3.968-.115A1.018,1.018,0,0,1,2,9.141V4.053a.509.509,0,0,1,.509-.509H6.07a.509.509,0,0,1,.509.509V6.6a.509.509,0,0,0,.509.509H8.105A.509.509,0,0,0,8.614,6.6V2.018H7.088V1Zm1.526,7.632a1.017,1.017,0,1,0,.956.669L11.6,9.279A1.018,1.018,0,0,0,10.649,8.632Zm-6.105,0A1.018,1.018,0,1,0,5.562,9.649,1.018,1.018,0,0,0,4.544,8.632Zm1.018-4.07H3.018V5.579H5.562Zm5.6-1.526H9.632V4.053h1.526Z" transform="translate(-2 -1)" fill="#b19151"/>
</svg>
