<svg id="order-icon" xmlns="http://www.w3.org/2000/svg" width="12.105" height="12.105" viewBox="0 0 12.105 12.105">
  <path id="Path_28724" data-name="Path 28724" d="M0,0H12.1V12.1H0Z" fill="none"/>
  <path id="Path_28725" data-name="Path 28725" d="M8.708,7.977l-.431.431,3.566,3.566-.713.713L7.564,9.121,4,12.687l-.713-.713,4.71-4.71a2.572,2.572,0,0,1,.817-2.6c.985-.985,2.342-1.224,3.032-.535s.45,2.047-.535,3.031a2.569,2.569,0,0,1-2.6.818ZM3.641,3.772,7.029,7.159,5.6,8.586,3.641,6.624a2.017,2.017,0,0,1,0-2.853ZM10.6,6.446c.634-.634.765-1.375.535-1.6s-.971-.1-1.6.535-.765,1.375-.535,1.605S9.961,7.08,10.6,6.446Z" transform="translate(-1.512 -1.851)" fill="#b19151"/>
</svg>
