<svg xmlns="http://www.w3.org/2000/svg" width="69" height="35" viewBox="0 0 69 35">
  <g id="VISA-CARD-IMG" transform="translate(-0.164 -0.484)">
    <g id="Group_28244" data-name="Group 28244">
      <g id="Rectangle_1871" data-name="Rectangle 1871" transform="translate(0.164 0.484)" fill="#fff" stroke="#b19151" stroke-width="1.5">
        <rect width="69" height="35" rx="4" stroke="none"/>
        <rect x="0.75" y="0.75" width="67.5" height="33.5" rx="3.25" fill="none"/>
      </g>
      <g id="Group_26690" data-name="Group 26690" transform="translate(10.212 10.75)">
        <g id="visa_18_" data-name="visa(18)" transform="translate(0 0)">
          <path id="Path_18838" data-name="Path 18838" d="M184.8,194.274l2.467-13.874h3.854l-2.389,13.874Z" transform="translate(-166.995 -179.937)" fill="#3c58bf"/>
          <path id="Path_18839" data-name="Path 18839" d="M184.8,194.274l3.16-13.874h3.16l-2.389,13.874Z" transform="translate(-166.995 -179.937)" fill="#293688"/>
          <path id="Path_18840" data-name="Path 18840" d="M259.793,176.217a9.776,9.776,0,0,0-3.546-.617c-3.854,0-6.629,1.927-6.629,4.7,0,2.081,1.927,3.16,3.469,3.854s2,1.156,2,1.773c0,.925-1.233,1.387-2.312,1.387a8.378,8.378,0,0,1-3.7-.771l-.54-.231-.54,3.16a12.5,12.5,0,0,0,4.394.771c4.085,0,6.783-1.927,6.783-4.856,0-1.619-1-2.852-3.314-3.854-1.387-.694-2.235-1.079-2.235-1.773,0-.617.694-1.233,2.235-1.233a7.07,7.07,0,0,1,2.929.54l.385.154.617-3.006Z" transform="translate(-224.106 -175.6)" fill="#3c58bf"/>
          <path id="Path_18841" data-name="Path 18841" d="M259.793,176.217a9.776,9.776,0,0,0-3.546-.617c-3.854,0-5.935,1.927-5.935,4.7a4.029,4.029,0,0,0,2.775,3.854c1.542.694,2,1.156,2,1.773,0,.925-1.233,1.387-2.312,1.387a8.378,8.378,0,0,1-3.7-.771l-.54-.231-.54,3.16a12.5,12.5,0,0,0,4.394.771c4.085,0,6.783-1.927,6.783-4.856,0-1.619-1-2.852-3.314-3.854-1.387-.694-2.235-1.079-2.235-1.773,0-.617.694-1.233,2.235-1.233a7.07,7.07,0,0,1,2.929.54l.385.154.617-3.006Z" transform="translate(-224.106 -175.6)" fill="#293688"/>
          <path id="Path_18842" data-name="Path 18842" d="M366.185,180.4c-.925,0-1.619.077-2,1L358.4,194.274h4.162l.771-2.312h4.933l.462,2.312h3.7L369.191,180.4Zm-1.773,9.249c.231-.694,1.542-4.085,1.542-4.085s.308-.848.54-1.387l.231,1.31s.771,3.469.925,4.239h-3.237Z" transform="translate(-323.869 -179.937)" fill="#3c58bf"/>
          <path id="Path_18843" data-name="Path 18843" d="M367.11,180.4c-.925,0-1.619.077-2,1L358.4,194.274h4.162l.771-2.312h4.933l.463,2.312h3.7L369.191,180.4Zm-2.7,9.249c.308-.771,1.542-4.085,1.542-4.085s.308-.848.54-1.387l.231,1.31s.771,3.469.925,4.239h-3.237Z" transform="translate(-323.869 -179.937)" fill="#293688"/>
          <path id="Path_18844" data-name="Path 18844" d="M56.981,190.835l-.385-2a11.173,11.173,0,0,0-5.4-6.089l3.469,12.333h4.162L65.074,181.2H60.912Z" transform="translate(-46.267 -180.66)" fill="#3c58bf"/>
          <path id="Path_18845" data-name="Path 18845" d="M56.981,190.835l-.385-2a11.173,11.173,0,0,0-5.4-6.089l3.469,12.333h4.162L65.074,181.2H61.683Z" transform="translate(-46.267 -180.66)" fill="#293688"/>
          <path id="Path_18846" data-name="Path 18846" d="M0,180.4l.694.154c4.933,1.156,8.325,4.085,9.635,7.554l-1.387-6.552c-.231-.925-.925-1.156-1.773-1.156Z" transform="translate(0 -179.937)" fill="#ffbc00"/>
          <path id="Path_18847" data-name="Path 18847" d="M0,180.4H0c4.933,1.156,9.018,4.162,10.329,7.631l-1.31-5.473a1.881,1.881,0,0,0-1.85-1.465Z" transform="translate(0 -179.937)" fill="#f7981d"/>
          <path id="Path_18848" data-name="Path 18848" d="M0,180.4H0c4.933,1.156,9.018,4.162,10.329,7.631L9.4,185.025a2.718,2.718,0,0,0-1.619-2.235Z" transform="translate(0 -179.937)" fill="#ed7c00"/>
          <g id="Group_26689" data-name="Group 26689" transform="translate(5.01 2.004)">
            <path id="Path_18849" data-name="Path 18849" d="M61.558,204.108l-2.621-2.621L57.7,204.416l-.308-1.927A11.173,11.173,0,0,0,52,196.4l3.469,12.333h4.162Z" transform="translate(-52 -196.4)" fill="#051244"/>
            <path id="Path_18850" data-name="Path 18850" d="M188.731,292.592l-3.314-3.392-.617,3.392Z" transform="translate(-172.005 -280.259)" fill="#051244"/>
            <path id="Path_18851" data-name="Path 18851" d="M254.706,274.8h0c.308.308.462.54.385.848,0,.925-1.233,1.387-2.312,1.387a8.378,8.378,0,0,1-3.7-.771l-.54-.231-.54,3.16a12.5,12.5,0,0,0,4.393.771,7.631,7.631,0,0,0,5.627-1.927Z" transform="translate(-229.116 -267.246)" fill="#051244"/>
            <path id="Path_18852" data-name="Path 18852" d="M364,229.7h3.623l.771-2.312h4.933l.462,2.312h3.7l-1.31-5.627-4.625-4.471.231,1.233s.771,3.469.925,4.239h-3.237c.308-.771,1.542-4.085,1.542-4.085s.308-.848.54-1.387" transform="translate(-333.939 -217.365)" fill="#051244"/>
          </g>
        </g>
      </g>
    </g>
    <g id="Rectangle_17972" data-name="Rectangle 17972" transform="translate(0.164 0.484)" fill="#e8b65e" stroke="#b19151" stroke-width="1.5" opacity="0.5">
      <rect width="69" height="35" rx="4" stroke="none"/>
      <rect x="0.75" y="0.75" width="67.5" height="33.5" rx="3.25" fill="none"/>
    </g>
  </g>
</svg>
