<svg xmlns="http://www.w3.org/2000/svg" width="61.45" height="18.917" viewBox="0 0 61.45 18.917">
  <g id="visa-img" transform="translate(-32.255 -174)">
    <g id="_39134" data-name="39134" transform="translate(32.255 174)">
      <g id="Group_66597" data-name="Group 66597" transform="translate(21.482 0.315)">
        <g id="Group_66596" data-name="Group 66596">
          <path id="Path_28706" data-name="Path 28706" d="M19.845,16.8,16.722,35.126h4.995L24.842,16.8Z" transform="translate(-16.722 -16.799)" fill="#b19151"/>
        </g>
      </g>
      <g id="Group_66599" data-name="Group 66599" transform="translate(4.961 0.331)">
        <g id="Group_66598" data-name="Group 66598">
          <path id="Path_28707" data-name="Path 28707" d="M16.195,16.816,11.3,29.314l-.522-1.887a19.609,19.609,0,0,0-6.919-7.6L8.335,35.113,13.62,35.1l7.866-18.292Z" transform="translate(-3.862 -16.812)" fill="#b19151"/>
        </g>
      </g>
      <g id="Group_66601" data-name="Group 66601" transform="translate(0 0.158)">
        <g id="Group_66600" data-name="Group 66600">
          <path id="Path_28708" data-name="Path 28708" d="M9.984,18.166a2.01,2.01,0,0,0-2.176-1.489H.064L0,17.042c6.026,1.462,10.014,4.984,11.669,9.22Z" transform="translate(0 -16.677)" fill="#b19151"/>
        </g>
      </g>
      <g id="Group_66603" data-name="Group 66603" transform="translate(29.602 0)">
        <g id="Group_66602" data-name="Group 66602">
          <path id="Path_28709" data-name="Path 28709" d="M33.166,20.382a9.221,9.221,0,0,1,3.738.7l.451.212.676-3.972a12.893,12.893,0,0,0-4.474-.77c-4.936,0-8.415,2.486-8.441,6.048-.032,2.632,2.478,4.1,4.374,4.979,1.946.9,2.6,1.471,2.59,2.274-.015,1.227-1.552,1.79-2.987,1.79a10.484,10.484,0,0,1-4.7-.96l-.644-.293-.7,4.1a15.819,15.819,0,0,0,5.565.976c5.25,0,8.662-2.456,8.7-6.263.022-2.082-1.31-3.672-4.2-4.975-1.747-.85-2.816-1.416-2.806-2.274C30.3,21.2,31.211,20.382,33.166,20.382Z" transform="translate(-23.043 -16.554)" fill="#b19151"/>
        </g>
      </g>
      <g id="Group_66605" data-name="Group 66605" transform="translate(43.516 0.335)">
        <g id="Group_66604" data-name="Group 66604">
          <path id="Path_28710" data-name="Path 28710" d="M47.766,16.815H43.907a2.485,2.485,0,0,0-2.617,1.521l-7.416,16.8h5.245s.856-2.258,1.05-2.753l6.4.008c.149.64.609,2.745.609,2.745h4.634Zm-6.16,11.812c.411-1.052,1.99-5.122,1.99-5.122-.027.05.407-1.06.665-1.75l.337,1.58,1.157,5.292Z" transform="translate(-33.874 -16.815)" fill="#b19151"/>
        </g>
      </g>
    </g>
  </g>
</svg>
