<svg xmlns="http://www.w3.org/2000/svg" width="443" height="250" viewBox="0 0 443 250">
  <g id="Group_16235" data-name="Group 16235" transform="translate(11076 1991)">
    <rect id="safe_image_3_" data-name="safe_image (3)" width="443" height="250" transform="translate(-11076 -1991)" fill="#f5f7f9"/>
    <g id="Group_16234" data-name="Group 16234" transform="translate(-11146.047 -2341.417)" opacity="0.5" style="mix-blend-mode: luminosity;isolation: isolate">
      <g id="video-player-svgrepo-com" transform="translate(255.786 503.339)">
        <g id="Group_16069" data-name="Group 16069" transform="translate(0 0)">
          <path id="Path_51130" data-name="Path 51130" d="M0,102.517a5.284,5.284,0,0,0,5.268,5.268h65.9a5.284,5.284,0,0,0,5.268-5.268V56.726a5.284,5.284,0,0,0-5.268-5.268H5.268A5.284,5.284,0,0,0,0,56.726Z" transform="translate(0 -51.458)" fill="#005fad" stroke="#707070" stroke-width="1"/>
          <path id="Path_51131" data-name="Path 51131" d="M76.436,57.732V56.726a5.284,5.284,0,0,0-5.268-5.268H5.268A5.284,5.284,0,0,0,0,56.726v1.005Z" transform="translate(0 -51.458)" fill="#333e48" stroke="#707070" stroke-width="1"/>
          <rect id="Rectangle_3964" data-name="Rectangle 3964" width="1.581" height="4.968" transform="translate(0 6.274)" fill="#0071ce" stroke="#707070" stroke-width="1"/>
          <path id="Path_51132" data-name="Path 51132" d="M4.54,102.49l-.79.488h.79Z" transform="translate(-2.96 -91.736)" fill="#c3c6c8" stroke="#707070" stroke-width="1"/>
        </g>
        <path id="Path_51133" data-name="Path 51133" d="M83.936,102.517a5.284,5.284,0,0,1-5.268,5.268h-65.9A5.284,5.284,0,0,1,7.5,102.517V56.726a5.284,5.284,0,0,1,5.268-5.268h65.9a5.284,5.284,0,0,1,5.268,5.268Z" transform="translate(-5.919 -51.458)" fill="#0071ce" stroke="#707070" stroke-width="1"/>
        <g id="Group_16070" data-name="Group 16070" transform="translate(23.782 17.36)">
          <circle id="Ellipse_3" data-name="Ellipse 3" cx="16.016" cy="16.016" r="16.016" transform="translate(0 0)" fill="#fff" stroke="#707070" stroke-width="1"/>
          <path id="Path_51134" data-name="Path 51134" d="M168.205,187.468c-1.46.945-2.654.295-2.654-1.444V173.8c0-1.739,1.194-2.388,2.654-1.444l9.022,5.838a1.894,1.894,0,0,1,0,3.435Z" transform="translate(-154.445 -163.897)" fill="#1e252b" stroke="#707070" stroke-width="1"/>
        </g>
        <path id="Path_51135" data-name="Path 51135" d="M7.5,57.732V56.726a5.284,5.284,0,0,1,5.268-5.268h65.9a5.284,5.284,0,0,1,5.268,5.268v1.005Z" transform="translate(-5.919 -51.458)" fill="#1e252b" stroke="#707070" stroke-width="1"/>
        <g id="Group_16071" data-name="Group 16071" transform="translate(1.581 6.274)">
          <rect id="Rectangle_3965" data-name="Rectangle 3965" width="76.436" height="4.968" transform="translate(0 0)" fill="#5e96dc" stroke="#707070" stroke-width="1"/>
          <path id="Path_51136" data-name="Path 51136" d="M41.01,81.229,36.041,86.2H40.75l4.968-4.968Zm-9.677,0L26.365,86.2h4.708l4.968-4.968Zm-9.676,0L16.688,86.2H21.4l4.968-4.968Zm-9.677,0L7.5,85.71V86.2h4.22l4.968-4.968Zm58.059,0L65.071,86.2h4.708l4.968-4.968Zm9.676,0L74.747,86.2h4.708l4.481-4.481v-.488Zm-29.029,0L45.718,86.2h4.708l4.968-4.968Zm9.676,0L55.394,86.2H60.1l4.968-4.968Z" transform="translate(-7.5 -81.229)" fill="#fff" stroke="#707070" stroke-width="1"/>
        </g>
      </g>
      <g id="file-svgrepo-com" transform="translate(318.826 400.098)">
        <path id="Path_51137" data-name="Path 51137" d="M120.553,0H69.9A3.827,3.827,0,0,0,66,3.9V55.852l25.069,24.03h29.485a3.827,3.827,0,0,0,3.9-3.9V3.9A3.827,3.827,0,0,0,120.553,0Z" transform="translate(-66)" fill="#0ee0b8" stroke="#707070" stroke-width="1"/>
        <path id="Path_51138" data-name="Path 51138" d="M120.553,0H69.9A3.827,3.827,0,0,0,66,3.9V55.852l25.069,24.03h29.485a3.827,3.827,0,0,0,3.9-3.9V3.9A3.827,3.827,0,0,0,120.553,0Z" transform="translate(-66)" fill="#1080dd" stroke="#707070" stroke-width="1"/>
        <path id="Path_51139" data-name="Path 51139" d="M124.45,62.217V3.9a3.827,3.827,0,0,0-3.9-3.9H69.9A3.827,3.827,0,0,0,66,3.9" transform="translate(-66)" fill="#0070cc" stroke="#707070" stroke-width="1"/>
        <path id="Path_51140" data-name="Path 51140" d="M241.049,62.217V3.9a3.827,3.827,0,0,0-3.9-3.9H205.2" transform="translate(-182.599)" fill="#0667b7" stroke="#707070" stroke-width="1"/>
        <path id="Path_51141" data-name="Path 51141" d="M200.4,348.8v19.483a1.648,1.648,0,0,0,.13.779l2.987,2.858c.26,0,.39.13.649.13h20.393L200.4,348.8Z" transform="translate(-178.579 -292.168)" fill="#0070cc" stroke="#707070" stroke-width="1"/>
        <path id="Path_51142" data-name="Path 51142" d="M200.4,348.8v19.483a1.648,1.648,0,0,0,.13.779l2.987,2.858c.26,0,.39.13.649.13h10.391l-11.69-19.483Z" transform="translate(-178.579 -292.168)" fill="#0667b7" stroke="#707070" stroke-width="1"/>
        <path id="Path_51143" data-name="Path 51143" d="M91.069,367.229h0V347.1a3.827,3.827,0,0,0-3.9-3.9H66Z" transform="translate(-66 -287.478)" fill="#fff" stroke="#707070" stroke-width="1"/>
        <path id="Path_51144" data-name="Path 51144" d="M66,344l25.069,23.9h0v-20" transform="translate(-66 -288.148)" fill="#d2f3ff" stroke="#707070" stroke-width="1"/>
        <path id="Path_51145" data-name="Path 51145" d="M68.489,55.852h0V3.9a3.827,3.827,0,0,1,3.9-3.9H70.7a3.827,3.827,0,0,0-3.9,3.9V55.852h1.689Z" transform="translate(-66.67)" fill="#160e4d" stroke="#707070" stroke-width="1"/>
        <path id="Path_51146" data-name="Path 51146" d="M217.751,167.069l-6.884-6.884a1.734,1.734,0,0,0-2.6,0l-6.884,6.884a1.837,1.837,0,0,0,2.6,2.6l3.637-3.637v13.638a1.818,1.818,0,1,0,3.637,0V166.03l3.637,3.637a1.883,1.883,0,0,0,2.6,0A1.754,1.754,0,0,0,217.751,167.069Z" transform="translate(-178.914 -133.687)" fill="#0667b7" stroke="#707070" stroke-width="1"/>
        <path id="Path_51147" data-name="Path 51147" d="M208.951,150.939l-6.884-6.754a1.734,1.734,0,0,0-2.6,0l-6.884,6.884a1.837,1.837,0,0,0,2.6,2.6l3.637-3.637v13.638a1.818,1.818,0,0,0,3.637,0V150.03l3.637,3.637a1.861,1.861,0,0,0,1.3.52,1.668,1.668,0,0,0,1.3-.52A1.9,1.9,0,0,0,208.951,150.939Z" transform="translate(-171.542 -120.285)" fill="#fff" stroke="#707070" stroke-width="1"/>
      </g>
      <g id="image-svgrepo-com" transform="translate(205.047 430.393) rotate(-30)">
        <g id="Group_16068" data-name="Group 16068" transform="translate(0)">
          <g id="Group_16067" data-name="Group 16067">
            <rect id="Rectangle_3963" data-name="Rectangle 3963" width="74.77" height="54.089" transform="translate(1.591 1.591)" fill="#160e4d" stroke="#707070" stroke-width="1"/>
            <path id="Path_51127" data-name="Path 51127" d="M77.952,57.271H0V0H77.952ZM3.182,54.089H74.77V3.182H3.182Z" fill="#ecf0f1" stroke="#707070" stroke-width="1"/>
          </g>
          <circle id="Ellipse_2" data-name="Ellipse 2" cx="7.269" cy="7.269" r="7.269" transform="translate(10.231 7.954)" fill="#f3d55a" stroke="#707070" stroke-width="1"/>
          <path id="Path_51128" data-name="Path 51128" d="M37.385,19.267,35.794,17.5,16.7,0,0,18.295l8.723,8.723,6.39,6.39H37.385Z" transform="translate(37.385 20.681)" fill="#0071ce" stroke="#707070" stroke-width="1"/>
          <path id="Path_51129" data-name="Path 51129" d="M0,23.836H49.317l-6.39-6.39L25.481,0,0,22.245Z" transform="translate(3.182 30.253)" fill="#438ffe" stroke="#707070" stroke-width="1"/>
        </g>
      </g>
    </g>
  </g>
</svg>
