<svg xmlns="http://www.w3.org/2000/svg" width="115" height="125" viewBox="0 0 115 125">
  <g id="Group_16999" data-name="Group 16999" transform="translate(22423 11223)">
    <g id="Group_16998" data-name="Group 16998">
      <rect id="Rectangle_4121" data-name="Rectangle 4121" width="115" height="125" transform="translate(-22423 -11223)" fill="none"/>
      <g id="Pension_scheme" data-name="Pension scheme" transform="translate(-22712.676 -11548.002)">
        <g id="Group_16457" data-name="Group 16457" transform="translate(319.678 335)">
          <g id="Group_16455" data-name="Group 16455" transform="translate(5.828)">
            <g id="Group_16454" data-name="Group 16454" transform="translate(7.62)">
              <path id="Path_51523" data-name="Path 51523" d="M1089.29,336.7a.13.13,0,0,1-.034,0,43.06,43.06,0,0,0-15.182-1.229.133.133,0,1,1-.025-.265,43.309,43.309,0,0,1,15.276,1.237.133.133,0,0,1-.034.262Z" transform="translate(-1069.496 -335)"/>
              <path id="Path_51524" data-name="Path 51524" d="M996.951,344.01a.133.133,0,0,1-.025-.264c.688-.132,1.388-.251,2.08-.352a.133.133,0,0,1,.038.263c-.688.1-1.384.219-2.068.35Z" transform="translate(-996.818 -342.91)"/>
            </g>
            <path id="Path_51525" data-name="Path 51525" d="M864.31,384a.133.133,0,0,1-.046-.258,40.83,40.83,0,0,1,18.476-2.4.133.133,0,0,1-.028.265,40.578,40.578,0,0,0-18.356,2.381.133.133,0,0,1-.046.012Z" transform="translate(-864.177 -378.474)"/>
          </g>
          <g id="Group_16456" data-name="Group 16456" transform="translate(0 5.513)">
            <path id="Path_51526" data-name="Path 51526" d="M819.3,467.533h0l-.911-.028a.133.133,0,1,1,.008-.266l.911.028a.133.133,0,0,1,0,.266Z" transform="translate(-815.071 -465.154)"/>
            <path id="Path_51527" data-name="Path 51527" d="M763.785,465.842h0l-.911-.028a.133.133,0,0,1-.129-.137.131.131,0,0,1,.137-.129l.911.028a.133.133,0,0,1,0,.266Z" transform="translate(-762.741 -463.56)"/>
            <path id="Path_51528" data-name="Path 51528" d="M797.273,487.636h0a.133.133,0,0,1-.128-.138l.033-.911a.133.133,0,1,1,.266.01l-.033.911a.133.133,0,0,1-.138.128Z" transform="translate(-795.163 -483.27)"/>
            <path id="Path_51529" data-name="Path 51529" d="M799.282,432.131h0a.133.133,0,0,1-.128-.138l.033-.911a.131.131,0,0,1,.138-.128.133.133,0,0,1,.128.138l-.033.911a.133.133,0,0,1-.138.128Z" transform="translate(-797.057 -430.954)"/>
          </g>
        </g>
        <g id="Group_16467" data-name="Group 16467" transform="translate(292.672 347.369)">
          <rect id="Rectangle_4024" data-name="Rectangle 4024" width="54.232" height="41.704" transform="translate(97.282 60.012) rotate(180)" fill="#fff"/>
          <g id="Group_16458" data-name="Group 16458">
            <path id="Path_51530" data-name="Path 51530" d="M324.91,552.613h39.524L331.843,567.3l-36.736-.919a.119.119,0,0,1-.049-.228Z" transform="translate(-294.854 -552.48)" fill="#fff"/>
            <path id="Path_51531" data-name="Path 51531" d="M329.661,565.248h0l-36.736-.919a.252.252,0,0,1-.1-.482l29.852-13.538a.133.133,0,0,1,.055-.012h39.524a.133.133,0,0,1,.055.254L329.72,565.235A.133.133,0,0,1,329.661,565.248Zm-36.676-1.184,36.649.917,32-14.417H322.756Z" transform="translate(-292.672 -550.298)"/>
          </g>
          <path id="Path_51532" data-name="Path 51532" d="M974.035,566.4h61.145l-30.667-13.776Z" transform="translate(-934.889 -552.491)" fill="#fff"/>
          <rect id="Rectangle_4025" data-name="Rectangle 4025" width="40.22" height="41.674" transform="translate(43.032 59.937) rotate(180)" fill="#fff"/>
          <g id="Group_16459" data-name="Group 16459" transform="translate(43.05 18.308)">
            <rect id="Rectangle_4026" data-name="Rectangle 4026" width="3.898" height="41.704" transform="translate(40.117)" fill="#fff"/>
            <rect id="Rectangle_4027" data-name="Rectangle 4027" width="3.898" height="41.704" transform="translate(30.056)" fill="#fff"/>
            <rect id="Rectangle_4028" data-name="Rectangle 4028" width="3.898" height="41.704" transform="translate(19.996)" fill="#fff"/>
            <rect id="Rectangle_4029" data-name="Rectangle 4029" width="3.898" height="41.704" transform="translate(9.935)" fill="#fff"/>
            <rect id="Rectangle_4030" data-name="Rectangle 4030" width="3.898" height="41.704" fill="#fff"/>
            <rect id="Rectangle_4031" data-name="Rectangle 4031" width="3.898" height="41.704" transform="translate(50.177)" fill="#fff"/>
          </g>
          <path id="Path_51533" data-name="Path 51533" d="M722.187,869.076Z" transform="translate(-687.18 -850.761)" fill="#fff"/>
          <g id="Group_16460" data-name="Group 16460" transform="translate(42.917 59.879)">
            <rect id="Rectangle_4032" data-name="Rectangle 4032" width="13.833" height="9.449" transform="translate(13.966 9.582) rotate(180)" fill="#fff"/>
            <path id="Path_51534" data-name="Path 51534" d="M1053.64,1602.25H1039.8a.133.133,0,0,1-.133-.133v-9.449a.133.133,0,0,1,.133-.133h13.833a.133.133,0,0,1,.133.133v9.449a.133.133,0,0,1-.126.133Zm-13.7-.266h13.56V1592.8h-13.567Z" transform="translate(-1039.669 -1592.533)"/>
          </g>
          <g id="Group_16461" data-name="Group 16461" transform="translate(42.899 13.794)">
            <rect id="Rectangle_4033" data-name="Rectangle 4033" width="54.092" height="4.387" transform="translate(54.225 4.52) rotate(180)" fill="#fff"/>
            <path id="Path_51535" data-name="Path 51535" d="M1093.59,795.047H1039.5a.133.133,0,0,1-.133-.133v-4.387a.133.133,0,0,1,.133-.133h54.092a.133.133,0,0,1,.133.133v4.387a.133.133,0,0,1-.135.133Zm-53.959-.266h53.826V790.66h-53.826Z" transform="translate(-1039.37 -790.394)"/>
          </g>
          <rect id="Rectangle_4034" data-name="Rectangle 4034" width="13.839" height="9.449" transform="translate(97.012 69.461) rotate(180)" fill="#fff"/>
          <g id="Group_16462" data-name="Group 16462" transform="translate(56.749 59.879)">
            <rect id="Rectangle_4035" data-name="Rectangle 4035" width="26.212" height="9.449" transform="translate(26.345 9.582) rotate(180)" fill="#fff"/>
            <path id="Path_51536" data-name="Path 51536" d="M1306.78,1602.25h-26.21a.133.133,0,0,1-.133-.133v-9.449a.133.133,0,0,1,.133-.133h26.212a.133.133,0,0,1,.133.133v9.449a.133.133,0,0,1-.135.133Zm-26.079-.266h25.946V1592.8H1280.7Z" transform="translate(-1280.437 -1592.533)"/>
          </g>
          <g id="Group_16463" data-name="Group 16463" transform="translate(2.647 13.794)">
            <path id="Path_51537" data-name="Path 51537" d="M381.3,797.1v-4.388H341.08v4.381h0v41.7h-.028v9.449h40.212v-9.449h-6.1V797.1Zm-36.327,41.7V797.1h6.163v41.7Zm10.061,0V797.1H361.2v41.7Zm10.06,0V797.1h6.163v41.7Z" transform="translate(-340.919 -792.576)" fill="#fff"/>
            <path id="Path_51538" data-name="Path 51538" d="M379.082,846.194H338.87a.133.133,0,0,1-.133-.133v-9.449a.132.132,0,0,1,.028-.081V794.908a.132.132,0,0,1,0-.035v-4.346a.133.133,0,0,1,.133-.133h40.22a.133.133,0,0,1,.133.133v4.387a.133.133,0,0,1-.133.133H373.11v41.431h5.972a.133.133,0,0,1,.133.133v9.449a.133.133,0,0,1-.133.134ZM339,845.928h39.946v-9.183h-5.972a.133.133,0,0,1-.133-.133v-41.7a.133.133,0,0,1,.133-.133h6.013V790.66H339.036v4.248a.132.132,0,0,1,0,.035v41.669a.133.133,0,0,1-.028.082Zm30.077-9.183h-6.163a.133.133,0,0,1-.133-.133v-41.7a.133.133,0,0,1,.133-.133h6.163a.133.133,0,0,1,.133.133v41.7a.133.133,0,0,1-.13.133Zm-6.03-.266h5.9V795.047h-5.9Zm-4.031.266h-6.163a.133.133,0,0,1-.133-.133v-41.7a.133.133,0,0,1,.133-.133h6.163a.133.133,0,0,1,.133.133v41.7a.133.133,0,0,1-.13.133Zm-6.03-.266h5.9V795.047h-5.9Zm-4.031.266H342.8a.133.133,0,0,1-.133-.133v-41.7a.133.133,0,0,1,.133-.133h6.163a.133.133,0,0,1,.133.133v41.7a.133.133,0,0,1-.138.133Zm-6.03-.266h5.9V795.047h-5.9Z" transform="translate(-338.737 -790.394)"/>
          </g>
          <g id="Group_16464" data-name="Group 16464" transform="translate(59.53 61.821)">
            <path id="Path_51539" data-name="Path 51539" d="M1335.45,1626.61h-6.466a.133.133,0,1,1,0-.266h6.466a.133.133,0,0,1,0,.266Z" transform="translate(-1328.847 -1626.347)" fill="#fff"/>
            <path id="Path_51540" data-name="Path 51540" d="M1338.58,1659.48h-9.6a.133.133,0,0,1,0-.266h9.6a.133.133,0,1,1,0,.266Z" transform="translate(-1328.847 -1657.327)" fill="#fff"/>
            <path id="Path_51541" data-name="Path 51541" d="M1341.76,1692.35h-12.78a.133.133,0,0,1,0-.266h12.779a.133.133,0,1,1,0,.266Z" transform="translate(-1328.847 -1688.307)" fill="#fff"/>
            <path id="Path_51542" data-name="Path 51542" d="M1349.94,1725.22h-20.96a.133.133,0,0,1,0-.266h20.955a.133.133,0,0,1,0,.266Z" transform="translate(-1328.847 -1719.285)" fill="#fff"/>
          </g>
          <g id="Group_16465" data-name="Group 16465" transform="translate(42.917 19.774)">
            <path id="Path_51543" data-name="Path 51543" d="M1039.8,937.7a.133.133,0,0,1-.133-.133V899.4a.133.133,0,1,1,.266,0v38.17A.133.133,0,0,1,1039.8,937.7Z" transform="translate(-1039.669 -898.988)"/>
            <path id="Path_51544" data-name="Path 51544" d="M1981.02,934.851a.133.133,0,0,1-.133-.133v-40.1a.133.133,0,1,1,.266,0v40.1A.133.133,0,0,1,1981.02,934.851Z" transform="translate(-1926.808 -894.48)"/>
          </g>
          <g id="Group_16466" data-name="Group 16466" transform="translate(83.04 59.879)">
            <rect id="Rectangle_4036" data-name="Rectangle 4036" width="13.839" height="9.449" transform="translate(13.973 9.582) rotate(180)" fill="#fff"/>
            <path id="Path_51545" data-name="Path 51545" d="M1752.02,1602.25h-13.839a.133.133,0,0,1-.133-.133v-9.449a.132.132,0,0,1,.039-.094.134.134,0,0,1,.094-.039h13.839a.133.133,0,0,1,.133.133v9.449A.133.133,0,0,1,1752.02,1602.25Zm-13.706-.266h13.573V1592.8H1738.31Z" transform="translate(-1738.044 -1592.533)"/>
          </g>
        </g>
        <g id="Group_16485" data-name="Group 16485" transform="translate(331.469 341.924)">
          <g id="Group_16477" data-name="Group 16477">
            <g id="Group_16473" data-name="Group 16473">
              <g id="Group_16469" data-name="Group 16469" transform="translate(0 9.236)">
                <path id="Path_51546" data-name="Path 51546" d="M1013.03,703.359h55.537a2.763,2.763,0,0,0,2.766-2.76V623.362c-.04-2.068-1.038-3.255-2.763-3.255h-55.54a2.8,2.8,0,0,0-2.763,2.357V700.6a2.763,2.763,0,0,0,2.763,2.76Z" transform="translate(-1007.834 -619.887)" fill="#160e4d"/>
                <g id="Group_16468" data-name="Group 16468">
                  <path id="Path_51547" data-name="Path 51547" d="M973.052,702.006H1028.6a2.766,2.766,0,0,0,2.766-2.766V621.847c-.04-2.073-1.038-3.251-2.763-3.251H973.051a2.8,2.8,0,0,0-2.763,2.364v78.281A2.766,2.766,0,0,0,973.052,702.006Z" transform="translate(-970.153 -618.462)" fill="#fff"/>
                  <path id="Path_51548" data-name="Path 51548" d="M1026.41,699.956H970.869a2.9,2.9,0,0,1-2.9-2.9V618.775a.161.161,0,0,1,0-.021,2.925,2.925,0,0,1,2.9-2.475h55.546c1.8,0,2.855,1.233,2.9,3.382v77.4a2.9,2.9,0,0,1-2.9,2.9Zm-58.176-81.169v78.27a2.636,2.636,0,0,0,2.633,2.633h55.544a2.633,2.633,0,0,0,2.633-2.633V619.664c-.039-2.01-.973-3.118-2.63-3.118H970.868a2.66,2.66,0,0,0-2.63,2.24Z" transform="translate(-967.97 -616.279)"/>
                </g>
              </g>
              <g id="Group_16472" data-name="Group 16472" transform="translate(17.193)">
                <g id="Group_16470" data-name="Group 16470" transform="translate(0 6.806)">
                  <rect id="Rectangle_4037" data-name="Rectangle 4037" width="28.252" height="8.403" rx="4.201" transform="translate(0.133 0.133)" fill="#fff"/>
                  <path id="Path_51549" data-name="Path 51549" d="M1294.22,582.654h-25.484a1.519,1.519,0,0,1-1.517-1.517V575.5a1.519,1.519,0,0,1,1.517-1.517h25.484a1.519,1.519,0,0,1,1.517,1.517v5.634A1.519,1.519,0,0,1,1294.22,582.654Zm-25.484-8.4a1.253,1.253,0,0,0-1.251,1.251v5.634a1.253,1.253,0,0,0,1.251,1.251h25.484a1.253,1.253,0,0,0,1.251-1.251V575.5a1.253,1.253,0,0,0-1.251-1.251Z" transform="translate(-1267.224 -573.985)"/>
                </g>
                <g id="Group_16471" data-name="Group 16471" transform="translate(9.285)">
                  <path id="Path_51550" data-name="Path 51550" d="M1435.98,457.842a4.828,4.828,0,0,0-4.827,4.837v7.249a1.18,1.18,0,0,0,1.18,1.18h7.293a1.18,1.18,0,0,0,1.18-1.18v-7.249a4.828,4.828,0,0,0-4.826-4.837Zm.27,6.625a1.965,1.965,0,1,1,1.693-1.693,1.965,1.965,0,0,1-1.693,1.693Z" transform="translate(-1431.025 -457.709)" fill="#fff"/>
                  <path id="Path_51551" data-name="Path 51551" d="M1437.45,469.057h-7.293a1.314,1.314,0,0,1-1.313-1.313V460.5a4.96,4.96,0,1,1,9.92,0v7.249A1.314,1.314,0,0,1,1437.45,469.057Zm-3.646-13.265a4.7,4.7,0,0,0-4.694,4.7v7.249a1.048,1.048,0,0,0,1.047,1.047h7.293a1.048,1.048,0,0,0,1.047-1.047V460.5a4.7,4.7,0,0,0-4.7-4.708Zm.015,6.641a2.1,2.1,0,1,1,.272-.017,2.17,2.17,0,0,1-.271.017Zm0-3.93a1.9,1.9,0,0,0-.238.015,1.786,1.786,0,1,0,.229-.018Z" transform="translate(-1428.842 -455.526)"/>
                </g>
              </g>
            </g>
            <g id="Group_16476" data-name="Group 16476" transform="translate(5.852 21.749)">
              <g id="Group_16474" data-name="Group 16474">
                <path id="Path_51552" data-name="Path 51552" d="M1095.64,1046.52h-24.065a1.753,1.753,0,0,1-1.751-1.751V1010.78a.133.133,0,1,1,.266,0v33.989a1.486,1.486,0,0,0,1.485,1.484h24.065a.133.133,0,0,1,0,.266Z" transform="translate(-1069.82 -1000.504)"/>
                <path id="Path_51553" data-name="Path 51553" d="M1769.19,1630.67h-3.924a.133.133,0,0,1,0-.266h3.924a.133.133,0,1,1,0,.266Z" transform="translate(-1725.182 -1584.658)" fill="#fff"/>
                <path id="Path_51554" data-name="Path 51554" d="M1743.55,854.473a.133.133,0,0,1-.133-.133l-.022-18.5a1.486,1.486,0,0,0-1.485-1.485h-11.865a.133.133,0,1,1,0-.266h11.865a1.753,1.753,0,0,1,1.751,1.751l.022,18.5a.133.133,0,0,1-.133.133Z" transform="translate(-1691.992 -834.085)"/>
                <path id="Path_51555" data-name="Path 51555" d="M1498.59,1102.57h-28.327a.133.133,0,1,1,0-.266h28.327a.133.133,0,1,1,0,.266Z" transform="translate(-1447.13 -1086.892)"/>
                <path id="Path_51556" data-name="Path 51556" d="M1420.62,1234.7h-5.969a.133.133,0,1,1,0-.266h5.969a.133.133,0,1,1,0,.266Z" transform="translate(-1394.713 -1211.437)"/>
                <path id="Path_51557" data-name="Path 51557" d="M1734.36,973.641h-14.025a.133.133,0,1,1,0-.266h14.025a.133.133,0,1,1,0,.266Z" transform="translate(-1682.834 -965.373)"/>
                <path id="Path_51558" data-name="Path 51558" d="M1241.62,973.641h-12.959a.133.133,0,1,1,0-.266h12.959a.133.133,0,1,1,0,.266Z" transform="translate(-1219.413 -965.373)"/>
                <path id="Path_51559" data-name="Path 51559" d="M1277.5,835.4h-10.148a.133.133,0,1,1,0-.266H1277.5a.133.133,0,1,1,0,.266Z" transform="translate(-1255.883 -835.076)"/>
                <path id="Path_51560" data-name="Path 51560" d="M1072.93,1234.7h-2.972a.133.133,0,0,1,0-.266h2.972a.133.133,0,1,1,0,.266Z" transform="translate(-1069.82 -1211.437)"/>
                <path id="Path_51561" data-name="Path 51561" d="M1442.29,1366.84h-3.151a.133.133,0,1,1,0-.266h3.151a.133.133,0,0,1,0,.266Z" transform="translate(-1417.799 -1335.98)"/>
                <path id="Path_51562" data-name="Path 51562" d="M1088.69,1366.84h-18.733a.133.133,0,1,1,0-.266h18.733a.133.133,0,0,1,0,.266Z" transform="translate(-1069.82 -1335.98)"/>
                <path id="Path_51563" data-name="Path 51563" d="M1919.64,1498.97h-3.719a.133.133,0,1,1,0-.266h3.719a.133.133,0,0,1,0,.266Z" transform="translate(-1867.188 -1460.525)" fill="#fff"/>
                <path id="Path_51564" data-name="Path 51564" d="M1094.85,1498.97h-24.894a.133.133,0,1,1,0-.266h24.894a.133.133,0,0,1,0,.266Z" transform="translate(-1069.82 -1460.525)"/>
              </g>
              <g id="Group_16475" data-name="Group 16475" transform="translate(5.687 50.4)">
                <path id="Path_51565" data-name="Path 51565" d="M1214.5,1714.03h-16.12a1.345,1.345,0,0,1,0-2.69h16.12a1.345,1.345,0,1,1,0,2.69Zm-16.12-2.424a1.079,1.079,0,1,0,0,2.158h16.12a1.079,1.079,0,0,0,0-2.158Z" transform="translate(-1195.415 -1711.343)"/>
                <path id="Path_51566" data-name="Path 51566" d="M1188.65,1801.48h-18.5a1.345,1.345,0,0,1,0-2.69h18.5a1.345,1.345,0,1,1,0,2.69Zm-18.5-2.424a1.079,1.079,0,1,0,0,2.158h18.5a1.079,1.079,0,0,0,0-2.158Z" transform="translate(-1168.799 -1793.762)"/>
              </g>
            </g>
          </g>
          <g id="Group_16484" data-name="Group 16484" transform="translate(31.61 43.008)">
            <g id="Group_16479" data-name="Group 16479">
              <path id="Path_51567" data-name="Path 51567" d="M1595.99,1204.12h-31a2.027,2.027,0,0,0-2.027,2.027v11.612l-2.075,37.451a2.027,2.027,0,0,0,2.024,2.139h31a2.027,2.027,0,0,0,2.024-1.914l2.087-37.613v-11.676a2.027,2.027,0,0,0-2.033-2.026Z" transform="translate(-1558.426 -1204.118)" fill="#160e4d"/>
              <path id="Path_51568" data-name="Path 51568" d="M1555.9,1207.14h-31.626a1.716,1.716,0,0,0-1.716,1.716v11.665l-2.077,37.686a1.716,1.716,0,0,0,1.714,1.81h31.621a1.716,1.716,0,0,0,1.714-1.621l2.087-37.774v-11.766a1.716,1.716,0,0,0-1.717-1.716Z" transform="translate(-1520.344 -1206.966)" fill="#fff"/>
              <path id="Path_51569" data-name="Path 51569" d="M1551.63,1257.97h-31.621a1.849,1.849,0,0,1-1.846-1.951l.113-2.057a.13.13,0,0,1,.14-.125.133.133,0,0,1,.125.14l-.113,2.056a1.583,1.583,0,0,0,1.581,1.67h31.621a1.583,1.583,0,0,0,1.581-1.5l2.087-37.774v-11.758a1.585,1.585,0,0,0-1.583-1.583h-31.626a1.585,1.585,0,0,0-1.583,1.583v11.665l-1.554,28.2a.133.133,0,0,1-.266-.015l1.554-28.2v-11.657a1.851,1.851,0,0,1,1.849-1.849h31.626a1.851,1.851,0,0,1,1.849,1.849v11.766l-2.087,37.782A1.849,1.849,0,0,1,1551.63,1257.97Z" transform="translate(-1518.16 -1204.783)"/>
              <path id="Path_51570" data-name="Path 51570" d="M1617.9,1438.91h-31.312a.133.133,0,1,1,0-.266H1617.9a.133.133,0,1,1,0,.266Z" transform="translate(-1582.528 -1425.17)"/>
              <g id="Group_16478" data-name="Group 16478" transform="translate(5.68 3.312)">
                <path id="Rectangle_4038" data-name="Rectangle 4038" d="M3.469,0H24.388a3.47,3.47,0,0,1,3.47,3.47h0a3.469,3.469,0,0,1-3.469,3.469H3.47A3.47,3.47,0,0,1,0,3.469H0A3.469,3.469,0,0,1,3.469,0Z" transform="translate(0.133 0.133)" fill="#fff"/>
                <path id="Path_51571" data-name="Path 51571" d="M1643.65,1268.97H1618.5a1.49,1.49,0,0,1-1.488-1.488v-4.229a1.49,1.49,0,0,1,1.488-1.488h25.147a1.49,1.49,0,0,1,1.488,1.488v4.229a1.49,1.49,0,0,1-1.488,1.488Zm-25.147-6.939a1.224,1.224,0,0,0-1.222,1.222v4.229a1.223,1.223,0,0,0,1.222,1.222h25.147a1.223,1.223,0,0,0,1.222-1.222v-4.229a1.224,1.224,0,0,0-1.222-1.222Z" transform="translate(-1617.019 -1261.761)"/>
              </g>
            </g>
            <g id="Group_16480" data-name="Group 16480" transform="translate(12.892 5.303)">
              <path id="Path_51572" data-name="Path 51572" d="M1887.66,1299.65h-9.178a.891.891,0,0,1-.89-.89v-1.443a.891.891,0,0,1,.89-.89h9.178a.891.891,0,0,1,.89.89v1.443A.891.891,0,0,1,1887.66,1299.65Zm-9.178-2.956a.625.625,0,0,0-.624.624v1.443a.625.625,0,0,0,.624.624h9.178a.624.624,0,0,0,.624-.624v-1.443a.625.625,0,0,0-.624-.624Z" transform="translate(-1869.831 -1296.425)"/>
              <path id="Path_51573" data-name="Path 51573" d="M1747.81,1299.65h-4.367a.891.891,0,0,1-.89-.89v-1.443a.891.891,0,0,1,.89-.89h4.367a.891.891,0,0,1,.89.89v1.443a.891.891,0,0,1-.89.89Zm-4.367-2.956a.625.625,0,0,0-.624.624v1.443a.625.625,0,0,0,.624.624h4.367a.625.625,0,0,0,.624-.624v-1.443a.625.625,0,0,0-.624-.624Z" transform="translate(-1742.553 -1296.425)"/>
            </g>
            <g id="Group_16483" data-name="Group 16483" transform="translate(2.085 15.468)">
              <g id="Group_16481" data-name="Group 16481" transform="translate(0 5.993)">
                <path id="Path_51574" data-name="Path 51574" d="M1710.64,1856.78h-4.431a1.016,1.016,0,0,1-1.014-1.076l.25-4.228a1.017,1.017,0,0,1,1.014-.956h4.431a1.016,1.016,0,0,1,1.014,1.076l-.25,4.228a1.017,1.017,0,0,1-1.014.956Zm-4.18-5.994a.751.751,0,0,0-.749.705l-.25,4.228a.75.75,0,0,0,.749.794h4.431a.751.751,0,0,0,.749-.7h0l.25-4.228a.75.75,0,0,0-.749-.794Z" transform="translate(-1696.535 -1834.841)"/>
                <path id="Path_51575" data-name="Path 51575" d="M1853.88,1856.78h-4.431a1.016,1.016,0,0,1-1.014-1.076l.25-4.228a1.017,1.017,0,0,1,1.014-.956h4.431a1.016,1.016,0,0,1,1.014,1.076l-.25,4.228A1.017,1.017,0,0,1,1853.88,1856.78Zm-4.18-5.994a.751.751,0,0,0-.749.705l-.251,4.228a.75.75,0,0,0,.749.794h4.431a.751.751,0,0,0,.749-.706l.25-4.228a.75.75,0,0,0-.749-.794Zm5.062,5.03Z" transform="translate(-1831.544 -1834.841)"/>
                <path id="Path_51576" data-name="Path 51576" d="M1703.14,1991.3h-4.431a1.016,1.016,0,0,1-1.014-1.075l.252-4.343a1.017,1.017,0,0,1,1.014-.957h4.431A1.016,1.016,0,0,1,1704.4,1986l-.253,4.343a1.017,1.017,0,0,1-1.007.957Zm-4.178-6.109a.75.75,0,0,0-.749.706l-.252,4.343a.75.75,0,0,0,.749.793h4.431a.75.75,0,0,0,.749-.706l.252-4.343a.75.75,0,0,0-.749-.793Zm5.06,5.144Z" transform="translate(-1689.46 -1961.531)"/>
                <path id="Path_51577" data-name="Path 51577" d="M1846.37,1991.3h-4.431a1.016,1.016,0,0,1-1.014-1.075l.252-4.343a1.017,1.017,0,0,1,1.014-.957h4.431a1.016,1.016,0,0,1,1.014,1.075l-.253,4.343a1.017,1.017,0,0,1-1.013.957Zm-4.179-6.109a.75.75,0,0,0-.749.706l-.252,4.343a.75.75,0,0,0,.749.793h4.431a.75.75,0,0,0,.749-.706l.252-4.343a.75.75,0,0,0-.749-.793Z" transform="translate(-1824.469 -1961.531)"/>
                <path id="Path_51578" data-name="Path 51578" d="M1574.89,1720.35h-4.431a1.016,1.016,0,0,1-1.014-1.076l.25-4.228a1.017,1.017,0,0,1,1.014-.956h4.431a1.016,1.016,0,0,1,1.014,1.076l-.25,4.228a1.017,1.017,0,0,1-1.014.956Zm-4.18-5.994a.751.751,0,0,0-.749.706l-.25,4.228a.75.75,0,0,0,.749.794h4.431a.751.751,0,0,0,.749-.7l.25-4.228a.75.75,0,0,0-.749-.794Z" transform="translate(-1568.585 -1706.257)"/>
                <path id="Path_51579" data-name="Path 51579" d="M1718.13,1720.35h-4.43a1.016,1.016,0,0,1-1.014-1.076l.25-4.228a1.017,1.017,0,0,1,1.014-.956h4.431a1.016,1.016,0,0,1,1.014,1.076l-.25,4.228A1.017,1.017,0,0,1,1718.13,1720.35Zm-4.18-5.994a.751.751,0,0,0-.749.706l-.25,4.228a.75.75,0,0,0,.749.794h4.431a.75.75,0,0,0,.749-.7l.25-4.228a.75.75,0,0,0-.749-.794Z" transform="translate(-1703.592 -1706.257)"/>
                <path id="Path_51580" data-name="Path 51580" d="M1861.37,1720.35h-4.431a1.016,1.016,0,0,1-1.014-1.076l.25-4.228a1.017,1.017,0,0,1,1.014-.956h4.431a1.016,1.016,0,0,1,1.014,1.076l-.25,4.228a1.017,1.017,0,0,1-1.014.956Zm-4.18-5.994a.751.751,0,0,0-.749.706l-.251,4.228a.75.75,0,0,0,.749.794h4.431a.751.751,0,0,0,.749-.7l.25-4.228a.75.75,0,0,0-.749-.794Zm5.062,5.03Z" transform="translate(-1838.601 -1706.257)"/>
                <path id="Path_51581" data-name="Path 51581" d="M2004.61,1720.35h-4.431a1.016,1.016,0,0,1-1.014-1.076l.25-4.228a1.017,1.017,0,0,1,1.014-.956h4.431a1.016,1.016,0,0,1,1.014,1.076l-.25,4.228a1.017,1.017,0,0,1-1.014.956Zm-4.181-5.994a.751.751,0,0,0-.749.706l-.25,4.228a.75.75,0,0,0,.749.794h4.431a.751.751,0,0,0,.748-.7l.251-4.228a.75.75,0,0,0-.749-.794Zm5.062,5.03Z" transform="translate(-1973.609 -1706.257)"/>
                <path id="Path_51582" data-name="Path 51582" d="M1582.41,1583.93h-4.431a1.016,1.016,0,0,1-1.014-1.076l.25-4.228a1.017,1.017,0,0,1,1.014-.956h4.431a1.016,1.016,0,0,1,1.014,1.076l-.25,4.228A1.017,1.017,0,0,1,1582.41,1583.93Zm-4.18-5.993a.751.751,0,0,0-.749.706l-.25,4.228a.75.75,0,0,0,.749.794h4.431a.751.751,0,0,0,.749-.7l.25-4.228a.75.75,0,0,0-.749-.794Z" transform="translate(-1575.669 -1577.674)"/>
                <path id="Path_51583" data-name="Path 51583" d="M1725.65,1583.93h-4.431a1.016,1.016,0,0,1-1.014-1.076l.25-4.228a1.017,1.017,0,0,1,1.014-.956h4.431a1.016,1.016,0,0,1,1.014,1.076l-.25,4.228A1.017,1.017,0,0,1,1725.65,1583.93Zm-4.18-5.993a.751.751,0,0,0-.749.706l-.25,4.228a.75.75,0,0,0,.749.794h4.431a.751.751,0,0,0,.749-.7l.25-4.228a.75.75,0,0,0-.749-.794Z" transform="translate(-1710.677 -1577.674)"/>
                <path id="Path_51584" data-name="Path 51584" d="M1868.88,1583.93h-4.431a1.016,1.016,0,0,1-1.014-1.076l.25-4.228a1.017,1.017,0,0,1,1.014-.956h4.431a1.016,1.016,0,0,1,1.014,1.076l-.25,4.228A1.017,1.017,0,0,1,1868.88,1583.93Zm-4.18-5.993a.751.751,0,0,0-.749.706l-.25,4.228a.75.75,0,0,0,.749.794h4.431a.751.751,0,0,0,.749-.7l.25-4.228a.75.75,0,0,0-.749-.794Z" transform="translate(-1845.685 -1577.674)"/>
                <path id="Path_51585" data-name="Path 51585" d="M2012.12,1583.93h-4.431a1.016,1.016,0,0,1-1.014-1.076l.25-4.228a1.017,1.017,0,0,1,1.014-.956h4.431a1.016,1.016,0,0,1,1.014,1.076l-.25,4.228A1.017,1.017,0,0,1,2012.12,1583.93Zm-4.18-5.993a.751.751,0,0,0-.749.7l-.25,4.228a.75.75,0,0,0,.749.794h4.431a.751.751,0,0,0,.749-.7l.25-4.228a.75.75,0,0,0-.749-.794Z" transform="translate(-1980.694 -1577.674)"/>
                <path id="Path_51586" data-name="Path 51586" d="M1567.4,1856.78h-4.431a1.016,1.016,0,0,1-1.014-1.076l.25-4.228a1.017,1.017,0,0,1,1.014-.956h4.431a1.016,1.016,0,0,1,1.014,1.076l-.25,4.228A1.017,1.017,0,0,1,1567.4,1856.78Zm-4.18-5.994a.751.751,0,0,0-.749.705l-.25,4.228a.75.75,0,0,0,.748.794h4.431a.751.751,0,0,0,.749-.7h0l.25-4.228a.75.75,0,0,0-.749-.794Z" transform="translate(-1561.527 -1834.841)"/>
                <path id="Path_51587" data-name="Path 51587" d="M1559.9,1991.3h-4.431a1.016,1.016,0,0,1-1.014-1.075l.252-4.343a1.017,1.017,0,0,1,1.014-.957h4.431a1.016,1.016,0,0,1,1.014,1.075l-.252,4.343a1.017,1.017,0,0,1-1.014.957Zm-4.179-6.109a.75.75,0,0,0-.749.706l-.252,4.343a.75.75,0,0,0,.749.793h4.431a.75.75,0,0,0,.749-.706l.252-4.343a.75.75,0,0,0-.749-.793Zm5.06,5.144Z" transform="translate(-1554.452 -1961.531)"/>
                <path id="Path_51588" data-name="Path 51588" d="M1989.59,1863.72h-4.431a1.016,1.016,0,0,1-1.014-1.073l.685-12.1a1.017,1.017,0,0,1,1.014-.958h4.431a1.016,1.016,0,0,1,1.014,1.073l-.685,12.105a1.016,1.016,0,0,1-1.014.958Zm-3.746-13.871a.75.75,0,0,0-.749.707l-.685,12.1a.75.75,0,0,0,.749.792h4.431a.75.75,0,0,0,.749-.707l.685-12.1a.75.75,0,0,0-.749-.792Z" transform="translate(-1959.454 -1833.962)"/>
              </g>
              <g id="Group_16482" data-name="Group 16482" transform="translate(1.823)">
                <path id="Path_51589" data-name="Path 51589" d="M1591.9,1476.39h-4.967a.749.749,0,0,1-.747-.794l.094-1.536a.749.749,0,0,1,.747-.7H1592a.748.748,0,0,1,.747.794l-.093,1.536a.75.75,0,0,1-.754.7Zm-5.355-2.313-.094,1.536a.482.482,0,0,0,.481.511h4.967a.483.483,0,0,0,.482-.453l.093-1.536a.482.482,0,0,0-.481-.511h-4.967a.483.483,0,0,0-.476.446Z" transform="translate(-1586.189 -1473.353)"/>
                <path id="Path_51590" data-name="Path 51590" d="M1735.14,1476.39h-4.967a.749.749,0,0,1-.747-.794l.093-1.536.133.008-.133-.008a.75.75,0,0,1,.747-.7h4.967a.749.749,0,0,1,.747.794l-.094,1.536a.75.75,0,0,1-.746.7Zm-4.873-2.766a.483.483,0,0,0-.482.453l-.093,1.536a.483.483,0,0,0,.482.511h4.967a.483.483,0,0,0,.481-.453l.093-1.536a.482.482,0,0,0-.481-.511Z" transform="translate(-1721.197 -1473.353)"/>
                <path id="Path_51591" data-name="Path 51591" d="M1878.38,1476.39h-4.967a.748.748,0,0,1-.747-.794l.093-1.536.133.008-.133-.008a.749.749,0,0,1,.747-.7h4.967a.748.748,0,0,1,.747.794l-.094,1.536a.749.749,0,0,1-.746.7Zm-4.873-2.766a.483.483,0,0,0-.481.453l-.093,1.536a.483.483,0,0,0,.481.511h4.967a.483.483,0,0,0,.481-.453l.093-1.536a.482.482,0,0,0-.481-.511Z" transform="translate(-1856.205 -1473.353)"/>
                <path id="Path_51592" data-name="Path 51592" d="M2018.31,1476.09l-.093,1.533a.615.615,0,0,0,.614.653h4.967a.615.615,0,0,0,.614-.578l.093-1.533a.615.615,0,0,0-.614-.653h-4.967a.615.615,0,0,0-.614.578Z" transform="translate(-1993.397 -1475.387)" fill="#160e4d"/>
              </g>
            </g>
          </g>
        </g>
        <g id="Group_16513" data-name="Group 16513" transform="translate(295.241 353.682)">
          <g id="Group_16486" data-name="Group 16486" transform="translate(59.736 3.44)">
            <ellipse id="Ellipse_19" data-name="Ellipse 19" cx="6.768" cy="7.007" rx="6.768" ry="7.007" transform="translate(0 4.904) rotate(-21.243)" fill="#fff"/>
            <path id="Path_51593" data-name="Path 51593" d="M1417.55,766.891a7.223,7.223,0,0,1-7.089-7.067,6.992,6.992,0,0,1,1.951-5.106,6.652,6.652,0,0,1,4.781-2.046h.039a6.966,6.966,0,0,1,4.671,1.82.134.134,0,1,1-.178.2,6.7,6.7,0,0,0-4.493-1.751h-.038a6.388,6.388,0,0,0-4.591,1.965,6.728,6.728,0,0,0-1.877,4.913,6.956,6.956,0,0,0,6.823,6.808h.038a6.388,6.388,0,0,0,4.591-1.965,6.73,6.73,0,0,0,1.877-4.913,7.07,7.07,0,0,0-.477-2.366.134.134,0,1,1,.248-.1,7.332,7.332,0,0,1,.495,2.455,6.993,6.993,0,0,1-1.951,5.106,6.652,6.652,0,0,1-4.781,2.046Z" transform="translate(-1408.549 -750.799)"/>
            <path id="Path_51594" data-name="Path 51594" d="M1492.75,812.046l.027-.968a3.846,3.846,0,0,1-1.675-.448l.331-1.19a3.379,3.379,0,0,0,1.635.458c.566,0,.959-.219.971-.626.011-.387-.3-.633-1.027-.892-1.052-.373-1.762-.886-1.734-1.875a1.917,1.917,0,0,1,1.729-1.8l.027-.968.973.006-.026.9a3.444,3.444,0,0,1,1.43.344l-.32,1.15a3.173,3.173,0,0,0-1.42-.354c-.645,0-.862.28-.87.566-.01.336.332.552,1.167.883,1.169.435,1.63,1,1.6,1.915a1.987,1.987,0,0,1-1.82,1.875l-.029,1.039Z" transform="translate(-1484.552 -798.925)" fill="#438ffe"/>
          </g>
          <g id="Group_16487" data-name="Group 16487" transform="translate(40.179 19.109)">
            <ellipse id="Ellipse_20" data-name="Ellipse 20" cx="6.779" cy="6.995" rx="6.779" ry="6.995" transform="translate(0 8.498) rotate(-38.83)" fill="#fff"/>
            <path id="Path_51595" data-name="Path 51595" d="M1089.96,1053.42a7.282,7.282,0,0,1-6.455-3.981,7.008,7.008,0,0,1-.427-5.446,6.7,6.7,0,0,1,3.442-3.924,6.953,6.953,0,0,1,5.031-.4.133.133,0,0,1-.076.255,6.683,6.683,0,0,0-4.839.382,6.432,6.432,0,0,0-3.306,3.77,6.744,6.744,0,0,0,.412,5.24,6.916,6.916,0,0,0,9.106,3.173,6.432,6.432,0,0,0,3.306-3.77,6.744,6.744,0,0,0-.412-5.24,7.036,7.036,0,0,0-1.443-1.929.133.133,0,1,1,.182-.193,7.3,7.3,0,0,1,1.5,2,7.008,7.008,0,0,1,.427,5.445,6.7,6.7,0,0,1-3.441,3.924,6.844,6.844,0,0,1-3.007.694Z" transform="translate(-1080.074 -1036.704)"/>
            <path id="Path_51596" data-name="Path 51596" d="M1154.24,1099.37l.343-.9a3.864,3.864,0,0,1-1.435-.978l.7-1.014a3.392,3.392,0,0,0,1.394.974c.533.19.977.111,1.122-.27.137-.362-.076-.7-.678-1.183-.871-.7-1.373-1.421-1.023-2.345a1.909,1.909,0,0,1,2.223-1.13l.343-.9.917.328-.317.838a3.459,3.459,0,0,1,1.237.8l-.679.979a3.187,3.187,0,0,0-1.224-.8c-.608-.217-.906-.021-1.006.246-.119.314.133.631.812,1.22.962.8,1.212,1.482.887,2.339a1.978,1.978,0,0,1-2.333,1.167l-.368.971Z" transform="translate(-1146.46 -1085.933)" fill="#438ffe"/>
          </g>
          <g id="Group_16512" data-name="Group 16512">
            <g id="Group_16488" data-name="Group 16488" transform="translate(33.155 1.26)">
              <ellipse id="Ellipse_21" data-name="Ellipse 21" cx="7.013" cy="6.763" rx="7.013" ry="6.763" transform="translate(0 13.942) rotate(-83.742)" fill="#fff"/>
              <path id="Path_51597" data-name="Path 51597" d="M931.607,706.213a6.647,6.647,0,0,1-3.556-1.036,7.268,7.268,0,0,1-2.255-9.807,6.937,6.937,0,0,1,4.357-3.258,6.637,6.637,0,0,1,5.138.846,7.024,7.024,0,0,1,3.008,4.074.133.133,0,0,1-.256.071,6.758,6.758,0,0,0-2.894-3.921,6.374,6.374,0,0,0-4.933-.812,6.672,6.672,0,0,0-4.19,3.135,7,7,0,0,0,2.168,9.446,6.374,6.374,0,0,0,4.933.812,6.673,6.673,0,0,0,4.19-3.135,7.062,7.062,0,0,0,.858-2.255.133.133,0,1,1,.261.051,7.324,7.324,0,0,1-.89,2.339,6.935,6.935,0,0,1-4.357,3.258,6.733,6.733,0,0,1-1.582.192Z" transform="translate(-924.183 -691.358)"/>
              <path id="Path_51598" data-name="Path 51598" d="M999.549,755.8l-.492-.832a3.849,3.849,0,0,1-1.653.525l-.354-1.184a3.378,3.378,0,0,0,1.625-.495c.479-.3.693-.7.486-1.052-.2-.333-.59-.373-1.343-.2-1.087.252-1.96.2-2.463-.648a1.93,1.93,0,0,1,.5-2.455l-.492-.832.824-.52.456.771a3.444,3.444,0,0,1,1.391-.48l.342,1.143a3.176,3.176,0,0,0-1.388.466c-.547.345-.578.7-.433.946.171.289.574.287,1.455.117,1.219-.263,1.907-.036,2.374.753a2,2,0,0,1-.539,2.564l.529.893Z" transform="translate(-990.473 -744.319)" fill="#438ffe"/>
            </g>
            <g id="Group_16511" data-name="Group 16511">
              <g id="Group_16498" data-name="Group 16498" transform="translate(0.471 36.528)">
                <g id="Group_16492" data-name="Group 16492" transform="translate(0.191 42.796)">
                  <g id="Group_16489" data-name="Group 16489" transform="translate(1.103)">
                    <path id="Path_51599" data-name="Path 51599" d="M370.428,2047.57l3.81-.313-.148-.411a7.834,7.834,0,0,1-.452-3.02l.03-.633-2.725.505Z" transform="translate(-370.295 -2043.066)" fill="#fff"/>
                    <path id="Path_51600" data-name="Path 51600" d="M368.246,2045.53a.133.133,0,0,1-.132-.151l.514-3.87a.133.133,0,0,1,.108-.113l2.725-.5a.133.133,0,0,1,.157.137l-.03.633a7.662,7.662,0,0,0,.445,2.968l.148.411a.133.133,0,0,1-.114.177l-3.81.313Zm.634-3.89-.48,3.611,3.472-.285-.089-.247a7.926,7.926,0,0,1-.46-3.071l.022-.465Z" transform="translate(-368.113 -2040.884)"/>
                  </g>
                  <g id="Group_16491" data-name="Group 16491" transform="translate(0 2.025)">
                    <g id="Group_16490" data-name="Group 16490">
                      <path id="Path_51601" data-name="Path 51601" d="M356.478,2078.55a7.1,7.1,0,0,1,.682.635,8.263,8.263,0,0,0,2.757,1.55,2.776,2.776,0,0,1,.814.331.972.972,0,0,1,.43.844v.164a.61.61,0,0,1-.28.5,4.876,4.876,0,0,1-2.334.641c-1.913.117-3.7-.027-4.913.008s-1.966-.091-2.331-.53c-.33-.4.067-2.667.508-3.352a.309.309,0,0,1,.325-.132,1.991,1.991,0,0,1,.984.51,2.72,2.72,0,0,0,1.627.554.861.861,0,0,0,.891-.846c0-.159.009-.333.017-.506a.506.506,0,0,1,.823-.371Z" transform="translate(-351.047 -2078.302)" fill="#fff"/>
                      <path id="Path_51602" data-name="Path 51602" d="M354.735,2081.22c-.567,0-1.108-.013-1.615-.025-.621-.015-1.158-.028-1.621-.015-1.358.038-2.064-.129-2.437-.578-.394-.474.066-2.837.5-3.509a.445.445,0,0,1,.464-.19,2.136,2.136,0,0,1,1.05.545,2.59,2.59,0,0,0,1.539.517.713.713,0,0,0,.52-.2.731.731,0,0,0,.232-.521c0-.16.009-.335.017-.509a.639.639,0,0,1,1.047-.467,7.388,7.388,0,0,1,.7.647,8.1,8.1,0,0,0,2.691,1.511,2.828,2.828,0,0,1,.854.349,1.109,1.109,0,0,1,.491.959v.164a.741.741,0,0,1-.342.608,4.987,4.987,0,0,1-2.4.662C355.838,2081.21,355.275,2081.22,354.735,2081.22Zm-2.814-.311c.37,0,.779.01,1.2.02.985.023,2.1.05,3.274-.022a4.752,4.752,0,0,0,2.27-.62.476.476,0,0,0,.219-.391v-.164a.842.842,0,0,0-.37-.729,2.619,2.619,0,0,0-.774-.313,8.365,8.365,0,0,1-2.822-1.589,6.994,6.994,0,0,0-.669-.623.365.365,0,0,0-.388-.055.371.371,0,0,0-.223.329c-.008.172-.013.344-.017.5a1,1,0,0,1-.316.709.967.967,0,0,1-.713.267,2.829,2.829,0,0,1-1.715-.594,1.87,1.87,0,0,0-.917-.474.178.178,0,0,0-.186.074c-.427.664-.784,2.873-.517,3.195.31.373.975.518,2.225.482.145,0,.288,0,.438,0Z" transform="translate(-348.912 -2076.125)"/>
                    </g>
                    <path id="Path_51603" data-name="Path 51603" d="M362.556,2136.44c-1.728,0-3.163-.121-3.28-.131a.133.133,0,0,1-.121-.144.131.131,0,0,1,.144-.121c.057,0,5.727.482,8.237-.459a.133.133,0,1,1,.093.249A16.34,16.34,0,0,1,362.556,2136.44Z" transform="translate(-358.567 -2132.164)"/>
                  </g>
                </g>
                <g id="Group_16496" data-name="Group 16496" transform="translate(10.73 42.232)">
                  <g id="Group_16493" data-name="Group 16493" transform="translate(1.281)">
                    <path id="Path_51604" data-name="Path 51604" d="M556.965,2038.5l3.631-.612-.175-.382a7.543,7.543,0,0,1-.679-2.862l-.022-1.274-2.575.177Z" transform="translate(-556.832 -2033.235)" fill="#fff"/>
                    <path id="Path_51605" data-name="Path 51605" d="M554.782,2036.45a.133.133,0,0,1-.133-.138l.181-4.952a.133.133,0,0,1,.124-.128l2.575-.177a.138.138,0,0,1,.1.035.135.135,0,0,1,.043.1l.022,1.274a7.371,7.371,0,0,0,.667,2.808l.175.382a.133.133,0,0,1-.1.187l-3.631.612Zm.309-4.961-.17,4.669,3.3-.556-.1-.224a7.64,7.64,0,0,1-.691-2.912l-.02-1.136Z" transform="translate(-554.65 -2031.054)"/>
                  </g>
                  <g id="Group_16495" data-name="Group 16495" transform="translate(0 2.444)">
                    <g id="Group_16494" data-name="Group 16494">
                      <path id="Path_51606" data-name="Path 51606" d="M539.953,2076.02a7.379,7.379,0,0,1,.715.629,8.432,8.432,0,0,0,2.86,1.5,2.837,2.837,0,0,1,.841.315.994.994,0,0,1,.464.85v.168a.623.623,0,0,1-.272.518,4.98,4.98,0,0,1-2.366.722c-1.951.174-3.779.079-5.019.148s-2.011-.036-2.4-.475c-.348-.4-.007-2.726.424-3.439a.316.316,0,0,1,.328-.145,2.033,2.033,0,0,1,1.019.492,2.778,2.778,0,0,0,1.678.52.88.88,0,0,0,.886-.889v-.517a.518.518,0,0,1,.842-.4Z" transform="translate(-534.505 -2075.776)" fill="#fff"/>
                      <path id="Path_51607" data-name="Path 51607" d="M534.4,2078.85a2.346,2.346,0,0,1-1.865-.539c-.415-.472-.012-2.9.41-3.6a.453.453,0,0,1,.465-.207,2.179,2.179,0,0,1,1.087.526,2.652,2.652,0,0,0,1.588.483.73.73,0,0,0,.528-.215.749.749,0,0,0,.223-.541v-.52a.65.65,0,0,1,1.051-.5,7.522,7.522,0,0,1,.728.641,8.265,8.265,0,0,0,2.794,1.467,2.916,2.916,0,0,1,.881.332,1.131,1.131,0,0,1,.527.963v.168a.755.755,0,0,1-.331.629,5.1,5.1,0,0,1-2.428.744c-1.207.108-2.355.113-3.367.117-.635,0-1.183,0-1.656.031C534.809,2078.85,534.6,2078.85,534.4,2078.85Zm-1.071-4.082a.181.181,0,0,0-.157.085c-.417.691-.72,2.961-.438,3.282.328.373,1.012.5,2.289.43.48-.027,1.058-.03,1.67-.032,1.007,0,2.149-.009,3.345-.116a4.869,4.869,0,0,0,2.3-.7.489.489,0,0,0,.214-.408v-.168a.863.863,0,0,0-.4-.737,2.683,2.683,0,0,0-.8-.3,8.549,8.549,0,0,1-2.927-1.542,7.263,7.263,0,0,0-.7-.617.376.376,0,0,0-.4-.045.381.381,0,0,0-.22.344c0,.176,0,.352,0,.514a1.013,1.013,0,0,1-.3.731,1,1,0,0,1-.719.292,2.885,2.885,0,0,1-1.767-.555,1.913,1.913,0,0,0-.952-.458Z" transform="translate(-532.361 -2073.601)"/>
                    </g>
                    <path id="Path_51608" data-name="Path 51608" d="M546.968,2135.48c-1.99,0-3.617-.168-3.646-.172a.133.133,0,1,1,.028-.265c.054.006,5.477.566,8.607-.376a.133.133,0,1,1,.077.255,18.908,18.908,0,0,1-5.066.558Z" transform="translate(-542.58 -2131.157)"/>
                  </g>
                </g>
                <g id="Group_16497" data-name="Group 16497">
                  <path id="Path_51609" data-name="Path 51609" d="M356.336,1323.17c.107,3.783.752,14.188.864,16.174a.322.322,0,0,0,.322.3h3.231a.322.322,0,0,0,.321-.291c.206-2.059,2.251-15.754,2.06-21.33-.209-6.09-.681-13.335-1.2-15.33s-1.17-6.717-1.17-6.717l-12.968,1.96s-1.638,13.682-1.847,16.411a118.9,118.9,0,0,0-.1,16.286c.338,3.061.593,7.467.716,8.529a.974.974,0,0,0,.966.864h3.451a.322.322,0,0,0,.322-.319,84.45,84.45,0,0,1,1.013-11.92c.94-4.83,2.914-16.75,3.037-17.847C355.355,1309.94,356.176,1317.52,356.336,1323.17Z" transform="translate(-345.595 -1295.978)" fill="#160e4d"/>
                  <path id="Path_51610" data-name="Path 51610" d="M513.293,1463.57h-.015a.133.133,0,0,1-.117-.147c.087-.777.155-1.482.2-2.01a3.611,3.611,0,0,1,1.435-2.558.133.133,0,1,1,.159.213,3.344,3.344,0,0,0-1.329,2.369c-.049.529-.117,1.236-.2,2.015A.133.133,0,0,1,513.293,1463.57Z" transform="translate(-503.533 -1449.468)" fill="#fff"/>
                  <path id="Path_51611" data-name="Path 51611" d="M381.127,1390.4a.133.133,0,1,1,0-.266c1.623-.038,2.378-1.656,2.627-2.349a.133.133,0,0,1,.251.09c-.268.745-1.083,2.484-2.871,2.526Z" transform="translate(-378.961 -1382.427)" fill="#fff"/>
                  <path id="Path_51612" data-name="Path 51612" d="M590.355,1385.78h-.015c-2.013-.229-1.956-2.555-1.955-2.578a.137.137,0,0,1,.137-.128.133.133,0,0,1,.129.137c0,.086-.049,2.1,1.719,2.3a.133.133,0,0,1-.015.265Z" transform="translate(-574.436 -1378.066)" fill="#fff"/>
                </g>
              </g>
              <g id="Group_16504" data-name="Group 16504" transform="translate(5.768)">
                <g id="Group_16502" data-name="Group 16502">
                  <g id="Group_16499" data-name="Group 16499" transform="translate(1.761 6.967)">
                    <path id="Path_51613" data-name="Path 51613" d="M470.759,789.684l.291-5.921,4.253,2.23-.088,3.743a1.763,1.763,0,0,1-.751,1.292,2.592,2.592,0,0,1-2.988-.127l-.2-.146a1.229,1.229,0,0,1-.517-1.071Z" transform="translate(-470.624 -783.63)" fill="#fff"/>
                    <path id="Path_51614" data-name="Path 51614" d="M470.94,789.4a2.984,2.984,0,0,1-1.725-.572l-.2-.146a1.355,1.355,0,0,1-.567-1.186l.291-5.92a.133.133,0,0,1,.195-.111l4.253,2.229a.133.133,0,0,1,.071.121l-.088,3.743a1.886,1.886,0,0,1-.812,1.4,2.4,2.4,0,0,1-1.418.442Zm-1.95-7.6-.28,5.713h0a1.09,1.09,0,0,0,.456.955l.2.146a2.471,2.471,0,0,0,2.833.127,1.644,1.644,0,0,0,.7-1.191l.086-3.657Zm-.413,5.706Z" transform="translate(-468.441 -781.45)"/>
                  </g>
                  <g id="Group_16500" data-name="Group 16500">
                    <path id="Path_51615" data-name="Path 51615" d="M448.451,662.751c-1.141-.079.281,1.112-3.927-.168-1.676-.509-.847,1.461-1.282,1.33-1.607-.484-1.552-.469-2.341-.271-.523.131-.872,1.087-.782,1.8.119.948.9,1.2,1.568,3.21.471,1.41.342,2.263.9,2.474s1-.546,1.634-.359c.825.241.645,1.671,1.444,2.274.5.38,1.683.567,3.587-.332a.711.711,0,0,0,.383-.824c-.112-.424-.255-.96-.436-1.46-.859-2.383-1.7-2.929-1.385-3.54.48-.937,2.257-.376,2.56-1.147C450.693,664.943,450.013,662.859,448.451,662.751Z" transform="translate(-439.972 -662.366)" fill="#fff"/>
                    <path id="Path_51616" data-name="Path 51616" d="M444.669,671.306a2.062,2.062,0,0,1-1.258-.343,2.474,2.474,0,0,1-.732-1.258c-.161-.476-.3-.886-.67-.994a.97.97,0,0,0-.746.181,1.049,1.049,0,0,1-.9.175c-.422-.159-.51-.588-.644-1.238a10.95,10.95,0,0,0-.338-1.319,7.454,7.454,0,0,0-1.035-2.059,2.547,2.547,0,0,1-.539-1.177c-.1-.76.277-1.8.882-1.951l.072-.018c.746-.187.777-.18,2.307.281a1.991,1.991,0,0,0,.015-.274,1.211,1.211,0,0,1,.322-1,1.087,1.087,0,0,1,.978-.041c2.78.845,3.032.585,3.215.4a.725.725,0,0,1,.682-.233,2.126,2.126,0,0,1,1.64,1.069,2.671,2.671,0,0,1,.4,2.1c-.174.441-.72.514-1.248.584s-1.1.147-1.318.574c-.133.26,0,.518.331,1.127a14.916,14.916,0,0,1,1.06,2.307c.179.5.32,1.02.439,1.471a.844.844,0,0,1-.455.978,5.866,5.866,0,0,1-2.46.658Zm-2.828-2.886a.855.855,0,0,1,.243.035c.5.147.677.664.847,1.164a2.244,2.244,0,0,0,.64,1.131c.505.382,1.677.491,3.45-.346a.578.578,0,0,0,.311-.669c-.117-.446-.257-.963-.432-1.449a14.712,14.712,0,0,0-1.043-2.269c-.347-.632-.538-.98-.335-1.377.282-.551.94-.639,1.519-.716.473-.063.919-.123,1.036-.418a2.409,2.409,0,0,0-.379-1.865,1.868,1.868,0,0,0-1.433-.945c-.3-.021-.375.052-.473.152-.27.279-.549.566-3.484-.326a.874.874,0,0,0-.744,0c-.2.149-.209.506-.213.794,0,.244-.006.421-.124.507a.219.219,0,0,1-.2.028l-.02-.006c-1.5-.452-1.5-.452-2.178-.282l-.072.018c-.42.1-.77.958-.683,1.66a2.315,2.315,0,0,0,.5,1.06,7.69,7.69,0,0,1,1.068,2.124,11.185,11.185,0,0,1,.346,1.349c.13.632.205.94.478,1.042.225.085.434-.029.676-.16a1.494,1.494,0,0,1,.7-.236Z" transform="translate(-437.796 -660.177)"/>
                  </g>
                  <g id="Group_16501" data-name="Group 16501" transform="translate(3.75 2.977)">
                    <path id="Path_51617" data-name="Path 51617" d="M506.226,716.11s1.064,2.59,1.278,3.142c.687,1.77,2.876-.141,2.876-.141l.156-.483.293-.115a.35.35,0,0,0,.147-.1.337.337,0,0,0,.019-.4,13.21,13.21,0,0,1-1.533-3.041.733.733,0,0,0-.688-.44c-1.827-.121-4.237-.688-3.03.855a4.765,4.765,0,0,1,.482.723Z" transform="translate(-505.284 -714.194)" fill="#fff"/>
                    <path id="Path_51618" data-name="Path 51618" d="M504.127,713.847l1.3,3.175a1,1,0,0,0,.476.559,1.1,1.1,0,0,0,.745.025,3.076,3.076,0,0,0,.748-.327,5.039,5.039,0,0,0,.678-.478l-.04.06.157-.483a.136.136,0,0,1,.078-.084l.3-.117a.218.218,0,0,0,.082-.056.208.208,0,0,0,.044-.087.2.2,0,0,0,0-.1.333.333,0,0,0-.051-.107c-.055-.094-.106-.191-.158-.287-.1-.194-.219-.376-.327-.565s-.216-.378-.317-.57a11.681,11.681,0,0,1-.553-1.186c-.039-.1-.079-.2-.113-.309l-.027-.078-.013-.039-.011-.029a.39.39,0,0,0-.066-.107.723.723,0,0,0-.5-.214c-.432-.026-.867-.067-1.3-.112a10.833,10.833,0,0,0-1.276-.077,1.305,1.305,0,0,0-.563.108.163.163,0,0,0-.092.15.59.59,0,0,0,.076.247,3.837,3.837,0,0,0,.357.514A4.345,4.345,0,0,1,504.127,713.847Zm-.241.112a4.186,4.186,0,0,0-.334-.524,3.979,3.979,0,0,1-.381-.55.837.837,0,0,1-.107-.37.431.431,0,0,1,.061-.225.47.47,0,0,1,.161-.157,1,1,0,0,1,.355-.117,2.637,2.637,0,0,1,.341-.029,11,11,0,0,1,1.311.082c.432.043.857.1,1.288.131a.955.955,0,0,1,.655.311.624.624,0,0,1,.1.171l.017.047.012.038.024.076c.031.1.068.2.1.3a10.441,10.441,0,0,0,.52,1.174c.1.191.2.379.308.566a5.084,5.084,0,0,0,.343.546l.193.259a.518.518,0,0,1,.094.181.466.466,0,0,1,0,.224.476.476,0,0,1-.1.2.485.485,0,0,1-.181.129l-.3.121.078-.084-.156.484h0a.129.129,0,0,1-.039.058,5.267,5.267,0,0,1-.718.509,3.34,3.34,0,0,1-.816.357,1.371,1.371,0,0,1-.931-.039,1.073,1.073,0,0,1-.382-.3,1.571,1.571,0,0,1-.233-.405Z" transform="translate(-503.064 -711.987)"/>
                  </g>
                  <path id="Path_51619" data-name="Path 51619" d="M497.394,756.585s-.767-1.475-1.361-.982S496.324,757.7,497.394,756.585Z" transform="translate(-492.507 -750.025)" fill="#fff"/>
                </g>
                <g id="Group_16503" data-name="Group 16503" transform="translate(4.061 4.643)">
                  <path id="Path_51620" data-name="Path 51620" d="M563.581,745.329c-.029,0-.059,0-.088,0a.481.481,0,0,1-.334-.262,1.765,1.765,0,0,1-.016-1.539.486.486,0,0,1,.274-.259.644.644,0,0,1,.508.017c.23.1.351.357.371.778a1.4,1.4,0,0,1-.278,1.1A.613.613,0,0,1,563.581,745.329Zm.065-1.843a.343.343,0,0,0-.129.024.226.226,0,0,0-.127.112,1.5,1.5,0,0,0,0,1.3c.065.108.122.134.133.135a.379.379,0,0,0,.316-.09,1.213,1.213,0,0,0,.2-.9c-.022-.462-.166-.526-.213-.547a.422.422,0,0,0-.179-.034Z" transform="translate(-559.847 -743.092)"/>
                  <path id="Path_51621" data-name="Path 51621" d="M508.606,743.89a.133.133,0,0,1-.015-.265l3.574-.413a.133.133,0,1,1,.031.264l-3.574.413Z" transform="translate(-508.473 -743.084)"/>
                  <path id="Path_51622" data-name="Path 51622" d="M584.987,742.879a.133.133,0,0,1-.064-.25,1.345,1.345,0,0,0,.054-1.239.227.227,0,0,0-.157-.123.9.9,0,0,0-.568.207.133.133,0,0,1-.163-.211,1.145,1.145,0,0,1,.783-.257.493.493,0,0,1,.336.253,1.607,1.607,0,0,1,.072,1.235c-.046.142-.125.322-.238.373A.133.133,0,0,1,584.987,742.879ZM584.92,742.632Zm.012-.007Z" transform="translate(-579.696 -740.995)"/>
                </g>
              </g>
              <g id="Group_16510" data-name="Group 16510" transform="translate(0 3.021)">
                <g id="Group_16505" data-name="Group 16505" transform="translate(32.055)">
                  <path id="Path_51623" data-name="Path 51623" d="M901.246,715.235l-1.033.972a1.575,1.575,0,0,1-.5.319l-.641.251a1.835,1.835,0,0,0-.831,1.8l.138,1.4a1.13,1.13,0,0,1-.188.61c-.252.522-.542,1.082-.542,1.082s1.258,1.336,1.573.7c.194-.388.786-1.64,1.217-1.773,1.224-.378,2.383-2.277,2.7-2.874a.288.288,0,0,0-.108-.382s-.464-.353-1.2.651c-.188.257-.309.545-.329.532a.963.963,0,0,1-.363-1.249,3.376,3.376,0,0,1,.431-.653,6.769,6.769,0,0,0,.568-.836C902.334,715.379,901.682,714.762,901.246,715.235Z" transform="translate(-897.511 -714.932)" fill="#fff"/>
                  <path id="Path_51624" data-name="Path 51624" d="M896.77,720.5c-.527,0-1.314-.818-1.405-.915a.133.133,0,0,1-.021-.152c0-.006.293-.565.541-1.079l.044-.088a.818.818,0,0,0,.131-.45l-.138-1.4a1.97,1.97,0,0,1,.892-1.927.125.125,0,0,1,.023-.012l.641-.251a1.435,1.435,0,0,0,.461-.292l1.03-.969a.612.612,0,0,1,.828-.087.65.65,0,0,1,.269.792,6.912,6.912,0,0,1-.585.862,3.247,3.247,0,0,0-.414.627.832.832,0,0,0,.208,1,3.712,3.712,0,0,1,.258-.421,1.653,1.653,0,0,1,.984-.758.562.562,0,0,1,.4.074.42.42,0,0,1,.153.556c-.053.1-1.327,2.492-2.776,2.939-.348.107-.91,1.245-1.094,1.619l-.042.086a.412.412,0,0,1-.316.238.453.453,0,0,1-.072.008Zm-1.147-1.03c.337.341.9.8,1.175.762a.147.147,0,0,0,.117-.094l.042-.085c.394-.8.852-1.631,1.255-1.755,1.076-.332,2.184-1.983,2.619-2.809a.155.155,0,0,0-.058-.206l-.013-.009c-.126-.086-.5-.069-1.012.624a3.486,3.486,0,0,0-.24.392c-.07.129-.094.172-.16.19a.139.139,0,0,1-.106-.015,1.1,1.1,0,0,1-.413-1.421,3.518,3.518,0,0,1,.448-.679,6.687,6.687,0,0,0,.552-.81.4.4,0,0,0-.182-.454.347.347,0,0,0-.485.052l-.007.007-1.033.972a1.7,1.7,0,0,1-.546.346l-.629.247a1.71,1.71,0,0,0-.76,1.668l.139,1.4a1.062,1.062,0,0,1-.159.6l-.042.084c-.193.388-.41.813-.5.99Zm3.757-3.232Zm-.317-3.175Z" transform="translate(-895.329 -712.756)"/>
                </g>
                <g id="Group_16506" data-name="Group 16506" transform="translate(12.783 5.638)">
                  <path id="Path_51625" data-name="Path 51625" d="M562.208,819.114a20.3,20.3,0,0,0,10.865-.386c4.228-1.289,8.191-5.522,8.191-5.522l2.873,1.38-1.286,2.248c-2.207,3.992-4.5,7.113-10.132,8.445l-8.1,1.385Z" transform="translate(-562.075 -813.073)" fill="#fff"/>
                  <path id="Path_51626" data-name="Path 51626" d="M562.441,824.616a.133.133,0,0,1-.127-.093l-2.416-7.551a.133.133,0,0,1,.144-.172c.295.039.614.1.984.162a18.888,18.888,0,0,0,9.825-.544c4.145-1.263,8.094-5.443,8.133-5.485a.133.133,0,0,1,.155-.029l2.873,1.38a.133.133,0,0,1,.058.186l-1.286,2.248c-2.041,3.692-4.359,7.122-10.217,8.509l-8.1,1.387Zm-2.224-7.523,2.316,7.239,7.981-1.366c5.752-1.362,7.949-4.6,10.038-8.379l1.216-2.126-2.658-1.277c-.545.562-4.27,4.295-8.182,5.487a19.129,19.129,0,0,1-9.949.551c-.279-.048-.531-.093-.762-.128Z" transform="translate(-559.892 -810.891)"/>
                </g>
                <g id="Group_16507" data-name="Group 16507" transform="translate(0 8.249)">
                  <path id="Path_51627" data-name="Path 51627" d="M347.223,858.783a.43.43,0,0,0-.7.111,6.991,6.991,0,0,1-1.63,2.282c-1.242,1.061-3.129,1.12-4.227,3.749-1.911,4.577-.937,15.242.843,20.218a11.314,11.314,0,0,1,.155,3.325l14.25-.193s-1.6-9.247-.468-14.933c.469-2.354,1.512-6.254-1.125-9.746-.6-.8-1.185-1.6-1.718-2.446l-.365-.577a.589.589,0,0,0-.6-.264l-.035.006a4.793,4.793,0,0,1-4.306-1.457Z" transform="translate(-339.492 -858.514)" fill="#fff"/>
                  <path id="Path_51628" data-name="Path 51628" d="M339.561,886.421a.133.133,0,0,1-.133-.145,11.262,11.262,0,0,0-.148-3.269c-1.693-4.73-2.816-15.584-.841-20.314a5.508,5.508,0,0,1,2.991-3.012,6.61,6.61,0,0,0,1.272-.787,6.8,6.8,0,0,0,1.6-2.237.563.563,0,0,1,.921-.146l.069.074A4.643,4.643,0,0,0,349.475,858l.035-.006a.719.719,0,0,1,.739.324l.365.577c.458.725.986,1.477,1.711,2.437,2.5,3.31,1.746,6.955,1.248,9.368-.035.168-.068.33-.1.485-1.116,5.6.453,14.791.469,14.884a.133.133,0,0,1-.129.156l-14.25.193ZM344.81,856.6a.323.323,0,0,0-.048,0,.292.292,0,0,0-.221.167,7.064,7.064,0,0,1-1.664,2.327,6.8,6.8,0,0,1-1.322.82,5.22,5.22,0,0,0-2.869,2.879c-1.953,4.676-.833,15.43.846,20.122a10.44,10.44,0,0,1,.174,3.235l13.95-.189c-.2-1.234-1.488-9.583-.442-14.827.031-.156.064-.318.1-.486.489-2.365,1.227-5.94-1.2-9.153-.73-.967-1.262-1.724-1.724-2.455l-.365-.577a.455.455,0,0,0-.467-.2l-.037.006a4.909,4.909,0,0,1-4.425-1.5l-.069-.074h0a.294.294,0,0,0-.217-.1Z" transform="translate(-337.392 -856.334)"/>
                </g>
                <path id="Path_51629" data-name="Path 51629" d="M374.4,987.084s.672,7.632,2.66,9.649a12.045,12.045,0,0,0,6.826,3.019s1.7.036.715,2.757a1.444,1.444,0,0,1-1.186.8c-2.111.208-11.717-.152-13.337-4.39-2.98-7.8-3.33-11.31-3.33-11.31Z" transform="translate(-365.065 -971.323)" fill="#fff"/>
                <path id="Path_51630" data-name="Path 51630" d="M381.555,1015.38c-3.283,0-10.6-.859-12.38-4.507l-.1-.214c-2.47-5.068-2.915-5.981-3.154-10.571a.133.133,0,0,1,.126-.14.131.131,0,0,1,.14.126c.237,4.535.678,5.441,3.127,10.468l.1.214c1.929,3.96,11.048,4.527,13.2,4.316a1.326,1.326,0,0,0,1.074-.715,2.561,2.561,0,0,0,.1-2.185.923.923,0,0,0-.691-.394,12.217,12.217,0,0,1-6.918-3.058c-1.6-1.623-2.356-6.743-2.606-8.869a.133.133,0,1,1,.264-.031c.247,2.1.99,7.149,2.532,8.714a11.914,11.914,0,0,0,6.742,2.979,1.193,1.193,0,0,1,.894.505,2.738,2.738,0,0,1-.064,2.429,1.588,1.588,0,0,1-1.3.89C382.372,1015.36,382,1015.38,381.555,1015.38Z" transform="translate(-364.278 -983.212)"/>
                <g id="Group_16508" data-name="Group 16508" transform="translate(18.745 30.444)">
                  <path id="Path_51631" data-name="Path 51631" d="M673.519,1297.64h-1.867l-.012-48.759a2.035,2.035,0,0,0-2.033-2.037,1.708,1.708,0,0,0-1.682,1.7l-.012,2.291-1.929.033v-2.194a3.7,3.7,0,0,1,3.631-3.709h.2a3.7,3.7,0,0,1,3.692,3.7Z" transform="translate(-665.85 -1244.836)" fill="#fff"/>
                  <path id="Path_51632" data-name="Path 51632" d="M669.47,1295.59a.133.133,0,0,1-.133-.133l-.012-48.759a1.9,1.9,0,0,0-1.9-1.9h0a1.583,1.583,0,0,0-1.55,1.572l-.012,2.291a.133.133,0,0,1-.131.132l-1.929.033a.142.142,0,0,1-.1-.038.132.132,0,0,1-.04-.095V1246.5a3.845,3.845,0,0,1,3.762-3.842h.208a3.782,3.782,0,0,1,2.7,1.12,3.825,3.825,0,0,1,1.123,2.712l.012,48.972a.133.133,0,0,1-.133.133h-1.867Zm-2.042-51.062a2.171,2.171,0,0,1,2.163,2.17l.012,48.626h1.6l-.012-48.839a3.56,3.56,0,0,0-1.045-2.525,3.518,3.518,0,0,0-2.506-1.042h-.207a3.578,3.578,0,0,0-3.5,3.576v2.059l1.664-.028.011-2.16a1.85,1.85,0,0,1,1.814-1.837Z" transform="translate(-663.668 -1242.653)"/>
                </g>
                <g id="Group_16509" data-name="Group 16509" transform="translate(18.223 28.718)">
                  <path id="Path_51633" data-name="Path 51633" d="M657.662,1215.52c-.836.182-1.107,1.659-.271,1.818a18.631,18.631,0,0,1,2.878.057c1.321.166,2.215,1.856,3.057,1.022s-1.512-3.575-3.2-3.474A15.619,15.619,0,0,0,657.662,1215.52Z" transform="translate(-656.751 -1214.805)" fill="#fff"/>
                  <path id="Path_51634" data-name="Path 51634" d="M660.647,1216.59a2.264,2.264,0,0,1-1.159-.552,3.309,3.309,0,0,0-1.417-.7,11.981,11.981,0,0,0-2.382-.063,2.419,2.419,0,0,1-.5,0,.779.779,0,0,1-.616-.822,1.263,1.263,0,0,1,.883-1.257c.4-.086.712-.182,1.017-.274a5.912,5.912,0,0,1,1.468-.306c1.233-.075,2.812,1.262,3.347,2.46a1.073,1.073,0,0,1-.047,1.242.82.82,0,0,1-.594.272Zm-4.059-1.613a12.084,12.084,0,0,1,1.516.1,3.51,3.51,0,0,1,1.538.747c.641.456,1.022.7,1.409.312.249-.247.1-.7-.008-.944-.49-1.1-1.979-2.371-3.088-2.3a5.7,5.7,0,0,0-1.407.3c-.3.089-.63.19-1.038.279a1,1,0,0,0-.674.994.53.53,0,0,0,.4.563,2.612,2.612,0,0,0,.438-.009c.226-.019.534-.039.914-.039Zm-1.107-1.646Z" transform="translate(-654.569 -1212.621)"/>
                </g>
              </g>
            </g>
          </g>
        </g>
        <g id="Group_16523" data-name="Group 16523" transform="translate(322.928 425.887)">
          <g id="Group_16516" data-name="Group 16516" transform="translate(1.78 5.848)">
            <g id="Group_16514" data-name="Group 16514" transform="translate(0 2.677)">
              <path id="Path_51635" data-name="Path 51635" d="M869.165,2067.67v2.23c0,.676-.781,1.353-2.351,1.877a22.285,22.285,0,0,1-11.549.112l-.16-.049c-1.663-.523-2.5-1.219-2.5-1.917v-2.23c0,.7.836,1.394,2.5,1.917l.16.049a22.288,22.288,0,0,0,11.549-.112C868.385,2069.02,869.166,2068.34,869.165,2067.67Z" transform="translate(-852.473 -2067.535)" fill="#fff"/>
              <path id="Path_51636" data-name="Path 51636" d="M858.673,2070.55a20.428,20.428,0,0,1-5.626-.717l-.162-.05c-1.671-.526-2.592-1.252-2.593-2.044v-2.23a.133.133,0,0,1,.133-.133h0a.133.133,0,0,1,.133.133c0,.657.878,1.31,2.407,1.791l.158.049a22.322,22.322,0,0,0,11.468-.111c1.437-.48,2.261-1.118,2.26-1.751a.133.133,0,0,1,.133-.133h0a.133.133,0,0,1,.133.133h0v2.229c0,.766-.866,1.478-2.442,2a19.868,19.868,0,0,1-6,.834Zm-8.116-4.319v1.509c0,.657.878,1.31,2.407,1.791l.158.049a22.322,22.322,0,0,0,11.468-.111c1.437-.479,2.261-1.118,2.26-1.751v-1.51a4.538,4.538,0,0,1-2.176,1.283,22.264,22.264,0,0,1-11.629.113l-.162-.05a4.714,4.714,0,0,1-2.326-1.324Z" transform="translate(-850.29 -2065.353)"/>
            </g>
            <g id="Group_16515" data-name="Group 16515">
              <path id="Path_51637" data-name="Path 51637" d="M866.5,2021.86l.161.049c3.275,1.031,3.341,2.729.149,3.8a22.285,22.285,0,0,1-11.549.112l-.16-.049c-3.274-1.03-3.341-2.729-.149-3.8a22.284,22.284,0,0,1,11.548-.112Z" transform="translate(-852.473 -2021.02)" fill="#fff"/>
              <path id="Path_51638" data-name="Path 51638" d="M858.671,2024.39a20.422,20.422,0,0,1-5.626-.716l-.162-.05c-1.665-.524-2.586-1.247-2.593-2.037-.007-.769.86-1.483,2.442-2.011a22.263,22.263,0,0,1,11.628-.114l.162.05c1.665.524,2.586,1.247,2.593,2.037.007.769-.86,1.483-2.442,2.011A19.859,19.859,0,0,1,858.671,2024.39Zm.071-5.367a19.729,19.729,0,0,0-5.925.8c-1.442.481-2.265,1.121-2.26,1.756.006.655.883,1.306,2.407,1.785l.158.049a22.322,22.322,0,0,0,11.468-.111c1.442-.481,2.265-1.121,2.26-1.756-.006-.655-.883-1.306-2.407-1.785l-.159-.049h0a20.233,20.233,0,0,0-5.542-.687Z" transform="translate(-850.29 -2018.75)"/>
            </g>
          </g>
          <g id="Group_16519" data-name="Group 16519" transform="translate(0 3.214)">
            <g id="Group_16517" data-name="Group 16517" transform="translate(0 2.677)">
              <path id="Path_51639" data-name="Path 51639" d="M838.175,2021.82v2.23c0,.676-.781,1.353-2.351,1.877a22.288,22.288,0,0,1-11.549.112l-.16-.049c-1.663-.523-2.5-1.22-2.5-1.917v-2.23c0,.7.837,1.394,2.5,1.917l.16.049a22.288,22.288,0,0,0,11.549-.112C837.4,2023.17,838.176,2022.5,838.175,2021.82Z" transform="translate(-821.483 -2021.688)" fill="#fff"/>
              <path id="Path_51640" data-name="Path 51640" d="M827.684,2024.7a20.422,20.422,0,0,1-5.626-.716l-.162-.05c-1.671-.526-2.592-1.252-2.593-2.044v-2.23h0a.133.133,0,0,1,.133-.133h0a.133.133,0,0,1,.133.133c0,.657.878,1.309,2.407,1.79l.158.049a22.322,22.322,0,0,0,11.468-.111c1.437-.48,2.261-1.118,2.26-1.751a.133.133,0,0,1,.133-.133h0a.133.133,0,0,1,.133.133h0v2.229c0,.766-.866,1.478-2.442,2a19.861,19.861,0,0,1-6,.834Zm-8.116-4.319v1.509c0,.657.878,1.31,2.407,1.791l.158.049a22.322,22.322,0,0,0,11.468-.111c1.437-.48,2.261-1.118,2.26-1.751v-1.509a4.536,4.536,0,0,1-2.176,1.283,22.269,22.269,0,0,1-11.629.114l-.162-.05a4.714,4.714,0,0,1-2.326-1.326Z" transform="translate(-819.301 -2019.507)"/>
            </g>
            <g id="Group_16518" data-name="Group 16518">
              <path id="Path_51641" data-name="Path 51641" d="M835.515,1976.02l.161.049c3.274,1.03,3.341,2.729.149,3.8a22.288,22.288,0,0,1-11.548.112l-.16-.049c-3.274-1.031-3.341-2.729-.149-3.8a22.288,22.288,0,0,1,11.547-.112Z" transform="translate(-821.483 -1975.174)" fill="#fff"/>
              <path id="Path_51642" data-name="Path 51642" d="M827.682,1978.55a20.423,20.423,0,0,1-5.626-.716l-.162-.05c-1.665-.524-2.586-1.247-2.593-2.037-.007-.769.861-1.483,2.442-2.011a22.264,22.264,0,0,1,11.628-.114l.162.049c1.666.524,2.587,1.248,2.594,2.037.007.769-.861,1.483-2.442,2.011a19.858,19.858,0,0,1-6,.831Zm.071-5.367a19.737,19.737,0,0,0-5.925.805c-1.442.481-2.265,1.121-2.26,1.756.006.655.883,1.306,2.407,1.785l.158.049a22.324,22.324,0,0,0,11.468-.111c1.442-.481,2.265-1.121,2.26-1.756-.006-.655-.883-1.306-2.407-1.785l-.159-.048h0a20.234,20.234,0,0,0-5.542-.7Z" transform="translate(-819.301 -1972.906)"/>
            </g>
          </g>
          <g id="Group_16522" data-name="Group 16522" transform="translate(1.49)">
            <g id="Group_16520" data-name="Group 16520" transform="translate(0 2.677)">
              <path id="Path_51643" data-name="Path 51643" d="M864.113,1965.88v2.23c0,.676-.781,1.353-2.351,1.877a22.286,22.286,0,0,1-11.549.112l-.16-.049c-1.663-.524-2.5-1.22-2.5-1.917v-2.23c0,.7.837,1.394,2.5,1.917l.16.049a22.285,22.285,0,0,0,11.548-.112C863.333,1967.23,864.114,1966.55,864.113,1965.88Z" transform="translate(-847.421 -1965.742)" fill="#438ffe"/>
              <path id="Path_51644" data-name="Path 51644" d="M853.621,1968.76a20.408,20.408,0,0,1-5.626-.716l-.162-.05c-1.671-.526-2.592-1.252-2.593-2.044v-2.23a.133.133,0,0,1,.133-.133h0a.133.133,0,0,1,.133.133c0,.657.878,1.31,2.407,1.791l.158.048a22.32,22.32,0,0,0,11.468-.111c1.437-.48,2.261-1.118,2.26-1.751a.133.133,0,0,1,.133-.133h0a.133.133,0,0,1,.133.133h0v2.229c0,.766-.866,1.478-2.442,2A19.857,19.857,0,0,1,853.621,1968.76Zm-8.116-4.319v1.509c0,.657.878,1.309,2.407,1.791l.158.048a22.321,22.321,0,0,0,11.468-.111c1.437-.48,2.261-1.118,2.26-1.751v-1.509a4.535,4.535,0,0,1-2.176,1.282,22.264,22.264,0,0,1-11.629.114l-.162-.049a4.712,4.712,0,0,1-2.331-1.325Z" transform="translate(-845.238 -1963.559)" fill="#438ffe"/>
            </g>
            <g id="Group_16521" data-name="Group 16521">
              <path id="Path_51645" data-name="Path 51645" d="M861.453,1920.07l.16.049c3.275,1.031,3.341,2.729.15,3.8a22.288,22.288,0,0,1-11.549.112l-.16-.049c-3.274-1.031-3.341-2.729-.149-3.8a22.287,22.287,0,0,1,11.548-.112Z" transform="translate(-847.421 -1919.228)" fill="#fff"/>
              <path id="Path_51646" data-name="Path 51646" d="M853.619,1922.6a20.418,20.418,0,0,1-5.626-.717l-.162-.05c-1.665-.524-2.586-1.248-2.593-2.037-.007-.769.861-1.483,2.442-2.011a22.261,22.261,0,0,1,11.628-.114h0l.162.05c1.665.524,2.587,1.247,2.593,2.037.007.769-.861,1.483-2.442,2.011A19.859,19.859,0,0,1,853.619,1922.6Zm.071-5.367a19.736,19.736,0,0,0-5.926.805c-1.442.481-2.265,1.121-2.26,1.756.006.655.883,1.306,2.407,1.786l.158.048a22.32,22.32,0,0,0,11.468-.111c1.442-.481,2.265-1.121,2.26-1.756-.006-.655-.883-1.306-2.407-1.785l-.159-.049a20.226,20.226,0,0,0-5.541-.7Z" transform="translate(-845.238 -1916.956)"/>
            </g>
            <path id="Path_51647" data-name="Path 51647" d="M920.144,1950.27l.286.345-1,.14a.485.485,0,0,1,.049.563l-1.364.077a.454.454,0,0,0-.035-.561.639.639,0,0,0-.356-.2,1.485,1.485,0,0,0-.528-.013.667.667,0,0,0-.624.558c-.128.485-.611.741-1.629.884a5.41,5.41,0,0,1-1.9-.047,2.2,2.2,0,0,1-.714-.286l-1.155.162-.286-.345,1.076-.151a.548.548,0,0,1-.009-.666l1.412-.08a.5.5,0,0,0-.014.654.731.731,0,0,0,.405.224,1.6,1.6,0,0,0,.576.015c.43-.06.609-.211.676-.511.1-.433.449-.77,1.547-.923a5.14,5.14,0,0,1,1.822.045,2.277,2.277,0,0,1,.685.267Z" transform="translate(-907.12 -1948.147)"/>
          </g>
        </g>
        <g id="Group_16542" data-name="Group 16542" transform="translate(341.335 416.484)">
          <g id="Group_16526" data-name="Group 16526" transform="translate(1.209 14.887)">
            <g id="Group_16524" data-name="Group 16524" transform="translate(0 2.81)">
              <path id="Path_51648" data-name="Path 51648" d="M1180.42,2063.65v2.34c0,.709-.819,1.42-2.467,1.97a23.386,23.386,0,0,1-12.119.118l-.168-.051c-1.745-.549-2.622-1.28-2.623-2.012v-2.34c0,.732.878,1.463,2.624,2.012l.168.052a23.384,23.384,0,0,0,12.119-.118C1179.6,2065.07,1180.42,2064.36,1180.42,2063.65Z" transform="translate(-1162.904 -2063.517)" fill="#438ffe"/>
              <path id="Path_51649" data-name="Path 51649" d="M1169.51,2066.77a21.426,21.426,0,0,1-5.9-.752l-.17-.052c-1.75-.551-2.715-1.311-2.716-2.139v-2.34h0a.133.133,0,0,1,.133-.133h0a.133.133,0,0,1,.133.133c0,.692.923,1.38,2.53,1.885l.166.051a23.426,23.426,0,0,0,12.039-.116c1.511-.5,2.377-1.176,2.376-1.844a.133.133,0,1,1,.266,0h0v2.339c0,.8-.907,1.545-2.558,2.1A20.828,20.828,0,0,1,1169.51,2066.77Zm-8.524-4.546v1.6c0,.692.923,1.379,2.531,1.885l.166.051a23.434,23.434,0,0,0,12.039-.116c1.511-.5,2.377-1.177,2.376-1.844v-1.6a4.708,4.708,0,0,1-2.292,1.359,23.358,23.358,0,0,1-12.2.119l-.17-.052a4.89,4.89,0,0,1-2.446-1.4Z" transform="translate(-1160.721 -2061.334)" fill="#438ffe"/>
            </g>
            <g id="Group_16525" data-name="Group 16525">
              <path id="Path_51650" data-name="Path 51650" d="M1177.62,2015.58l.169.052c3.436,1.081,3.506,2.864.157,3.982a23.387,23.387,0,0,1-12.119.118l-.168-.052c-3.436-1.081-3.506-2.864-.156-3.982A23.387,23.387,0,0,1,1177.62,2015.58Z" transform="translate(-1162.904 -2014.703)" fill="#fff"/>
              <path id="Path_51651" data-name="Path 51651" d="M1169.51,2018.34a21.431,21.431,0,0,1-5.9-.752l-.17-.052c-1.745-.549-2.709-1.306-2.716-2.131-.007-.8.9-1.551,2.558-2.1a23.361,23.361,0,0,1,12.2-.119l.171.052c1.745.549,2.71,1.306,2.717,2.131.007.8-.9,1.551-2.558,2.1a20.826,20.826,0,0,1-6.3.871Zm.074-5.632a20.725,20.725,0,0,0-6.22.845c-1.516.506-2.382,1.18-2.376,1.85.006.69.928,1.375,2.53,1.88l.166.051a23.428,23.428,0,0,0,12.039-.116c1.516-.506,2.382-1.18,2.376-1.849-.006-.691-.928-1.376-2.531-1.88l-.167-.051a21.247,21.247,0,0,0-5.821-.728Z" transform="translate(-1160.721 -2012.429)"/>
            </g>
          </g>
          <g id="Group_16529" data-name="Group 16529" transform="translate(1.689 11.642)">
            <g id="Group_16527" data-name="Group 16527" transform="translate(0 2.81)">
              <path id="Path_51652" data-name="Path 51652" d="M1188.78,2007.16v2.34c0,.709-.819,1.42-2.467,1.97a23.388,23.388,0,0,1-12.119.118l-.168-.052c-1.745-.549-2.622-1.28-2.623-2.012v-2.34c0,.732.878,1.463,2.623,2.012l.168.051a23.384,23.384,0,0,0,12.119-.118C1187.96,2008.58,1188.78,2007.87,1188.78,2007.16Z" transform="translate(-1171.27 -2007.027)" fill="#fff"/>
              <path id="Path_51653" data-name="Path 51653" d="M1177.88,2010.28a21.43,21.43,0,0,1-5.9-.751l-.17-.052c-1.75-.551-2.715-1.311-2.716-2.139V2005h0a.133.133,0,0,1,.133-.133h0a.133.133,0,0,1,.133.133c0,.692.923,1.38,2.53,1.885l.166.051a23.431,23.431,0,0,0,12.039-.116c1.511-.5,2.377-1.176,2.376-1.844a.133.133,0,0,1,.133-.133h0a.133.133,0,0,1,.133.133h0v2.339c0,.8-.907,1.545-2.558,2.1a20.834,20.834,0,0,1-6.3.867Zm-8.523-4.545v1.6c0,.693.923,1.38,2.53,1.885l.166.051a23.434,23.434,0,0,0,12.039-.116c1.511-.5,2.377-1.177,2.376-1.844v-1.6a4.706,4.706,0,0,1-2.292,1.359,23.354,23.354,0,0,1-12.2.119l-.17-.052a4.9,4.9,0,0,1-2.456-1.4Z" transform="translate(-1169.087 -2004.844)"/>
            </g>
            <g id="Group_16528" data-name="Group 16528">
              <path id="Path_51654" data-name="Path 51654" d="M1185.99,1959.09l.169.052c3.436,1.081,3.506,2.864.157,3.982a23.387,23.387,0,0,1-12.119.118l-.168-.052c-3.436-1.081-3.506-2.864-.156-3.982A23.387,23.387,0,0,1,1185.99,1959.09Z" transform="translate(-1171.269 -1958.213)" fill="#fff"/>
              <path id="Path_51655" data-name="Path 51655" d="M1177.88,1961.85a21.425,21.425,0,0,1-5.9-.751l-.17-.052c-1.745-.549-2.71-1.306-2.717-2.131-.007-.8.9-1.551,2.558-2.1a23.359,23.359,0,0,1,12.2-.119l.17.052c1.745.549,2.71,1.306,2.717,2.131.007.8-.9,1.551-2.558,2.1A20.835,20.835,0,0,1,1177.88,1961.85Zm.074-5.632a20.715,20.715,0,0,0-6.221.845c-1.516.506-2.382,1.18-2.376,1.849.006.691.928,1.376,2.53,1.88l.166.051a23.434,23.434,0,0,0,12.039-.116c1.516-.506,2.382-1.18,2.376-1.849-.006-.691-.928-1.376-2.531-1.88l-.167-.051a21.254,21.254,0,0,0-5.82-.727Z" transform="translate(-1169.086 -1955.939)"/>
            </g>
          </g>
          <g id="Group_16532" data-name="Group 16532" transform="translate(0.312 8.371)">
            <g id="Group_16530" data-name="Group 16530" transform="translate(0 2.81)">
              <path id="Path_51656" data-name="Path 51656" d="M1164.81,1950.23v2.34c0,.709-.819,1.42-2.467,1.97a23.385,23.385,0,0,1-12.119.118l-.168-.051c-1.746-.549-2.623-1.28-2.623-2.012v-2.34c0,.732.878,1.463,2.624,2.012l.168.052a23.389,23.389,0,0,0,12.119-.118C1163.99,1951.65,1164.81,1950.94,1164.81,1950.23Z" transform="translate(-1147.301 -1950.098)" fill="#fff"/>
              <path id="Path_51657" data-name="Path 51657" d="M1153.91,1953.36a21.423,21.423,0,0,1-5.9-.752l-.17-.052c-1.75-.551-2.715-1.311-2.716-2.139v-2.34h0a.133.133,0,0,1,.133-.133h0a.133.133,0,0,1,.133.133c0,.692.923,1.38,2.53,1.885l.166.051a23.433,23.433,0,0,0,12.039-.116c1.509-.5,2.375-1.175,2.376-1.841h0a.132.132,0,0,1,.039-.094.134.134,0,0,1,.094-.039h0a.133.133,0,0,1,.133.133h0v2.339c0,.8-.907,1.546-2.558,2.1A20.836,20.836,0,0,1,1153.91,1953.36Zm-8.524-4.546v1.6c0,.692.923,1.38,2.53,1.885l.166.051a23.426,23.426,0,0,0,12.039-.116c1.511-.5,2.377-1.176,2.376-1.844v-1.6a4.708,4.708,0,0,1-2.292,1.359,23.357,23.357,0,0,1-12.2.119l-.17-.052a4.892,4.892,0,0,1-2.445-1.406Z" transform="translate(-1145.119 -1947.916)"/>
            </g>
            <g id="Group_16531" data-name="Group 16531">
              <path id="Path_51658" data-name="Path 51658" d="M1162.02,1902.16l.168.052c3.436,1.081,3.506,2.864.157,3.982a23.391,23.391,0,0,1-12.119.118l-.168-.052c-3.436-1.081-3.506-2.864-.156-3.982A23.389,23.389,0,0,1,1162.02,1902.16Z" transform="translate(-1147.301 -1901.284)" fill="#fff"/>
              <path id="Path_51659" data-name="Path 51659" d="M1153.91,1904.92a21.422,21.422,0,0,1-5.9-.752l-.17-.052c-1.745-.549-2.71-1.306-2.717-2.131-.007-.8.9-1.551,2.558-2.1a23.358,23.358,0,0,1,12.2-.119l.17.052c1.745.549,2.71,1.306,2.717,2.132.007.8-.9,1.551-2.558,2.1A20.835,20.835,0,0,1,1153.91,1904.92Zm.074-5.632a20.717,20.717,0,0,0-6.22.845c-1.516.506-2.382,1.18-2.376,1.849.006.691.928,1.375,2.53,1.88l.166.051a23.431,23.431,0,0,0,12.039-.117c1.516-.506,2.382-1.18,2.376-1.85-.006-.69-.928-1.375-2.531-1.88l-.166-.051h0a21.243,21.243,0,0,0-5.822-.725Z" transform="translate(-1145.118 -1899.011)"/>
            </g>
          </g>
          <g id="Group_16535" data-name="Group 16535" transform="translate(2.019 5.677)">
            <g id="Group_16533" data-name="Group 16533" transform="translate(0 2.81)">
              <path id="Path_51660" data-name="Path 51660" d="M1194.53,1903.33v2.34c0,.709-.819,1.42-2.467,1.97a23.385,23.385,0,0,1-12.119.118l-.168-.052c-1.746-.549-2.622-1.28-2.623-2.012v-2.34c0,.732.878,1.463,2.623,2.012l.168.052a23.387,23.387,0,0,0,12.119-.118C1193.7,1904.76,1194.53,1904.04,1194.53,1903.33Z" transform="translate(-1177.014 -1903.202)" fill="#fff"/>
              <path id="Path_51661" data-name="Path 51661" d="M1183.62,1906.46a21.422,21.422,0,0,1-5.9-.752l-.17-.052c-1.751-.551-2.716-1.311-2.717-2.139v-2.34h0a.133.133,0,0,1,.133-.133h0a.133.133,0,0,1,.133.133c0,.692.923,1.38,2.53,1.885l.166.051a23.426,23.426,0,0,0,12.039-.116c1.511-.5,2.377-1.177,2.376-1.844a.133.133,0,0,1,.133-.133h0a.133.133,0,0,1,.133.133h0v2.339c0,.8-.907,1.545-2.558,2.1A20.837,20.837,0,0,1,1183.62,1906.46Zm-8.524-4.546v1.6c0,.692.923,1.38,2.53,1.886l.166.051a23.433,23.433,0,0,0,12.039-.117c1.511-.5,2.377-1.177,2.376-1.844v-1.6a4.71,4.71,0,0,1-2.292,1.359,23.357,23.357,0,0,1-12.2.119l-.17-.052a4.889,4.889,0,0,1-2.445-1.406Z" transform="translate(-1174.831 -1901.018)"/>
            </g>
            <g id="Group_16534" data-name="Group 16534">
              <path id="Path_51662" data-name="Path 51662" d="M1191.73,1855.27l.168.052c3.436,1.081,3.506,2.864.157,3.982a23.389,23.389,0,0,1-12.119.118l-.168-.052c-3.436-1.081-3.506-2.864-.156-3.982a23.389,23.389,0,0,1,12.118-.118Z" transform="translate(-1177.014 -1854.387)" fill="#fff"/>
              <path id="Path_51663" data-name="Path 51663" d="M1183.62,1858.02a21.427,21.427,0,0,1-5.9-.752l-.17-.052c-1.745-.549-2.709-1.306-2.716-2.131-.007-.8.9-1.551,2.558-2.1a23.36,23.36,0,0,1,12.2-.119h0l.17.052c1.745.549,2.71,1.306,2.717,2.131.007.8-.9,1.551-2.558,2.1A20.842,20.842,0,0,1,1183.62,1858.02Zm.074-5.632a20.722,20.722,0,0,0-6.22.845c-1.516.506-2.382,1.18-2.376,1.85.006.691.928,1.376,2.53,1.88l.166.051a23.431,23.431,0,0,0,12.039-.117c1.516-.506,2.382-1.18,2.376-1.849-.006-.69-.928-1.376-2.531-1.88l-.167-.051a21.246,21.246,0,0,0-5.821-.727Z" transform="translate(-1174.831 -1852.112)"/>
            </g>
          </g>
          <g id="Group_16538" data-name="Group 16538" transform="translate(0 3.008)">
            <g id="Group_16536" data-name="Group 16536" transform="translate(0 2.81)">
              <path id="Path_51664" data-name="Path 51664" d="M1159.38,1856.88v2.34c0,.709-.819,1.42-2.467,1.97a23.384,23.384,0,0,1-12.119.118l-.168-.051c-1.746-.549-2.622-1.28-2.623-2.012v-2.34c0,.732.878,1.463,2.623,2.012l.168.052a23.389,23.389,0,0,0,12.119-.118C1158.56,1858.3,1159.38,1857.59,1159.38,1856.88Z" transform="translate(-1141.868 -1856.748)" fill="#fff"/>
              <path id="Path_51665" data-name="Path 51665" d="M1148.47,1860a21.427,21.427,0,0,1-5.9-.752l-.17-.052c-1.751-.551-2.715-1.311-2.717-2.139v-2.34h0a.133.133,0,0,1,.133-.133h0a.133.133,0,0,1,.133.133c0,.693.923,1.38,2.53,1.885l.166.051a23.432,23.432,0,0,0,12.039-.116c1.511-.5,2.377-1.177,2.376-1.844a.133.133,0,0,1,.133-.133h0a.133.133,0,0,1,.133.133h0v2.339c0,.8-.907,1.545-2.558,2.1a20.837,20.837,0,0,1-6.3.868Zm-8.523-4.546v1.6c0,.692.923,1.38,2.531,1.885l.166.051a23.43,23.43,0,0,0,12.039-.116c1.511-.5,2.377-1.176,2.376-1.844v-1.6a4.708,4.708,0,0,1-2.292,1.359,23.357,23.357,0,0,1-12.2.119l-.17-.052a4.89,4.89,0,0,1-2.447-1.4Z" transform="translate(-1139.685 -1854.564)"/>
            </g>
            <g id="Group_16537" data-name="Group 16537">
              <path id="Path_51666" data-name="Path 51666" d="M1156.59,1808.81l.168.052c3.436,1.081,3.506,2.864.157,3.982a23.388,23.388,0,0,1-12.119.118l-.168-.052c-3.436-1.081-3.506-2.864-.156-3.982A23.389,23.389,0,0,1,1156.59,1808.81Z" transform="translate(-1141.868 -1807.933)" fill="#fff"/>
              <path id="Path_51667" data-name="Path 51667" d="M1148.47,1811.57a21.432,21.432,0,0,1-5.9-.752l-.17-.052c-1.745-.549-2.709-1.306-2.716-2.131-.007-.8.9-1.551,2.558-2.1a23.356,23.356,0,0,1,12.2-.119h0l.17.052c1.745.549,2.71,1.306,2.717,2.131.007.8-.9,1.551-2.558,2.1a20.827,20.827,0,0,1-6.3.871Zm.074-5.632a20.718,20.718,0,0,0-6.22.845c-1.516.506-2.382,1.18-2.376,1.849.006.691.928,1.376,2.53,1.88l.166.051a23.431,23.431,0,0,0,12.039-.116c1.516-.506,2.382-1.18,2.376-1.85-.006-.69-.928-1.375-2.531-1.88l-.167-.051a21.248,21.248,0,0,0-5.811-.726Z" transform="translate(-1139.685 -1805.658)"/>
            </g>
          </g>
          <g id="Group_16541" data-name="Group 16541" transform="translate(1.47)">
            <g id="Group_16539" data-name="Group 16539" transform="translate(0 2.81)">
              <path id="Path_51668" data-name="Path 51668" d="M1184.97,1804.52v2.34c0,.709-.819,1.42-2.467,1.97a23.385,23.385,0,0,1-12.119.118l-.168-.052c-1.746-.549-2.622-1.28-2.623-2.012v-2.34c0,.732.878,1.463,2.623,2.012l.168.052a23.388,23.388,0,0,0,12.119-.118C1184.15,1805.94,1184.97,1805.23,1184.97,1804.52Z" transform="translate(-1167.461 -1804.39)" fill="#438ffe"/>
              <path id="Path_51669" data-name="Path 51669" d="M1174.07,1807.65a21.417,21.417,0,0,1-5.9-.752l-.17-.052c-1.75-.551-2.715-1.311-2.716-2.139v-2.34h0a.133.133,0,0,1,.133-.133h0a.133.133,0,0,1,.133.133c0,.692.923,1.38,2.53,1.885l.166.051a23.431,23.431,0,0,0,12.039-.116c1.511-.5,2.377-1.176,2.376-1.844a.133.133,0,0,1,.133-.133h0a.133.133,0,0,1,.133.133h0v2.339c0,.8-.907,1.545-2.558,2.1A20.837,20.837,0,0,1,1174.07,1807.65Zm-8.524-4.546v1.6c0,.692.923,1.38,2.53,1.885l.166.051a23.432,23.432,0,0,0,12.039-.116c1.511-.5,2.377-1.176,2.376-1.844v-1.6a4.713,4.713,0,0,1-2.292,1.359,23.359,23.359,0,0,1-12.2.119l-.17-.052a4.893,4.893,0,0,1-2.445-1.406Z" transform="translate(-1165.279 -1802.208)" fill="#438ffe"/>
            </g>
            <g id="Group_16540" data-name="Group 16540">
              <path id="Path_51670" data-name="Path 51670" d="M1182.18,1756.45l.168.052c3.436,1.081,3.506,2.864.157,3.982a23.385,23.385,0,0,1-12.119.118l-.168-.051c-3.436-1.082-3.506-2.864-.156-3.982a23.386,23.386,0,0,1,12.118-.119Z" transform="translate(-1167.461 -1755.576)" fill="#fff"/>
              <path id="Path_51671" data-name="Path 51671" d="M1174.07,1759.21a21.425,21.425,0,0,1-5.9-.751l-.17-.052c-1.745-.549-2.709-1.306-2.717-2.132-.007-.8.9-1.551,2.558-2.1a23.355,23.355,0,0,1,12.2-.119l.17.052c1.745.549,2.71,1.306,2.717,2.131.007.8-.9,1.551-2.558,2.1A20.839,20.839,0,0,1,1174.07,1759.21Zm.074-5.632a20.713,20.713,0,0,0-6.22.845c-1.516.506-2.382,1.18-2.376,1.85.006.69.928,1.376,2.53,1.88l.166.051a23.434,23.434,0,0,0,12.039-.116c1.516-.506,2.382-1.18,2.376-1.849-.006-.691-.928-1.376-2.531-1.88l-.166-.051h0a21.24,21.24,0,0,0-5.822-.728Z" transform="translate(-1165.278 -1753.302)"/>
            </g>
            <path id="Path_51672" data-name="Path 51672" d="M1259.61,1774.2l-.417.365a6.822,6.822,0,0,1,.882.165,3.052,3.052,0,0,1,.375.124l-.818.438a4.808,4.808,0,0,0-.459-.152,5.1,5.1,0,0,0-.783-.14,1.558,1.558,0,0,0-1.1.142c-.156.137.085.26.762.482.96.3,1.168.577.741.95a4.147,4.147,0,0,1-2.611.579l-.483.423-.955-.1.45-.394a7.5,7.5,0,0,1-.959-.184,2.855,2.855,0,0,1-.494-.172l.847-.453a3.612,3.612,0,0,0,.58.2,5.491,5.491,0,0,0,.829.151,1.873,1.873,0,0,0,1.229-.156c.18-.157-.018-.29-.621-.472-.872-.262-1.346-.546-.887-.947a4,4,0,0,1,2.49-.56l.45-.394Z" transform="translate(-1248.652 -1772.9)"/>
          </g>
        </g>
      </g>
    </g>
  </g>
</svg>
