<svg xmlns="http://www.w3.org/2000/svg" width="202.299" height="85.461" viewBox="0 0 202.299 85.461">
  <g id="Logo" transform="translate(16583.576 4755.333)">
    <g id="Group_16232" data-name="Group 16232" transform="translate(-16583.576 -4752.458)">
      <path id="Path_51207" data-name="Path 51207" d="M84.509,22.03c-.009.036,1.051,1.113,1.184,1.291.454.632.855,1.318,1.264,1.985q1.242,2,2.359,4.069c1.585,2.938,3.463,6.2,4.185,9.473a16.968,16.968,0,0,1-1.077,10.524,82.692,82.692,0,0,1-7.488,12.955c-1.077-.81-2.092.151-3.17.125-5.68-.116-11.361-.08-17.041-.027a3.117,3.117,0,0,1-2.555-.944c.73-1.353,1.46-2.716,2.19-4.069,2.778-5.182,6.108-10.061,8.592-15.4a5.453,5.453,0,0,0,2-2.181C76.238,37.38,77.84,35.091,79,32.6,80.671,28.984,83.619,26.037,84.509,22.03Z" transform="translate(-6.815 -2.41)" fill="#0160ea"/>
      <path id="Path_51208" data-name="Path 51208" d="M59.324,66.34a3.127,3.127,0,0,0,2.555.944c5.68-.045,11.361-.089,17.041.027,1.068.018,2.092-.935,3.17-.125-2.359,4.069-4.354,8.369-7.292,12.073a20.454,20.454,0,0,1-16.525,7.96c-3.918.045-7.826-.027-11.744-.053-2.546-6.313-6.678-11.77-9.821-17.771a2.13,2.13,0,0,1-.053-2.448c6.722-.036,13.444-.062,20.166-.116C57.668,66.821,58.612,67.124,59.324,66.34Z" transform="translate(-3.977 -7.269)" fill="#0157d5"/>
      <path id="Path_51209" data-name="Path 51209" d="M33.7,64.707a2.13,2.13,0,0,0,.053,2.448c3.143,6,7.265,11.45,9.821,17.771-4.443.018-8.895.223-13.329,0-6.66-.329-11.539-3.65-14.8-9.438-1.985-3.517-4.078-6.98-6.117-10.462.846-1.255,1.763-2.466,2.52-3.775q4.007-6.958,7.889-13.97c.472-.855.953-1.487,2.021-1.336,3.8,6.072,7.274,12.331,10.711,18.608a.544.544,0,0,0,.739.285A5,5,0,0,1,33.7,64.707Z" transform="translate(-1.021 -5.03)" fill="#0f0933"/>
      <path id="Path_51210" data-name="Path 51210" d="M83.054,19.614c-.9,4.007-3.837,6.954-5.52,10.568-1.157,2.493-2.76,4.781-4.042,7.23a5.581,5.581,0,0,1-2,2.181C67.473,33.379,64.081,26.8,60.359,20.415c-.062-.329-.071-.694-.525-.739C57.6,15.812,49.2,2.216,48.9.213c5.449-.045,10.942-.784,16.311.73a21.068,21.068,0,0,1,11.4,7.621A64.3,64.3,0,0,1,83.054,19.614Z" transform="translate(-5.36 0.006)" fill="#1876fe"/>
      <path id="Path_51211" data-name="Path 51211" d="M31.42,22.969a2.308,2.308,0,0,0-.427-.036h0c-.686-.659-1.54-.392-2.324-.392Q18.586,22.488,8.5,22.47l-.294.427a68.488,68.488,0,0,0-6.437,11.29A20.438,20.438,0,0,0,1.9,51.121c1.8,3.926,4.247,7.559,6.4,11.325.846-1.255,1.763-2.466,2.52-3.775q4.007-6.958,7.889-13.97c.472-.855.953-1.487,2.021-1.336-.516-.944.062-1.656.49-2.413Q26.318,31.952,31.42,22.969Z" transform="translate(0.003 -2.458)" fill="#100a38"/>
      <path id="Path_51212" data-name="Path 51212" d="M33.947,23.01l21.4-.16c.721.027,1.442.045,2.164.071,3.722,6.384,7.114,12.963,11.129,19.178-2.493,5.342-5.814,10.221-8.592,15.4-.73,1.353-1.46,2.716-2.19,4.069-.712.784-1.656.472-2.5.481-6.722.053-13.444.08-20.166.116-.16.036-.329.08-.5.116-.249-.089-.5-.187-.739-.285-3.428-6.286-6.909-12.536-10.711-18.608-.516-.944.062-1.656.49-2.413Q28.85,32,33.947,23.01Z" transform="translate(-2.524 -2.5)" fill="#fdfcfc"/>
      <path id="Path_51213" data-name="Path 51213" d="M35.31,66.84c.249.1.5.187.739.285A.553.553,0,0,1,35.31,66.84Z" transform="translate(-3.869 -7.323)" fill="#81293f"/>
      <path id="Path_51214" data-name="Path 51214" d="M55.6,20.016c.009-.018.018-.027.027-.045-.4-.374-1.416-.036-1.745.383.588-.748,2.253.125,1.246-1.5q-3.272-5.3-6.393-10.7c-.053-.089-.107-.178-.151-.267q-1.616-2.8-3.2-5.645c-.3-.534-.5-1.5-.979-1.87-.525-.41-1.442-.16-2.048-.178C41.329.17,40.3.143,39.263.125,37.2.09,35.132.063,33.066.116A20.936,20.936,0,0,0,18.669,6c-4.158,3.953-6.161,9.286-9.1,14.023l10.951.027c5.992.018,11.984.187,17.976.312,2.992.062,5.992.116,8.984.134q3.352.013,6.7.036C54.693,20.532,55.316,20.5,55.6,20.016Z" transform="translate(-1.047 -0.004)" fill="#130c43"/>
    </g>
    <g id="Group_16233" data-name="Group 16233" transform="translate(-16470.277 -4749.637)">
      <text id="Part-Time" transform="translate(0 19)" fill="#fff" font-size="18" font-family="PlayfairDisplay-Black, Playfair Display" font-weight="800"><tspan x="0" y="0">Part-Time</tspan></text>
      <text id="Academy" transform="translate(0 67.428)" fill="#fff" font-size="18" font-family="PlayfairDisplay-Black, Playfair Display" font-weight="800"><tspan x="0" y="0">Academy</tspan></text>
      <text id="bhms" transform="translate(0 46.365)" fill="#fff" font-size="23" font-family="PlayfairDisplay-Black, Playfair Display" font-weight="800"><tspan x="0" y="0">BHMS</tspan></text>
    </g>
    <rect id="Rectangle_4003" data-name="Rectangle 4003" width="1.424" height="85.462" transform="translate(-16481.67 -4755.333)" fill="#1876fe"/>
  </g>
</svg>
