<svg xmlns="http://www.w3.org/2000/svg" width="143.543" height="60" viewBox="0 0 143.543 60">
  <g id="Logo" transform="translate(16583.576 4755.333)">
    <g id="Group_16232" data-name="Group 16232" transform="translate(-16583.576 -4753.314)">
      <path id="Path_51207" data-name="Path 51207" d="M77.853,22.03c-.006.025.738.781.831.906.319.444.6.925.888,1.394q.872,1.406,1.656,2.857a27.207,27.207,0,0,1,2.938,6.651,11.913,11.913,0,0,1-.756,7.389,58.055,58.055,0,0,1-5.257,9.1c-.756-.569-1.469.106-2.225.088-3.988-.081-7.976-.056-11.964-.019a2.188,2.188,0,0,1-1.794-.663c.513-.95,1.025-1.907,1.538-2.857,1.95-3.638,4.288-7.063,6.032-10.814a3.828,3.828,0,0,0,1.406-1.531c.9-1.719,2.025-3.325,2.838-5.076C75.159,26.912,77.228,24.843,77.853,22.03Z" transform="translate(-23.307 -8.255)" fill="#0160ea"/>
      <path id="Path_51208" data-name="Path 51208" d="M52.463,66.34A2.2,2.2,0,0,0,54.257,67c3.988-.031,7.976-.063,11.964.019.75.012,1.469-.656,2.225-.088-1.656,2.857-3.057,5.876-5.119,8.476A14.36,14.36,0,0,1,51.725,81c-2.75.031-5.495-.019-8.245-.038-1.788-4.432-4.688-8.264-6.895-12.477a1.5,1.5,0,0,1-.038-1.719c4.719-.025,9.439-.044,14.158-.081C51.3,66.678,51.963,66.89,52.463,66.34Z" transform="translate(-13.606 -24.868)" fill="#0157d5"/>
      <path id="Path_51209" data-name="Path 51209" d="M26.439,59.111a1.5,1.5,0,0,0,.038,1.719c2.207,4.213,5.1,8.039,6.895,12.477-3.119.013-6.245.156-9.358,0a12.057,12.057,0,0,1-10.389-6.626c-1.394-2.469-2.863-4.9-4.294-7.345.594-.881,1.238-1.731,1.769-2.65q2.813-4.885,5.538-9.808c.331-.6.669-1.044,1.419-.938C20.725,50.2,23.163,54.6,25.576,59a.382.382,0,0,0,.519.2A3.512,3.512,0,0,1,26.439,59.111Z" transform="translate(-3.496 -17.214)" fill="#0f0933"/>
      <path id="Path_51210" data-name="Path 51210" d="M72.878,13.768c-.631,2.813-2.694,4.882-3.876,7.42-.813,1.75-1.938,3.357-2.838,5.076A3.918,3.918,0,0,1,64.759,27.8c-2.819-4.363-5.2-8.983-7.814-13.464-.044-.231-.05-.488-.369-.519C55.007,11.1,49.113,1.554,48.9.148,52.726.116,56.582-.4,60.352.66a14.791,14.791,0,0,1,8,5.351A45.141,45.141,0,0,1,72.878,13.768Z" transform="translate(-18.332 0.006)" fill="#1876fe"/>
      <path id="Path_51211" data-name="Path 51211" d="M22.058,22.82a1.62,1.62,0,0,0-.3-.025h0c-.481-.463-1.081-.275-1.631-.275q-7.079-.038-14.158-.05l-.206.3A48.084,48.084,0,0,0,1.243,30.7,14.349,14.349,0,0,0,1.33,42.585c1.263,2.757,2.982,5.307,4.494,7.951.594-.881,1.238-1.731,1.769-2.65Q10.407,43,13.132,38.078c.331-.6.669-1.044,1.419-.938-.363-.663.044-1.163.344-1.694Q18.477,29.127,22.058,22.82Z" transform="translate(0.003 -8.42)" fill="#100a38"/>
      <path id="Path_51212" data-name="Path 51212" d="M30.7,22.963l15.027-.113c.506.019,1.013.031,1.519.05,2.613,4.482,4.994,9.1,7.814,13.464-1.75,3.751-4.082,7.176-6.032,10.814-.513.95-1.025,1.907-1.538,2.857-.5.55-1.163.331-1.756.338-4.719.038-9.439.056-14.158.081-.113.025-.231.056-.35.081-.175-.063-.35-.131-.519-.2-2.407-4.413-4.851-8.8-7.52-13.064-.363-.663.044-1.163.344-1.694Q27.119,29.276,30.7,22.963Z" transform="translate(-8.637 -8.563)" fill="#fdfcfc"/>
      <path id="Path_51213" data-name="Path 51213" d="M35.31,66.84c.175.069.35.131.519.2A.388.388,0,0,1,35.31,66.84Z" transform="translate(-13.237 -25.055)" fill="#81293f"/>
      <path id="Path_51214" data-name="Path 51214" d="M41.887,14.078c.006-.013.013-.019.019-.031-.281-.263-.994-.025-1.225.269.413-.525,1.581.088.875-1.056q-2.3-3.722-4.488-7.514c-.038-.063-.075-.125-.106-.188q-1.135-1.969-2.244-3.963C34.5,1.22,34.367.545,34.03.282,33.661-.005,33.017.17,32.592.157c-.725-.013-1.45-.031-2.175-.044-1.45-.025-2.9-.044-4.351-.006A14.7,14.7,0,0,0,15.958,4.239c-2.919,2.775-4.326,6.52-6.388,9.845l7.689.019c4.207.013,8.414.131,12.621.219,2.1.044,4.207.081,6.307.094q2.353.009,4.707.025C41.249,14.441,41.687,14.416,41.887,14.078Z" transform="translate(-3.586 -0.028)" fill="#130c43"/>
    </g>
    <g id="Group_16233" data-name="Group 16233" transform="translate(-16504.158 -4751.292)">
      <text id="Part-Time" transform="translate(0.125 13.957)" fill="#160e4d" font-size="13" font-family="PlayfairDisplay-Black, Playfair Display" font-weight="800"><tspan x="0" y="0">Part-Time</tspan></text>
      <text id="Academy" transform="translate(0.125 47.957)" fill="#160e4d" font-size="13" font-family="PlayfairDisplay-Black, Playfair Display" font-weight="800"><tspan x="0" y="0">Academy</tspan></text>
      <text id="bhms" transform="translate(0.125 32.957)" fill="#160e4d" font-size="17" font-family="PlayfairDisplay-Black, Playfair Display" font-weight="800"><tspan x="0" y="0">BHMS</tspan></text>
    </g>
    <rect id="Rectangle_4003" data-name="Rectangle 4003" width="1" height="60" transform="translate(-16512.031 -4755.333)" fill="#1876fe"/>
  </g>
</svg>
