<svg xmlns="http://www.w3.org/2000/svg" width="25.757" height="17.841" viewBox="0 0 25.757 17.841">
  <g id="play-svgrepo-com" transform="translate(0 -43.028)">
    <path id="Path_51899" data-name="Path 51899" d="M16.837,43.028H8.92a8.92,8.92,0,1,0,0,17.841h7.916a8.92,8.92,0,0,0,0-17.841Zm0,16.185H8.92a7.265,7.265,0,0,1,0-14.529h7.916a7.265,7.265,0,0,1,0,14.529Z" fill="#b5bbc7"/>
    <path id="Path_51900" data-name="Path 51900" d="M117.967,94.317l-3.883-3.246a1.28,1.28,0,0,0-2.1.982v6.493a1.28,1.28,0,0,0,2.1.982l3.883-3.246A1.28,1.28,0,0,0,117.967,94.317Z" transform="translate(-101.682 -43.35)" fill="#b5bbc7"/>
  </g>
</svg>
