<svg id="price-tag-svgrepo-com" xmlns="http://www.w3.org/2000/svg" width="22.737" height="23.122" viewBox="0 0 22.737 23.122">
  <path id="Path_51911" data-name="Path 51911" d="M12.049.113a.385.385,0,0,1,.545,0l1.429,1.429H23l7.271,7.331-9.773,9.773-7.016-7.2V2.086L12.049.658A.385.385,0,0,1,12.049.113Zm5.668,7.594A1.927,1.927,0,1,0,15.79,5.78,1.929,1.929,0,0,0,17.717,7.707Z" transform="translate(-11.936 0)" fill="#438ffe"/>
  <path id="Path_51912" data-name="Path 51912" d="M13.744,27.937a1.359,1.359,0,0,1,0,1.923L5.857,37.747a1.36,1.36,0,0,1-1.926,0L.5,34.22l9.778-9.778Z" transform="translate(8.594 -15.023)" fill="#438ffe"/>
</svg>
