<svg xmlns="http://www.w3.org/2000/svg" width="158" height="158" viewBox="0 0 158 158">
  <g id="Group_16762" data-name="Group 16762" transform="translate(-917.303 -738.304)">
    <rect id="Rectangle_4059" data-name="Rectangle 4059" width="158" height="158" rx="79" transform="translate(917.303 738.304)" fill="#b5bbc7" opacity="0.2"/>
    <g id="Group_16776" data-name="Group 16776" transform="translate(956.921 783.539)">
      <path id="Path_51915" data-name="Path 51915" d="M306.313,402.585a1.713,1.713,0,0,1,.182-.052l0,0-6.653-36.557-.027,0Z" transform="translate(-287.529 -357.112)" fill="none"/>
      <path id="Path_51916" data-name="Path 51916" d="M306.74,402.6l56.673-10.317V369.848l-63.373-3.855Z" transform="translate(-288.175 -357.13)" fill="#438ffe" opacity="0.5"/>
      <path id="Path_51917" data-name="Path 51917" d="M301.328,373.055l0,0a1.7,1.7,0,0,0-.181.052l.717,4.041a1.7,1.7,0,0,0,.212-.017l57.971-10.614a2.072,2.072,0,0,0,1.7-2.038V338.4a2.074,2.074,0,0,0-1.946-2.07l-65.375-4a2.055,2.055,0,0,0-.5.038l.731,4.128.027,0,62.921,3.849v22.406Z" transform="translate(-282.359 -327.636)" fill="#438ffe"/>
      <path id="Path_51918" data-name="Path 51918" d="M402.865,747.617H436.7a6.448,6.448,0,0,1,3.289-4.145H399.577A6.456,6.456,0,0,1,402.865,747.617Z" transform="translate(-374.929 -687.844)" fill="#438ffe"/>
      <path id="Path_51919" data-name="Path 51919" d="M773.343,743.472a6.454,6.454,0,0,1,3.289,4.145H778.5a2.073,2.073,0,1,0,0-4.145Z" transform="translate(-702.389 -687.844)" fill="#438ffe"/>
      <path id="Path_51920" data-name="Path 51920" d="M219.41,339.934l-6.495-36.614-.731-4.128-.42-2.358a2.068,2.068,0,0,0-1.844-1.7l-7.026-.664a2.072,2.072,0,1,0-.388,4.126l5.455.516,9.345,52.681a6.418,6.418,0,0,1,3.8-2.3l-.978-5.514Z" transform="translate(-200.626 -294.461)" fill="#438ffe"/>
      <path id="Path_51921" data-name="Path 51921" d="M706.216,751.614a5.371,5.371,0,1,0,5.368-5.372A5.37,5.37,0,0,0,706.216,751.614Zm7.957,0a2.586,2.586,0,1,1-2.588-2.586A2.59,2.59,0,0,1,714.173,751.614Z" transform="translate(-643.579 -690.271)" fill="#160e4d"/>
      <path id="Path_51922" data-name="Path 51922" d="M707.008,738.372a6.474,6.474,0,1,0,3.289,4.145A6.4,6.4,0,0,0,707.008,738.372Zm-2.948,11.086a5.371,5.371,0,1,1,5.374-5.37A5.37,5.37,0,0,1,704.06,749.458Z" transform="translate(-636.055 -682.744)" fill="#fff"/>
      <path id="Path_51923" data-name="Path 51923" d="M728.687,771.313a2.586,2.586,0,1,0,2.584-2.586A2.59,2.59,0,0,0,728.687,771.313Z" transform="translate(-663.266 -709.97)" fill="#438ffe"/>
      <path id="Path_51924" data-name="Path 51924" d="M332.455,751.614a5.371,5.371,0,1,0,5.371-5.372A5.371,5.371,0,0,0,332.455,751.614Zm7.957,0a2.587,2.587,0,1,1-2.586-2.586A2.589,2.589,0,0,1,340.412,751.614Z" transform="translate(-316.123 -690.271)" fill="#160e4d"/>
      <path id="Path_51925" data-name="Path 51925" d="M333.252,738.372a6.431,6.431,0,1,0,3.49,5.715,6.318,6.318,0,0,0-.2-1.57A6.456,6.456,0,0,0,333.252,738.372Zm-2.945,11.086a5.371,5.371,0,1,1,5.371-5.37A5.371,5.371,0,0,1,330.307,749.458Z" transform="translate(-308.604 -682.744)" fill="#fff"/>
      <path id="Path_51926" data-name="Path 51926" d="M354.921,771.313a2.587,2.587,0,1,0,2.588-2.586A2.591,2.591,0,0,0,354.921,771.313Z" transform="translate(-335.806 -709.97)" fill="#438ffe"/>
    </g>
  </g>
</svg>
