<svg xmlns="http://www.w3.org/2000/svg" width="111.568" height="113.041" viewBox="0 0 111.568 113.041">
  <g id="Digital_learning" data-name="Digital learning" transform="translate(-334.651 -310.13)">
    <g id="Group_16247" data-name="Group 16247" transform="translate(358.878 331.062)">
      <g id="Group_16242" data-name="Group 16242" transform="translate(17.875 39.48)">
        <path id="Path_51215" data-name="Path 51215" d="M1050.691,1320.614l-15.919-2.379c-.1,0-.137.1-.137.188v13.544c0,1.3-9.045,4.666-9.133,4.495l-.011,1.433a.523.523,0,0,0,.533.5h.2l13.347,2.478a4.666,4.666,0,0,0,1.792-.373l7.338-3.09a3.364,3.364,0,0,0,2.154-3.054V1320.8A.179.179,0,0,0,1050.691,1320.614Z" transform="translate(-1025.491 -1317.211)"/>
        <g id="Group_16241" data-name="Group 16241" transform="translate(0.045)">
          <path id="Path_51216" data-name="Path 51216" d="M1035.792,1303.742v13.547a3.46,3.46,0,0,1-2.21,3.129l-4.95,2.113a.3.3,0,0,0,.145.571l13.6,2.478a4.566,4.566,0,0,0,1.769-.354l5.485-2.309a3.463,3.463,0,0,0,2.228-3.136v-13.56a.107.107,0,0,0-.113-.1l-15.844-2.478A.107.107,0,0,0,1035.792,1303.742Z" transform="translate(-1028.305 -1303.507)" fill="#fff"/>
          <path id="Path_51217" data-name="Path 51217" d="M1040.3,1323.637l-.024,0-13.59-2.476a.457.457,0,0,1-.45-.355.422.422,0,0,1,.265-.475l4.95-2.113a3.343,3.343,0,0,0,2.128-3v-13.547a.242.242,0,0,1,.248-.235l.021,0,15.835,2.477a.241.241,0,0,1,.235.235v13.56a3.612,3.612,0,0,1-2.311,3.261l-5.485,2.309A4.732,4.732,0,0,1,1040.3,1323.637Zm-6.452-21.933v13.507a3.611,3.611,0,0,1-2.292,3.253l-4.95,2.113a.153.153,0,0,0-.107.173.186.186,0,0,0,.2.139l.024,0,13.589,2.476a4.46,4.46,0,0,0,1.7-.343l5.485-2.309a3.343,3.343,0,0,0,2.146-3.012v-13.528Z" transform="translate(-1026.225 -1301.429)"/>
        </g>
      </g>
      <g id="Group_16246" data-name="Group 16246" transform="translate(0 0)">
        <path id="Path_51218" data-name="Path 51218" d="M803.045,707.342,801.269,709l-65.848-11.395.706-42.626,2.131-1.144a1.971,1.971,0,0,1,1.277-.2l62.5,11.276a1.97,1.97,0,0,1,1.62,1.939l.013,39.055A1.97,1.97,0,0,1,803.045,707.342Z" transform="translate(-735.224 -653.604)" fill="#160e4d"/>
        <g id="Group_16243" data-name="Group 16243" transform="translate(0 1.222)">
          <path id="Path_51219" data-name="Path 51219" d="M798.787,730.133l-63.031-11.381a1.646,1.646,0,0,1-1.354-1.62V677.5a1.646,1.646,0,0,1,1.938-1.62l63.031,11.381a1.646,1.646,0,0,1,1.353,1.62v39.628A1.646,1.646,0,0,1,798.787,730.133Z" transform="translate(-734.267 -675.724)" fill="#fff"/>
          <path id="Path_51220" data-name="Path 51220" d="M797,728.22a1.791,1.791,0,0,1-.318-.029L733.653,716.81a1.78,1.78,0,0,1-1.464-1.752V675.43a1.781,1.781,0,0,1,2.1-1.752l63.031,11.381a1.78,1.78,0,0,1,1.464,1.753v39.628A1.781,1.781,0,0,1,797,728.22Zm-.27-.294a1.511,1.511,0,0,0,1.78-1.487V686.811a1.51,1.51,0,0,0-1.243-1.487l-63.031-11.381a1.511,1.511,0,0,0-1.78,1.487v39.628a1.51,1.51,0,0,0,1.243,1.487Z" transform="translate(-732.189 -673.649)"/>
        </g>
        <g id="Group_16244" data-name="Group 16244" transform="translate(10.379 9.753)">
          <path id="Path_51221" data-name="Path 51221" d="M948.687,852.6l-43.525-7.859a.548.548,0,0,1-.451-.539V816.4a.548.548,0,0,1,.645-.539l43.525,7.859a.548.548,0,0,1,.451.539v27.8A.548.548,0,0,1,948.687,852.6Z" transform="translate(-904.577 -815.719)" fill="#fff"/>
          <path id="Path_51222" data-name="Path 51222" d="M946.707,850.663a.686.686,0,0,1-.122-.011l-43.525-7.859a.682.682,0,0,1-.561-.672v-27.8a.683.683,0,0,1,.8-.672l43.525,7.859a.682.682,0,0,1,.561.672v27.8a.683.683,0,0,1-.682.683Zm-.074-.276a.413.413,0,0,0,.486-.406v-27.8a.413.413,0,0,0-.34-.406l-43.525-7.859a.413.413,0,0,0-.486.406v27.8a.413.413,0,0,0,.34.406Z" transform="translate(-902.499 -813.641)"/>
        </g>
        <g id="Group_16245" data-name="Group 16245" transform="translate(13.808 17.026)">
          <path id="Path_51223" data-name="Path 51223" d="M998.492,940l-.024,0-37.413-6.755a.135.135,0,0,1,.048-.266l37.413,6.755a.135.135,0,0,1-.024.268Z" transform="translate(-960.81 -932.976)"/>
          <path id="Path_51224" data-name="Path 51224" d="M993.761,983.266l-.024,0-32.682-5.9a.135.135,0,0,1,.048-.266l32.682,5.9a.135.135,0,0,1-.024.268Z" transform="translate(-960.81 -974.406)"/>
          <path id="Path_51225" data-name="Path 51225" d="M1000.163,1028.751l-.024,0-37.3-6.722a.135.135,0,1,1,.048-.266l37.3,6.722a.135.135,0,0,1-.024.268Z" transform="translate(-962.481 -1016.349)"/>
          <path id="Path_51226" data-name="Path 51226" d="M1412.214,1147.059l-.024,0-10.564-1.907a.135.135,0,0,1,.048-.266l10.564,1.907a.135.135,0,0,1-.024.268Z" transform="translate(-1374.532 -1131.968)"/>
          <path id="Path_51227" data-name="Path 51227" d="M976.276,1068.346l-.024,0-15.2-2.744a.135.135,0,0,1,.048-.266l15.2,2.744a.135.135,0,0,1-.024.268Z" transform="translate(-960.81 -1057.266)"/>
          <path id="Path_51228" data-name="Path 51228" d="M1460.429,1199.883l-.024,0-7.435-1.342a.135.135,0,1,1,.048-.266l7.435,1.342a.135.135,0,0,1-.024.268Z" transform="translate(-1422.748 -1182.103)"/>
          <path id="Path_51229" data-name="Path 51229" d="M984.234,1113.9l-.024,0-23.155-4.181a.135.135,0,0,1,.048-.266l23.155,4.181a.135.135,0,0,1-.024.268Z" transform="translate(-960.81 -1098.695)"/>
          <path id="Path_51230" data-name="Path 51230" d="M996.439,1159.722l-.024,0-37.547-6.812a.135.135,0,0,1,.048-.266l37.547,6.812a.135.135,0,0,1-.024.268Z" transform="translate(-958.758 -1139.253)"/>
          <path id="Path_51231" data-name="Path 51231" d="M990.6,1203.286l-.024,0-29.517-5.33a.135.135,0,0,1,.048-.266l29.517,5.33a.135.135,0,0,1-.024.268Z" transform="translate(-960.81 -1181.554)"/>
        </g>
      </g>
    </g>
    <g id="Group_16256" data-name="Group 16256" transform="translate(337.83 350.849)">
      <g id="Group_16253" data-name="Group 16253" transform="translate(2.678)">
        <g id="Group_16250" data-name="Group 16250" transform="translate(0 23.511)">
          <g id="Group_16248" data-name="Group 16248" transform="translate(63.586 18.408)">
            <ellipse id="Ellipse_6" data-name="Ellipse 6" cx="5.651" cy="3.3" rx="5.651" ry="3.3" transform="matrix(0.966, -0.258, 0.258, 0.966, 0, 2.915)" fill="#fff"/>
            <path id="Path_51232" data-name="Path 51232" d="M1488.958,1689.933c-2.085,0-3.754-.8-4.113-2.146a2.967,2.967,0,0,1,1.032-2.811,8.188,8.188,0,0,1,3.672-2c3.082-.823,5.987,0,6.476,1.826s-1.622,3.988-4.7,4.811A9.212,9.212,0,0,1,1488.958,1689.933Zm2.976-7.011a9.034,9.034,0,0,0-2.316.315,7.915,7.915,0,0,0-3.55,1.929,2.713,2.713,0,0,0-.963,2.552c.45,1.686,3.207,2.42,6.145,1.635s4.963-2.795,4.513-4.481C1495.436,1683.644,1493.887,1682.922,1491.935,1682.922Z" transform="translate(-1484.124 -1681.648)"/>
          </g>
          <g id="Group_16249" data-name="Group 16249" transform="translate(29.126 17.335)">
            <path id="Path_51233" data-name="Path 51233" d="M947.324,1658.339a2.445,2.445,0,0,1,1.191-.5c1.339-.174,1.553-.316,4.238-1.649,2.01-1,4.335.21,5.52-1.486.689-.985-2.45-4.819-7.351-3.71-2.79.631-2.395,2.044-6.057,4.212,0,0-15.1,9.427-18.253,6.339a48.106,48.106,0,0,1-6.592-8.8l-9.122,11.039s11.532,7.9,18.433,7.6C933.369,1671.217,947.324,1658.339,947.324,1658.339Z" transform="translate(-910.762 -1650.656)" fill="#fff"/>
            <path id="Path_51234" data-name="Path 51234" d="M926.876,1669.393c-6.9,0-18.021-7.556-18.134-7.633a.135.135,0,0,1-.028-.2l9.122-11.039a.135.135,0,0,1,.221.019,48.311,48.311,0,0,0,6.57,8.769c3.046,2.979,17.937-6.263,18.087-6.357a14.1,14.1,0,0,0,3.136-2.468,5.184,5.184,0,0,1,2.963-1.762,6.844,6.844,0,0,1,7.2,2.407c.415.618.526,1.183.3,1.512-.714,1.022-1.812,1.047-2.974,1.074a5.936,5.936,0,0,0-2.6.456l-.517.257c-2.21,1.1-2.494,1.24-3.764,1.405a2.308,2.308,0,0,0-1.121.468c-.628.579-14.044,12.911-18.076,13.082C927.131,1669.39,927,1669.393,926.876,1669.393Zm-17.859-7.773c1.233.825,11.427,7.5,17.855,7.5.126,0,.25,0,.373-.008,3.944-.167,17.769-12.886,17.909-13.014l.008-.007a2.58,2.58,0,0,1,1.256-.526c1.225-.159,1.458-.274,3.679-1.379l.517-.257a6.145,6.145,0,0,1,2.71-.484c1.139-.026,2.123-.048,2.759-.959.158-.227.041-.7-.3-1.207a6.568,6.568,0,0,0-6.911-2.294,4.968,4.968,0,0,0-2.831,1.689,14.324,14.324,0,0,1-3.187,2.508c-.527.329-11.236,6.974-16.353,6.974a2.866,2.866,0,0,1-2.063-.655,47.824,47.824,0,0,1-6.517-8.66Z" transform="translate(-908.683 -1648.518)"/>
          </g>
          <path id="Path_51235" data-name="Path 51235" d="M454.042,1366.672c-5.2-1.683-13.715-2.943-17.125-2.523-3.786.467-8.067,4.692-5.255,21.62.551,3.317.96,6.312,1.544,8.966a38.557,38.557,0,0,0,14.373,12.65c2.736,1.4,13.938,4.645,27.256,5.494-5.936-6.222-7.788-11.265-8.259-12.858a.29.29,0,0,1,.37-.358l.658.218a1.268,1.268,0,0,0,1.465-.514c1.619-2.506,6.13-10.226,3.982-15.5C472.381,1382.22,463.028,1369.581,454.042,1366.672Z" transform="translate(-430.754 -1364.067)" fill="#160e4d"/>
        </g>
        <g id="Group_16252" data-name="Group 16252" transform="translate(7.34)">
          <g id="Group_16251" data-name="Group 16251" transform="translate(0.323 6.936)">
            <path id="Path_51236" data-name="Path 51236" d="M574.441,1094.3a8.444,8.444,0,0,1,1.323,3.412,6.3,6.3,0,0,0,1.2,3.14.33.33,0,0,1-.052.438l-.96.856a.309.309,0,0,0-.1.229c0,.545-.02,2.558-.085,2.933a1.5,1.5,0,0,1-.6.913,7.9,7.9,0,0,1-2.445-.005s-.533.05-1.577,2.878c-1.128,3.053,1.212,4.207,1.212,4.207.879.459.9.9-.056,1.206-3.278,1.045-10.055,1.808-13.478-2.033a.4.4,0,0,1,.189-.655c8.7-2.565,4.551-9.955,4.735-10,.47-.125,3.171-2.97,4.753-3.78,1.079-.552,2.387.247,3.265-.589Z" transform="translate(-558.577 -1094.164)" fill="#fff"/>
            <path id="Path_51237" data-name="Path 51237" d="M564.565,1113.409c-2.871,0-5.945-.694-7.932-2.925a.538.538,0,0,1,.251-.874c2.447-.722,4.094-1.9,4.9-3.5,1.191-2.381.184-5.089-.147-5.979-.116-.311-.14-.376-.1-.451a.148.148,0,0,1,.089-.072,10.064,10.064,0,0,0,1.423-1.173,19.894,19.894,0,0,1,3.3-2.6,3.065,3.065,0,0,1,1.617-.211,2.023,2.023,0,0,0,1.611-.351l2.681-3.141a.133.133,0,0,1,.111-.047.135.135,0,0,1,.1.06,8.463,8.463,0,0,1,1.345,3.48,6.155,6.155,0,0,0,1.171,3.069.467.467,0,0,1-.072.617l-.96.856a.173.173,0,0,0-.06.129c0,.6-.021,2.573-.087,2.956a1.626,1.626,0,0,1-.668,1.008,7.215,7.215,0,0,1-2.494.014c-.089.047-.584.4-1.466,2.786-1.071,2.9,1.054,3.994,1.145,4.04.517.27.756.535.732.811s-.287.478-.806.644A19.657,19.657,0,0,1,564.565,1113.409Zm-2.758-13.593c.02.058.05.139.079.219.341.917,1.379,3.708.135,6.194-.837,1.672-2.54,2.9-5.061,3.641a.268.268,0,0,0-.126.436c3.427,3.847,10.222,2.987,13.336,1.994.542-.173.614-.344.619-.41s-.039-.262-.585-.547c-.022-.011-2.432-1.242-1.276-4.373,1-2.7,1.546-2.952,1.691-2.965a.128.128,0,0,1,.03,0,7.149,7.149,0,0,0,2.363.02,1.361,1.361,0,0,0,.53-.817c.05-.288.076-1.693.083-2.911a.445.445,0,0,1,.15-.329l.96-.856a.2.2,0,0,0,.031-.26,6.439,6.439,0,0,1-1.219-3.211,7.927,7.927,0,0,0-1.2-3.192l-2.567,3.007-.01.01a2.247,2.247,0,0,1-1.816.43,2.861,2.861,0,0,0-1.48.181,19.78,19.78,0,0,0-3.246,2.557A11.939,11.939,0,0,1,561.808,1099.816Z" transform="translate(-556.498 -1092.086)"/>
          </g>
          <path id="Path_51238" data-name="Path 51238" d="M764.18,1148.7a.135.135,0,0,1-.01-.269.906.906,0,0,0,.695-.365,3.751,3.751,0,0,0,.269-2.425l-6.806,1.069a.135.135,0,0,1-.042-.267l6.937-1.089a.134.134,0,0,1,.153.106c.016.077.374,1.886-.3,2.769a1.176,1.176,0,0,1-.89.472Z" transform="translate(-745.559 -1135.167)"/>
          <path id="Path_51239" data-name="Path 51239" d="M727.131,1161.162a2.032,2.032,0,0,1-1.96-1.409,1.421,1.421,0,0,1,.262-1.746,1.507,1.507,0,0,1,1.8.109,3.173,3.173,0,0,1,.535.671.135.135,0,0,1-.229.142,2.953,2.953,0,0,0-.468-.6,1.24,1.24,0,0,0-1.478-.111c-.367.283-.432.8-.177,1.431a1.781,1.781,0,0,0,2.16,1.19.135.135,0,0,1,.077.259A2.081,2.081,0,0,1,727.131,1161.162Z" transform="translate(-714.408 -1146.818)"/>
          <path id="Path_51240" data-name="Path 51240" d="M569.942,980.725a4.407,4.407,0,0,0-3.418-2.4c-1.435-.282-3.774.776-4.926,2a.216.216,0,0,1-.329,0c-.247-.312-.835-1.018-1.356-1.08-1.507-.179-3.05,1.773-3.6,2.776a15.59,15.59,0,0,0-1.416,4.317.238.238,0,0,1-.25.2,3.083,3.083,0,0,0-3.44,3.375c.2,2.225,2.457,3.869,4.172,4.76a7.655,7.655,0,0,0,2.285.85.22.22,0,0,0,.12-.007,5.935,5.935,0,0,0,2.78-.263c1.821-.632,1.683-3.653,1.683-3.653l-.229-.57a1.44,1.44,0,0,1-.018-1.079c.43-1.051,2.016-.261,2.074-.274,2.984-.62,4.038-1.493,4.58-2.088C570.6,985.462,571.485,983.313,569.942,980.725Z" transform="translate(-551.196 -978.279)" fill="#160e4d"/>
        </g>
      </g>
      <g id="Group_16255" data-name="Group 16255" transform="translate(0 41.494)">
        <g id="Group_16254" data-name="Group 16254" transform="translate(0.487)">
          <path id="Path_51241" data-name="Path 51241" d="M425.53,1668.152l-.022,0-6.5-.512a35.734,35.734,0,0,1-16.7-5.679l-.117-.076a3.372,3.372,0,0,0-2.649-.437l-.882.222a3.37,3.37,0,0,0-1.488.809c-.1.091-.159.16-.159.184l.838,4.829a39.787,39.787,0,0,0,18.043,19.056c1.785.915,7.175,2.614,14.4,3.92-.012-1.746-.029-4.153-.029-4.156v-12.369A5.9,5.9,0,0,0,425.53,1668.152Z" transform="translate(-396.879 -1661.209)"/>
          <path id="Path_51242" data-name="Path 51242" d="M428.221,1688.532l-.024,0c-6.865-1.24-12.462-2.917-14.443-3.932a38.762,38.762,0,0,1-10.906-8.272,43.467,43.467,0,0,1-7.2-10.846.139.139,0,0,1-.011-.035l-.838-4.829a.129.129,0,0,1,0-.023c0-.064.029-.12.2-.282a3.509,3.509,0,0,1,1.548-.842l.882-.222a3.519,3.519,0,0,1,2.755.454l.117.076a35.7,35.7,0,0,0,16.639,5.658l6.526.516h.008a6.057,6.057,0,0,1,4.848,5.919v12.369l.029,4.155a.135.135,0,0,1-.135.136ZM395.9,1665.381a39.833,39.833,0,0,0,17.974,18.977c1.577.809,6.653,2.5,14.207,3.878l-.023-3.2c0-.478-.006-.789-.006-.79v-12.369a5.786,5.786,0,0,0-4.628-5.653l-.018,0-6.488-.511a35.976,35.976,0,0,1-16.765-5.7l-.116-.075a3.248,3.248,0,0,0-2.543-.42l-.882.222a3.239,3.239,0,0,0-1.429.776c-.06.057-.093.092-.11.112Zm-.844-4.74Z" transform="translate(-394.801 -1659.143)" fill="#fff"/>
        </g>
        <path id="Path_51243" data-name="Path 51243" d="M407.018,1700.822c-9.868-1.966-14.065-4.331-17.087-6.1a6.3,6.3,0,0,1-3.113-5.435v-14.707a2.026,2.026,0,0,1,3.027-1.76c.5.283.973.577,1.434.878a35.5,35.5,0,0,0,16.628,5.654l6.548.516a5.9,5.9,0,0,1,4.751,5.789s-.051,16.184-.249,16.315C418.054,1702.568,407.018,1700.822,407.018,1700.822Z" transform="translate(-386.818 -1671.731)" fill="#fff"/>
        <path id="Path_51244" data-name="Path 51244" d="M435.434,1782.9a.137.137,0,0,1-.032,0c-1.9-.462-3.7-.963-5.2-1.448a22.789,22.789,0,0,1-3.086-1.188c-1.066-.547-2.112-1.142-3.107-1.77a40.48,40.48,0,0,1-14.966-17.283.135.135,0,0,1,.244-.116,40.214,40.214,0,0,0,14.866,17.171c.989.624,2.028,1.215,3.087,1.758a22.889,22.889,0,0,0,3.045,1.172c1.493.484,3.284.982,5.18,1.443a.135.135,0,0,1-.032.266Z" transform="translate(-407.677 -1754.806)"/>
      </g>
    </g>
    <g id="Group_16261" data-name="Group 16261" transform="translate(416.214 363.976)">
      <g id="Group_16259" data-name="Group 16259">
        <g id="Group_16258" data-name="Group 16258" transform="translate(0.135 0.135)">
          <ellipse id="Ellipse_7" data-name="Ellipse 7" cx="13.436" cy="13.527" rx="13.436" ry="13.527" fill="#fff"/>
          <g id="Group_16257" data-name="Group 16257" transform="translate(2.482 0.619)">
            <path id="Path_51245" data-name="Path 51245" d="M1837.216,1206.516c-.055.082.109.356.435.356s.49-.055.625.3-.054,1.561.136,2,.517.712.761.465.218-.9.517-1.068,1.387-.822,1.441-1.369-.326-.958-1.278-1.068S1837.624,1205.914,1837.216,1206.516Z" transform="translate(-1829.815 -1206.047)" fill="#160e4d"/>
            <path id="Path_51246" data-name="Path 51246" d="M1763.718,1412.422a.387.387,0,0,0-.2.355,3.585,3.585,0,0,1-.517,1.969c-.462.465-.292,1.3-.3,1.643-.015.688.051.994.786,1.322s1.022.347,1.076,1a30.742,30.742,0,0,0,.357,3.853,7.851,7.851,0,0,0,.925,1.971c.245.246.816.383.462-.548s-.571-1.369-.163-1.889a7.083,7.083,0,0,0,1.142-2.19.868.868,0,0,1,.517-.794,2.05,2.05,0,0,0,.816-.383c.136-.164-.136-.63-.218-1.041s-.082-.657.6-.986.354-1.26-.571-1.506-1.5-.767-1.387-1.287-.626-.465-1.061-.712-.422-.633-.906-.818A1.556,1.556,0,0,0,1763.718,1412.422Z" transform="translate(-1759.833 -1399.685)" fill="#160e4d"/>
            <path id="Path_51247" data-name="Path 51247" d="M1933.921,1229.365c-.229-.346-.2-.894.372-1.644.45-.589-.2-1.178-.494-1.4a.076.076,0,0,1,.038-.135c.369-.042,1.225.083,1.6,2,.487,2.48.688,1.615.945,1.327s-.224-.827.258-1.384a2.8,2.8,0,0,0,.537-1.282,13.536,13.536,0,0,0-7.2-8.918c.005.432-.1,1.937-1.849,1.316,0,0-1.089-.519-.831,1.586s1.146-.144,1.318-.231.63-.2.43,1.211c0,0-.029.49-.917.4s-1.06.346-1.06.577a1.491,1.491,0,0,1-.4,1.269c-.487.433-.344,1.557.315,1.182s1.117-1.557,1.719-1.673,1.146.663,1.719.461.315-1.182.6-1.182.888.577.8,1.01-.974.635-.745,1.154.716.346.859.692-.716.75-1.4.317-.8.2-1.146-.087-.372-.894-.859-.692-.773.606-1.4.894-1.146.663-1.146,1.067a5.445,5.445,0,0,1,.115,1.471c-.115.635-.315,2.365,1.748,2.019s1.8.721,1.8.836a6.342,6.342,0,0,0,.172,1.875,1.607,1.607,0,0,1,0,1.99c-.659.981-.4,3.173.2,2.884s1.2-1.413,1.948-1.99,1.776-3.086,1.346-3.865.6-1.413.745-1.932A1.162,1.162,0,0,0,1933.921,1229.365Z" transform="translate(-1913.186 -1217.202)" fill="#160e4d"/>
            <path id="Path_51248" data-name="Path 51248" d="M1717.2,1227.236a2.849,2.849,0,0,1-.353,1.493,6.649,6.649,0,0,0-.9,3.7c-.082,1.479,1.774,4.085,2.237,4.359s.534-.378.534-.9a4.546,4.546,0,0,0-.469-1.747,1.714,1.714,0,0,1-.19-1.232.356.356,0,0,1,.626-.082c.218.246.74.465.992.311.309-.189.189-.93.3-1.177s.707-.411.952-.931a2.134,2.134,0,0,1,1.142-.986c.49-.247.925-.356,1.006-.52s-.027-.548.109-.986.462-.958.326-1.177-.544-.575-1.305-.027-.952.548-1.169.137a1.234,1.234,0,0,1,1.2-1.479c.952,0,1.142-.329,1.169-.575s-.272-.52-.6-.575-.381.137-1.741.684a3.607,3.607,0,0,1-2.136.182A13.533,13.533,0,0,0,1717.2,1227.236Z" transform="translate(-1715.949 -1223.687)" fill="#160e4d"/>
            <path id="Path_51249" data-name="Path 51249" d="M2049.8,1499.717a2.018,2.018,0,0,1-.925,1.408c-.338.2-.857.522-.857,1.044a5.187,5.187,0,0,0,.069,1.1,9.743,9.743,0,0,0,3.17-4.723C2051.2,1498.208,2049.822,1499.1,2049.8,1499.717Z" transform="translate(-2027.78 -1480.649)" fill="#160e4d"/>
          </g>
        </g>
        <path id="Path_51250" data-name="Path 51250" d="M1686.579,1220.994a13.662,13.662,0,1,1,13.571-13.662A13.632,13.632,0,0,1,1686.579,1220.994Zm0-27.053a13.392,13.392,0,1,0,13.3,13.392A13.362,13.362,0,0,0,1686.579,1193.941Z" transform="translate(-1673.008 -1193.671)"/>
      </g>
      <g id="Group_16260" data-name="Group 16260" transform="translate(4.636 0.368)">
        <path id="Path_51251" data-name="Path 51251" d="M1749.248,1225.854a.936.936,0,0,0,.288,1.325,16.274,16.274,0,0,0,8.484,2.373,16.569,16.569,0,0,0,10.044-29.642.934.934,0,1,0-1.146,1.474,14.694,14.694,0,0,1-8.9,26.3,14.432,14.432,0,0,1-7.516-2.1A.933.933,0,0,0,1749.248,1225.854Z" transform="translate(-1749.086 -1199.713)" fill="#160e4d"/>
        <rect id="Rectangle_4011" data-name="Rectangle 4011" width="1.846" height="6.203" transform="translate(8.028 28.835)" fill="#160e4d"/>
        <ellipse id="Ellipse_8" data-name="Ellipse 8" cx="5.674" cy="1.693" rx="5.674" ry="1.693" transform="translate(3.271 32.852)" fill="#160e4d"/>
      </g>
    </g>
    <g id="Group_16269" data-name="Group 16269" transform="translate(382.583 311.646)">
      <path id="Path_51252" data-name="Path 51252" d="M1304.5,428.517l-11.186-1.8,5.7-15.091,11.186,1.8Z" transform="translate(-1282.82 -406.96)" fill="#160e4d"/>
      <path id="Path_51253" data-name="Path 51253" d="M1130.146,379.327l-8.978-3.591,5.3-14.069,8.924,3.747Z" transform="translate(-1121.167 -360.042)"/>
      <path id="Path_51254" data-name="Path 51254" d="M1270.027,434.534a1.247,1.247,0,0,1-1.534-.48l5.282-14.108a1.245,1.245,0,0,0,1.52.531Z" transform="translate(-1259.515 -414.768)"/>
      <g id="Group_16262" data-name="Group 16262" transform="translate(9.116 4.445)">
        <path id="Path_51255" data-name="Path 51255" d="M1274.5,424.585a1.247,1.247,0,0,1-1.534-.48l5.228-13.952a1.245,1.245,0,0,0,1.52.531Z" transform="translate(-1272.828 -410.017)"/>
        <path id="Path_51256" data-name="Path 51256" d="M1271.954,422.738a1.368,1.368,0,0,1-1.188-.647.135.135,0,0,1-.008-.112l5.228-13.952a.135.135,0,0,1,.119-.087.132.132,0,0,1,.128.075,1.117,1.117,0,0,0,1.347.466.135.135,0,0,1,.178.172l-5.214,13.9a.135.135,0,0,1-.07.075A1.253,1.253,0,0,1,1271.954,422.738Zm.464-.231h0Zm-1.385-.494a1.135,1.135,0,0,0,1.279.392l5.1-13.6a1.439,1.439,0,0,1-1.266-.441Z" transform="translate(-1270.75 -407.939)"/>
      </g>
      <g id="Group_16263" data-name="Group 16263" transform="translate(0.373 0.588)">
        <path id="Path_51257" data-name="Path 51257" d="M1129.757,361.348l8.477,3.4.592-.5,4.779-12.752-1-.395-7.82-4.244-5.281,12.555Z" transform="translate(-1129.365 -346.725)" fill="#fff"/>
        <path id="Path_51258" data-name="Path 51258" d="M1136.156,362.809a.136.136,0,0,1-.05-.01l-8.477-3.4a.135.135,0,0,1-.083-.107l-.257-1.934a.137.137,0,0,1,.009-.07l5.282-12.555a.135.135,0,0,1,.189-.066l7.813,4.24,1,.392a.135.135,0,0,1,.077.173l-4.779,12.752a.135.135,0,0,1-.039.056l-.592.5A.135.135,0,0,1,1136.156,362.809Zm-8.354-3.635,8.329,3.344.5-.427,4.72-12.6-.881-.346-.015-.007-7.689-4.173-5.21,12.384Z" transform="translate(-1127.287 -344.646)"/>
      </g>
      <g id="Group_16264" data-name="Group 16264" transform="translate(0.378 0)">
        <path id="Path_51259" data-name="Path 51259" d="M1129.587,350.3a.089.089,0,0,0,.053.116c.739.261,6.065,2.176,7.947,3.7l1.315,1.068,4.99-13.316-1.052-.888c-1.669-1.408-6.331-3.193-7.827-3.744a.5.5,0,0,0-.643.3Z" transform="translate(-1129.447 -337.074)" fill="#fff"/>
        <path id="Path_51260" data-name="Path 51260" d="M1136.823,353.248a.135.135,0,0,1-.085-.03l-1.316-1.068c-1.876-1.523-7.3-3.465-7.907-3.682a.224.224,0,0,1-.135-.291h0l4.784-12.765a.638.638,0,0,1,.816-.374c1.418.523,6.174,2.339,7.868,3.768l1.052.888a.135.135,0,0,1,.039.15l-4.99,13.316a.136.136,0,0,1-.091.083A.134.134,0,0,1,1136.823,353.248Zm-9.174-5.019c.8.283,6.071,2.192,7.943,3.711l1.17.95,4.891-13.051-.979-.826c-1.66-1.4-6.38-3.2-7.787-3.721a.367.367,0,0,0-.47.216Z" transform="translate(-1127.366 -335)"/>
      </g>
      <g id="Group_16265" data-name="Group 16265" transform="translate(9.7 5.212)">
        <path id="Path_51261" data-name="Path 51261" d="M1282.542,435.478l1.027.881,10.268,1.685,5.073-13.768-.739-1.275a.1.1,0,0,0-.1-.049,14.954,14.954,0,0,1-3.781.058,10.106,10.106,0,0,0-4.633-.062l-1.964.414Z" transform="translate(-1282.407 -422.576)" fill="#fff"/>
        <path id="Path_51262" data-name="Path 51262" d="M1291.759,436.127l-.022,0-10.268-1.685a.137.137,0,0,1-.066-.031l-1.027-.881a.135.135,0,0,1-.036-.155l5.154-12.116a.135.135,0,0,1,.1-.079l1.964-.414a10.3,10.3,0,0,1,4.695.064,15.235,15.235,0,0,0,3.731-.061.232.232,0,0,1,.229.115l.739,1.275a.135.135,0,0,1,.01.114l-5.073,13.768A.135.135,0,0,1,1291.759,436.127Zm-10.209-1.947,10.121,1.661,5.012-13.6-.7-1.2a14.8,14.8,0,0,1-3.807.052,10.023,10.023,0,0,0-4.571-.061l-1.895.4-5.088,11.961Z" transform="translate(-1280.329 -420.525)"/>
      </g>
      <path id="Path_51263" data-name="Path 51263" d="M1287.169,416.632a10.749,10.749,0,0,1,1.988.278c2.154.51,3.993,1.068,3.993,1.068l4.941-13.185a.13.13,0,0,0-.084-.171c-.461-.137-2.061-.6-3.884-1.036a10.788,10.788,0,0,0-4.712-.056l-1.906.4-4.99,13.316,2-.408A10.829,10.829,0,0,1,1287.169,416.632Z" transform="translate(-1272.681 -399.134)" fill="#fff"/>
      <path id="Path_51264" data-name="Path 51264" d="M1291.071,416.062a.135.135,0,0,1-.039-.006s-.305-.093-.811-.237a21.768,21.768,0,0,0-5.938-.828h-1.6a.135.135,0,1,1,0-.27h1.6a22.036,22.036,0,0,1,6.012.838c.32.091.56.162.694.2l4.9-13.067c-.444-.128-2.047-.6-3.87-1.028a10.726,10.726,0,0,0-4.656-.056l-1.834.386-4.964,13.247a.135.135,0,0,1-.253-.095l4.99-13.316a.135.135,0,0,1,.1-.085l1.906-.4a11,11,0,0,1,4.774.057c1.83.434,3.439.9,3.889,1.038a.265.265,0,0,1,.172.348l-4.941,13.185A.135.135,0,0,1,1291.071,416.062Z" transform="translate(-1270.602 -397.084)"/>
      <g id="Group_16268" data-name="Group 16268" transform="translate(2.97 2.299)">
        <g id="Group_16266" data-name="Group 16266" transform="translate(8.974 3.64)">
          <path id="Path_51265" data-name="Path 51265" d="M1386.347,433.624a.135.135,0,0,1-.037-.005l-.306-.088c-.563-.162-.97-.279-2.073-.541a10.721,10.721,0,0,0-4.653-.055.135.135,0,1,1-.056-.264,10.991,10.991,0,0,1,4.771.057c1.109.263,1.519.381,2.086.544l.305.087a.135.135,0,0,1-.037.265Z" transform="translate(-1375.339 -432.436)"/>
          <path id="Path_51266" data-name="Path 51266" d="M1376.971,460.692a.136.136,0,0,1-.037-.005c-.72-.205-1.233-.341-2.544-.652a10.718,10.718,0,0,0-4.653-.055.135.135,0,1,1-.056-.264,10.991,10.991,0,0,1,4.771.057c1.317.312,1.832.449,2.556.655a.135.135,0,0,1-.037.265Z" transform="translate(-1366.38 -457.833)"/>
          <path id="Path_51267" data-name="Path 51267" d="M1400.466,487.055a.137.137,0,0,1-.037-.005c-.569-.162-.9-.239-1.609-.406l-.752-.177a10.619,10.619,0,0,0-2.447-.286.134.134,0,0,1-.137-.135.137.137,0,0,1,.137-.135,10.89,10.89,0,0,1,2.509.293l.751.177c.718.168,1.046.245,1.621.409a.135.135,0,0,1-.037.265Z" transform="translate(-1390.711 -482.652)"/>
          <path id="Path_51268" data-name="Path 51268" d="M1355.849,513.726a.135.135,0,0,1-.037-.005l-.483-.14c-.542-.159-1.1-.324-2.105-.561a10.722,10.722,0,0,0-4.653-.055.135.135,0,0,1-.056-.264,10.992,10.992,0,0,1,4.771.057c1.009.239,1.573.4,2.119.565l.481.14a.135.135,0,0,1-.037.265Z" transform="translate(-1346.504 -507.589)"/>
          <path id="Path_51269" data-name="Path 51269" d="M1344.912,536.657a.132.132,0,0,1-.035,0c-.62-.164-1.226-.317-1.8-.453a10.719,10.719,0,0,0-4.653-.055.135.135,0,0,1-.056-.264,10.993,10.993,0,0,1,4.771.057c.578.137,1.186.29,1.808.455a.135.135,0,0,1-.034.265Z" transform="translate(-1336.974 -529.356)"/>
          <path id="Path_51270" data-name="Path 51270" d="M1334.907,561.118a.135.135,0,0,1-.028,0,10.589,10.589,0,0,0-4.42,0,.135.135,0,0,1-.056-.264,10.857,10.857,0,0,1,4.531,0,.135.135,0,0,1-.028.267Z" transform="translate(-1329.496 -552.8)"/>
          <path id="Path_51271" data-name="Path 51271" d="M1324.36,588.552a.136.136,0,0,1-.037-.005c-.685-.2-1.009-.272-2.081-.526l-.264-.063a10.722,10.722,0,0,0-4.653-.055.135.135,0,1,1-.056-.264,10.993,10.993,0,0,1,4.771.057l.264.063c1.077.255,1.4.332,2.093.529a.135.135,0,0,1-.037.265Z" transform="translate(-1317.161 -577.96)"/>
        </g>
        <g id="Group_16267" data-name="Group 16267">
          <path id="Path_51272" data-name="Path 51272" d="M1226.565,374.672a.133.133,0,0,1-.067-.018,25.447,25.447,0,0,0-3.485-1.676.135.135,0,1,1,.095-.253,25.745,25.745,0,0,1,3.525,1.7.135.135,0,0,1-.068.252Z" transform="translate(-1219.694 -372.716)"/>
          <path id="Path_51273" data-name="Path 51273" d="M1249.161,427.253a.134.134,0,0,1-.106-.051,11.7,11.7,0,0,0-4-2.77.135.135,0,0,1,.119-.242,11.916,11.916,0,0,1,4.09,2.844.135.135,0,0,1-.105.219Z" transform="translate(-1240.406 -421.041)"/>
          <path id="Path_51274" data-name="Path 51274" d="M1202.047,451.73a.134.134,0,0,1-.094-.038,13.5,13.5,0,0,0-3.777-2.5c-.924-.456-1.462-.687-1.981-.91l-.461-.2a.135.135,0,1,1,.108-.247l.459.2c.523.224,1.064.457,1.994.915a13.733,13.733,0,0,1,3.845,2.547.135.135,0,0,1-.094.232Z" transform="translate(-1194.084 -443.249)"/>
          <path id="Path_51275" data-name="Path 51275" d="M1206.428,485.5a.135.135,0,0,1-.094-.039,10.567,10.567,0,0,0-3.21-2.09c-.173-.084-.351-.17-.533-.26-.531-.262-1.1-.531-1.677-.8a.135.135,0,0,1,.113-.245c.584.269,1.15.539,1.684.8.182.09.359.175.532.259a10.929,10.929,0,0,1,3.282,2.14.135.135,0,0,1-.095.231Z" transform="translate(-1198.949 -475.392)"/>
          <path id="Path_51276" data-name="Path 51276" d="M1221.859,522.751a.135.135,0,0,1-.1-.04,10.9,10.9,0,0,0-3.063-2c-.242-.121-.486-.243-.729-.37a.135.135,0,1,1,.125-.239c.242.126.484.247.725.368a11.11,11.11,0,0,1,3.134,2.051.135.135,0,0,1-.1.23Z" transform="translate(-1214.973 -511.105)"/>
          <path id="Path_51277" data-name="Path 51277" d="M1176.275,536.8a.135.135,0,0,1-.106-.051c-1.005-1.263-4.574-2.778-6.173-3.272a.135.135,0,1,1,.08-.258c1.626.5,5.263,2.054,6.3,3.362a.135.135,0,0,1-.105.219Z" transform="translate(-1169.901 -523.428)"/>
        </g>
      </g>
      <path id="Path_51278" data-name="Path 51278" d="M1455.462,644.794a.135.135,0,0,1-.126-.088l-.671-1.791a.135.135,0,0,1,.253-.095l.671,1.791a.135.135,0,0,1-.126.182Z" transform="translate(-1434.332 -623.979)"/>
    </g>
    <g id="Group_16272" data-name="Group 16272" transform="translate(423.076 341.696)">
      <g id="Group_16270" data-name="Group 16270" transform="translate(0 0)">
        <path id="Path_51279" data-name="Path 51279" d="M1787.827,835.837a15.827,15.827,0,0,0,9.31,11.868.134.134,0,0,0,.089.007c.656-.177,8.231-2.424,12.908-12.711a.136.136,0,0,0-.1-.19c-1.074-.208-7.03-1.479-9.487-4.454a.134.134,0,0,0-.216.009c-.586.877-3.874,5.154-12.376,5.316A.136.136,0,0,0,1787.827,835.837Z" transform="translate(-1787.691 -830.171)" fill="#fff"/>
        <path id="Path_51280" data-name="Path 51280" d="M1795.115,845.774a.272.272,0,0,1-.109-.023,15.854,15.854,0,0,1-9.39-11.972.27.27,0,0,1,.263-.309c8.44-.162,11.7-4.407,12.266-5.256a.266.266,0,0,1,.209-.119.271.271,0,0,1,.223.1c2.417,2.927,8.262,4.185,9.409,4.408a.266.266,0,0,1,.187.141.272.272,0,0,1,.006.238c-4.67,10.273-12.157,12.559-13,12.785A.263.263,0,0,1,1795.115,845.774Zm3.255-17.409c-.58.867-3.911,5.21-12.485,5.375h0a15.692,15.692,0,0,0,9.231,11.764c.825-.223,8.2-2.475,12.82-12.636C1806.773,832.64,1800.846,831.362,1798.37,828.364Z" transform="translate(-1785.613 -828.093)"/>
      </g>
      <g id="Group_16271" data-name="Group 16271" transform="translate(5.49 2.229)">
        <path id="Path_51281" data-name="Path 51281" d="M1996.186,868.327a.133.133,0,0,1-.029,0,21.475,21.475,0,0,1-7.138-3.4.135.135,0,1,1,.163-.215,21.183,21.183,0,0,0,7.033,3.356.135.135,0,0,1-.029.267Z" transform="translate(-1982.062 -864.676)"/>
        <path id="Path_51282" data-name="Path 51282" d="M2012.723,915.665a.136.136,0,0,1-.034,0,15.015,15.015,0,0,1-5.067-2.491.135.135,0,1,1,.159-.217,14.752,14.752,0,0,0,4.976,2.447.135.135,0,0,1-.034.265Z" transform="translate(-1999.531 -909.986)"/>
        <path id="Path_51283" data-name="Path 51283" d="M1971.51,881.566a.134.134,0,0,1-.088-.033,13.479,13.479,0,0,1-1.183-1.129.135.135,0,1,1,.2-.18,13.6,13.6,0,0,0,1.158,1.1.135.135,0,0,1-.088.237Z" transform="translate(-1964.445 -879.234)"/>
        <path id="Path_51284" data-name="Path 51284" d="M1956.415,901.97a.136.136,0,0,1-.053-.011,17.366,17.366,0,0,1-7-5.424.135.135,0,0,1,.223-.151,17.087,17.087,0,0,0,6.884,5.327.135.135,0,0,1-.054.259Z" transform="translate(-1944.85 -894.396)"/>
        <path id="Path_51285" data-name="Path 51285" d="M1932.782,914.429a.135.135,0,0,1-.063-.016,17.9,17.9,0,0,1-6.944-6.434.135.135,0,0,1,.238-.128,17.622,17.622,0,0,0,6.833,6.324.135.135,0,0,1-.063.254Z" transform="translate(-1922.708 -905.154)"/>
        <path id="Path_51286" data-name="Path 51286" d="M1969.592,1012.442a.134.134,0,0,1-.062-.015,12.906,12.906,0,0,1-2.484-1.709.135.135,0,0,1,.177-.2,12.628,12.628,0,0,0,2.432,1.673.135.135,0,0,1-.062.254Z" transform="translate(-1961.435 -1001.596)"/>
        <path id="Path_51287" data-name="Path 51287" d="M1902.532,924.327a.133.133,0,0,1-.1-.044,17.276,17.276,0,0,1-2.935-4.4.135.135,0,0,1,.249-.1,16.981,16.981,0,0,0,2.885,4.318.135.135,0,0,1-.1.226Z" transform="translate(-1898.038 -916.347)"/>
        <path id="Path_51288" data-name="Path 51288" d="M1879.468,1013.819h0a.135.135,0,0,1-.133-.137l.015-.974a.114.114,0,0,0-.036-.086.112.112,0,0,0-.086-.03l-1.363.113a.379.379,0,0,1-.335-.148.386.386,0,0,1-.057-.366l.066-.185a.114.114,0,0,0-.023-.118.11.11,0,0,0-.11-.034.376.376,0,0,1-.433-.2.381.381,0,0,1,.1-.473l.266-.219a.115.115,0,0,0,.036-.132.11.11,0,0,0-.105-.074h0l-1.423.019h0a.135.135,0,0,1,0-.27l1.423-.019h.005a.378.378,0,0,1,.359.251.383.383,0,0,1-.117.432l-.265.219a.113.113,0,0,0-.03.144.108.108,0,0,0,.127.059.381.381,0,0,1,.375.115.386.386,0,0,1,.077.39l-.066.185a.116.116,0,0,0,.017.111.109.109,0,0,0,.1.044l1.362-.113a.383.383,0,0,1,.414.389l-.015.974A.135.135,0,0,1,1879.468,1013.819Z" transform="translate(-1875.705 -1001.601)"/>
      </g>
    </g>
    <g id="Group_16277" data-name="Group 16277" transform="translate(415.072 317.906)">
      <g id="Group_16274" data-name="Group 16274" transform="translate(0 1.974)">
        <g id="Group_16273" data-name="Group 16273">
          <path id="Path_51289" data-name="Path 51289" d="M1671.374,478.875q.644.5,1.322.957l.281.189a.753.753,0,0,1,.088,1.065L1671.443,483l1.042.785a.958.958,0,0,1-.149,1.522l-.4.163a17.481,17.481,0,0,0-5.047,3.166,1.032,1.032,0,0,1-1.192-.081l-2.178-1.408a31.224,31.224,0,0,1-5.315-4.332l-1.47-1.5a.713.713,0,0,1-.113-1l1.134-1.655a33.118,33.118,0,0,1,5.229-6.07.753.753,0,0,1,1.068-.1l1.8,1.826a23.661,23.661,0,0,0,2.318,2.062Z" transform="translate(-1656.337 -472.185)" fill="#fff"/>
          <path id="Path_51290" data-name="Path 51290" d="M1664.291,486.839a1.166,1.166,0,0,1-.733-.258l-2.172-1.4a31.405,31.405,0,0,1-5.337-4.351l-1.465-1.49a.851.851,0,0,1-.128-1.179l1.128-1.648a33.282,33.282,0,0,1,5.243-6.088.888.888,0,0,1,1.253-.108l1.809,1.834a23.617,23.617,0,0,0,2.305,2.05l3.2,2.49c.425.331.867.651,1.314.952l.281.189.012.009a.888.888,0,0,1,.1,1.255l-1.528,1.8.928.7a1.092,1.092,0,0,1-.16,1.744l-.019.01-.4.163a17.31,17.31,0,0,0-5.008,3.142l-.02.015A1.165,1.165,0,0,1,1664.291,486.839Zm-2.783-16.464-.058,0a.614.614,0,0,0-.421.223l-.014.014a33.014,33.014,0,0,0-5.208,6.046l-1.134,1.656a.583.583,0,0,0,.087.814l.011.01,1.47,1.5a31.147,31.147,0,0,0,5.292,4.313l2.178,1.408.012.009a.9.9,0,0,0,1.026.077,17.575,17.575,0,0,1,5.076-3.182l.387-.159a.823.823,0,0,0,.12-1.3l-1.032-.776a.135.135,0,0,1-.022-.2l1.621-1.912a.619.619,0,0,0-.066-.87l-.275-.185c-.452-.3-.9-.628-1.329-.962l-3.2-2.49a23.872,23.872,0,0,1-2.332-2.073l-1.8-1.826A.606.606,0,0,0,1661.508,470.375Z" transform="translate(-1654.275 -470.105)"/>
        </g>
        <path id="Path_51291" data-name="Path 51291" d="M1669.992,548.652a.135.135,0,0,1-.081-.027l-1.162-.875a26.4,26.4,0,0,1-4.408-4.2l-.832-1c-.232-.21-.491-.24-.952-.111l-.985.32a17.342,17.342,0,0,0-4.343,2.12l-2.088,1.522a.135.135,0,0,1-.159-.218l2.092-1.525a17.617,17.617,0,0,1,4.415-2.156l.99-.322a1.177,1.177,0,0,1,1.219.177l.012.013.838,1.008a26.136,26.136,0,0,0,4.363,4.156l1.162.875a.135.135,0,0,1-.081.243Z" transform="translate(-1654.887 -537.705)"/>
      </g>
      <g id="Group_16276" data-name="Group 16276" transform="translate(9.894 0)">
        <g id="Group_16275" data-name="Group 16275">
          <path id="Path_51292" data-name="Path 51292" d="M1826.07,441.439l-1.482-1.273a.927.927,0,0,0-1.24.029l-.747.706a14.649,14.649,0,0,0-2.784,3.606l-.917,1.674a.435.435,0,0,0,.083.526,25.009,25.009,0,0,0,4.061,3.64.572.572,0,0,0,.783-.211l1.063-1.844a14.642,14.642,0,0,1,2.258-2.967l.985-1a.923.923,0,0,0-.121-1.4l-.486-.347Q1826.772,442.042,1826.07,441.439Z" transform="translate(-1818.71 -439.806)" fill="#fff"/>
          <path id="Path_51293" data-name="Path 51293" d="M1821.248,448.468a.692.692,0,0,1-.352-.1,18.811,18.811,0,0,1-3.472-3.037c-.248-.257-.463-.48-.613-.622a.57.57,0,0,1-.108-.688l.917-1.674a14.749,14.749,0,0,1,2.81-3.639l.747-.706a1.059,1.059,0,0,1,1.421-.034l1.482,1.273c.462.4.948.778,1.445,1.133l.486.347a1.058,1.058,0,0,1,.138,1.6l-.985,1a14.511,14.511,0,0,0-2.237,2.939l-1.062,1.844a.712.712,0,0,1-.616.357Zm.657-10.483a.79.79,0,0,0-.544.217l-.747.706a14.48,14.48,0,0,0-2.758,3.573l-.917,1.674a.3.3,0,0,0,.057.363c.155.146.372.371.623.631a18.607,18.607,0,0,0,3.415,2.992.426.426,0,0,0,.328.044.439.439,0,0,0,.27-.207l1.063-1.844a14.781,14.781,0,0,1,2.278-2.994l.986-1a.788.788,0,0,0-.1-1.194l-.486-.347c-.5-.359-1-.745-1.464-1.148l-1.482-1.273A.79.79,0,0,0,1821.906,437.985Z" transform="translate(-1816.632 -437.715)"/>
        </g>
        <path id="Path_51294" data-name="Path 51294" d="M1929.8,477.441a.134.134,0,0,1-.081-.027l-1.15-.862a1.019,1.019,0,0,1-.181-1.455l.847-1.048a.135.135,0,0,1,.21.17l-.847,1.048a.748.748,0,0,0,.133,1.069l1.15.862a.135.135,0,0,1-.081.243Z" transform="translate(-1921.368 -471.787)"/>
        <path id="Path_51295" data-name="Path 51295" d="M1880.826,483.551a.134.134,0,0,1-.075-.023,19.223,19.223,0,0,1-2.92-2.872.135.135,0,0,1,.207-.173,19.386,19.386,0,0,0,2.863,2.82.135.135,0,0,1-.075.247Z" transform="translate(-1874.072 -477.831)"/>
        <path id="Path_51296" data-name="Path 51296" d="M1865.358,505.2a.134.134,0,0,1-.082-.028,14.337,14.337,0,0,1-2.794-2.687.135.135,0,0,1,.22-.157,14.375,14.375,0,0,0,2.738,2.629.135.135,0,0,1-.082.242Z" transform="translate(-1859.664 -498.342)"/>
      </g>
    </g>
    <g id="Group_16279" data-name="Group 16279" transform="translate(334.651 333.723)">
      <path id="Path_51297" data-name="Path 51297" d="M341.113,717.208a6.35,6.35,0,0,1-3.933-1.272c-2.432-1.875-3.176-5.421-1.943-9.255a.135.135,0,0,1,.257.083c-1.2,3.722-.488,7.155,1.851,8.958a6.584,6.584,0,0,0,5.563,1.01,12.194,12.194,0,0,0,5.983-3.567c.343-.359,2.188.289,3.293.723-.651-1-1.676-2.672-1.476-3.055l.009-.015c2.842-4.521,2.675-9.71-.388-12.072a6.656,6.656,0,0,0-5.845-.942,12.532,12.532,0,0,0-6.181,4.028.135.135,0,1,1-.2-.177,12.8,12.8,0,0,1,6.317-4.112,6.919,6.919,0,0,1,6.077.99c3.174,2.447,3.368,7.79.452,12.429a11.567,11.567,0,0,0,1.7,3.139.135.135,0,0,1-.163.2c-1.673-.685-3.23-1.119-3.4-.948A12.465,12.465,0,0,1,342.967,717,8.472,8.472,0,0,1,341.113,717.208Z" transform="translate(-334.651 -697.259)" fill="#160e4d"/>
      <g id="Group_16278" data-name="Group 16278" transform="translate(0.123 5.113)">
        <path id="Path_51298" data-name="Path 51298" d="M343.278,788.481l-.957.713a.311.311,0,0,1-.428-.056l-5.149-6.391a.311.311,0,0,1,.054-.445l1.452-1.082a.312.312,0,0,1,.442.075l4.653,6.76A.31.31,0,0,1,343.278,788.481Z" transform="translate(-336.675 -781.16)" fill="#160e4d"/>
        <ellipse id="Ellipse_9" data-name="Ellipse 9" cx="0.955" cy="1.036" rx="0.955" ry="1.036" transform="matrix(0.852, -0.524, 0.524, 0.852, 6.084, 9.453)" fill="#160e4d"/>
      </g>
      <path id="Path_51299" data-name="Path 51299" d="M449.4,740.851l-.174-.414a3.942,3.942,0,0,1,.063-3.151,3.761,3.761,0,0,0,.389-2.607c-.278-.832-.992-1.077-2.02-.759a3.065,3.065,0,0,0-1.409,1.174l-.787-1.171a4.434,4.434,0,0,1,2.1-1.412,2.55,2.55,0,0,1,3.513,1.51,4.633,4.633,0,0,1-.447,3.3,3.39,3.39,0,0,0-.123,2.7l.158.419Zm.407,2.4a1.019,1.019,0,1,1,1.932-.632.991.991,0,0,1-.636,1.33A1.013,1.013,0,0,1,449.809,743.252Z" transform="translate(-438.711 -730.177)" fill="#160e4d"/>
    </g>
    <g id="Group_16283" data-name="Group 16283" transform="translate(354.22 310.13)">
      <ellipse id="Ellipse_10" data-name="Ellipse 10" cx="7.962" cy="8.008" rx="7.962" ry="8.008" transform="translate(1.035 4.118) rotate(-14.987)" fill="#160e4d"/>
      <g id="Group_16282" data-name="Group 16282" transform="translate(0 0.194)">
        <g id="Group_16280" data-name="Group 16280" transform="translate(0 0)">
          <path id="Path_51403" data-name="Path 51403" d="M7.962,0a7.985,7.985,0,0,1,7.962,8.008,8.356,8.356,0,0,1-.817,3.538,7.847,7.847,0,0,1-7.145,4.47A8.008,8.008,0,0,1,7.962,0Z" transform="translate(0 4.118) rotate(-14.985)" fill="#fff"/>
          <path id="Path_51300" data-name="Path 51300" d="M691.16,356.684a8.112,8.112,0,1,1,3.49-.8A8.083,8.083,0,0,1,691.16,356.684Zm-.057-16.018a7.755,7.755,0,0,0-3.373.775,7.889,7.889,0,0,0,.839,14.528,7.742,7.742,0,0,0,5.963-.33,7.884,7.884,0,0,0-3.429-14.973Z" transform="translate(-681.369 -338.746)"/>
        </g>
        <path id="Path_51301" data-name="Path 51301" d="M804.627,418.141a.134.134,0,0,1-.075-.023l-4.113-2.733a.135.135,0,0,1-.057-.081l-.866-3.678a.135.135,0,1,1,.263-.062l.854,3.626,4.069,2.7a.135.135,0,0,1-.075.247Z" transform="translate(-790.751 -405.479)"/>
        <g id="Group_16281" data-name="Group 16281" transform="translate(2.877 2.936)">
          <path id="Path_51302" data-name="Path 51302" d="M762.8,372.062a.509.509,0,1,1-.679-.24A.511.511,0,0,1,762.8,372.062Z" transform="translate(-758.244 -371.144)"/>
          <path id="Path_51303" data-name="Path 51303" d="M722.121,407.3a.513.513,0,0,1,.134.711.506.506,0,0,1-.707.133.513.513,0,0,1-.134-.711A.506.506,0,0,1,722.121,407.3Z" transform="translate(-720.206 -404.421)"/>
          <ellipse id="Ellipse_12" data-name="Ellipse 12" cx="0.508" cy="0.511" rx="0.508" ry="0.511" transform="matrix(0.966, -0.259, 0.259, 0.966, 0, 5.994)"/>
          <path id="Path_51304" data-name="Path 51304" d="M714.6,511.409a.511.511,0,1,1-.237.682A.509.509,0,0,1,714.6,511.409Z" transform="translate(-713.624 -502.226)"/>
          <path id="Path_51305" data-name="Path 51305" d="M750.684,551.49a.506.506,0,0,1,.707-.133.513.513,0,0,1,.134.711.506.506,0,0,1-.707.133A.513.513,0,0,1,750.684,551.49Z" transform="translate(-747.693 -539.702)"/>
          <path id="Path_51306" data-name="Path 51306" d="M801.488,569.364a.509.509,0,1,1,.469.549A.508.508,0,0,1,801.488,569.364Z" transform="translate(-795.482 -556.253)"/>
          <path id="Path_51307" data-name="Path 51307" d="M854.3,559.34a.509.509,0,1,1,.679.24A.511.511,0,0,1,854.3,559.34Z" transform="translate(-845.033 -546.595)"/>
          <ellipse id="Ellipse_13" data-name="Ellipse 13" cx="0.508" cy="0.511" rx="0.508" ry="0.511" transform="matrix(0.966, -0.259, 0.259, 0.966, 11.575, 10.002)"/>
          <ellipse id="Ellipse_14" data-name="Ellipse 14" cx="0.508" cy="0.511" rx="0.508" ry="0.511" transform="matrix(0.966, -0.259, 0.259, 0.966, 12.579, 6.944)"/>
          <ellipse id="Ellipse_15" data-name="Ellipse 15" cx="0.508" cy="0.511" rx="0.508" ry="0.511" transform="translate(11.947 3.71) rotate(-14.986)"/>
          <ellipse id="Ellipse_16" data-name="Ellipse 16" cx="0.508" cy="0.511" rx="0.508" ry="0.511" transform="matrix(0.966, -0.259, 0.259, 0.966, 9.791, 1.223)"/>
          <path id="Path_51308" data-name="Path 51308" d="M815.617,362.039a.509.509,0,1,1-.469-.549A.508.508,0,0,1,815.617,362.039Z" transform="translate(-807.798 -361.489)"/>
        </g>
      </g>
    </g>
    <g id="Group_16286" data-name="Group 16286" transform="translate(342.289 317.92)">
      <g id="Group_16284" data-name="Group 16284" transform="translate(65.035 96.166)">
        <path id="Path_51309" data-name="Path 51309" d="M1564.184,2016.858a.135.135,0,0,1-.1-.228l.637-.666a.135.135,0,1,1,.195.187l-.637.666A.134.134,0,0,1,1564.184,2016.858Z" transform="translate(-1561.798 -2015.923)"/>
        <path id="Path_51310" data-name="Path 51310" d="M1527.613,2055.083a.135.135,0,0,1-.1-.228l.637-.666a.135.135,0,0,1,.2.187l-.637.666A.135.135,0,0,1,1527.613,2055.083Z" transform="translate(-1527.456 -2051.818)"/>
        <path id="Path_51311" data-name="Path 51311" d="M1527.9,2017.883a.135.135,0,0,1-.095-.039l-.646-.637a.135.135,0,1,1,.189-.192l.646.637a.135.135,0,0,1-.095.231Z" transform="translate(-1527.124 -2016.911)"/>
        <path id="Path_51312" data-name="Path 51312" d="M1565.029,2054.468a.133.133,0,0,1-.095-.039l-.646-.637a.135.135,0,1,1,.189-.192l.646.637a.135.135,0,0,1-.095.231Z" transform="translate(-1561.986 -2051.268)"/>
      </g>
      <g id="Group_16285" data-name="Group 16285" transform="translate(0 0)">
        <path id="Path_51313" data-name="Path 51313" d="M492.888,439.14a.135.135,0,0,1-.135-.132l-.02-.921a.135.135,0,0,1,.132-.138.137.137,0,0,1,.138.132l.02.921a.135.135,0,0,1-.132.138Z" transform="translate(-490.736 -437.95)"/>
        <path id="Path_51314" data-name="Path 51314" d="M494.058,492.028a.135.135,0,0,1-.135-.132l-.02-.921a.135.135,0,1,1,.27-.006l.02.921a.135.135,0,0,1-.132.138Z" transform="translate(-491.835 -487.615)"/>
        <path id="Path_51315" data-name="Path 51315" d="M460.114,472.361a.135.135,0,0,1,0-.27l.907-.007a.135.135,0,1,1,0,.27l-.908.007Z" transform="translate(-459.979 -470.004)"/>
        <path id="Path_51316" data-name="Path 51316" d="M512.233,471.98a.135.135,0,0,1,0-.27l.908-.007h0a.135.135,0,0,1,0,.27l-.908.007Z" transform="translate(-508.922 -469.647)"/>
      </g>
      <path id="Path_51317" data-name="Path 51317" d="M1703.53,1961.34a1.19,1.19,0,1,1,1.19-1.19A1.191,1.191,0,0,1,1703.53,1961.34Zm0-2.109a.92.92,0,1,0,.92.92A.921.921,0,0,0,1703.53,1959.231Z" transform="translate(-1626.627 -1866.266)"/>
      <path id="Path_51318" data-name="Path 51318" d="M2046.778,708.053a1.19,1.19,0,1,1,1.19-1.19A1.191,1.191,0,0,1,2046.778,708.053Zm0-2.109a.92.92,0,1,0,.92.92A.921.921,0,0,0,2046.778,705.944Z" transform="translate(-1948.957 -689.358)"/>
      <circle id="Ellipse_17" data-name="Ellipse 17" cx="0.892" cy="0.892" r="0.892" transform="translate(96.383 10.035) rotate(-45)"/>
    </g>
  </g>
</svg>
