<svg xmlns="http://www.w3.org/2000/svg" width="30.885" height="23.038" viewBox="0 0 30.885 23.038">
  <g id="check-tick-svgrepo-com" transform="translate(0.001 -65.038)">
    <path id="Path_51897" data-name="Path 51897" d="M27.8,143.044,19.957,135.2l-2.515,2.515-2.515,2.515,7.847,7.847Z" transform="translate(-14.028 -65.927)" fill="rgba(67,143,254,0.2)"/>
    <path id="Path_51898" data-name="Path 51898" d="M30.62,70.332l-5.03-5.03a.9.9,0,0,0-1.273,0L13.776,75.844l-7.21-7.21a.9.9,0,0,0-1.273,0l-5.03,5.03a.886.886,0,0,0-.06.067c-.015.018-.028.036-.041.055L.15,73.8c-.015.022-.028.045-.041.069l0,.007c-.013.024-.024.048-.034.072l0,.008c-.01.023-.018.047-.025.071l0,.013c-.007.022-.012.044-.017.067,0,.006,0,.013,0,.019s-.007.042-.009.063,0,.016,0,.024c0,.027,0,.054,0,.082,0,0,0,0,0,.006s0,0,0,.006c0,.027,0,.054,0,.082,0,.008,0,.016,0,.024s.005.042.009.063,0,.013,0,.019c0,.022.01.045.017.067l0,.012c.008.024.016.048.025.071l0,.007c.01.025.022.049.034.073l0,.005c.013.024.027.047.042.07l.009.012c.014.02.028.04.044.059s.026.029.039.044l.021.023L13.139,87.813a.9.9,0,0,0,1.273-1.273l-4.393-4.393,4.393-4.393h0L24.954,67.212l3.756,3.756L18.169,81.51a.9.9,0,0,0,1.273,1.273L30.62,71.6A.9.9,0,0,0,30.62,70.332Zm-24.691.212L12.5,77.117,8.746,80.873,2.173,74.3Z" transform="translate(0 0)" fill="#438ffe"/>
  </g>
</svg>
