<svg xmlns="http://www.w3.org/2000/svg" width="115" height="125" viewBox="0 0 115 125">
  <g id="Group_16998" data-name="Group 16998" transform="translate(22182 11316)">
    <rect id="Rectangle_4121" data-name="Rectangle 4121" width="115" height="125" transform="translate(-22182 -11316)" fill="none"/>
    <g id="Early_learning_app" data-name="Early learning app" transform="translate(-22533.916 -11642.322)">
      <g id="Group_16631" data-name="Group 16631" transform="translate(399.846 337.405)">
        <g id="Group_16627" data-name="Group 16627" transform="translate(0 1.17)">
          <g id="Group_16626" data-name="Group 16626">
            <path id="Path_51811" data-name="Path 51811" d="M1110.138,410.041l.606-1.465-1.416-1a6.561,6.561,0,0,0,.145-1.1l1.623-.6-.208-1.572-1.725-.156a6.647,6.647,0,0,0-.423-1.019l1.108-1.332-.966-1.257-1.57.726a6.569,6.569,0,0,0-.878-.67l.293-1.707-1.465-.606-1,1.415a6.575,6.575,0,0,0-1.095-.145l-.6-1.623-1.572.208-.156,1.725a6.661,6.661,0,0,0-1.019.423l-1.332-1.107-1.257.966.726,1.57a6.559,6.559,0,0,0-.67.878l-1.707-.293-.606,1.465,1.415,1a6.572,6.572,0,0,0-.145,1.1l-1.623.6.208,1.572,1.725.156a6.658,6.658,0,0,0,.423,1.019l-1.107,1.332.966,1.257,1.57-.726a6.57,6.57,0,0,0,.878.67l-.293,1.707,1.465.606,1-1.416a6.569,6.569,0,0,0,1.1.145l.6,1.623,1.572-.208.156-1.725a6.654,6.654,0,0,0,1.019-.423l1.332,1.107,1.257-.966-.726-1.57a6.6,6.6,0,0,0,.67-.878Zm-8.836-.094a4.081,4.081,0,1,1,5.331-2.213A4.081,4.081,0,0,1,1101.3,409.947Z" transform="translate(-1094.494 -397.808)" fill="#fff"/>
            <path id="Path_51812" data-name="Path 51812" d="M1101.047,412.437a.131.131,0,0,1-.123-.086l-.569-1.541a6.739,6.739,0,0,1-.944-.125l-.947,1.345a.132.132,0,0,1-.158.046l-1.465-.606a.132.132,0,0,1-.08-.144l.279-1.621a6.733,6.733,0,0,1-.757-.578l-1.491.69a.132.132,0,0,1-.16-.039l-.966-1.257a.132.132,0,0,1,0-.164l1.052-1.265a6.838,6.838,0,0,1-.364-.878l-1.639-.148a.131.131,0,0,1-.119-.114l-.208-1.572a.132.132,0,0,1,.085-.141l1.541-.569a6.707,6.707,0,0,1,.125-.944l-1.345-.948a.132.132,0,0,1-.046-.158l.606-1.465a.132.132,0,0,1,.144-.079l1.621.278a6.715,6.715,0,0,1,.578-.757l-.69-1.491a.132.132,0,0,1,.039-.16l1.257-.966a.132.132,0,0,1,.164,0l1.265,1.052a6.815,6.815,0,0,1,.878-.364l.148-1.639a.132.132,0,0,1,.114-.119l1.572-.208a.131.131,0,0,1,.141.085l.569,1.541a6.738,6.738,0,0,1,.944.125l.947-1.345a.132.132,0,0,1,.158-.046l1.465.606a.131.131,0,0,1,.079.144l-.278,1.621a6.75,6.75,0,0,1,.757.578l1.491-.69a.132.132,0,0,1,.16.039l.966,1.257a.132.132,0,0,1,0,.164l-1.052,1.265a6.791,6.791,0,0,1,.364.878l1.639.148a.132.132,0,0,1,.119.114l.208,1.572a.132.132,0,0,1-.085.141l-1.541.569a6.749,6.749,0,0,1-.125.944l1.345.947a.132.132,0,0,1,.046.158l-.606,1.465a.131.131,0,0,1-.144.079l-1.621-.279a6.716,6.716,0,0,1-.578.757l.69,1.491a.132.132,0,0,1-.039.16l-1.257.966a.132.132,0,0,1-.164,0l-1.265-1.052a6.806,6.806,0,0,1-.878.364l-.148,1.639a.132.132,0,0,1-.114.119l-1.572.208Zm-1.694-2.031a.13.13,0,0,1,.028,0,6.462,6.462,0,0,0,1.073.142.131.131,0,0,1,.117.086l.562,1.524,1.363-.18.147-1.62a.132.132,0,0,1,.091-.114,6.524,6.524,0,0,0,1-.414.132.132,0,0,1,.145.016l1.251,1.04,1.09-.838-.682-1.474a.131.131,0,0,1,.022-.144,6.441,6.441,0,0,0,.657-.86.131.131,0,0,1,.133-.059l1.6.275.525-1.271-1.33-.937a.131.131,0,0,1-.053-.136,6.473,6.473,0,0,0,.142-1.073.132.132,0,0,1,.086-.117l1.524-.562-.18-1.363-1.62-.147a.132.132,0,0,1-.114-.091,6.556,6.556,0,0,0-.415-1,.132.132,0,0,1,.016-.145l1.04-1.251-.838-1.09-1.474.682a.132.132,0,0,1-.144-.022,6.46,6.46,0,0,0-.86-.657.131.131,0,0,1-.059-.133l.275-1.6-1.271-.525-.937,1.329a.132.132,0,0,1-.136.053,6.462,6.462,0,0,0-1.073-.142.132.132,0,0,1-.117-.086l-.562-1.524-1.363.18-.147,1.62a.132.132,0,0,1-.091.114,6.549,6.549,0,0,0-1,.415.132.132,0,0,1-.145-.016l-1.251-1.04-1.09.838.682,1.474a.132.132,0,0,1-.022.144,6.456,6.456,0,0,0-.657.86.132.132,0,0,1-.133.059l-1.6-.275-.525,1.271,1.329.937a.132.132,0,0,1,.053.136,6.436,6.436,0,0,0-.142,1.073.132.132,0,0,1-.086.117l-1.524.562.18,1.363,1.62.147a.132.132,0,0,1,.113.091,6.57,6.57,0,0,0,.414,1,.132.132,0,0,1-.016.145l-1.04,1.251.838,1.09,1.474-.682a.132.132,0,0,1,.144.022,6.454,6.454,0,0,0,.86.657.132.132,0,0,1,.059.133l-.275,1.6,1.271.525.937-1.33A.132.132,0,0,1,1099.354,410.406Zm1.4-2.122a4.213,4.213,0,1,1,3.9-2.6A4.19,4.19,0,0,1,1100.751,408.284Zm.005-8.165a3.959,3.959,0,1,0,1.509.3A3.944,3.944,0,0,0,1100.757,400.119Z" transform="translate(-1092.39 -395.704)"/>
          </g>
        </g>
        <g id="Group_16629" data-name="Group 16629" transform="translate(19.154 0)">
          <g id="Group_16628" data-name="Group 16628">
            <path id="Path_51813" data-name="Path 51813" d="M1446.674,398.982l1.047-2.532-2.446-1.724a11.358,11.358,0,0,0,.251-1.892l2.8-1.035-.36-2.716-2.981-.27a11.509,11.509,0,0,0-.731-1.761l1.914-2.3-1.669-2.172-2.713,1.255a11.346,11.346,0,0,0-1.517-1.158l.507-2.949-2.532-1.047-1.724,2.446a11.358,11.358,0,0,0-1.892-.251l-1.035-2.8-2.716.36-.27,2.981a11.5,11.5,0,0,0-1.761.731l-2.3-1.914-2.173,1.669,1.255,2.713a11.339,11.339,0,0,0-1.158,1.517l-2.949-.507-1.047,2.532,2.446,1.724a11.342,11.342,0,0,0-.251,1.892l-2.8,1.035.36,2.716,2.981.27a11.506,11.506,0,0,0,.731,1.761l-1.914,2.3,1.67,2.172,2.713-1.255a11.351,11.351,0,0,0,1.517,1.158l-.507,2.949,2.532,1.047,1.724-2.446a11.36,11.36,0,0,0,1.892.251l1.035,2.8,2.716-.36.27-2.981a11.5,11.5,0,0,0,1.761-.731l2.3,1.914,2.172-1.669-1.255-2.712a11.354,11.354,0,0,0,1.158-1.517Zm-15.27-.162a7.053,7.053,0,1,1,9.213-3.824A7.053,7.053,0,0,1,1431.4,398.82Z" transform="translate(-1419.736 -377.939)" fill="#fff"/>
            <path id="Path_51814" data-name="Path 51814" d="M1432.5,404.561a.132.132,0,0,1-.123-.086l-1-2.722a11.532,11.532,0,0,1-1.741-.231l-1.674,2.375a.131.131,0,0,1-.158.046l-2.532-1.047a.131.131,0,0,1-.079-.144l.492-2.863a11.536,11.536,0,0,1-1.4-1.066l-2.634,1.218a.132.132,0,0,1-.16-.039l-1.669-2.172a.132.132,0,0,1,0-.164l1.858-2.234a11.687,11.687,0,0,1-.672-1.62l-2.894-.262a.132.132,0,0,1-.119-.114l-.36-2.716a.132.132,0,0,1,.085-.141l2.722-1a11.538,11.538,0,0,1,.231-1.741l-2.375-1.674a.132.132,0,0,1-.046-.158l1.047-2.532a.131.131,0,0,1,.144-.079l2.864.492a11.523,11.523,0,0,1,1.066-1.4l-1.219-2.634a.132.132,0,0,1,.039-.16l2.172-1.669a.132.132,0,0,1,.164,0l2.235,1.858a11.678,11.678,0,0,1,1.62-.672l.262-2.894a.132.132,0,0,1,.114-.119l2.716-.36a.132.132,0,0,1,.141.085l1,2.723a11.532,11.532,0,0,1,1.741.231l1.673-2.375a.132.132,0,0,1,.158-.046l2.532,1.047a.132.132,0,0,1,.079.144l-.492,2.863a11.515,11.515,0,0,1,1.4,1.066l2.634-1.219a.132.132,0,0,1,.16.039l1.669,2.172a.132.132,0,0,1,0,.164l-1.858,2.235a11.677,11.677,0,0,1,.672,1.62l2.894.262a.132.132,0,0,1,.119.114l.36,2.716a.132.132,0,0,1-.085.141l-2.722,1a11.514,11.514,0,0,1-.231,1.741l2.375,1.674a.132.132,0,0,1,.046.158l-1.047,2.532a.131.131,0,0,1-.144.079l-2.864-.492a11.5,11.5,0,0,1-1.066,1.4l1.219,2.634a.132.132,0,0,1-.039.16l-2.173,1.669a.132.132,0,0,1-.164,0l-2.234-1.858a11.672,11.672,0,0,1-1.62.672l-.262,2.894a.132.132,0,0,1-.114.119l-2.716.36Zm-2.927-3.318a.132.132,0,0,1,.028,0,11.254,11.254,0,0,0,1.87.248.132.132,0,0,1,.117.086l1,2.705,2.507-.332.26-2.876a.132.132,0,0,1,.091-.114,11.391,11.391,0,0,0,1.741-.722.132.132,0,0,1,.145.016l2.22,1.846,2.006-1.541-1.211-2.617a.131.131,0,0,1,.022-.144,11.247,11.247,0,0,0,1.145-1.5.131.131,0,0,1,.133-.059l2.846.489.966-2.337-2.36-1.663a.132.132,0,0,1-.053-.136,11.25,11.25,0,0,0,.248-1.87.132.132,0,0,1,.086-.117l2.705-1-.332-2.507-2.876-.26a.132.132,0,0,1-.113-.091,11.429,11.429,0,0,0-.723-1.741.131.131,0,0,1,.016-.145l1.846-2.22-1.541-2.006-2.617,1.211a.132.132,0,0,1-.144-.022,11.266,11.266,0,0,0-1.5-1.145.131.131,0,0,1-.059-.133l.489-2.846-2.338-.966-1.663,2.36a.131.131,0,0,1-.136.053,11.264,11.264,0,0,0-1.87-.248.132.132,0,0,1-.117-.086l-1-2.705-2.508.332-.26,2.876a.132.132,0,0,1-.091.114,11.393,11.393,0,0,0-1.741.723.132.132,0,0,1-.145-.016l-2.22-1.846-2.005,1.541,1.211,2.617a.132.132,0,0,1-.022.144,11.252,11.252,0,0,0-1.145,1.5.131.131,0,0,1-.133.059l-2.846-.489-.966,2.337,2.36,1.663a.132.132,0,0,1,.053.136,11.268,11.268,0,0,0-.248,1.87.132.132,0,0,1-.086.117l-2.705,1,.332,2.507,2.876.26a.132.132,0,0,1,.113.091,11.4,11.4,0,0,0,.722,1.741.131.131,0,0,1-.016.145l-1.846,2.22,1.541,2.005,2.617-1.211a.132.132,0,0,1,.144.022,11.239,11.239,0,0,0,1.5,1.145.132.132,0,0,1,.059.133l-.489,2.846,2.338.966,1.663-2.36A.131.131,0,0,1,1429.57,401.242Zm2.416-3.859a7.185,7.185,0,1,1,6.649-4.44A7.145,7.145,0,0,1,1431.985,397.383Zm.018-14.106a6.922,6.922,0,1,0,2.635.525A6.932,6.932,0,0,0,1432,383.277Z" transform="translate(-1417.633 -375.836)"/>
          </g>
        </g>
        <g id="Group_16630" data-name="Group 16630" transform="translate(40.771 23.978)">
          <path id="Path_51815" data-name="Path 51815" d="M1801.747,796.769l.74-1.6L1800.96,794a7.3,7.3,0,0,0,.211-1.211l1.83-.592-.16-1.756-1.91-.251a7.388,7.388,0,0,0-.423-1.151l1.291-1.43-1.016-1.44-1.777.737a7.318,7.318,0,0,0-.945-.784l.4-1.883-1.6-.739-1.173,1.528a7.313,7.313,0,0,0-1.21-.21l-.591-1.83-1.756.161-.252,1.91a7.406,7.406,0,0,0-1.152.424l-1.429-1.29-1.441,1.017.735,1.777a7.3,7.3,0,0,0-.785.946l-1.883-.4-.74,1.6,1.527,1.172a7.326,7.326,0,0,0-.211,1.21l-1.83.593.16,1.756,1.91.251a7.4,7.4,0,0,0,.423,1.151l-1.291,1.43,1.016,1.44,1.777-.737a7.291,7.291,0,0,0,.945.784l-.4,1.883,1.6.739,1.173-1.528a7.316,7.316,0,0,0,1.21.211l.591,1.83,1.756-.161.252-1.91a7.4,7.4,0,0,0,1.151-.424l1.429,1.291,1.441-1.017-.735-1.777a7.318,7.318,0,0,0,.785-.946Zm-9.814-.5a4.54,4.54,0,1,1,6.024-2.22A4.537,4.537,0,0,1,1791.934,796.268Z" transform="translate(-1784.675 -782.982)" fill="#160e4d"/>
        </g>
      </g>
      <g id="Group_16645" data-name="Group 16645" transform="translate(356.508 346.99)">
        <g id="Group_16635" data-name="Group 16635" transform="translate(0 0)">
          <g id="Group_16634" data-name="Group 16634">
            <path id="Path_51816" data-name="Path 51816" d="M1201.991,542.962c.068-.034,2.6-2.136,2.6-2.136l.663.845s.391,2,.323,2S1201.991,542.962,1201.991,542.962Z" transform="translate(-1152.198 -540.694)"/>
            <path id="Path_51817" data-name="Path 51817" d="M449.1,684.11H378.812a2.131,2.131,0,0,1-2.161-1.615L356.57,598.285a2.665,2.665,0,0,1,.682-2.363c.56-.628,2.183-2.483,2.183-2.483l70.378,1.429a2.131,2.131,0,0,1,2.161,1.615l21.263,84.62s-1.313,1.391-1.955,2.053A3.065,3.065,0,0,1,449.1,684.11Z" transform="translate(-356.508 -590.209)" fill="#160e4d"/>
            <g id="Group_16632" data-name="Group 16632" transform="translate(2.145 2.256)">
              <path id="Path_51818" data-name="Path 51818" d="M487.59,668.141H417.3a2.131,2.131,0,0,1-2.161-1.615L395.23,582.553a2.989,2.989,0,0,1,2.952-3.417h70.291a2.131,2.131,0,0,1,2.161,1.615l19.909,83.973A2.989,2.989,0,0,1,487.59,668.141Z" transform="translate(-395.037 -579.004)" fill="#fff"/>
              <path id="Path_51819" data-name="Path 51819" d="M485.489,666.168H415.2a2.272,2.272,0,0,1-2.289-1.716L393,580.479a2.75,2.75,0,0,1,.586-2.331,3.227,3.227,0,0,1,2.494-1.248h70.291a2.272,2.272,0,0,1,2.289,1.716l19.909,83.973a2.75,2.75,0,0,1-.586,2.331A3.227,3.227,0,0,1,485.489,666.168Zm-89.408-89.005a2.962,2.962,0,0,0-2.288,1.148,2.489,2.489,0,0,0-.536,2.107l19.909,83.973a1.989,1.989,0,0,0,2.033,1.514h70.291a2.962,2.962,0,0,0,2.288-1.148,2.489,2.489,0,0,0,.536-2.107L468.4,578.677a1.99,1.99,0,0,0-2.033-1.514Z" transform="translate(-392.936 -576.9)"/>
            </g>
            <path id="Path_51820" data-name="Path 51820" d="M576.408,748.26H514.475a2.018,2.018,0,0,1-2.032-1.524L494.9,672.748a2.439,2.439,0,0,1,.519-2.067,2.859,2.859,0,0,1,2.21-1.105h61.933A2.017,2.017,0,0,1,561.6,671.1l17.541,73.989a2.438,2.438,0,0,1-.519,2.067A2.859,2.859,0,0,1,576.408,748.26ZM497.63,669.838a2.594,2.594,0,0,0-2,1.005,2.178,2.178,0,0,0-.469,1.843L512.7,746.676A1.738,1.738,0,0,0,514.475,748h61.933a2.594,2.594,0,0,0,2-1.005,2.178,2.178,0,0,0,.469-1.843L561.339,671.16a1.738,1.738,0,0,0-1.776-1.321Z" transform="translate(-486.697 -661.861)"/>
            <path id="Path_51821" data-name="Path 51821" d="M732.958,1685.167h-6.875a2.017,2.017,0,0,1-2.032-1.524L719.7,1665.29a.132.132,0,0,1,.256-.061l4.351,18.353a1.738,1.738,0,0,0,1.776,1.322h6.875a.132.132,0,1,1,0,.263Z" transform="translate(-698.306 -1598.783)"/>
            <g id="Group_16633" data-name="Group 16633" transform="translate(52.088)">
              <path id="Path_51822" data-name="Path 51822" d="M1261.75,558.685l-7.263-4.675-6.842,4.675a.428.428,0,0,1-.433-.324l-3.995-16.85a.6.6,0,0,1,.592-.686h14.1a.428.428,0,0,1,.434.324l3.995,16.85A.6.6,0,0,1,1261.75,558.685Z" transform="translate(-1243.074 -540.694)" fill="#438ffe"/>
              <path id="Path_51823" data-name="Path 51823" d="M1259.647,556.714a.131.131,0,0,1-.071-.021l-7.189-4.628-6.769,4.626a.132.132,0,0,1-.074.023.559.559,0,0,1-.562-.425l-3.995-16.85a.656.656,0,0,1,.137-.557.754.754,0,0,1,.583-.29h14.1a.559.559,0,0,1,.562.425l3.995,16.85a.657.657,0,0,1-.137.557A.754.754,0,0,1,1259.647,556.714Zm-7.263-4.939a.132.132,0,0,1,.071.021l7.228,4.653a.494.494,0,0,0,.34-.189.4.4,0,0,0,.088-.333l-3.995-16.85a.3.3,0,0,0-.306-.223h-14.1a.488.488,0,0,0-.376.19.4.4,0,0,0-.088.333l3.995,16.85a.291.291,0,0,0,.267.221l6.805-4.651A.132.132,0,0,1,1252.384,551.775Z" transform="translate(-1240.97 -538.591)" fill="#438ffe"/>
            </g>
          </g>
        </g>
        <g id="Group_16644" data-name="Group 16644" transform="translate(28.115 20.298)">
          <g id="Group_16642" data-name="Group 16642">
            <g id="Group_16637" data-name="Group 16637" transform="translate(0 23.465)">
              <path id="Path_51824" data-name="Path 51824" d="M856.027,1303.769H840.958a4.217,4.217,0,0,1-3.871-3.346l-3.121-15.482a2.784,2.784,0,0,1,.51-2.362,2.53,2.53,0,0,1,2.006-.9h14.7a4.2,4.2,0,0,1,3.842,3.21l3.488,15.482a2.92,2.92,0,0,1-.478,2.485A2.506,2.506,0,0,1,856.027,1303.769Zm-19.545-21.83a2.272,2.272,0,0,0-1.8.806,2.526,2.526,0,0,0-.455,2.143l3.121,15.482a3.942,3.942,0,0,0,3.613,3.135h15.068a2.248,2.248,0,0,0,1.8-.818,2.659,2.659,0,0,0,.427-2.262l-3.488-15.482a3.925,3.925,0,0,0-3.585-3Z" transform="translate(-833.898 -1281.676)" fill="#438ffe"/>
              <g id="Group_16636" data-name="Group 16636" transform="translate(6.841 5.369)">
                <path id="Path_51825" data-name="Path 51825" d="M952.582,1384.939l-2.524-12.1h3.957a5.532,5.532,0,0,1,3.157.812,3.76,3.76,0,0,1,1.553,2.429,2.392,2.392,0,0,1-.106,1.489,2.047,2.047,0,0,1-1.038,1.029,3.411,3.411,0,0,1,1.675,1,3.75,3.75,0,0,1,.9,1.772,2.809,2.809,0,0,1-.48,2.64,3.7,3.7,0,0,1-2.826.926Zm.548-7.045h1.978a1.859,1.859,0,0,0,1.376-.443,1.3,1.3,0,0,0,.26-1.253,1.988,1.988,0,0,0-.766-1.287,2.8,2.8,0,0,0-1.606-.4h-1.955Zm.326,1.545.8,3.8h2.255a1.748,1.748,0,0,0,1.386-.495,1.507,1.507,0,0,0,.241-1.373,2.185,2.185,0,0,0-2.271-1.934Z" transform="translate(-950.058 -1372.841)" fill="#438ffe"/>
              </g>
            </g>
            <g id="Group_16639" data-name="Group 16639" transform="translate(24.547 23.465)">
              <path id="Path_51826" data-name="Path 51826" d="M1273.374,1303.769h-15.069a4.366,4.366,0,0,1-3.961-3.343l-3.554-15.482a2.741,2.741,0,0,1,.45-2.37,2.462,2.462,0,0,1,1.979-.9h14.7a4.35,4.35,0,0,1,3.928,3.206l3.92,15.482a2.877,2.877,0,0,1-.415,2.494A2.439,2.439,0,0,1,1273.374,1303.769Zm-20.155-21.83a2.2,2.2,0,0,0-1.772.8,2.484,2.484,0,0,0-.4,2.147l3.554,15.482a4.091,4.091,0,0,0,3.7,3.139h15.069a2.181,2.181,0,0,0,1.773-.809,2.618,2.618,0,0,0,.367-2.267l-3.92-15.482a4.073,4.073,0,0,0-3.672-3.008Z" transform="translate(-1250.703 -1281.676)" fill="#438ffe"/>
              <g id="Group_16638" data-name="Group 16638" transform="translate(7.62 5.205)">
                <path id="Path_51827" data-name="Path 51827" d="M1390.209,1378.346a3.231,3.231,0,0,1-3.569,4.143,5.268,5.268,0,0,1-2.63-.695,6.355,6.355,0,0,1-2.109-1.969,8.976,8.976,0,0,1-1.3-2.947l-.267-1.13a6.9,6.9,0,0,1-.129-3,3.24,3.24,0,0,1,1.191-1.991,3.747,3.747,0,0,1,2.335-.7,5.409,5.409,0,0,1,3.338,1.071,6.189,6.189,0,0,1,2.109,3.045h-2.007a4.043,4.043,0,0,0-1.184-1.869,2.892,2.892,0,0,0-1.851-.572,1.773,1.773,0,0,0-1.776.993,4.667,4.667,0,0,0-.022,2.926l.256,1.073a6.866,6.866,0,0,0,1.395,3.007,2.889,2.889,0,0,0,2.235,1.041,2.063,2.063,0,0,0,1.661-.562,2.463,2.463,0,0,0,.306-1.866Z" transform="translate(-1380.096 -1370.058)" fill="#438ffe"/>
              </g>
            </g>
            <g id="Group_16641" data-name="Group 16641" transform="translate(7.372)">
              <path id="Path_51828" data-name="Path 51828" d="M980.75,904.175H966.1a4.116,4.116,0,0,1-3.794-3.169l-3.162-14.654a2.589,2.589,0,0,1,.457-2.219,2.464,2.464,0,0,1,1.969-.883h14.309a4.106,4.106,0,0,1,3.765,3.044l3.509,14.654a2.677,2.677,0,0,1-.426,2.332A2.441,2.441,0,0,1,980.75,904.175Zm-19.185-20.663a2.206,2.206,0,0,0-1.764.785,2.332,2.332,0,0,0-.4,2l3.162,14.654a3.841,3.841,0,0,0,3.537,2.962H980.75a2.184,2.184,0,0,0,1.765-.8,2.421,2.421,0,0,0,.376-2.107l-3.509-14.654a3.83,3.83,0,0,0-3.509-2.842Z" transform="translate(-959.066 -883.249)" fill="#438ffe"/>
              <g id="Group_16640" data-name="Group 16640" transform="translate(8.218 5.091)">
                <path id="Path_51829" data-name="Path 51829" d="M1105.383,978.46h-4.4l-.316,2.693h-2.057l1.706-11.451h1.752L1109,981.153h-2.064Zm-4.207-1.613h3.283l-2.721-4.74Z" transform="translate(-1098.613 -969.702)" fill="#438ffe"/>
              </g>
            </g>
          </g>
          <g id="Group_16643" data-name="Group 16643" transform="translate(13.017 50.045)">
            <path id="Path_51830" data-name="Path 51830" d="M1086.842,1738.16a1.243,1.243,0,0,1-1.168,1.682h-28.042a2.125,2.125,0,0,1-1.933-1.682l-.733-3.484a1.275,1.275,0,0,1,1.219-1.663h27.831a2.2,2.2,0,0,1,1.975,1.663Z" transform="translate(-1054.927 -1733.013)" fill="#160e4d"/>
          </g>
        </g>
      </g>
      <g id="Group_16652" data-name="Group 16652" transform="translate(358.604 421.767)">
        <g id="Group_16648" data-name="Group 16648" transform="translate(0.912 0)">
          <g id="Group_16646" data-name="Group 16646" transform="translate(21.895 0.759)">
            <path id="Path_51831" data-name="Path 51831" d="M804.073,1830.644a6.619,6.619,0,0,1,0-6.281l-.793-.951-21.689.713.748,6.89,20.994.242Z" transform="translate(-781.459 -1823.28)" fill="#fff"/>
            <path id="Path_51832" data-name="Path 51832" d="M801.229,1829.285h0l-20.994-.242a.132.132,0,0,1-.129-.117l-.748-6.89a.132.132,0,0,1,.127-.146l21.689-.713a.134.134,0,0,1,.105.047l.793.951a.131.131,0,0,1,.016.145,6.45,6.45,0,0,0,0,6.163.132.132,0,0,1-.034.159l-.74.613A.131.131,0,0,1,801.229,1829.285Zm-20.876-.5,20.829.24.623-.516a6.761,6.761,0,0,1,.006-6.228l-.7-.835-21.482.707Z" transform="translate(-779.356 -1821.176)"/>
          </g>
          <g id="Group_16647" data-name="Group 16647">
            <path id="Path_51833" data-name="Path 51833" d="M414.332,1810.532h40.255a.852.852,0,0,1,0,1.7H436.081a2.454,2.454,0,0,0-2.454,2.454v1.38a2.454,2.454,0,0,0,2.454,2.454h18.507a.852.852,0,0,1,0,1.7H414.332a4.524,4.524,0,0,1-4.524-4.524v-.646A4.524,4.524,0,0,1,414.332,1810.532Z" transform="translate(-409.676 -1810.4)" fill="#fff"/>
            <path id="Path_51834" data-name="Path 51834" d="M452.484,1818.255H412.229a4.661,4.661,0,0,1-4.656-4.656v-.646a4.661,4.661,0,0,1,4.656-4.656h40.255a.984.984,0,1,1,0,1.967H433.977a2.325,2.325,0,0,0-2.322,2.322v1.38a2.325,2.325,0,0,0,2.322,2.322h18.507a.984.984,0,0,1,0,1.967Zm-40.255-9.695a4.4,4.4,0,0,0-4.393,4.393v.646a4.4,4.4,0,0,0,4.393,4.393h40.255a.72.72,0,1,0,0-1.44H433.977a2.588,2.588,0,0,1-2.585-2.585v-1.38a2.588,2.588,0,0,1,2.585-2.585h18.507a.72.72,0,1,0,0-1.441Z" transform="translate(-407.573 -1808.297)"/>
          </g>
          <path id="Path_51835" data-name="Path 51835" d="M964.391,1868.515h-1.585a.132.132,0,1,1,0-.263h1.585a.132.132,0,1,1,0,.263Z" transform="translate(-929.983 -1864.721)"/>
          <path id="Path_51836" data-name="Path 51836" d="M1014.958,1868.515h-8.391a.132.132,0,0,1,0-.263h8.391a.132.132,0,0,1,0,.263Z" transform="translate(-971.166 -1864.721)"/>
          <path id="Path_51837" data-name="Path 51837" d="M989.091,1885.942h-9.928a.132.132,0,1,1,0-.263h9.928a.132.132,0,1,1,0,.263Z" transform="translate(-945.376 -1881.122)"/>
          <path id="Path_51838" data-name="Path 51838" d="M938.562,1917.181h-1.8a.132.132,0,0,1,0-.263h1.8a.132.132,0,1,1,0,.263Z" transform="translate(-905.469 -1910.521)"/>
          <path id="Path_51839" data-name="Path 51839" d="M990.4,1917.181h-9.928a.132.132,0,1,1,0-.263H990.4a.132.132,0,1,1,0,.263Z" transform="translate(-946.609 -1910.521)"/>
        </g>
        <g id="Group_16651" data-name="Group 16651" transform="translate(0 9.726)">
          <g id="Group_16649" data-name="Group 16649" transform="translate(8.302 0.964)">
            <path id="Path_51840" data-name="Path 51840" d="M571.65,2000.964H535.289v-8.908H571.65A12.561,12.561,0,0,0,571.65,2000.964Z" transform="translate(-535.157 -1991.924)" fill="#fff"/>
            <path id="Path_51841" data-name="Path 51841" d="M569.545,1998.991H533.185a.132.132,0,0,1-.132-.132v-8.908a.132.132,0,0,1,.132-.132h36.361a.132.132,0,0,1,.124.176,12.489,12.489,0,0,0,0,8.818.132.132,0,0,1-.123.178Zm-36.229-.263h36.04a12.719,12.719,0,0,1,0-8.645H533.316Z" transform="translate(-533.053 -1989.82)"/>
          </g>
          <g id="Group_16650" data-name="Group 16650">
            <path id="Path_51842" data-name="Path 51842" d="M407,1977.086h32.233a.7.7,0,1,0,0-1.4H397.407a3.084,3.084,0,0,0-3.084,3.084v4.849a3.084,3.084,0,0,0,3.084,3.084h41.828a.7.7,0,1,0,0-1.4H407a2.179,2.179,0,0,1-2.179-2.179v-3.852A2.179,2.179,0,0,1,407,1977.086Z" transform="translate(-394.191 -1975.551)" fill="#160e4d"/>
            <path id="Path_51843" data-name="Path 51843" d="M437.132,1984.728H395.3a3.22,3.22,0,0,1-3.216-3.216v-4.849a3.22,3.22,0,0,1,3.216-3.216h41.828a.833.833,0,0,1,0,1.667H404.9a2.05,2.05,0,0,0-2.047,2.047v3.852a2.05,2.05,0,0,0,2.047,2.047h32.234a.834.834,0,0,1,0,1.667ZM395.3,1973.71a2.956,2.956,0,0,0-2.953,2.953v4.849a2.956,2.956,0,0,0,2.953,2.953h41.828a.57.57,0,0,0,0-1.141H404.9a2.313,2.313,0,0,1-2.311-2.311v-3.852a2.313,2.313,0,0,1,2.311-2.311h32.234a.57.57,0,0,0,0-1.141Z" transform="translate(-392.087 -1973.447)" fill="#160e4d"/>
          </g>
          <path id="Path_51844" data-name="Path 51844" d="M1053.873,2026H1048.5a.132.132,0,1,1,0-.263h5.369a.132.132,0,0,1,0,.263Z" transform="translate(-1009.721 -2022.659)"/>
          <path id="Path_51845" data-name="Path 51845" d="M876.911,2026h-9.76a.132.132,0,1,1,0-.263h9.76a.132.132,0,1,1,0,.263Z" transform="translate(-839.05 -2022.659)"/>
          <path id="Path_51846" data-name="Path 51846" d="M923.345,2046.19H909.928a.132.132,0,1,1,0-.263h13.417a.132.132,0,1,1,0,.263Z" transform="translate(-879.307 -2041.658)"/>
          <path id="Path_51847" data-name="Path 51847" d="M847.017,2046.19h-2.731a.132.132,0,0,1,0-.263h2.731a.132.132,0,0,1,0,.263Z" transform="translate(-817.531 -2041.658)"/>
          <path id="Path_51848" data-name="Path 51848" d="M910.393,2088.328H896.166a.132.132,0,1,1,0-.263h14.228a.132.132,0,1,1,0,.263Z" transform="translate(-866.355 -2081.315)"/>
          <path id="Path_51849" data-name="Path 51849" d="M867.861,2088.328h-.709a.132.132,0,1,1,0-.263h.709a.132.132,0,0,1,0,.263Z" transform="translate(-839.05 -2081.315)"/>
        </g>
      </g>
      <g id="Group_16655" data-name="Group 16655" transform="translate(440.056 394.488)">
        <g id="Group_16653" data-name="Group 16653" transform="translate(0 0)">
          <path id="Path_51850" data-name="Path 51850" d="M1953.833,1582.651s2.837-.887,7.484-9.9c3.922-7.611.425-14.967-.28-19.886a.48.48,0,0,0-.929-.1c-1.176,3.306-3.068,9.317-2.762,13.018C1957.786,1571.115,1953.833,1582.651,1953.833,1582.651Z" transform="translate(-1943.31 -1540.231)" fill="#160e4d"/>
          <path id="Path_51851" data-name="Path 51851" d="M1875.522,1382.584l1.01-7.99a18.221,18.221,0,0,0-1.634-10.139,18.226,18.226,0,0,1-.474-14.621l1.623-4.055a.493.493,0,0,0-.818-.521l-2.279,2.507a21.612,21.612,0,0,0-4.572,21.089l4.2,13.163Z" transform="translate(-1861.925 -1345.094)" fill="#160e4d"/>
          <path id="Path_51852" data-name="Path 51852" d="M2012.209,1746.87h-.017a.132.132,0,0,1-.114-.147l.524-4.14a18.052,18.052,0,0,0-.309-6.294.132.132,0,1,1,.257-.058,18.311,18.311,0,0,1,.314,6.386l-.524,4.14A.132.132,0,0,1,2012.209,1746.87Z" transform="translate(-1998.124 -1713.098)" fill="#fff"/>
          <path id="Path_51853" data-name="Path 51853" d="M1787.447,1746.708l-3.5-8.953a8.892,8.892,0,0,0-5.694-5.28l-2.39-.724a.55.55,0,0,0-.49.964l1.469,1.143a6.718,6.718,0,0,1,2.584,5.165,6.743,6.743,0,0,0,.982,3.37l2.375,3.9Z" transform="translate(-1775.152 -1708.957)" fill="#160e4d"/>
          <path id="Path_51854" data-name="Path 51854" d="M1924.639,1424.879h-.012a.132.132,0,0,1-.119-.143,29.13,29.13,0,0,0-1.627-12.645,34.447,34.447,0,0,1-1.173-4.443c-1.24-7.2,2.987-13.44,3.03-13.5a.132.132,0,0,1,.217.149c-.042.061-4.209,6.22-2.988,13.308a34.236,34.236,0,0,0,1.165,4.41,29.361,29.361,0,0,1,1.638,12.748A.132.132,0,0,1,1924.639,1424.879Z" transform="translate(-1912.862 -1391.202)" fill="#fff"/>
          <path id="Path_51855" data-name="Path 51855" d="M1911.349,1807.37a.132.132,0,0,1-.125-.091,12.988,12.988,0,0,0-2.255-3.75.132.132,0,1,1,.2-.167,13.236,13.236,0,0,1,2.3,3.834.132.132,0,0,1-.125.173Z" transform="translate(-1901.06 -1776.328)" fill="#fff"/>
          <path id="Path_51856" data-name="Path 51856" d="M2052.286,1616.864l-.022,0a.132.132,0,0,1-.108-.152c.955-5.646.625-14.338.621-14.425a.132.132,0,1,1,.263-.01c0,.088.335,8.807-.624,14.48A.132.132,0,0,1,2052.286,1616.864Z" transform="translate(-2035.841 -1587.009)" fill="#fff"/>
          <path id="Path_51857" data-name="Path 51857" d="M1817.33,1763.234a.132.132,0,0,1-.132-.13,12.028,12.028,0,0,0-5.741-10.148.132.132,0,0,1,.124-.232,12.3,12.3,0,0,1,5.88,10.378.132.132,0,0,1-.13.133Z" transform="translate(-1809.254 -1728.702)" fill="#fff"/>
          <path id="Path_51858" data-name="Path 51858" d="M1888.277,1630.694a.132.132,0,0,1-.1-.051,14.379,14.379,0,0,1-2.2-4.622.132.132,0,0,1,.255-.064,14.087,14.087,0,0,0,2.155,4.525.132.132,0,0,1-.1.212Z" transform="translate(-1879.44 -1609.323)" fill="#fff"/>
        </g>
        <g id="Group_16654" data-name="Group 16654" transform="translate(4.693 35.456)">
          <path id="Rectangle_4039" data-name="Rectangle 4039" d="M0,0H13.28a0,0,0,0,1,0,0V5.927a6.64,6.64,0,0,1-6.64,6.64h0A6.64,6.64,0,0,1,0,5.927V0A0,0,0,0,1,0,0Z" transform="translate(0.132 0.132)" fill="#fff"/>
          <path id="Path_51859" data-name="Path 51859" d="M1863.812,1959.965h-4.395a4.58,4.58,0,0,1-4.574-4.574v-8.125a.132.132,0,0,1,.132-.132h13.281a.132.132,0,0,1,.132.132v8.125A4.58,4.58,0,0,1,1863.812,1959.965Zm-8.706-12.568v7.993a4.316,4.316,0,0,0,4.311,4.311h4.395a4.316,4.316,0,0,0,4.311-4.311V1947.4Z" transform="translate(-1854.843 -1947.134)"/>
        </g>
        <path id="Path_51860" data-name="Path 51860" d="M1887.75,1985.067h-10.677a.132.132,0,0,1,0-.263h10.677a.132.132,0,0,1,0,.263Z" transform="translate(-1870.947 -1947.13)"/>
      </g>
      <g id="Group_16663" data-name="Group 16663" transform="translate(358.172 335)">
        <g id="Group_16658" data-name="Group 16658" transform="translate(96.367 43.325)">
          <g id="Group_16656" data-name="Group 16656" transform="translate(2.023)">
            <path id="Path_51861" data-name="Path 51861" d="M2084.174,1096.381a.132.132,0,0,1-.12-.187,33.063,33.063,0,0,0,2.991-18.046,24.466,24.466,0,0,0-1.966-7.294.132.132,0,0,1,.235-.119,24.752,24.752,0,0,1,1.993,7.38,33.325,33.325,0,0,1-3.013,18.19A.131.131,0,0,1,2084.174,1096.381Z" transform="translate(-2082.356 -1070.663)"/>
            <path id="Path_51862" data-name="Path 51862" d="M2055.542,1245.563a.132.132,0,0,1-.124-.178c3.4-9.126,1.943-13.189,1.928-13.229a.132.132,0,0,1,.246-.093c.063.167,1.511,4.2-1.928,13.415A.131.131,0,0,1,2055.542,1245.563Z" transform="translate(-2055.41 -1222.478)"/>
          </g>
          <g id="Group_16657" data-name="Group 16657" transform="translate(0 4.015)">
            <path id="Path_51863" data-name="Path 51863" d="M2074.469,1172.255a.132.132,0,0,1,0-.263l.9-.016a.129.129,0,0,1,.134.129.131.131,0,0,1-.129.134l-.9.016Z" transform="translate(-2071.2 -1170.024)"/>
            <path id="Path_51864" data-name="Path 51864" d="M2021.2,1173.2a.132.132,0,0,1,0-.263l.9-.016a.13.13,0,0,1,.134.129.132.132,0,0,1-.129.134l-.9.016Z" transform="translate(-2021.064 -1170.915)"/>
            <path id="Path_51865" data-name="Path 51865" d="M2055.346,1139.986a.131.131,0,0,1-.132-.131l0-.883a.131.131,0,0,1,.131-.132h0a.132.132,0,0,1,.132.131l0,.883a.131.131,0,0,1-.131.132Z" transform="translate(-2053.201 -1138.839)"/>
            <path id="Path_51866" data-name="Path 51866" d="M2055.5,1192.48a.132.132,0,0,1-.132-.131l0-.883a.131.131,0,0,1,.131-.132h0a.132.132,0,0,1,.132.131l0,.883a.131.131,0,0,1-.131.132Z" transform="translate(-2053.347 -1188.242)"/>
          </g>
        </g>
        <g id="Group_16660" data-name="Group 16660" transform="translate(17.485 0)">
          <g id="Group_16659" data-name="Group 16659" transform="translate(0 1.027)">
            <path id="Path_51867" data-name="Path 51867" d="M771.736,360.789a.132.132,0,0,1-.082-.234c3.125-2.5,9.354-6.875,15.964-8.12a.132.132,0,0,1,.049.259c-6.554,1.234-12.743,5.583-15.848,8.066A.131.131,0,0,1,771.736,360.789Z" transform="translate(-766.306 -352.433)"/>
            <path id="Path_51868" data-name="Path 51868" d="M681.776,400.631a.132.132,0,0,1-.093-.225,36.428,36.428,0,0,1,11.026-7.791.132.132,0,0,1,.1.245,36.163,36.163,0,0,0-10.936,7.732A.131.131,0,0,1,681.776,400.631Z" transform="translate(-681.645 -390.239)"/>
          </g>
          <path id="Path_51869" data-name="Path 51869" d="M1081.194,337.317a1.158,1.158,0,1,1,.293-2.279,1.159,1.159,0,0,1-.293,2.279Zm0-2.054a.9.9,0,1,0,.228.03A.9.9,0,0,0,1081.193,335.264Z" transform="translate(-1056.572 -335)"/>
        </g>
        <g id="Group_16662" data-name="Group 16662" transform="translate(0 49.563)">
          <g id="Group_16661" data-name="Group 16661" transform="translate(0.248 7.366)">
            <path id="Path_51870" data-name="Path 51870" d="M439,1340.572a.132.132,0,0,1-.051-.01l-.826-.349a.132.132,0,1,1,.1-.243l.826.349a.132.132,0,0,1-.051.253Z" transform="translate(-435.148 -1337.705)"/>
            <path id="Path_51871" data-name="Path 51871" d="M389.918,1319.829a.131.131,0,0,1-.051-.01l-.826-.349a.132.132,0,0,1,.1-.243l.826.349a.132.132,0,0,1-.051.253Z" transform="translate(-388.961 -1318.183)"/>
            <path id="Path_51872" data-name="Path 51872" d="M428.2,1302.737a.132.132,0,0,1-.12-.185l.356-.808a.132.132,0,1,1,.241.106l-.356.808A.132.132,0,0,1,428.2,1302.737Z" transform="translate(-425.761 -1301.665)"/>
            <path id="Path_51873" data-name="Path 51873" d="M407.046,1350.782a.132.132,0,0,1-.12-.185l.356-.808a.132.132,0,1,1,.241.106l-.356.808A.131.131,0,0,1,407.046,1350.782Z" transform="translate(-405.857 -1346.881)"/>
          </g>
          <path id="Path_51874" data-name="Path 51874" d="M385.757,1178.586a1,1,0,1,1,.255-1.967h0a1,1,0,0,1-.255,1.967Zm0-1.737a.737.737,0,1,0,.187.024A.73.73,0,0,0,385.757,1176.849Z" transform="translate(-384.756 -1176.586)"/>
        </g>
      </g>
      <g id="Group_16674" data-name="Group 16674" transform="translate(363.454 384.436)">
        <path id="Path_51875" data-name="Path 51875" d="M572.429,1650.1a29.6,29.6,0,0,0,20.287-1.284s1.807,8.716-8.054,10.21S572.438,1651.922,572.429,1650.1Z" transform="translate(-566.659 -1620.882)" fill="#160e4d"/>
        <g id="Group_16665" data-name="Group 16665" transform="translate(5.526 12.582)">
          <g id="Group_16664" data-name="Group 16664">
            <path id="Path_51876" data-name="Path 51876" d="M590.512,1402.667a3.652,3.652,0,0,1-1.11-1.226c-.91-1.536-2.874-7.13-3.849-8.647-.009-.017-.021-.034-.032-.05a.989.989,0,0,0-.178-.229.341.341,0,0,0-.034-.03,9.5,9.5,0,0,0-4.295-2.171c-1.91-.237-6.228.479-7.85,2.6a.02.02,0,0,0-.005.007,9.83,9.83,0,0,0-2.576,7.629c.24,2.425.6,4.306,1.585,5.6a5.869,5.869,0,0,0,.4,1.648c.914,1.785,10.3,1.846,14.112-.505,0,0-.067-1.144-.138-2.756a5.2,5.2,0,0,0,2.318,2.107c.022.008.5-.159.519-.153.827.262,1.38-.843,1.752-1.625A1.736,1.736,0,0,0,590.512,1402.667Z" transform="translate(-570.401 -1390.141)" fill="#fff"/>
            <path id="Path_51877" data-name="Path 51877" d="M576,1407.146a16.255,16.255,0,0,1-4.1-.44,2.425,2.425,0,0,1-1.572-.936,5.78,5.78,0,0,1-.4-1.656c-.987-1.312-1.35-3.2-1.59-5.634a9.89,9.89,0,0,1,2.607-7.728l0,0c1.669-2.183,6.075-2.887,7.97-2.652a9.531,9.531,0,0,1,4.366,2.2.363.363,0,0,1,.04.036,1.108,1.108,0,0,1,.2.255.583.583,0,0,1,.034.055,39.391,39.391,0,0,1,2.082,4.638,41.321,41.321,0,0,0,1.765,4,3.548,3.548,0,0,0,1.069,1.183,1.876,1.876,0,0,1,.661,2.364c-.352.739-.939,1.968-1.878,1.7-.044.012-.135.042-.2.064-.276.089-.3.1-.352.077a4.783,4.783,0,0,1-2.123-1.788c.062,1.355.117,2.3.118,2.306a.132.132,0,0,1-.062.12C582.547,1406.6,579.014,1407.146,576,1407.146Zm-4.853-16.23-.009.01a9.63,9.63,0,0,0-2.542,7.527c.238,2.4.594,4.265,1.559,5.528a.132.132,0,0,1,.026.062,5.75,5.75,0,0,0,.383,1.606,2.248,2.248,0,0,0,1.408.8c3.105.868,9.55.416,12.45-1.319-.016-.286-.074-1.322-.134-2.678a.132.132,0,0,1,.241-.08,5.037,5.037,0,0,0,2.22,2.044c.048-.013.147-.045.217-.068.258-.083.278-.09.328-.075.686.217,1.183-.689,1.6-1.555a1.611,1.611,0,0,0-.568-2.031h0a3.807,3.807,0,0,1-1.151-1.269,41.282,41.282,0,0,1-1.782-4.039,39.407,39.407,0,0,0-2.064-4.6c-.011-.02-.019-.03-.025-.041l-.009-.014a.881.881,0,0,0-.153-.2.262.262,0,0,0-.025-.022,9.637,9.637,0,0,0-4.232-2.146c-1.842-.229-6.121.447-7.729,2.552Z" transform="translate(-568.285 -1388.055)"/>
          </g>
          <path id="Path_51878" data-name="Path 51878" d="M642.236,1505.723a.131.131,0,0,1-.084-.031c-3.864-3.238-3.382-8.974-3.377-9.032a.132.132,0,1,1,.262.024c-.005.056-.473,5.658,3.284,8.806a.132.132,0,0,1-.085.233Z" transform="translate(-634.603 -1490.151)"/>
        </g>
        <g id="Group_16667" data-name="Group 16667" transform="translate(7.66 0)">
          <path id="Path_51879" data-name="Path 51879" d="M610.124,1184.764a4.552,4.552,0,0,1-2.4.5c-.155-.018-2.092-.268-2.359-1.463a13.325,13.325,0,0,1-.73-2.434,15.054,15.054,0,0,0-.088-2.557c-.294-1.913,1.748-3.327,2.188-3.61.52-.334,1.742-1.121,2.861-.618a2.214,2.214,0,0,1,.985.939,2.437,2.437,0,0,1,.848-.525,3.29,3.29,0,0,1,3.508,1.3,2.5,2.5,0,0,1,.573,1.655c-.054.65-.43.962-.9,1.671-.85,1.29-.482,1.587-1.136,2.637A6.694,6.694,0,0,1,610.124,1184.764Z" transform="translate(-604.518 -1174.414)" fill="#160e4d"/>
          <g id="Group_16666" data-name="Group 16666" transform="translate(3.102 4.977)">
            <path id="Path_51880" data-name="Path 51880" d="M661.138,1266.154c.035.177.3,1.891-.38,2.652a3.409,3.409,0,0,1-1.333.972,14.285,14.285,0,0,0,4.782.338c1.674-.387,1.456-.823,1.456-.823l-.948-.5a.857.857,0,0,1-.456-.837l.018-.2a2.278,2.278,0,0,0,1.617-.272,2.429,2.429,0,0,0,1.021-1.97c.021-.617-.236-.511-.452-1.621a6.787,6.787,0,0,0-.465-2.161,3.219,3.219,0,0,0-.4-.582,2.83,2.83,0,0,0-1.627.542c-.516.4-.464.706-.974,1.014-.743.45-1.419.139-1.641.527-.082.143-.11.4.159.875,0,0-.7-.463-1.188-.179a.766.766,0,0,0-.331.433C659.842,1264.885,660.3,1265.6,661.138,1266.154Z" transform="translate(-659.293 -1261.023)" fill="#fff"/>
            <path id="Path_51881" data-name="Path 51881" d="M660.887,1268.259a18.519,18.519,0,0,1-3.6-.456.132.132,0,0,1-.01-.254,3.328,3.328,0,0,0,1.275-.935,3.6,3.6,0,0,0,.359-2.486c-.869-.594-1.317-1.337-1.145-1.9a.9.9,0,0,1,.39-.508,1.133,1.133,0,0,1,.976.006.765.765,0,0,1,.006-.654c.144-.252.424-.278.72-.306a2.1,2.1,0,0,0,.968-.269,1.374,1.374,0,0,0,.463-.462,2.185,2.185,0,0,1,.5-.543,2.948,2.948,0,0,1,1.7-.57.13.13,0,0,1,.106.046,3.185,3.185,0,0,1,.771,1.975c.026.239.056.509.118.828a3.583,3.583,0,0,0,.3.962,1.265,1.265,0,0,1,.151.689,2.574,2.574,0,0,1-1.083,2.077,2.351,2.351,0,0,1-1.568.313l-.005.058a.723.723,0,0,0,.386.708l.948.5a.131.131,0,0,1,.057.058.3.3,0,0,1-.013.264c-.138.293-.653.544-1.531.747A5.661,5.661,0,0,1,660.887,1268.259Zm-3.156-.632a12.749,12.749,0,0,0,4.341.257c1.115-.258,1.318-.523,1.355-.615l-.879-.46a.986.986,0,0,1-.526-.966l.018-.2a.132.132,0,0,1,.156-.117,2.125,2.125,0,0,0,1.522-.254,2.311,2.311,0,0,0,.959-1.863,1,1,0,0,0-.126-.569,3.859,3.859,0,0,1-.324-1.023c-.064-.33-.095-.606-.122-.849a3.162,3.162,0,0,0-.331-1.275,3.089,3.089,0,0,0-.338-.508,2.662,2.662,0,0,0-1.488.511,1.938,1.938,0,0,0-.443.485,1.633,1.633,0,0,1-.543.537,2.35,2.35,0,0,1-1.079.306c-.289.027-.443.047-.516.174-.108.189.027.51.159.746a.132.132,0,0,1-.187.175c-.006,0-.643-.414-1.049-.176a.645.645,0,0,0-.272.357c-.138.456.3,1.114,1.086,1.639a.131.131,0,0,1,.056.084c0,.019.353,1.907-.411,2.765A4.024,4.024,0,0,1,657.732,1267.627Z" transform="translate(-657.189 -1258.919)"/>
          </g>
          <path id="Path_51882" data-name="Path 51882" d="M706.871,1357.661a3.3,3.3,0,0,1-2-.9.132.132,0,0,1,.183-.189,2.99,2.99,0,0,0,1.945.82.132.132,0,1,1,.02.262C706.966,1357.659,706.918,1357.661,706.871,1357.661Z" transform="translate(-698.919 -1345.81)"/>
        </g>
        <g id="Group_16668" data-name="Group 16668" transform="translate(13.546 19.583)">
          <path id="Path_51883" data-name="Path 51883" d="M716.05,1520.5a.773.773,0,0,1-.739.656H707.26a.55.55,0,0,1-.552-.656l1.576-10.683a.768.768,0,0,1,.734-.64h7.946a.545.545,0,0,1,.552.64Z" transform="translate(-706.57 -1509.041)" fill="#fff"/>
          <path id="Path_51884" data-name="Path 51884" d="M713.205,1519.181h-8.051a.681.681,0,0,1-.525-.232.706.706,0,0,1-.157-.575l1.576-10.683a.905.905,0,0,1,.865-.753h7.946a.683.683,0,0,1,.524.23.694.694,0,0,1,.158.56l-1.468,10.684h0A.91.91,0,0,1,713.205,1519.181Zm-6.292-11.98a.633.633,0,0,0-.6.528l-1.576,10.684a.447.447,0,0,0,.1.364.421.421,0,0,0,.326.141h8.051a.639.639,0,0,0,.608-.542l1.467-10.684a.434.434,0,0,0-.1-.351.423.423,0,0,0-.326-.14Zm7.03,11.192h0Z" transform="translate(-704.464 -1506.937)"/>
        </g>
        <g id="Group_16669" data-name="Group 16669" transform="translate(12.635 26.652)">
          <path id="Path_51885" data-name="Path 51885" d="M691.989,1633.69a2.55,2.55,0,0,1-.284-3.457c1.315-2.194,1.205-.285,1.161.329s-.581,3.513-.829,3.222Z" transform="translate(-691.058 -1629.073)" fill="#fff"/>
          <path id="Path_51886" data-name="Path 51886" d="M690.017,1631.822a.179.179,0,0,1-.137-.067.131.131,0,0,1-.031-.077,2.7,2.7,0,0,1-.314-3.627c.505-.843.839-1.166,1.115-1.078s.359.53.29,1.484c-.012.162-.449,3.218-.869,3.356A.176.176,0,0,1,690.017,1631.822Zm.548-4.6c-.037,0-.254.046-.8.963a2.437,2.437,0,0,0,.253,3.286l.013.012a16.011,16.011,0,0,0,.651-3.046c.08-1.122-.088-1.208-.107-1.215Z" transform="translate(-689.001 -1626.959)"/>
        </g>
        <g id="Group_16672" data-name="Group 16672" transform="translate(0 25.682)">
          <path id="Path_51887" data-name="Path 51887" d="M775.756,1620.69s6.289-6.485,8.11-8.1,3.083-2.667,4.835-1.763-.672,8.46-4.724,11.16-6.588,1.5-6.588,1.5Z" transform="translate(-758.011 -1610.49)" fill="#160e4d"/>
          <g id="Group_16671" data-name="Group 16671" transform="translate(14.98 10.594)">
            <g id="Group_16670" data-name="Group 16670">
              <path id="Path_51888" data-name="Path 51888" d="M732.676,1792.619l-1.629,3.076a4.93,4.93,0,0,0,4.818,1.445c3.212-.619,2.618-1.734,1.972-2.313S733.888,1792.492,732.676,1792.619Z" transform="translate(-730.915 -1792.481)" fill="#fff"/>
              <path id="Path_51889" data-name="Path 51889" d="M732.6,1795.286a4.95,4.95,0,0,1-3.759-1.61.132.132,0,0,1-.012-.143l1.629-3.076a.131.131,0,0,1,.1-.069c1.28-.133,4.639,1.681,5.263,2.241a1.259,1.259,0,0,1,.524,1.2c-.164.593-1.026,1.043-2.559,1.339A6.275,6.275,0,0,1,732.6,1795.286Zm-3.5-1.709a4.9,4.9,0,0,0,4.634,1.333c1.778-.343,2.262-.815,2.356-1.151.1-.372-.235-.746-.446-.935-.662-.594-3.8-2.225-4.991-2.18Z" transform="translate(-728.812 -1790.38)"/>
            </g>
            <path id="Path_51890" data-name="Path 51890" d="M764.769,1839.065a12.659,12.659,0,0,1-1.838-.143.132.132,0,1,1,.042-.26c.03,0,3,.475,3.986-.348a.781.781,0,0,0,.3-.614.132.132,0,0,1,.263.005,1.044,1.044,0,0,1-.394.811A3.963,3.963,0,0,1,764.769,1839.065Z" transform="translate(-760.818 -1834.792)"/>
            <path id="Path_51891" data-name="Path 51891" d="M775.852,1801.121l-.022,0a.132.132,0,0,1-.108-.151,4.988,4.988,0,0,1,.888-2.109.132.132,0,0,1,.206.164,4.809,4.809,0,0,0-.835,1.988A.132.132,0,0,1,775.852,1801.121Z" transform="translate(-772.958 -1798.313)"/>
            <path id="Path_51892" data-name="Path 51892" d="M796.257,1808.693l-.019,0a.132.132,0,0,1-.111-.149,3.851,3.851,0,0,1,.719-1.891.132.132,0,0,1,.2.173,3.683,3.683,0,0,0-.657,1.757A.132.132,0,0,1,796.257,1808.693Z" transform="translate(-792.161 -1805.651)"/>
          </g>
          <path id="Path_51893" data-name="Path 51893" d="M492.2,1629.642l-2.447,4.13s-8.3-2.086-11.541-5.084-4.813-5.64-2.978-7.608,5.327-1.045,7.561,1.175S488.834,1628.225,492.2,1629.642Z" transform="translate(-474.452 -1619.442)" fill="#160e4d"/>
        </g>
        <g id="Group_16673" data-name="Group 16673" transform="translate(23.015 24.581)">
          <path id="Path_51894" data-name="Path 51894" d="M868.778,1595.409s-.181-1.465-.823-1.366-.824,3.9.131,3.752S868.778,1595.409,868.778,1595.409Z" transform="translate(-867.294 -1593.906)" fill="#fff"/>
          <path id="Path_51895" data-name="Path 51895" d="M865.995,1595.826c-.224,0-.551-.164-.687-1.05-.148-.962,0-2.877.588-2.968a.519.519,0,0,1,.4.107,2.43,2.43,0,0,1,.57,1.373h0c.011.1.266,2.369-.8,2.532A.472.472,0,0,1,865.995,1595.826Zm-.018-3.761a.259.259,0,0,0-.042,0c-.257.04-.547,1.494-.367,2.667.031.2.157.87.459.824.679-.1.65-1.652.581-2.24a2.21,2.21,0,0,0-.468-1.2A.263.263,0,0,0,865.977,1592.065Z" transform="translate(-865.254 -1591.801)"/>
        </g>
      </g>
    </g>
  </g>
</svg>
