<svg xmlns="http://www.w3.org/2000/svg" width="21" height="22" viewBox="0 0 21 22">
  <g id="Group_16998" data-name="Group 16998" transform="translate(20630 7590)">
    <g id="XMLID_834_" transform="translate(-20701.703 -7590)">
      <path id="XMLID_835_" d="M77.042,11.2h2.3v9.486a.339.339,0,0,0,.339.339h3.907a.339.339,0,0,0,.339-.339V11.24H86.58a.339.339,0,0,0,.337-.3l.4-3.492a.339.339,0,0,0-.337-.378H83.931V4.881c0-.66.355-.995,1.056-.995h1.995a.339.339,0,0,0,.339-.339V.342A.339.339,0,0,0,86.982,0H84.233c-.019,0-.062,0-.126,0a5.268,5.268,0,0,0-3.445,1.3,3.613,3.613,0,0,0-1.2,3.211V7.07H77.042a.339.339,0,0,0-.339.339v3.448A.339.339,0,0,0,77.042,11.2Z" fill="#160e4d"/>
    </g>
    <rect id="Rectangle_4121" data-name="Rectangle 4121" width="21" height="22" transform="translate(-20630 -7590)" fill="none"/>
  </g>
</svg>
