<svg xmlns="http://www.w3.org/2000/svg" width="112" height="110.939" viewBox="0 0 112 110.939">
  <g id="Ambition" transform="translate(-326.253 -335)">
    <g id="Group_16290" data-name="Group 16290" transform="translate(341.137 343.729)">
      <g id="Group_16288" data-name="Group 16288" transform="translate(0 17.168)">
        <path id="Path_51319" data-name="Path 51319" d="M612.4,772.568l-2.852-3.017-3.9,2.313a17.2,17.2,0,0,0-2.46-1.521l.306-4.518-3.977-1.187-2.218,3.953a17.414,17.414,0,0,0-2.886-.081l-2-4.073-4.036.961.055,4.528a17.194,17.194,0,0,0-2.54,1.379l-3.763-2.529-3.014,2.851,2.314,3.9a17.2,17.2,0,0,0-1.518,2.46l-4.516-.309-1.184,3.978,3.953,2.222a17.44,17.44,0,0,0-.08,2.887l-4.07,1.995.963,4.038,4.526-.053a17.214,17.214,0,0,0,1.38,2.542l-2.526,3.763,2.852,3.017,3.9-2.313a17.2,17.2,0,0,0,2.46,1.521l-.306,4.518,3.977,1.187,2.218-3.953a17.408,17.408,0,0,0,2.886.082l2,4.073,4.036-.961-.056-4.528a17.173,17.173,0,0,0,2.54-1.379l3.763,2.529,3.014-2.851-2.314-3.9a17.189,17.189,0,0,0,1.518-2.46l4.516.309,1.184-3.978L612.6,787.74a17.416,17.416,0,0,0,.08-2.887l4.07-1.995-.963-4.038-4.526.053a17.208,17.208,0,0,0-1.38-2.542Zm-9.677,21.008a10.687,10.687,0,1,1,.418-15.106A10.679,10.679,0,0,1,602.726,793.575Z" transform="translate(-573.887 -764.301)" fill="#fff"/>
        <path id="Path_51320" data-name="Path 51320" d="M596.239,805.208a.136.136,0,0,1-.122-.076l-1.957-3.992a17.625,17.625,0,0,1-2.729-.077l-2.174,3.875a.136.136,0,0,1-.158.064l-3.977-1.187a.136.136,0,0,1-.1-.139l.3-4.428A17.4,17.4,0,0,1,583,797.809l-3.819,2.267a.136.136,0,0,1-.168-.023l-2.852-3.017a.136.136,0,0,1-.014-.169l2.476-3.688a17.414,17.414,0,0,1-1.305-2.4l-4.436.052a.136.136,0,0,1-.134-.1l-.963-4.038a.136.136,0,0,1,.072-.154l3.989-1.955a17.643,17.643,0,0,1,.076-2.73l-3.875-2.178a.136.136,0,0,1-.064-.157l1.184-3.978a.136.136,0,0,1,.14-.1l4.426.3a17.4,17.4,0,0,1,1.436-2.326l-2.268-3.822a.136.136,0,0,1,.023-.168l3.014-2.851a.136.136,0,0,1,.169-.014l3.688,2.479a17.4,17.4,0,0,1,2.4-1.3l-.054-4.438a.136.136,0,0,1,.1-.134l4.036-.961a.136.136,0,0,1,.154.072l1.957,3.992a17.6,17.6,0,0,1,2.729.077l2.174-3.875a.136.136,0,0,1,.158-.064l3.977,1.187a.136.136,0,0,1,.1.139l-.3,4.428a17.389,17.389,0,0,1,2.326,1.438l3.819-2.267a.136.136,0,0,1,.168.023l2.852,3.017a.136.136,0,0,1,.014.169l-2.476,3.688a17.4,17.4,0,0,1,1.305,2.4l4.436-.052a.142.142,0,0,1,.134.1l.963,4.038a.136.136,0,0,1-.072.154l-3.989,1.955a17.623,17.623,0,0,1-.075,2.73l3.875,2.177a.136.136,0,0,1,.064.157l-1.184,3.978a.136.136,0,0,1-.14.1l-4.426-.3a17.4,17.4,0,0,1-1.436,2.326l2.268,3.822a.136.136,0,0,1-.023.168l-3.014,2.851a.136.136,0,0,1-.169.014l-3.688-2.479a17.373,17.373,0,0,1-2.4,1.3l.054,4.438a.136.136,0,0,1-.1.134l-4.036.961A.133.133,0,0,1,596.239,805.208Zm-2-4.345a.136.136,0,0,1,.122.076l1.948,3.975,3.825-.91-.054-4.419a.136.136,0,0,1,.082-.126,17.1,17.1,0,0,0,2.52-1.368.136.136,0,0,1,.15,0l3.673,2.469,2.856-2.7-2.258-3.806a.136.136,0,0,1,.008-.15,17.111,17.111,0,0,0,1.506-2.441.136.136,0,0,1,.131-.074l4.408.3,1.122-3.769-3.859-2.168a.136.136,0,0,1-.068-.133,17.347,17.347,0,0,0,.079-2.865.136.136,0,0,1,.076-.13l3.972-1.947-.912-3.827-4.417.052a.142.142,0,0,1-.126-.082,17.131,17.131,0,0,0-1.369-2.522.136.136,0,0,1,0-.15l2.465-3.673-2.7-2.859-3.8,2.257a.136.136,0,0,1-.15-.008,17.1,17.1,0,0,0-2.441-1.508.136.136,0,0,1-.074-.13l.3-4.41-3.768-1.125-2.165,3.859a.136.136,0,0,1-.134.069,17.336,17.336,0,0,0-2.864-.081.137.137,0,0,1-.13-.076l-1.948-3.975-3.825.91.054,4.419a.136.136,0,0,1-.082.126,17.105,17.105,0,0,0-2.52,1.368.136.136,0,0,1-.15,0l-3.672-2.469-2.856,2.7,2.258,3.806a.136.136,0,0,1-.007.15,17.1,17.1,0,0,0-1.507,2.441.136.136,0,0,1-.131.074l-4.408-.3-1.122,3.769,3.859,2.168a.136.136,0,0,1,.069.133,17.345,17.345,0,0,0-.079,2.865.136.136,0,0,1-.076.13l-3.972,1.947.912,3.827,4.417-.052a.131.131,0,0,1,.126.081A17.123,17.123,0,0,0,578.9,793.1a.136.136,0,0,1,0,.15l-2.466,3.673,2.7,2.859,3.8-2.257a.136.136,0,0,1,.15.008,17.1,17.1,0,0,0,2.441,1.508.136.136,0,0,1,.074.131l-.3,4.409,3.768,1.125,2.165-3.859a.135.135,0,0,1,.134-.069,17.327,17.327,0,0,0,2.864.081Zm-.952-6.341q-.156,0-.314,0a10.794,10.794,0,1,1,.314,0Zm-.028-21.372a10.558,10.558,0,1,0,.306,0C593.467,773.152,593.365,773.15,593.263,773.15Z" transform="translate(-571.78 -762.193)"/>
      </g>
      <g id="Group_16289" data-name="Group 16289" transform="translate(38.37)">
        <path id="Path_51321" data-name="Path 51321" d="M1231.454,484.7l-2.373-1.621-2.3,2.138a11.9,11.9,0,0,0-1.888-.666l-.458-3.1-2.865-.218-.918,3a12.067,12.067,0,0,0-1.964.37l-1.95-2.461-2.589,1.244.7,3.055a11.894,11.894,0,0,0-1.515,1.307l-2.917-1.157-1.619,2.372,2.139,2.3a11.9,11.9,0,0,0-.665,1.888l-3.1.456-.215,2.865,3,.921a12.075,12.075,0,0,0,.371,1.965l-2.459,1.948,1.246,2.59,3.054-.7a11.923,11.923,0,0,0,1.308,1.516l-1.154,2.917,2.373,1.621,2.3-2.138a11.917,11.917,0,0,0,1.888.666l.458,3.1,2.865.217.918-3a12.032,12.032,0,0,0,1.964-.37l1.95,2.461,2.589-1.244-.7-3.055a11.884,11.884,0,0,0,1.515-1.307l2.918,1.157,1.619-2.372-2.139-2.3a11.893,11.893,0,0,0,.665-1.888l3.1-.456.215-2.865-3-.921a12.086,12.086,0,0,0-.371-1.965l2.459-1.948-1.246-2.59-3.054.7a11.914,11.914,0,0,0-1.308-1.516ZM1228,500.335a7.4,7.4,0,1,1-1.941-10.279A7.392,7.392,0,0,1,1228,500.335Z" transform="translate(-1206.829 -481.098)" fill="#fff"/>
        <path id="Path_51322" data-name="Path 51322" d="M1220.1,509.121h-.01l-2.865-.218a.136.136,0,0,1-.124-.116l-.445-3.012a12.094,12.094,0,0,1-1.74-.614l-2.229,2.077a.136.136,0,0,1-.169.013l-2.373-1.621a.136.136,0,0,1-.05-.162l1.121-2.833a12.1,12.1,0,0,1-1.205-1.4l-2.966.682a.136.136,0,0,1-.153-.074l-1.246-2.59a.136.136,0,0,1,.038-.166l2.389-1.893a12.236,12.236,0,0,1-.342-1.81l-2.915-.894a.136.136,0,0,1-.1-.14l.215-2.865a.136.136,0,0,1,.116-.124l3.011-.443a12.058,12.058,0,0,1,.613-1.739l-2.078-2.231a.136.136,0,0,1-.013-.169l1.619-2.372a.136.136,0,0,1,.163-.05l2.834,1.124a12.093,12.093,0,0,1,1.4-1.2l-.684-2.967a.136.136,0,0,1,.074-.153l2.589-1.244a.136.136,0,0,1,.165.038l1.894,2.391a12.246,12.246,0,0,1,1.81-.341l.892-2.915a.136.136,0,0,1,.14-.1l2.865.217a.136.136,0,0,1,.124.116l.445,3.012a12.081,12.081,0,0,1,1.74.614l2.229-2.077a.136.136,0,0,1,.169-.013l2.373,1.621a.136.136,0,0,1,.05.162l-1.121,2.834a12.067,12.067,0,0,1,1.205,1.4l2.966-.682a.137.137,0,0,1,.153.074l1.246,2.59a.136.136,0,0,1-.038.166l-2.389,1.893a12.2,12.2,0,0,1,.342,1.81l2.916.894a.136.136,0,0,1,.1.14l-.215,2.865a.136.136,0,0,1-.116.124l-3.011.443a12.09,12.09,0,0,1-.613,1.739l2.078,2.231a.136.136,0,0,1,.013.169l-1.619,2.372a.136.136,0,0,1-.162.05l-2.834-1.124a12.07,12.07,0,0,1-1.4,1.2l.684,2.967a.136.136,0,0,1-.074.153l-2.589,1.244a.136.136,0,0,1-.166-.038l-1.894-2.391a12.219,12.219,0,0,1-1.809.341l-.892,2.915A.136.136,0,0,1,1220.1,509.121Zm-2.746-.481,2.648.2.886-2.9a.136.136,0,0,1,.116-.1,11.937,11.937,0,0,0,1.942-.366.136.136,0,0,1,.143.047l1.882,2.376,2.393-1.15-.68-2.949a.136.136,0,0,1,.053-.141,11.789,11.789,0,0,0,1.5-1.292.136.136,0,0,1,.147-.031l2.816,1.117,1.5-2.193-2.065-2.217a.135.135,0,0,1-.025-.148,11.794,11.794,0,0,0,.657-1.866.136.136,0,0,1,.112-.1l2.992-.44.2-2.648-2.9-.889a.136.136,0,0,1-.1-.116,11.959,11.959,0,0,0-.367-1.943.136.136,0,0,1,.047-.143l2.374-1.881-1.151-2.394-2.948.678a.136.136,0,0,1-.141-.053,11.785,11.785,0,0,0-1.293-1.5.136.136,0,0,1-.031-.147l1.115-2.816-2.194-1.5-2.216,2.064a.136.136,0,0,1-.148.024,11.808,11.808,0,0,0-1.866-.659.136.136,0,0,1-.1-.112l-.443-2.993-2.648-.2-.886,2.9a.136.136,0,0,1-.116.1,11.956,11.956,0,0,0-1.942.366.136.136,0,0,1-.143-.047l-1.882-2.376-2.393,1.15.68,2.949a.136.136,0,0,1-.053.141,11.782,11.782,0,0,0-1.5,1.292.136.136,0,0,1-.147.031l-2.816-1.117-1.5,2.193,2.065,2.218a.136.136,0,0,1,.024.148,11.813,11.813,0,0,0-.657,1.866.136.136,0,0,1-.112.1l-2.992.44-.2,2.648,2.9.889a.136.136,0,0,1,.1.116,11.942,11.942,0,0,0,.367,1.943.136.136,0,0,1-.047.143l-2.374,1.881,1.151,2.394,2.948-.678a.136.136,0,0,1,.141.053,11.808,11.808,0,0,0,1.293,1.5.136.136,0,0,1,.031.147l-1.115,2.816,2.194,1.5,2.215-2.064a.136.136,0,0,1,.148-.024,11.819,11.819,0,0,0,1.866.659.136.136,0,0,1,.1.112Zm2.418-7.05a7.548,7.548,0,1,1,1.409-.132A7.616,7.616,0,0,1,1219.774,501.591Zm.021-14.8a7.344,7.344,0,0,0-1.358.127,7.261,7.261,0,1,0,7.345,11.231l.112.077-.112-.077a7.268,7.268,0,0,0-5.987-11.358Z" transform="translate(-1204.722 -478.991)"/>
      </g>
    </g>
    <g id="Group_16302" data-name="Group 16302" transform="translate(342.141 385.741)">
      <g id="Group_16293" data-name="Group 16293" transform="translate(0 43.07)">
        <g id="Group_16291" data-name="Group 16291" transform="translate(0.014)">
          <path id="Path_51323" data-name="Path 51323" d="M619.9,1884.762l-8.351,5.414a.045.045,0,0,1-.025.007l-20.68-.051c-.031,0-.047-.025-.025-.039l8.289-5.375a.047.047,0,0,1,.025-.007l20.741.011C619.906,1884.723,619.921,1884.748,619.9,1884.762Z" transform="translate(-590.673 -1884.576)" fill="#fff"/>
          <path id="Path_51324" data-name="Path 51324" d="M609.417,1888.212l-20.68-.051a.168.168,0,0,1-.165-.116.154.154,0,0,1,.066-.173l8.289-5.375a.181.181,0,0,1,.1-.029l20.741.011a.168.168,0,0,1,.165.116.153.153,0,0,1-.066.173h0l-8.351,5.415A.18.18,0,0,1,609.417,1888.212Zm-20.306-.322,20.281.05,8-5.189-20.341-.011Zm7.966-5.165h0Zm20.716-.071h0Z" transform="translate(-588.566 -1882.469)"/>
        </g>
        <path id="Path_51325" data-name="Path 51325" d="M941.13,1884.975V1896.1l-8.295,5.381c-.032.021-.086.006-.086-.023V1890.43S941.011,1884.979,941.13,1884.975Z" transform="translate(-911.871 -1884.823)" fill="#160e4d"/>
        <g id="Group_16292" data-name="Group 16292" transform="translate(0 5.432)">
          <path id="Path_51326" data-name="Path 51326" d="M611.318,1985.408l-20.743-.051.018-11.047,20.726.04Z" transform="translate(-590.439 -1974.174)" fill="#fff"/>
          <path id="Path_51327" data-name="Path 51327" d="M609.212,1983.436h0l-20.743-.051a.136.136,0,0,1-.136-.136l.018-11.047a.136.136,0,0,1,.136-.136l20.726.04a.136.136,0,0,1,.136.136V1983.3a.136.136,0,0,1-.136.136Zm-20.607-.322,20.471.05v-10.786l-20.454-.039Z" transform="translate(-588.333 -1972.067)"/>
        </g>
      </g>
      <g id="Group_16297" data-name="Group 16297" transform="translate(28.226 22.55)">
        <g id="Group_16296" data-name="Group 16296">
          <g id="Group_16294" data-name="Group 16294" transform="translate(0.003)">
            <path id="Path_51328" data-name="Path 51328" d="M1087.706,1546.292l-8.343,5.388-23.108-.051c-.024,0-.036-.019-.019-.03l8.313-5.368,23.125.011C1087.715,1546.242,1087.735,1546.274,1087.706,1546.292Z" transform="translate(-1056.092 -1546.095)" fill="#fff"/>
            <path id="Path_51329" data-name="Path 51329" d="M1077.255,1549.709h0l-23.108-.051a.161.161,0,0,1-.157-.112.15.15,0,0,1,.064-.168l8.313-5.368a.136.136,0,0,1,.074-.022l23.125.011a.177.177,0,0,1,.175.122.159.159,0,0,1-.069.179l-8.343,5.388A.134.134,0,0,1,1077.255,1549.709Zm-22.713-.322,22.674.05,8-5.166-22.734-.011Z" transform="translate(-1053.984 -1543.988)"/>
          </g>
          <path id="Path_51330" data-name="Path 51330" d="M1446.233,1546.492v31.635l-8.317,5.373c-.023.015-.063,0-.063-.017v-31.558S1446.114,1546.5,1446.233,1546.492Z" transform="translate(-1414.579 -1546.34)" fill="#160e4d"/>
          <g id="Group_16295" data-name="Group 16295" transform="translate(0 5.41)">
            <path id="Path_51331" data-name="Path 51331" d="M1079.32,1667.115l-23.138-.05c.049.032.018-31.6.018-31.6l23.12.04Z" transform="translate(-1056.046 -1635.33)" fill="#fff"/>
            <path id="Path_51332" data-name="Path 51332" d="M1077.214,1665.145h0l-23.138-.05a.136.136,0,0,1-.132-.106.133.133,0,0,1,0-.055c.046-.685.016-31.265.015-31.575a.135.135,0,0,1,.04-.1.137.137,0,0,1,.1-.04h0l23.12.04a.136.136,0,0,1,.136.136v31.61a.136.136,0,0,1-.136.136Zm-23-.322,22.865.05v-31.338l-22.848-.039c0,1.077.008,8.364.01,15.653,0,3.948,0,7.9,0,10.861,0,1.482-.005,2.718-.009,3.584C1054.224,1664.269,1054.222,1664.627,1054.214,1664.823Z" transform="translate(-1053.94 -1633.223)"/>
          </g>
        </g>
        <path id="Path_51333" data-name="Path 51333" d="M1317.189,2084.563a.136.136,0,0,1-.074-.25l2.106-1.36a.136.136,0,1,1,.148.228l-2.106,1.36A.134.134,0,0,1,1317.189,2084.563Z" transform="translate(-1301.103 -2050.259)"/>
      </g>
      <g id="Group_16301" data-name="Group 16301" transform="translate(58.548)">
        <g id="Group_16300" data-name="Group 16300">
          <g id="Group_16298" data-name="Group 16298" transform="translate(0.018)">
            <path id="Path_51334" data-name="Path 51334" d="M1587.923,1174.261l-8.421,6.5-22.8-.061c-.034,0-.051-.031-.027-.05l8.295-6.405Z" transform="translate(-1556.526 -1174.112)" fill="#fff"/>
            <path id="Path_51335" data-name="Path 51335" d="M1577.394,1178.793h0l-22.8-.061a.172.172,0,0,1-.165-.114.159.159,0,0,1,.056-.179l8.294-6.405a.136.136,0,0,1,.083-.028l22.955.013a.136.136,0,0,1,.083.244l-8.421,6.5A.136.136,0,0,1,1577.394,1178.793Zm-22.5-.332,22.45.06,8.069-6.231-22.51-.013Z" transform="translate(-1554.418 -1172.005)"/>
          </g>
          <path id="Path_51336" data-name="Path 51336" d="M1942.467,1174.56v53.159l-8.294,6.408c-.032.025-.087.007-.087-.028v-53.043S1942.348,1174.565,1942.467,1174.56Z" transform="translate(-1911.053 -1174.405)" fill="#160e4d"/>
          <g id="Group_16299" data-name="Group 16299" transform="translate(0 6.469)">
            <path id="Path_51337" data-name="Path 51337" d="M1579.264,1334.087l-22.9-.06c.05.038.018-53.069.018-53.069l22.88.047Z" transform="translate(-1556.23 -1280.822)" fill="#fff"/>
            <path id="Path_51338" data-name="Path 51338" d="M1577.158,1332.116h0l-22.9-.06a.136.136,0,0,1-.133-.108.132.132,0,0,1,0-.049c.047-.829.016-52.525.016-53.048a.135.135,0,0,1,.136-.136h0l22.881.047a.136.136,0,0,1,.136.136v53.082a.136.136,0,0,1-.136.136Zm-22.759-.332,22.623.059v-52.81l-22.609-.047c0,1.432.008,13.909.01,26.389,0,6.632,0,13.265,0,18.241,0,2.488,0,4.563-.009,6.015,0,.727,0,1.3-.007,1.688C1554.4,1331.536,1554.4,1331.683,1554.4,1331.785Z" transform="translate(-1554.123 -1278.715)"/>
          </g>
        </g>
        <path id="Path_51339" data-name="Path 51339" d="M1714.967,1968.207a.136.136,0,0,1-.083-.244l6.63-5.121a.136.136,0,0,1,.167.215l-6.631,5.12A.136.136,0,0,1,1714.967,1968.207Z" transform="translate(-1705.089 -1914.874)"/>
        <path id="Path_51340" data-name="Path 51340" d="M1711.107,1958.752a.136.136,0,0,1-.083-.244l2.106-1.626a.136.136,0,1,1,.166.215l-2.106,1.626A.136.136,0,0,1,1711.107,1958.752Z" transform="translate(-1701.462 -1909.274)"/>
      </g>
    </g>
    <g id="Group_16320" data-name="Group 16320" transform="translate(326.253 375.785)">
      <g id="Group_16313" data-name="Group 16313" transform="translate(5.468 28.332)">
        <g id="Group_16307" data-name="Group 16307" transform="translate(0 33.32)">
          <g id="Group_16303" data-name="Group 16303" transform="translate(0.68)">
            <path id="Path_51341" data-name="Path 51341" d="M430.46,2027l-.564,5,2.128.886.784-5.455Z" transform="translate(-429.76 -2026.864)" fill="#fff"/>
            <path id="Path_51342" data-name="Path 51342" d="M429.917,2030.92a.139.139,0,0,1-.052-.01l-2.128-.886a.136.136,0,0,1-.083-.141l.564-5a.136.136,0,0,1,.16-.119l2.348.435a.136.136,0,0,1,.11.153l-.784,5.455a.136.136,0,0,1-.135.117Zm-1.982-1.108,1.872.779.74-5.152-2.076-.385Z" transform="translate(-427.653 -2024.758)"/>
          </g>
          <g id="Group_16306" data-name="Group 16306" transform="translate(0 4.114)">
            <g id="Group_16304" data-name="Group 16304">
              <path id="Path_51343" data-name="Path 51343" d="M418.869,2095.282a18.011,18.011,0,0,0-.184,2.143.978.978,0,0,0,.858.977,38.508,38.508,0,0,0,7.226.129.692.692,0,0,0,.6-.609c.3-1.541-2.377-1.918-5.316-3.036a.317.317,0,0,0-.334.068l-.317.307a1.1,1.1,0,0,1-1.193.221l-.964-.411A.271.271,0,0,0,418.869,2095.282Z" transform="translate(-418.549 -2094.729)" fill="#fff"/>
              <path id="Path_51344" data-name="Path 51344" d="M421.865,2096.679a38.3,38.3,0,0,1-4.446-.246,1.113,1.113,0,0,1-.976-1.113,18.21,18.21,0,0,1,.186-2.161.407.407,0,0,1,.563-.317l.964.411a.958.958,0,0,0,1.046-.194l.317-.307a.456.456,0,0,1,.477-.1c.686.261,1.344.477,1.982.686,2.053.674,3.675,1.206,3.419,2.5a.832.832,0,0,1-.72.719C423.762,2096.646,422.8,2096.679,421.865,2096.679Zm-4.834-3.6a.136.136,0,0,0-.066.018.134.134,0,0,0-.068.1h0a17.918,17.918,0,0,0-.183,2.126.842.842,0,0,0,.739.84,38.054,38.054,0,0,0,7.2.129.554.554,0,0,0,.478-.5c.209-1.062-1.236-1.536-3.237-2.193-.64-.21-1.3-.427-1.994-.69a.184.184,0,0,0-.191.039l-.317.307a1.23,1.23,0,0,1-1.341.248l-.964-.411A.135.135,0,0,0,417.031,2093.081Zm-.268.1h0Z" transform="translate(-416.443 -2092.626)"/>
            </g>
            <g id="Group_16305" data-name="Group 16305" transform="translate(0 2.441)">
              <path id="Path_51345" data-name="Path 51345" d="M418.687,2135.145s0,.08,0,.119a.978.978,0,0,0,.858.976,38.484,38.484,0,0,0,7.226.13.693.693,0,0,0,.6-.61,2.017,2.017,0,0,0,.011-.394l-.19.01a55.725,55.725,0,0,1-8.135-.195Z" transform="translate(-418.549 -2135.009)" fill="#fff"/>
              <path id="Path_51346" data-name="Path 51346" d="M421.865,2134.511a38.3,38.3,0,0,1-4.446-.246,1.113,1.113,0,0,1-.976-1.113l0-.12a.135.135,0,0,1,.046-.1.133.133,0,0,1,.1-.034l.366.036a55.689,55.689,0,0,0,8.115.194l.191-.01a.137.137,0,0,1,.142.127,2.066,2.066,0,0,1-.013.43.831.831,0,0,1-.72.718C423.762,2134.478,422.8,2134.511,421.865,2134.511Zm-5.15-1.326a.842.842,0,0,0,.739.811,38.034,38.034,0,0,0,7.2.129.555.555,0,0,0,.478-.5,1.262,1.262,0,0,0,.013-.225l-.053,0a55.825,55.825,0,0,1-8.155-.2Z" transform="translate(-416.443 -2132.899)"/>
            </g>
            <path id="Path_51347" data-name="Path 51347" d="M483.238,2104.7a.136.136,0,0,1-.1-.232l1.031-1.032a.136.136,0,0,1,.192.192l-1.031,1.031A.135.135,0,0,1,483.238,2104.7Z" transform="translate(-479.061 -2102.745)"/>
            <path id="Path_51348" data-name="Path 51348" d="M499.947,2109.189a.135.135,0,0,1-.094-.038.136.136,0,0,1,0-.192l.824-.856a.136.136,0,1,1,.2.188l-.824.856A.136.136,0,0,1,499.947,2109.189Z" transform="translate(-494.757 -2107.125)"/>
          </g>
        </g>
        <path id="Path_51349" data-name="Path 51349" d="M432.9,1477.681s-1.3.752-1.8,5.161-.337,9.606-3.858,14.76c-2.812,4.116-2.565,11.063-2.974,15.616a.384.384,0,0,0,.37.418l2.7.093a.384.384,0,0,0,.379-.266c.482-1.492,2.878-8.69,5.57-12.864,2.844-4.411,6.3-15.86,6.3-15.86a35.553,35.553,0,0,1-.731-5.668C438.769,1476.3,432.9,1477.681,432.9,1477.681Z" transform="translate(-423.796 -1477.202)" fill="#160e4d"/>
        <g id="Group_16312" data-name="Group 16312" transform="translate(21.889 20.799)">
          <g id="Group_16308" data-name="Group 16308" transform="translate(0.744)">
            <path id="Path_51350" data-name="Path 51350" d="M793.171,1820.47l-1.137,4.906,2.012,1.125,1.407-5.328Z" transform="translate(-791.898 -1820.334)" fill="#fff"/>
            <path id="Path_51351" data-name="Path 51351" d="M791.939,1824.53a.134.134,0,0,1-.066-.017l-2.012-1.125a.136.136,0,0,1-.066-.149l1.137-4.906a.136.136,0,0,1,.172-.1l2.282.7a.136.136,0,0,1,.091.165l-1.407,5.328a.137.137,0,0,1-.131.1Zm-1.856-1.33,1.77.99,1.329-5.032-2.018-.621Z" transform="translate(-789.791 -1818.227)"/>
          </g>
          <g id="Group_16311" data-name="Group 16311" transform="translate(0 4.199)">
            <g id="Group_16309" data-name="Group 16309">
              <path id="Path_51352" data-name="Path 51352" d="M780.263,1890.145a12.752,12.752,0,0,0-.5,2.162.978.978,0,0,0,.858.976,42.428,42.428,0,0,0,7.544.111.693.693,0,0,0,.6-.609c.3-1.541-2.377-1.918-5.316-3.036a.317.317,0,0,0-.334.068l-.317.307a1.1,1.1,0,0,1-1.193.221l-.964-.411A.271.271,0,0,0,780.263,1890.145Z" transform="translate(-779.625 -1889.592)" fill="#fff"/>
              <path id="Path_51353" data-name="Path 51353" d="M783.045,1891.546a40.609,40.609,0,0,1-4.551-.23,1.113,1.113,0,0,1-.976-1.113,5.536,5.536,0,0,1,.326-1.528,4.7,4.7,0,0,0,.178-.652.407.407,0,0,1,.563-.318l.964.411a.958.958,0,0,0,1.045-.193l.317-.307a.455.455,0,0,1,.477-.1c.686.26,1.344.477,1.982.686,2.053.673,3.675,1.206,3.419,2.5a.832.832,0,0,1-.72.719C785.135,1891.511,784.081,1891.546,783.045,1891.546Zm-4.621-3.6a.135.135,0,0,0-.133.116,4.816,4.816,0,0,1-.188.7,5.34,5.34,0,0,0-.313,1.449.842.842,0,0,0,.739.84,42.579,42.579,0,0,0,7.514.11.555.555,0,0,0,.478-.5c.209-1.062-1.236-1.536-3.237-2.193-.64-.21-1.3-.427-1.994-.69a.182.182,0,0,0-.191.039l-.317.307a1.23,1.23,0,0,1-1.341.249l-.964-.411A.14.14,0,0,0,778.423,1887.945Zm-.268.1h0Z" transform="translate(-777.517 -1887.489)"/>
            </g>
            <g id="Group_16310" data-name="Group 16310" transform="translate(0.074 2.428)">
              <path id="Path_51354" data-name="Path 51354" d="M780.975,1929.782s0,.08,0,.118a.978.978,0,0,0,.858.977,41.054,41.054,0,0,0,7.47.143.693.693,0,0,0,.6-.609,2.019,2.019,0,0,0,.011-.394l-.19.009a55.623,55.623,0,0,1-8.135-.195Z" transform="translate(-780.837 -1929.646)" fill="#fff"/>
              <path id="Path_51355" data-name="Path 51355" d="M784.442,1929.159a42.369,42.369,0,0,1-4.736-.256,1.113,1.113,0,0,1-.976-1.113l0-.12a.137.137,0,0,1,.045-.1.133.133,0,0,1,.1-.035l.611.05a55.664,55.664,0,0,0,8.117.194l.19-.009a.136.136,0,0,1,.142.127,2.07,2.07,0,0,1-.013.43.832.832,0,0,1-.72.719C786.317,1929.128,785.366,1929.159,784.442,1929.159Zm-5.44-1.338a.842.842,0,0,0,.739.813,40.923,40.923,0,0,0,7.441.143.555.555,0,0,0,.478-.5,1.263,1.263,0,0,0,.013-.225l-.053,0a55.9,55.9,0,0,1-8.155-.2Z" transform="translate(-778.73 -1927.537)"/>
            </g>
            <path id="Path_51356" data-name="Path 51356" d="M849.561,1899.565a.136.136,0,0,1-.1-.232l1.031-1.031a.136.136,0,0,1,.192.192l-1.031,1.032A.135.135,0,0,1,849.561,1899.565Z" transform="translate(-845.066 -1897.609)"/>
            <path id="Path_51357" data-name="Path 51357" d="M866.27,1904.052a.136.136,0,0,1-.1-.23l.824-.856a.136.136,0,0,1,.2.189l-.824.856A.136.136,0,0,1,866.27,1904.052Z" transform="translate(-860.762 -1901.989)"/>
          </g>
        </g>
        <path id="Path_51358" data-name="Path 51358" d="M641.338,1482.984a18.669,18.669,0,0,0,13.116-1.739.221.221,0,0,1,.291.313,16.911,16.911,0,0,0-1.821,3.238c-.625,1.7-1.944,10.471-2.379,13.2a.415.415,0,0,0,.4.479l2.6.084a.414.414,0,0,0,.387-.234c.938-1.954,7.613-17.282,7.379-20.146-.253-3.1-4.339-2.939-5.814-3.033-1.525-.1-13.688.186-13.688.186Z" transform="translate(-627.704 -1475.128)" fill="#160e4d"/>
      </g>
      <g id="Group_16317" data-name="Group 16317" transform="translate(0 4.434)">
        <g id="Group_16314" data-name="Group 16314" transform="translate(0 24.527)">
          <path id="Path_51359" data-name="Path 51359" d="M329.711,1490.773c.209-.25.481-.542.714-.773a20.058,20.058,0,0,0,1.306-2.254l1.758.5s-.822,1.437-.624,2.153a3.292,3.292,0,0,1-.647,3.1.586.586,0,0,1-.442.129c-.255-.06-.26-.413-.135-.643l.352-.649a.079.079,0,0,0-.08-.116,2.357,2.357,0,0,0-1.451.955c-.467.576-1.393,1.862-1.7,1.649C328.2,1494.441,328.565,1492.139,329.711,1490.773Z" transform="translate(-328.365 -1487.61)" fill="#fff"/>
          <path id="Path_51360" data-name="Path 51360" d="M326.722,1492.875a.267.267,0,0,1-.154-.048.837.837,0,0,1-.295-.607,5.442,5.442,0,0,1,1.221-3.641c.21-.25.48-.543.722-.782a18.667,18.667,0,0,0,1.281-2.219.136.136,0,0,1,.158-.069l1.758.5a.136.136,0,0,1,.081.2,3.9,3.9,0,0,0-.611,2.05,3.486,3.486,0,0,1-.68,3.23.714.714,0,0,1-.572.167.393.393,0,0,1-.273-.228.731.731,0,0,1,.05-.613l.295-.543a2.376,2.376,0,0,0-1.248.884c-.069.086-.149.187-.235.3C327.572,1492.272,327.069,1492.875,326.722,1492.875Zm2.966-7.074a17.038,17.038,0,0,1-1.281,2.19c-.233.23-.5.523-.705.763h0a5.22,5.22,0,0,0-1.16,3.43.616.616,0,0,0,.179.419c.2.057.987-.945,1.284-1.322.087-.111.168-.214.238-.3a2.481,2.481,0,0,1,1.537-1,.215.215,0,0,1,.219.315l-.352.649a.471.471,0,0,0-.04.372.121.121,0,0,0,.087.074.465.465,0,0,0,.313-.09,3.211,3.211,0,0,0,.615-2.97,3.772,3.772,0,0,1,.555-2.105Zm-2.09,2.866h0Z" transform="translate(-326.253 -1485.504)"/>
        </g>
        <g id="Group_16315" data-name="Group 16315" transform="translate(2.409 3.233)">
          <path id="Path_51361" data-name="Path 51361" d="M409.187,1138.715l-1.136-1.915a.824.824,0,0,0-1.068-.192,16.718,16.718,0,0,1-14.3,2.582,29.351,29.351,0,0,0-6-.844c-3.024-.184-7.374,1.564-10.3,4.491-2.329,2.329-6.3,9.881-8.1,15.128a.47.47,0,0,0,.229.57l1.807.938a.469.469,0,0,0,.632-.2c.92-1.733,4.9-8.918,9.073-11.29.306-.174.768.01.75.362-.056,1.1-.741,5.2-.95,8.991a1,1,0,0,0,.811,1.036l1.824.338a13.772,13.772,0,0,0,7.479-.553,1.1,1.1,0,0,0,.658-.954,31.979,31.979,0,0,1,4.088-10.045,1.829,1.829,0,0,1,1.384-.826,17.441,17.441,0,0,0,13.1-7.032A.54.54,0,0,0,409.187,1138.715Z" transform="translate(-368.115 -1136.354)" fill="#fff"/>
          <path id="Path_51362" data-name="Path 51362" d="M368.411,1157.552a.6.6,0,0,1-.278-.068l-1.807-.937a.6.6,0,0,1-.295-.735c1.858-5.414,5.887-12.933,8.133-15.18,2.821-2.821,7.2-4.727,10.4-4.531a29.577,29.577,0,0,1,6.025.847l.15.037a16.224,16.224,0,0,0,14.04-2.6.9.9,0,0,1,.707-.124.824.824,0,0,1,.56.355l1.136,1.915a.676.676,0,0,1-.034.738,17.466,17.466,0,0,1-13.2,7.088,1.7,1.7,0,0,0-1.28.767,31.923,31.923,0,0,0-4.066,9.987,1.224,1.224,0,0,1-.747,1.063,13.8,13.8,0,0,1-7.555.558l-1.818-.337a1.135,1.135,0,0,1-.922-1.177c.135-2.441.461-4.972.7-6.819.129-1,.23-1.782.25-2.172a.25.25,0,0,0-.13-.225.426.426,0,0,0-.417-.012c-4.063,2.312-7.931,9.184-9.02,11.235A.607.607,0,0,1,368.411,1157.552Zm15.693-21.193c-3.088,0-7.106,1.824-9.747,4.465-2.224,2.224-6.221,9.691-8.068,15.076a.333.333,0,0,0,.163.405l1.807.938a.335.335,0,0,0,.449-.139c1.1-2.068,5-9,9.126-11.344a.7.7,0,0,1,.694.017.513.513,0,0,1,.259.47c-.02.4-.122,1.191-.252,2.193-.238,1.843-.564,4.368-.7,6.8a.862.862,0,0,0,.7.895l1.824.338a13.528,13.528,0,0,0,7.408-.548.979.979,0,0,0,.569-.846,31.917,31.917,0,0,1,4.111-10.1,1.967,1.967,0,0,1,1.488-.884,17.2,17.2,0,0,0,13-6.975.4.4,0,0,0,.021-.441l-1.136-1.915a.565.565,0,0,0-.379-.227.642.642,0,0,0-.491.075,16.7,16.7,0,0,1-14.268,2.641l-.148-.036a29.337,29.337,0,0,0-5.979-.841C384.406,1136.364,384.257,1136.359,384.1,1136.359Z" transform="translate(-365.999 -1134.244)"/>
        </g>
        <g id="Group_16316" data-name="Group 16316" transform="translate(41.777)">
          <path id="Path_51363" data-name="Path 51363" d="M1017.631,1087.21a.408.408,0,0,1,.136-.38c.146-.124.391-.334.747-.646.628-.549,1.414-1.646,2.1-1.975s3.168-1.3,3.565-1.093.2.672-.364.943-1.3.549-1.3.549a.855.855,0,0,1,.713.45c.3.474-.117.665.06.9a.6.6,0,0,1-.02.8c-.41.349-.907-.341-1.277.373-.258.5-.866.819-2.1,1.055a2.734,2.734,0,0,0-.932.369.382.382,0,0,1-.39.011A1.885,1.885,0,0,1,1017.631,1087.21Z" transform="translate(-1017.489 -1082.955)" fill="#fff"/>
          <path id="Path_51364" data-name="Path 51364" d="M1016.65,1086.714a.51.51,0,0,1-.251-.066,2.019,2.019,0,0,1-1.007-1.455.547.547,0,0,1,.182-.507c.145-.124.39-.334.745-.645a10.1,10.1,0,0,0,.723-.741,5.625,5.625,0,0,1,1.406-1.254c.293-.141,3.163-1.363,3.687-1.091a.469.469,0,0,1,.282.429.987.987,0,0,1-.649.757c-.309.149-.671.3-.936.407a1.151,1.151,0,0,1,.407.4.721.721,0,0,1,.071.717c-.041.114-.043.138-.016.174a.732.732,0,0,1-.04.989.715.715,0,0,1-.67.1c-.255-.053-.409-.085-.575.233-.285.55-.942.886-2.195,1.126a2.578,2.578,0,0,0-.886.351A.524.524,0,0,1,1016.65,1086.714Zm-.99-1.566a1.753,1.753,0,0,0,.873,1.263.246.246,0,0,0,.251-.008,2.854,2.854,0,0,1,.979-.387c1.162-.222,1.762-.516,2-.984a.671.671,0,0,1,.871-.374c.195.041.32.061.438-.04a.459.459,0,0,0,0-.618.411.411,0,0,1-.023-.429.458.458,0,0,0-.044-.479.725.725,0,0,0-.593-.388.138.138,0,0,1-.139-.109.135.135,0,0,1,.084-.154c.007,0,.735-.279,1.287-.545.339-.163.493-.377.495-.516,0-.028,0-.113-.135-.183a11.555,11.555,0,0,0-3.444,1.1,5.49,5.49,0,0,0-1.323,1.192,10.233,10.233,0,0,1-.744.762c-.357.312-.6.524-.749.648A.271.271,0,0,0,1015.66,1085.149Z" transform="translate(-1015.384 -1080.917)"/>
        </g>
      </g>
      <g id="Group_16319" data-name="Group 16319" transform="translate(19.745)">
        <g id="Group_16318" data-name="Group 16318" transform="translate(0 4.333)">
          <path id="Path_51365" data-name="Path 51365" d="M659.647,1081.488l-3.4,5.629a6.618,6.618,0,0,1-1.107.1c-.262.026-.537.066-.764.1a.208.208,0,0,0-.082.379l.608.4a6.983,6.983,0,0,0,4.313,1.177,5.254,5.254,0,0,0,1.191-.209l1.3-.409a.208.208,0,0,0,0-.4l-1.656-.5,1.4-2.968Z" transform="translate(-654.068 -1081.352)" fill="#fff"/>
          <path id="Path_51366" data-name="Path 51366" d="M656.675,1087.326a7.2,7.2,0,0,1-3.952-1.214l-.608-.4a.344.344,0,0,1,.135-.626c.287-.046.546-.082.772-.1s.455-.035.634-.044c.153-.008.324-.016.392-.03l3.374-5.594a.136.136,0,0,1,.236.005l1.8,3.308a.136.136,0,0,1,0,.123l-1.331,2.826,1.505.456a.344.344,0,0,1,0,.657l-1.3.409a5.334,5.334,0,0,1-1.223.215Q656.9,1087.326,656.675,1087.326Zm.859-7.672-3.273,5.426c-.072.1-.2.107-.589.126-.176.009-.4.02-.621.043s-.475.057-.756.1a.072.072,0,0,0-.028.131l.608.4a6.877,6.877,0,0,0,4.229,1.155,5.078,5.078,0,0,0,1.16-.2l1.3-.409a.072.072,0,0,0,0-.138l-1.656-.5a.136.136,0,0,1-.083-.188l1.369-2.906Z" transform="translate(-651.961 -1079.245)"/>
        </g>
        <path id="Path_51367" data-name="Path 51367" d="M715.742,1037.84a3.048,3.048,0,0,0,.55.02l.335-.017s1.923-.255,2.231-.732-.344-2.208-.344-2.208c.3-.231.364-.523.3-.621s-.492-.248-.666-.376a6.024,6.024,0,0,1-.6-1.289s-.252-1.405-2.505-1.223c-5.164.418-1.451,5.2-1.451,5.2q.12.14.247.266Z" transform="translate(-708.648 -1029.947)" fill="#fff"/>
        <path id="Path_51368" data-name="Path 51368" d="M714.439,1035.9a3.106,3.106,0,0,1-.839-.114.136.136,0,1,1,.073-.262,2.878,2.878,0,0,0,.921.1l.335-.018a4.6,4.6,0,0,0,2.124-.67c.2-.306-.114-1.442-.357-2.086a.136.136,0,0,1,.044-.155.567.567,0,0,0,.267-.444,2.314,2.314,0,0,0-.276-.144,2.427,2.427,0,0,1-.354-.192,4.206,4.206,0,0,1-.642-1.349.136.136,0,0,1-.007-.025c-.01-.052-.267-1.28-2.361-1.111-1.274.1-2.086.469-2.414,1.088-.556,1.047.329,2.612.857,3.547l.047.083a.136.136,0,0,1-.237.134l-.047-.083c-.556-.983-1.486-2.629-.86-3.808.375-.706,1.26-1.121,2.633-1.232,2.219-.18,2.608,1.156,2.647,1.318a5.153,5.153,0,0,0,.547,1.22,2.359,2.359,0,0,0,.309.165.984.984,0,0,1,.389.246c.1.161.023.482-.254.738.142.395.6,1.77.3,2.24-.333.515-2.124.766-2.328.793l-.346.019C714.552,1035.9,714.5,1035.9,714.439,1035.9Z" transform="translate(-706.956 -1027.844)"/>
        <path id="Path_51369" data-name="Path 51369" d="M700.51,1008.605c.563-.111,1.2-.024,1.479-.117.442-.151.432-.66,1.056-.71a1.364,1.364,0,0,1,1.335.478,1.13,1.13,0,0,1,.119.237,1.534,1.534,0,0,1-.429,1.946s-1.672.8-1.961,1.034a1.435,1.435,0,0,0-.414,1.474.225.225,0,0,1-.4.177c-.207-.3-.662-.879-1-.745a.8.8,0,0,0,.2,1.389.334.334,0,0,1,.136.538.613.613,0,0,1-.643.165,5.187,5.187,0,0,1-2.012-2.973C697.754,1009.807,699.761,1008.753,700.51,1008.605Z" transform="translate(-695.163 -1007.769)" fill="#160e4d"/>
      </g>
    </g>
    <g id="Group_16328" data-name="Group 16328" transform="translate(393.937 342.09)">
      <g id="Group_16321" data-name="Group 16321" transform="translate(19.759 32.92)">
        <rect id="Rectangle_4012" data-name="Rectangle 4012" width="4.725" height="12.599" transform="translate(0.136 0.136)" fill="#fff"/>
        <path id="Path_51370" data-name="Path 51370" d="M1773.535,1007.861h-4.725a.136.136,0,0,1-.136-.136v-12.6a.136.136,0,0,1,.136-.136h4.725a.136.136,0,0,1,.136.136v12.6A.136.136,0,0,1,1773.535,1007.861Zm-4.589-.272h4.453V995.262h-4.453Z" transform="translate(-1768.674 -994.99)"/>
      </g>
      <g id="Group_16322" data-name="Group 16322" transform="translate(17.802 42.179)">
        <rect id="Rectangle_4013" data-name="Rectangle 4013" width="8.591" height="3.532" rx="1.766" transform="translate(0.136 0.136)" fill="#fff"/>
        <path id="Path_51371" data-name="Path 51371" d="M1744.208,1151.522h-6.769a1.048,1.048,0,0,1-1.047-1.047v-1.71a1.048,1.048,0,0,1,1.047-1.047h6.769a1.048,1.048,0,0,1,1.047,1.047v1.71A1.048,1.048,0,0,1,1744.208,1151.522Zm-6.769-3.532a.776.776,0,0,0-.775.775v1.71a.776.776,0,0,0,.775.775h6.769a.776.776,0,0,0,.775-.775v-1.71a.776.776,0,0,0-.775-.775Z" transform="translate(-1736.392 -1147.718)"/>
      </g>
      <g id="Group_16323" data-name="Group 16323" transform="translate(13.125 45.138)">
        <path id="Rectangle_4014" data-name="Rectangle 4014" d="M2.768,0H15.177a2.768,2.768,0,0,1,2.768,2.768v0a0,0,0,0,1,0,0H0a0,0,0,0,1,0,0v0A2.768,2.768,0,0,1,2.768,0Z" transform="translate(0.136 0.136)" fill="#fff"/>
        <path id="Path_51372" data-name="Path 51372" d="M1677.316,1199.567h-17.945a.136.136,0,0,1-.136-.136v-1.274a1.632,1.632,0,0,1,1.63-1.63h14.956a1.632,1.632,0,0,1,1.63,1.63v1.274A.136.136,0,0,1,1677.316,1199.567Zm-17.809-.272h17.673v-1.138a1.36,1.36,0,0,0-1.359-1.358h-14.956a1.36,1.36,0,0,0-1.358,1.358Z" transform="translate(-1659.235 -1196.527)"/>
      </g>
      <g id="Group_16324" data-name="Group 16324" transform="translate(0 6.409)">
        <path id="Path_51373" data-name="Path 51373" d="M1463.438,585.818a49.36,49.36,0,0,1-13.6-11.526c-2.262-2.788-5.871-8.006-4.62-11.622a4.046,4.046,0,0,1,3.607-2.674,16.742,16.742,0,0,1,6.788.951l-.614,2.485a14.835,14.835,0,0,0-5.891-.878c-.954.131-1.536.482-1.73,1.043-.461,1.333.652,4.622,4.177,8.968a46.909,46.909,0,0,0,12.922,10.953Z" transform="translate(-1444.829 -559.787)" fill="#fff"/>
        <path id="Path_51374" data-name="Path 51374" d="M1461.348,583.85a.136.136,0,0,1-.067-.017,49.5,49.5,0,0,1-13.637-11.559c-2.28-2.81-5.915-8.074-4.642-11.752a4.173,4.173,0,0,1,3.717-2.765,16.866,16.866,0,0,1,6.846.956.136.136,0,0,1,.092.163l-.614,2.485a.136.136,0,0,1-.172.1,14.712,14.712,0,0,0-5.833-.873c-.9.123-1.444.444-1.62.953-.449,1.3.662,4.532,4.154,8.837a46.765,46.765,0,0,0,12.884,10.92.136.136,0,0,1,.057.175l-1.042,2.3a.135.135,0,0,1-.081.073A.138.138,0,0,1,1461.348,583.85Zm-13.465-25.9a8.31,8.31,0,0,0-1.127.072,3.917,3.917,0,0,0-3.5,2.584c-1.23,3.554,2.352,8.725,4.6,11.492a49.268,49.268,0,0,0,13.43,11.42l.93-2.052a47.09,47.09,0,0,1-12.853-10.924c-3.559-4.386-4.674-7.73-4.2-9.1.212-.614.832-1,1.84-1.133a14.7,14.7,0,0,1,5.812.841l.549-2.22A19.6,19.6,0,0,0,1447.883,557.954Z" transform="translate(-1442.739 -557.682)"/>
      </g>
      <g id="Group_16325" data-name="Group 16325" transform="translate(24.845 6.266)">
        <path id="Path_51375" data-name="Path 51375" d="M1855.832,583.456a48.774,48.774,0,0,0,13.377-11.526c2.226-2.788,5.776-8.006,4.545-11.622a3.994,3.994,0,0,0-3.549-2.674,16.219,16.219,0,0,0-6.678.951l.6,2.485a14.373,14.373,0,0,1,5.8-.878c.938.131,1.511.482,1.7,1.043.454,1.333-.641,4.622-4.11,8.968a46.347,46.347,0,0,1-12.713,10.953Z" transform="translate(-1854.671 -557.424)" fill="#fff"/>
        <path id="Path_51376" data-name="Path 51376" d="M1853.725,581.487a.139.139,0,0,1-.042-.007.137.137,0,0,1-.082-.074l-1.025-2.3a.136.136,0,0,1,.057-.173,46.207,46.207,0,0,0,12.674-10.919c3.436-4.305,4.529-7.542,4.087-8.839-.173-.509-.709-.829-1.593-.953a14.248,14.248,0,0,0-5.736.873.136.136,0,0,1-.172-.1l-.6-2.485a.136.136,0,0,1,.092-.162,16.35,16.35,0,0,1,6.737-.956,4.122,4.122,0,0,1,3.659,2.765c1.252,3.677-2.324,8.94-4.567,11.751a48.914,48.914,0,0,1-13.416,11.559A.136.136,0,0,1,1853.725,581.487Zm-.851-2.38.914,2.051A48.689,48.689,0,0,0,1867,569.74c2.208-2.767,5.732-7.939,4.522-11.493a3.866,3.866,0,0,0-3.439-2.584,15.911,15.911,0,0,0-6.5.909l.54,2.22a14.248,14.248,0,0,1,5.716-.84c.993.138,1.6.52,1.812,1.134.466,1.367-.631,4.71-4.132,9.1A46.537,46.537,0,0,1,1852.874,579.106Z" transform="translate(-1852.563 -555.319)"/>
      </g>
      <g id="Group_16326" data-name="Group 16326" transform="translate(6.574 2.375)">
        <path id="Path_51377" data-name="Path 51377" d="M1568.985,525.557c12.613.14,12.75-17.778,15.463-32.052l-31.021-.115C1555.933,508.076,1556.391,525.8,1568.985,525.557Z" transform="translate(-1553.29 -493.254)" fill="#fff"/>
        <path id="Path_51378" data-name="Path 51378" d="M1566.63,523.581c-4.765,0-8.2-2.617-10.487-7.993-2.063-4.843-3.026-11.429-3.957-17.8-.314-2.148-.639-4.37-1-6.49a.137.137,0,0,1,.03-.111.123.123,0,0,1,.1-.048l31.021.115a.136.136,0,0,1,.133.161c-.462,2.432-.856,5.014-1.238,7.51-.927,6.074-1.886,12.354-3.906,16.976-2.257,5.164-5.63,7.677-10.308,7.677h-.145Zm-15.15-32.168c.352,2.076.668,4.241.975,6.337.929,6.352,1.889,12.921,3.938,17.731,2.272,5.334,5.526,7.828,10.226,7.828l.256,0h.154c4.616,0,7.813-2.391,10.052-7.514,2.006-4.589,2.962-10.852,3.886-16.908.373-2.444.758-4.969,1.209-7.359Z" transform="translate(-1551.183 -491.139)"/>
      </g>
      <path id="Path_51379" data-name="Path 51379" d="M2000.212,575.72l-.028,0a.136.136,0,0,1-.106-.161c.576-2.8.966-5.858,1.343-8.815.139-1.094.283-2.225.435-3.327a.136.136,0,0,1,.27.037c-.152,1.1-.3,2.232-.435,3.325-.377,2.961-.768,6.023-1.346,8.835A.136.136,0,0,1,2000.212,575.72Z" transform="translate(-1966.289 -556.547)"/>
      <path id="Path_51380" data-name="Path 51380" d="M1812.424,845.308a.136.136,0,0,1-.012-.271c4.609-.4,7.7-3.664,9.712-10.273a.136.136,0,0,1,.26.079c-1.292,4.234-3.729,9.926-9.949,10.465Z" transform="translate(-1789.885 -811.467)"/>
      <g id="Group_16327" data-name="Group 16327" transform="translate(5.054 0)">
        <rect id="Rectangle_4015" data-name="Rectangle 4015" width="34.36" height="4.08" rx="2.04" transform="translate(0.136 0.136)" fill="#fff"/>
        <path id="Path_51381" data-name="Path 51381" d="M1559.508,456.308H1527.35a1.239,1.239,0,0,1-1.237-1.237v-1.877a1.239,1.239,0,0,1,1.237-1.237h32.157a1.239,1.239,0,0,1,1.237,1.237v1.877A1.239,1.239,0,0,1,1559.508,456.308Zm-32.157-4.08a.967.967,0,0,0-.965.966v1.877a.967.967,0,0,0,.965.965h32.157a.967.967,0,0,0,.966-.965v-1.877a.967.967,0,0,0-.966-.966Z" transform="translate(-1526.113 -451.956)"/>
      </g>
      <path id="Path_51382" data-name="Path 51382" d="M1918.51,478.881a.136.136,0,0,1,0-.272l6.434-.072h0a.136.136,0,0,1,0,.272l-6.434.072Z" transform="translate(-1889.54 -476.926)"/>
      <path id="Path_51383" data-name="Path 51383" d="M1831.584,480.346a.136.136,0,0,1,0-.272l3.584-.04h0a.136.136,0,0,1,0,.272l-3.584.04Z" transform="translate(-1807.884 -478.332)"/>
    </g>
    <g id="Group_16336" data-name="Group 16336" transform="translate(418.374 408.805)">
      <g id="Group_16330" data-name="Group 16330" transform="translate(4.746)">
        <g id="Group_16329" data-name="Group 16329">
          <path id="Path_51384" data-name="Path 51384" d="M1929.638,1582.76a49.664,49.664,0,0,1-2.377-28.068s8.642,7.242,5.527,28.068Z" transform="translate(-1926.141 -1554.556)" fill="#fff"/>
          <path id="Path_51385" data-name="Path 51385" d="M1930.779,1580.789h-3.149a.135.135,0,0,1-.124-.08,40.563,40.563,0,0,1-2.4-8.122,51.7,51.7,0,0,1,.011-20.029.136.136,0,0,1,.221-.078,16.49,16.49,0,0,1,3.971,6.278c1.622,4.043,3.217,11.126,1.6,21.914A.136.136,0,0,1,1930.779,1580.789Zm-3.06-.272h2.943c1.577-10.663,0-17.66-1.6-21.657a17.61,17.61,0,0,0-3.72-6.01,51.441,51.441,0,0,0,.035,19.676A41.322,41.322,0,0,0,1927.718,1580.518Z" transform="translate(-1924.132 -1552.45)"/>
        </g>
        <path id="Path_51386" data-name="Path 51386" d="M1953.621,1611.88h-.008a.136.136,0,0,1-.128-.143c.427-7.818-3.1-24.5-3.133-24.669a.136.136,0,1,1,.266-.057c.036.168,3.567,16.886,3.138,24.74A.136.136,0,0,1,1953.621,1611.88Z" transform="translate(-1948.76 -1584.815)"/>
      </g>
      <g id="Group_16332" data-name="Group 16332" transform="translate(9.461 8.196)">
        <g id="Group_16331" data-name="Group 16331">
          <path id="Path_51387" data-name="Path 51387" d="M2008.561,1689.889s-7.184,12.98-2.863,18.6h2.312S2012.63,1698.339,2008.561,1689.889Z" transform="translate(-2004.17 -1689.753)" fill="#fff"/>
          <path id="Path_51388" data-name="Path 51388" d="M2005.758,1706.511h-2.312a.136.136,0,0,1-.108-.053c-1.821-2.367-1.892-6.246-.211-11.529a45.133,45.133,0,0,1,3.063-7.217.13.13,0,0,1,.123-.07.136.136,0,0,1,.119.077c2.117,4.4,1.855,9.253,1.262,12.55a28.882,28.882,0,0,1-1.812,6.162A.136.136,0,0,1,2005.758,1706.511Zm-2.244-.272h2.156c.412-.958,4.244-10.3.632-18.158C2005.366,1689.859,1999.694,1701.144,2003.513,1706.239Z" transform="translate(-2001.917 -1687.641)"/>
        </g>
        <path id="Path_51389" data-name="Path 51389" d="M2042.6,1762.416a.136.136,0,0,1-.136-.131c-.143-3.692.748-11.22,1.292-15.379a.136.136,0,1,1,.27.035c-.543,4.15-1.432,11.661-1.289,15.333a.136.136,0,0,1-.131.141Z" transform="translate(-2039.99 -1743.202)"/>
      </g>
      <g id="Group_16334" data-name="Group 16334" transform="translate(0 13.035)">
        <g id="Group_16333" data-name="Group 16333">
          <path id="Path_51390" data-name="Path 51390" d="M1848.094,1769.71s6.12,2.088,8.336,14.451h-2.407S1849,1777.371,1848.094,1769.71Z" transform="translate(-1847.958 -1769.574)" fill="#fff"/>
          <path id="Path_51391" data-name="Path 51391" d="M1854.323,1782.189h-2.407a.136.136,0,0,1-.109-.055c-.05-.068-5.056-6.906-5.955-14.516a.136.136,0,0,1,.179-.145,8.944,8.944,0,0,1,3.4,2.629c1.66,1.9,3.88,5.51,5.031,11.927a.136.136,0,0,1-.134.16Zm-2.338-.272h2.175c-1.145-6.241-3.3-9.76-4.923-11.617a9.7,9.7,0,0,0-3.087-2.481C1847.068,1774.9,1851.515,1781.262,1851.985,1781.917Z" transform="translate(-1845.851 -1767.467)"/>
        </g>
        <path id="Path_51392" data-name="Path 51392" d="M1885.545,1827.232a.136.136,0,0,1-.134-.114c-.912-5.51-4.858-11.06-4.9-11.116a.136.136,0,1,1,.221-.159c.04.056,4.022,5.656,4.945,11.23a.136.136,0,0,1-.112.156Z" transform="translate(-1878.388 -1812.858)"/>
      </g>
      <g id="Group_16335" data-name="Group 16335" transform="translate(2.355 26.504)">
        <path id="Path_51393" data-name="Path 51393" d="M1886.947,1991.893h15.1l.339,7.142a3.071,3.071,0,0,1-3.067,3.216h-8.624a3.753,3.753,0,0,1-3.753-3.757Z" transform="translate(-1886.805 -1991.757)" fill="#fff"/>
        <path id="Path_51394" data-name="Path 51394" d="M1897.211,2000.28h-8.623a3.889,3.889,0,0,1-3.889-3.893l.006-6.6a.136.136,0,0,1,.136-.136h15.1a.136.136,0,0,1,.136.129l.339,7.142a3.206,3.206,0,0,1-3.2,3.358Zm-12.235-10.358-.006,6.466a3.617,3.617,0,0,0,3.617,3.62h8.623a2.934,2.934,0,0,0,2.932-3.073l-.333-7.013Z" transform="translate(-1884.698 -1989.65)"/>
      </g>
    </g>
    <g id="Group_16339" data-name="Group 16339" transform="translate(341.621 335)">
      <g id="Group_16337" data-name="Group 16337" transform="translate(0 0)">
        <path id="Path_51395" data-name="Path 51395" d="M579.9,445.952a.136.136,0,0,1-.1-.229c8.273-8.877,16.307-12.605,21.59-14.17a26.846,26.846,0,0,1,9.6-1.282.136.136,0,0,1-.031.27,26.6,26.6,0,0,0-9.509,1.277c-5.246,1.557-13.226,5.265-21.452,14.09A.135.135,0,0,1,579.9,445.952Z" transform="translate(-579.767 -424.452)"/>
        <path id="Path_51396" data-name="Path 51396" d="M612.609,397.087a.136.136,0,0,1-.09-.238c9.051-8.042,17.28-11.011,22.589-12.085a25.843,25.843,0,0,1,9.474-.405.136.136,0,1,1-.056.266,25.6,25.6,0,0,0-9.38.409c-5.273,1.069-13.447,4.022-22.446,12.018A.136.136,0,0,1,612.609,397.087Z" transform="translate(-610.49 -381.136)"/>
        <path id="Path_51397" data-name="Path 51397" d="M1073.344,336.637h-.046c-.383-.022-.6-.313-.816-.595a1.184,1.184,0,0,0-.708-.567c-.381-.061-.688.214-1.014.5a1.543,1.543,0,0,1-1.234.574,1.422,1.422,0,0,1-.912-.722c-.208-.294-.388-.548-.7-.559a1.1,1.1,0,0,0-.7.345,1.139,1.139,0,0,1-.964.371,1.013,1.013,0,0,1-.463-.249.584.584,0,0,0-.363-.178,1.063,1.063,0,0,0-.8.492.136.136,0,1,1-.209-.173,1.3,1.3,0,0,1,1.024-.59.839.839,0,0,1,.522.239.756.756,0,0,0,.345.193c.281.058.493-.115.737-.315a1.332,1.332,0,0,1,.882-.406c.449.015.686.35.915.673.2.288.4.561.73.61.38.057.687-.218,1.013-.508a1.529,1.529,0,0,1,1.239-.571,1.425,1.425,0,0,1,.881.672c.192.254.357.472.614.487.362.022.782-.372,1.214-1.137a.136.136,0,0,1,.237.134C1074.28,336.219,1073.815,336.637,1073.344,336.637Z" transform="translate(-1035.002 -335)"/>
      </g>
      <g id="Group_16338" data-name="Group 16338" transform="translate(88.61 39.898)">
        <path id="Path_51398" data-name="Path 51398" d="M2071.924,994.459h-.02a.136.136,0,0,1-.115-.155l.156-1.043a.136.136,0,1,1,.269.04l-.156,1.043A.136.136,0,0,1,2071.924,994.459Z" transform="translate(-2069.948 -993.144)"/>
        <path id="Path_51399" data-name="Path 51399" d="M2065.942,1034.544h-.02a.136.136,0,0,1-.114-.154l.155-1.043a.136.136,0,1,1,.269.04l-.156,1.043A.136.136,0,0,1,2065.942,1034.544Z" transform="translate(-2064.329 -1030.799)"/>
        <path id="Path_51400" data-name="Path 51400" d="M2042.613,1017.943h-.021l-1.043-.156a.136.136,0,0,1,.04-.269l1.043.156a.136.136,0,0,1-.02.27Z" transform="translate(-2041.433 -1016.038)"/>
        <path id="Path_51401" data-name="Path 51401" d="M2082.7,1023.924h-.02l-1.043-.156a.136.136,0,1,1,.04-.269l1.043.156a.136.136,0,0,1-.02.271Z" transform="translate(-2079.09 -1021.656)"/>
      </g>
      <path id="Path_51402" data-name="Path 51402" d="M1302.028,363.96a1.391,1.391,0,0,1-.854-.3,1.425,1.425,0,0,1-.279-1.97,1.352,1.352,0,0,1,.907-.533,1.388,1.388,0,0,1,1.042.283,1.425,1.425,0,0,1,.279,1.97,1.352,1.352,0,0,1-.907.533A1.4,1.4,0,0,1,1302.028,363.96Zm-.916-2.1a1.152,1.152,0,0,0,.228,1.592,1.115,1.115,0,0,0,.838.228,1.082,1.082,0,0,0,.726-.427,1.152,1.152,0,0,0-.228-1.592,1.116,1.116,0,0,0-.839-.228A1.082,1.082,0,0,0,1301.112,361.858Z" transform="translate(-1256.918 -359.564)"/>
    </g>
  </g>
</svg>
