<svg xmlns="http://www.w3.org/2000/svg" width="159.475" height="108.916" viewBox="0 0 159.475 108.916">
  <g id="Group_16452" data-name="Group 16452" transform="translate(-353.692 -64.156)">
    <g id="Group_16340" data-name="Group 16340" transform="translate(359.431 119.042)">
      <path id="Path_51404" data-name="Path 51404" d="M369.8,210.872a1.164,1.164,0,0,1-.4-.072l-.913-.338a1.222,1.222,0,0,1-.713-1.561l3.353-9.8a1.485,1.485,0,0,1,.778-.867,1.375,1.375,0,0,1,1.094-.034l2.229.883a1.378,1.378,0,0,1,.769.762,1.486,1.486,0,0,1-.012,1.152l-3.957,9.175a.154.154,0,1,1-.282-.122l3.957-9.175a1.163,1.163,0,0,0,.01-.913,1.074,1.074,0,0,0-.6-.594l-2.229-.883a1.073,1.073,0,0,0-.852.027,1.179,1.179,0,0,0-.615.688l-3.353,9.8a.916.916,0,0,0,.529,1.173l.913.338a.93.93,0,0,0,1.169-.551l3.021-7.624a1.061,1.061,0,0,0,0-.8.975.975,0,0,0-1.324-.519,1.073,1.073,0,0,0-.561.629l-2.24,6.586a.154.154,0,1,1-.291-.1l2.24-6.585a1.382,1.382,0,0,1,.723-.809,1.284,1.284,0,0,1,1.737.681,1.367,1.367,0,0,1,0,1.03l-3.021,7.623A1.259,1.259,0,0,1,369.8,210.872Z" transform="translate(-367.697 -198.102)"/>
    </g>
    <g id="Group_16341" data-name="Group 16341" transform="translate(353.692 100.487)">
      <path id="Path_51405" data-name="Path 51405" d="M368.756,157.95a2.543,2.543,0,0,1,3.558-.126,3.17,3.17,0,0,1,.141,4.189c-1.149,1.108-3.878,1.092-5.37,1.067-2.871-.05-5.792.089-8.663.089-5.381,0-4.8-4.622-3.362-5.607a1.833,1.833,0,0,1,2.279.185,4.111,4.111,0,0,1,2.579-4.46,3.483,3.483,0,0,1,4.009,2.679,2.471,2.471,0,0,1,2.965-.7A3.749,3.749,0,0,1,368.756,157.95Z" transform="translate(-353.917 -153.041)" fill="#fff"/>
      <path id="Path_51406" data-name="Path 51406" d="M358.2,163.1c-3.13,0-4.071-1.528-4.354-2.438a3.268,3.268,0,0,1,.9-3.449,1.994,1.994,0,0,1,2.18-.024,4.2,4.2,0,0,1,2.725-4.272,3.089,3.089,0,0,1,2.357.359,3.986,3.986,0,0,1,1.76,2.166,2.587,2.587,0,0,1,2.964-.539,3.8,3.8,0,0,1,1.891,2.558,2.627,2.627,0,0,1,3.569.033,3.318,3.318,0,0,1,.913,2.363,2.832,2.832,0,0,1-.772,2.046c-1.227,1.184-4.1,1.134-5.479,1.11-1.652-.028-3.35.006-4.991.039C360.661,163.075,359.415,163.1,358.2,163.1Zm-2.349-5.918a1.633,1.633,0,0,0-.926.284,2.986,2.986,0,0,0-.785,3.1c.257.83,1.127,2.222,4.06,2.222,1.214,0,2.459-.025,3.662-.05,1.644-.033,3.344-.068,5-.039,1.234.022,4.125.071,5.26-1.024a2.528,2.528,0,0,0,.678-1.825,3.006,3.006,0,0,0-.819-2.142c-.919-.887-2.173-.837-3.353.134a.154.154,0,0,1-.248-.087,3.584,3.584,0,0,0-1.781-2.583,2.33,2.33,0,0,0-2.779.664.154.154,0,0,1-.267-.059,3.686,3.686,0,0,0-1.7-2.242,2.784,2.784,0,0,0-2.123-.328,3.973,3.973,0,0,0-2.466,4.291.154.154,0,0,1-.257.134A1.714,1.714,0,0,0,355.849,157.182Z" transform="translate(-353.692 -152.819)"/>
    </g>
    <g id="Group_16342" data-name="Group 16342" transform="translate(377.795 64.156)">
      <path id="Path_51407" data-name="Path 51407" d="M466.6,172.331a.152.152,0,0,1-.109-.045l-53.934-53.934a.153.153,0,0,1,0-.217L466.492,64.2a.153.153,0,0,1,.217,0l53.934,53.934a.153.153,0,0,1,0,.217l-53.934,53.934A.152.152,0,0,1,466.6,172.331Zm-53.717-54.088L466.6,171.96l53.716-53.717L466.6,64.527Z" transform="translate(-412.513 -64.156)"/>
    </g>
    <g id="Group_16355" data-name="Group 16355" transform="translate(440.618 81.909)">
      <g id="Group_16343" data-name="Group 16343" transform="translate(4.307 16.309)">
        <path id="Path_51408" data-name="Path 51408" d="M578.288,150.365a21.164,21.164,0,0,1,.4,4.679l-1.9.736s-1.163,4.781,6.166,3.316c1.424-.285,5.546-3.415,5.546-3.415l-3.26-.932s-.312-4.738-.437-7.092A60.24,60.24,0,0,1,578.288,150.365Z" transform="translate(-576.567 -147.503)" fill="#fff"/>
        <path id="Path_51409" data-name="Path 51409" d="M580.232,159.309a4.177,4.177,0,0,1-3.131-1.035,3.155,3.155,0,0,1-.684-2.751.152.152,0,0,1,.093-.107l1.8-.7a20.826,20.826,0,0,0-.4-4.538.154.154,0,0,1,.1-.182,61.243,61.243,0,0,0,6.5-2.7.153.153,0,0,1,.218.131c.112,2.13.382,6.262.429,6.982l3.156.9a.154.154,0,0,1,.05.27c-.169.129-4.166,3.155-5.608,3.443A13.035,13.035,0,0,1,580.232,159.309Zm-3.532-3.637a2.849,2.849,0,0,0,.624,2.391c.929.966,2.738,1.188,5.377.661,1.176-.235,4.328-2.528,5.236-3.2l-2.962-.847a.154.154,0,0,1-.111-.138c0-.046-.295-4.473-.424-6.867a61.134,61.134,0,0,1-6.2,2.576,21.827,21.827,0,0,1,.371,4.581.153.153,0,0,1-.1.138Zm1.762-.849h0Z" transform="translate(-576.342 -147.282)"/>
      </g>
      <g id="Group_16345" data-name="Group 16345" transform="translate(0)">
        <g id="Group_16344" data-name="Group 16344">
          <path id="Path_51410" data-name="Path 51410" d="M567.592,113.688a1.228,1.228,0,0,1-1.351-1.234,1.943,1.943,0,0,1,1.107-1.68,6.365,6.365,0,0,1,2.023-.45,1.812,1.812,0,0,1,.647-1.976,2.786,2.786,0,0,1,2.05-.464,2.5,2.5,0,0,1,1.3.5,1.651,1.651,0,0,1,.6,1.315,2.3,2.3,0,0,1,4.3,1.094,2.237,2.237,0,0,1,1.769-.99c1.405.076,1.722,1.27,1.09,2.807a1.621,1.621,0,0,1,2.218,1.04,3.232,3.232,0,0,1-.6,2.73,1.592,1.592,0,0,1-.413.314c-.219,1.2-.493,2.461-.906,4.047a14.484,14.484,0,0,1-1.424,3.461,2.076,2.076,0,0,1-1.084,1c-.032-.5-.551-.745-.631-1.24-.1-.608.293-1.144-.074-1.684a8.9,8.9,0,0,1-1.4-3.309,4.335,4.335,0,0,1,.258-2.823,3.037,3.037,0,0,1,.664-.856,5.162,5.162,0,0,1-.3-.744,2.734,2.734,0,0,1-1.744,1.531,1.5,1.5,0,0,1-1.9-.77,3.011,3.011,0,0,1-1.994,1.817c-.707.072-.973-.254-1.257-.933a6.444,6.444,0,0,1-1.739,1.367,2,2,0,0,1-2.515-1.273A2.153,2.153,0,0,1,567.592,113.688Z" transform="translate(-566.054 -107.703)" fill="#160e4d"/>
          <path id="Path_51411" data-name="Path 51411" d="M578.7,125.135a.152.152,0,0,1-.078-.022.154.154,0,0,1-.075-.122,1.036,1.036,0,0,0-.282-.558,1.479,1.479,0,0,1-.347-.667,2.229,2.229,0,0,1,.036-.747,1.1,1.1,0,0,0-.086-.874,9,9,0,0,1-1.422-3.366,4.415,4.415,0,0,1,.272-2.922,3.179,3.179,0,0,1,.613-.821c-.052-.111-.1-.226-.146-.346A2.687,2.687,0,0,1,575.525,116a1.709,1.709,0,0,1-1.925-.541,3.224,3.224,0,0,1-2,1.6,1.17,1.17,0,0,1-1.327-.83c-.1.09-.192.179-.284.267a4.26,4.26,0,0,1-1.346.987,2.025,2.025,0,0,1-1.593-.1,2.152,2.152,0,0,1-1.123-1.27,2.341,2.341,0,0,1,.878-2.532,1.291,1.291,0,0,1-.351-.2,1.526,1.526,0,0,1-.587-1.148,2.1,2.1,0,0,1,1.191-1.819,5.041,5.041,0,0,1,1.687-.415l.206-.026a2.01,2.01,0,0,1,.752-1.97,2.927,2.927,0,0,1,2.162-.495,2.644,2.644,0,0,1,1.384.536,1.808,1.808,0,0,1,.627,1.059,2.681,2.681,0,0,1,2.478-.857,2.778,2.778,0,0,1,1.789,1.982,2.161,2.161,0,0,1,1.682-.8,1.554,1.554,0,0,1,1.306.668,2.4,2.4,0,0,1,.035,2.037,1.754,1.754,0,0,1,1.072.094,1.842,1.842,0,0,1,1.033,1.153,3.378,3.378,0,0,1-.627,2.88,1.65,1.65,0,0,1-.39.309c-.234,1.276-.52,2.545-.9,3.988a14.584,14.584,0,0,1-1.44,3.5,2.218,2.218,0,0,1-1.152,1.06A.155.155,0,0,1,578.7,125.135Zm-1.479-10.963h.017a.154.154,0,0,1,.13.106,4.957,4.957,0,0,0,.288.722.153.153,0,0,1-.034.183,2.887,2.887,0,0,0-.63.813,4.121,4.121,0,0,0-.244,2.724,8.692,8.692,0,0,0,1.374,3.251,1.372,1.372,0,0,1,.135,1.1,1.979,1.979,0,0,0-.036.648,1.209,1.209,0,0,0,.287.527,1.706,1.706,0,0,1,.3.51,1.886,1.886,0,0,0,.839-.849,14.259,14.259,0,0,0,1.409-3.423c.381-1.461.668-2.743.9-4.035a.154.154,0,0,1,.076-.107,1.466,1.466,0,0,0,.373-.282,3.076,3.076,0,0,0,.564-2.58,1.537,1.537,0,0,0-.86-.965,1.4,1.4,0,0,0-1.145.015.153.153,0,0,1-.21-.2,2.342,2.342,0,0,0,.107-2.07,1.248,1.248,0,0,0-1.063-.525,2.055,2.055,0,0,0-1.641.933.154.154,0,0,1-.272-.083,2.516,2.516,0,0,0-1.612-2.04,2.474,2.474,0,0,0-2.412,1.028.153.153,0,0,1-.274-.1,1.5,1.5,0,0,0-.543-1.191,2.343,2.343,0,0,0-1.226-.468,2.624,2.624,0,0,0-1.937.433,1.655,1.655,0,0,0-.6,1.8.153.153,0,0,1-.122.206c-.129.018-.259.035-.389.051a4.746,4.746,0,0,0-1.586.384,1.8,1.8,0,0,0-1.023,1.54,1.213,1.213,0,0,0,.468.911.817.817,0,0,0,.694.177.154.154,0,0,1,.082.3,2.005,2.005,0,0,0-1.2,2.405,1.841,1.841,0,0,0,.965,1.086,1.717,1.717,0,0,0,1.35.089,3.98,3.98,0,0,0,1.244-.923c.143-.135.29-.275.448-.415a.154.154,0,0,1,.243.056c.27.643.483.9,1.1.84a2.905,2.905,0,0,0,1.859-1.7.154.154,0,0,1,.3-.018,1.352,1.352,0,0,0,1.707.675,2.594,2.594,0,0,0,1.659-1.462A.153.153,0,0,1,577.221,114.172Z" transform="translate(-565.831 -107.481)"/>
        </g>
      </g>
      <g id="Group_16347" data-name="Group 16347" transform="translate(1.929 6.691)">
        <g id="Group_16346" data-name="Group 16346">
          <path id="Path_51412" data-name="Path 51412" d="M571.456,127.35c0-.036,0-.074,0-.111.043-.013.087-.026.129-.043a6.444,6.444,0,0,0,1.739-1.367c.284.679.55,1.005,1.257.933a3.011,3.011,0,0,0,1.994-1.817,1.5,1.5,0,0,0,1.9.77,2.734,2.734,0,0,0,1.744-1.531,3.739,3.739,0,0,0,1.364,2.014,2.872,2.872,0,0,0,.906.428c.011.138.024.273.038.4a11.817,11.817,0,0,1,.068,2.558,1.314,1.314,0,0,1,1.965-.05,1.276,1.276,0,0,1-.03,1.8,2.353,2.353,0,0,1-2.1.525c-.2,1.267-.486,3.805-1.367,4.927a5.672,5.672,0,0,1-4.3,1.985,6.028,6.028,0,0,1-4.481-1.84,6.262,6.262,0,0,1-1.35-4.7C571.032,130.6,571.451,128.988,571.456,127.35Z" transform="translate(-570.759 -124.03)" fill="#fff"/>
          <path id="Path_51413" data-name="Path 51413" d="M576.442,138.7a6.162,6.162,0,0,1-4.5-1.891A6.343,6.343,0,0,1,570.558,132c.044-.719.15-1.441.253-2.14a19.426,19.426,0,0,0,.271-2.735c0-.037,0-.075,0-.114a.154.154,0,0,1,.111-.145c.039-.011.079-.023.117-.038a3.975,3.975,0,0,0,1.244-.923c.143-.135.29-.275.448-.415a.154.154,0,0,1,.243.056c.27.643.483.9,1.1.84a2.905,2.905,0,0,0,1.859-1.7.154.154,0,0,1,.3-.018,1.352,1.352,0,0,0,1.707.675,2.593,2.593,0,0,0,1.659-1.462.154.154,0,0,1,.279.031,3.625,3.625,0,0,0,1.307,1.936,2.715,2.715,0,0,0,.858.4.153.153,0,0,1,.112.136c.011.137.024.27.038.4l0,.032a12.634,12.634,0,0,1,.092,2.22,1.393,1.393,0,0,1,1.893.166,1.423,1.423,0,0,1-.03,2.012,2.472,2.472,0,0,1-2.077.6l-.04.272c-.206,1.406-.519,3.532-1.334,4.57a5.815,5.815,0,0,1-4.423,2.044Zm-5.053-11.572a19.673,19.673,0,0,1-.274,2.778c-.1.692-.207,1.408-.25,2.114a6.052,6.052,0,0,0,1.311,4.584,5.848,5.848,0,0,0,4.364,1.789,5.5,5.5,0,0,0,4.187-1.926c.765-.974,1.082-3.135,1.271-4.425.023-.155.044-.3.064-.43a.153.153,0,0,1,.064-.1.155.155,0,0,1,.119-.024A2.189,2.189,0,0,0,584.2,131a1.118,1.118,0,0,0,.03-1.581c-.5-.51-1.095-.489-1.757.061a.154.154,0,0,1-.251-.135,11.6,11.6,0,0,0-.064-2.493l0-.031c-.011-.1-.021-.2-.03-.3a3,3,0,0,1-.852-.42,3.739,3.739,0,0,1-1.311-1.775,2.686,2.686,0,0,1-1.659,1.313,1.709,1.709,0,0,1-1.925-.541,3.224,3.224,0,0,1-2,1.6,1.17,1.17,0,0,1-1.327-.83c-.1.09-.192.179-.284.267a4.261,4.261,0,0,1-1.346.987Zm-.154,0h0Z" transform="translate(-570.538 -123.809)"/>
        </g>
      </g>
      <g id="Group_16348" data-name="Group 16348" transform="translate(4.143 11.971)">
        <path id="Path_51414" data-name="Path 51414" d="M575.944,137.107a.388.388,0,1,1,.427.321A.377.377,0,0,1,575.944,137.107Z" transform="translate(-575.941 -136.697)"/>
      </g>
      <g id="Group_16349" data-name="Group 16349" transform="translate(9.544 12.263)">
        <path id="Path_51415" data-name="Path 51415" d="M589.125,137.818a.388.388,0,1,1,.427.321A.377.377,0,0,1,589.125,137.818Z" transform="translate(-589.122 -137.408)"/>
      </g>
      <g id="Group_16350" data-name="Group 16350" transform="translate(7.324 18.068)">
        <path id="Path_51416" data-name="Path 51416" d="M584.32,152.535a1.946,1.946,0,0,1-.5-.065.154.154,0,0,1,.078-.3,1.759,1.759,0,0,0,1.754-.546.154.154,0,1,1,.234.2A2.078,2.078,0,0,1,584.32,152.535Z" transform="translate(-583.703 -151.574)"/>
      </g>
      <g id="Group_16351" data-name="Group 16351" transform="translate(5.56 11.939)">
        <path id="Path_51417" data-name="Path 51417" d="M580.86,141.678a2.439,2.439,0,0,1-.822-.155,1.05,1.05,0,0,1-.455-.277.868.868,0,0,1-.159-.758,2.41,2.41,0,0,1,.222-.566l.039-.08a6.951,6.951,0,0,0,.7-3.069.154.154,0,0,1,.153-.154h0a.153.153,0,0,1,.154.153,7.259,7.259,0,0,1-.732,3.206l-.04.082a2.146,2.146,0,0,0-.2.493.575.575,0,0,0,.09.493.776.776,0,0,0,.327.19,1.942,1.942,0,0,0,.948.12,1.128,1.128,0,0,0,.765-.452.154.154,0,1,1,.255.171,1.419,1.419,0,0,1-.973.585A1.856,1.856,0,0,1,580.86,141.678Z" transform="translate(-579.399 -136.618)"/>
      </g>
      <g id="Group_16352" data-name="Group 16352" transform="translate(13.525 11.806)">
        <path id="Path_51418" data-name="Path 51418" d="M598.992,137.72h-.02a.154.154,0,0,1-.132-.173c.059-.445.081-.683.12-1.113a.154.154,0,0,1,.306.028c-.04.434-.062.674-.121,1.125A.154.154,0,0,1,598.992,137.72Z" transform="translate(-598.839 -136.294)"/>
      </g>
      <g id="Group_16353" data-name="Group 16353" transform="translate(0.797 7.411)">
        <path id="Path_51419" data-name="Path 51419" d="M568.218,127.084a.051.051,0,0,1-.036-.016,1.476,1.476,0,0,1-.335-1.468.051.051,0,0,1,.1.033,1.372,1.372,0,0,0,.312,1.364.051.051,0,0,1-.037.087Z" transform="translate(-567.775 -125.566)"/>
      </g>
      <g id="Group_16354" data-name="Group 16354" transform="translate(15.48 6.03)">
        <path id="Path_51420" data-name="Path 51420" d="M603.659,124.59a.05.05,0,0,1-.038-.017.051.051,0,0,1,0-.073,2.12,2.12,0,0,0,.585-2.236.051.051,0,1,1,.1-.034,2.223,2.223,0,0,1-.613,2.347A.05.05,0,0,1,603.659,124.59Z" transform="translate(-603.608 -122.196)"/>
      </g>
    </g>
    <g id="Group_16362" data-name="Group 16362" transform="translate(412.084 91.575)">
      <g id="Group_16356" data-name="Group 16356" transform="translate(0 0)">
        <path id="Path_51421" data-name="Path 51421" d="M505.623,156.769c-1.62-3.725-3.518-10.579-5.439-14.22a10.465,10.465,0,0,1-3.375-3.56c-.3-.561-.342-.806-.029-1.293a.975.975,0,0,1,1.129-.238c-.229-.344-.66-.61-.274-1.091a.661.661,0,0,1,.713-.273c-.284-.734.472-1.362,1.1-.732-.561-.861-1.072-1.632-1.632-2.42-.346-.488-.707-1.083-.417-1.372.372-.372.935.134,1.607.937a36.145,36.145,0,0,0,2.728,3.027c1.13,1.13,2.334,3.394,1.865,4.421.377,1.565,6.092,10.638,7.966,12.512.684.684.125,1.343-.035,2.3-.194,1.153-1.036,5.21-3.962,3.891A6.009,6.009,0,0,1,505.623,156.769Z" transform="translate(-496.413 -131.292)" fill="#fff"/>
        <path id="Path_51422" data-name="Path 51422" d="M508.442,158.848a2.817,2.817,0,0,1-1.154-.274,6.064,6.064,0,0,1-2.025-1.965c-.674-1.551-1.389-3.619-2.145-5.809a68.05,68.05,0,0,0-3.27-8.365,10.714,10.714,0,0,1-3.394-3.595,1.18,1.18,0,0,1-.023-1.448.966.966,0,0,1,.884-.383.686.686,0,0,1-.02-.959.9.9,0,0,1,.628-.359.85.85,0,0,1,.357-.844.742.742,0,0,1,.5-.114c-.407-.62-.842-1.269-1.307-1.924-.4-.57-.768-1.2-.4-1.57a.542.542,0,0,1,.419-.168c.354.016.765.339,1.415,1.116l.027.032a35.8,35.8,0,0,0,2.691,2.984c1.1,1.1,2.373,3.393,1.918,4.542.454,1.593,6.008,10.487,7.913,12.392.557.557.382,1.117.2,1.709a5.3,5.3,0,0,0-.189.722c-.2,1.205-.743,3.333-2.073,4.043A1.989,1.989,0,0,1,508.442,158.848Zm-11.195-21.533a.639.639,0,0,0-.557.243c-.279.435-.24.615.036,1.139a10.375,10.375,0,0,0,3.322,3.5.157.157,0,0,1,.053.058,67.541,67.541,0,0,1,3.307,8.444c.755,2.184,1.467,4.247,2.137,5.787h0a5.887,5.887,0,0,0,1.869,1.807,2.01,2.01,0,0,0,1.833.047c1.214-.648,1.721-2.674,1.914-3.823a5.684,5.684,0,0,1,.2-.763c.177-.565.3-.974-.121-1.4-1.837-1.837-7.6-10.894-8.007-12.585a.156.156,0,0,1,.009-.1c.408-.892-.667-3.083-1.833-4.249a36.04,36.04,0,0,1-2.71-3l-.027-.033c-.356-.425-.867-.992-1.193-1.006a.232.232,0,0,0-.188.079c-.234.234.268.942.434,1.175.592.834,1.136,1.659,1.635,2.425a.153.153,0,0,1-.237.192.526.526,0,0,0-.674-.144.579.579,0,0,0-.177.712.154.154,0,0,1-.2.2.519.519,0,0,0-.54.225c-.216.269-.116.412.11.685a2.7,2.7,0,0,1,.173.224.153.153,0,0,1-.179.23A1.2,1.2,0,0,0,497.247,137.315Z" transform="translate(-496.193 -131.071)"/>
      </g>
      <g id="Group_16357" data-name="Group 16357" transform="translate(1.175 6.013)">
        <path id="Path_51423" data-name="Path 51423" d="M500.37,148.074a.718.718,0,0,1-.254-.048,1.5,1.5,0,0,1-.439-.3l-.564-.495a.154.154,0,0,1,.2-.231l.564.495a1.245,1.245,0,0,0,.347.242.309.309,0,0,0,.3-.022.3.3,0,0,0,.068-.306,1.05,1.05,0,0,0-.224-.374,3.478,3.478,0,0,0-.7-.708c-.1-.077-.22-.174-.387-.314a.154.154,0,1,1,.2-.235c.164.137.284.232.38.309a3.736,3.736,0,0,1,.749.754,1.327,1.327,0,0,1,.284.49.6.6,0,0,1-.169.621A.552.552,0,0,1,500.37,148.074Z" transform="translate(-499.061 -145.744)"/>
      </g>
      <g id="Group_16358" data-name="Group 16358" transform="translate(1.781 4.648)">
        <path id="Path_51424" data-name="Path 51424" d="M502.269,145.617a1.025,1.025,0,0,1-.376-.09c-.142-.057-.284-.119-.422-.184a.154.154,0,1,1,.13-.279c.133.063.27.122.406.177a.474.474,0,0,0,.348.049c.11-.056.134-.241.1-.4-.054-.248-.415-.828-1.83-2.178l-.04-.038a.154.154,0,1,1,.213-.222l.04.038a7.676,7.676,0,0,1,1.918,2.335.648.648,0,0,1-.261.734A.491.491,0,0,1,502.269,145.617Z" transform="translate(-500.539 -142.415)"/>
      </g>
      <g id="Group_16359" data-name="Group 16359" transform="translate(2.613 4.749)">
        <path id="Path_51425" data-name="Path 51425" d="M504.49,146.728a.153.153,0,0,1-.136-.082,2.019,2.019,0,0,1,.154-1.8c.07-.16.186-.428.154-.482a2.776,2.776,0,0,0-1.138-.243,1.777,1.777,0,0,1-.319-.04.9.9,0,0,1-.587-.463.474.474,0,0,1-.018-.374,1.157,1.157,0,0,1,.485-.5,7.364,7.364,0,0,1,1.88-.056l.24.01c.277.009,1.094.308,1.191.638a.154.154,0,1,1-.295.086,1.727,1.727,0,0,0-.906-.417l-.243-.01a7.922,7.922,0,0,0-1.77.041.95.95,0,0,0-.3.334.183.183,0,0,0,.018.124.61.61,0,0,0,.4.3c.026.007.145.017.249.025a2.418,2.418,0,0,1,1.337.34c.175.188.055.464-.1.814a1.754,1.754,0,0,0-.164,1.533.154.154,0,0,1-.064.208A.151.151,0,0,1,504.49,146.728Z" transform="translate(-502.57 -142.66)"/>
      </g>
      <g id="Group_16360" data-name="Group 16360" transform="translate(2.84 3.849)">
        <path id="Path_51426" data-name="Path 51426" d="M504.055,141.67a.153.153,0,0,1-.133-.077,5.132,5.132,0,0,0-.5-.588c-.1-.109-.2-.211-.261-.289a.154.154,0,1,1,.234-.2c.062.073.154.173.252.279a4.942,4.942,0,0,1,.542.643.154.154,0,0,1-.133.231Z" transform="translate(-503.123 -140.463)"/>
      </g>
      <g id="Group_16361" data-name="Group 16361" transform="translate(3.807 6.096)">
        <path id="Path_51427" data-name="Path 51427" d="M505.706,147.243a.447.447,0,0,1-.1-.012.154.154,0,0,1,.073-.3.257.257,0,0,0,.241-.116.576.576,0,0,0-.075-.635.154.154,0,1,1,.261-.162.834.834,0,0,1,.063.977A.584.584,0,0,1,505.706,147.243Z" transform="translate(-505.484 -145.948)"/>
      </g>
    </g>
    <g id="Group_16364" data-name="Group 16364" transform="translate(423.582 105.473)">
      <g id="Group_16363" data-name="Group 16363" transform="translate(0)">
        <path id="Path_51428" data-name="Path 51428" d="M570.741,182.723c-1.019-5.354-1.026-11.1-5.339-14.7-2.07-1.728-6.978-2.474-9.855-2.659-.176,2.786-2.9,3.448-4.641,3.336-2.911-.186-3.429-.759-4.168-2.969-.653.26-4.584.458-7.138,2.738-4.739,4.234-10.945,3.575-11.283,3.913-.47.47.686,4.579-3.492,6.514-1.758.814,8.777,2.489,16.032.569-.272,3.8,1.95,14.312,2.737,18.576,7.568,5.278,22.275-.129,22.275-.129a23.608,23.608,0,0,1-1.19-6.146c0-1.31,4.584,1.4,5.193,1.509a.9.9,0,0,0,.742-.318C571.124,191.76,571.678,187.648,570.741,182.723Z" transform="translate(-524.476 -165.21)" fill="#160e4d"/>
        <path id="Path_51429" data-name="Path 51429" d="M552.391,200.28c-3.2,0-6.559-.556-9.108-2.334a.155.155,0,0,1-.063-.1c-.125-.679-.285-1.505-.47-2.463-.974-5.043-2.434-12.608-2.281-15.939a35.741,35.741,0,0,1-10.313.76c-2.678-.163-5.662-.621-5.885-1.24-.035-.1-.048-.284.267-.43,3.055-1.415,3.18-4.037,3.247-5.446.026-.548.042-.879.2-1.038.11-.11.353-.132,1.1-.186,1.955-.141,6.534-.47,10.186-3.733,2.027-1.811,4.847-2.318,6.363-2.591a6.108,6.108,0,0,0,.82-.176.154.154,0,0,1,.2.094c.722,2.158,1.181,2.681,4.032,2.864a5.461,5.461,0,0,0,2.825-.563,3.035,3.035,0,0,0,1.653-2.629.154.154,0,0,1,.052-.106.152.152,0,0,1,.111-.038c3.356.215,7.974,1.05,9.943,2.694,3.547,2.961,4.23,7.431,4.89,11.754.153,1,.311,2.033.5,3.036.9,4.721.449,8.951-.138,10.324a1.014,1.014,0,0,1-.91.409,7.937,7.937,0,0,1-1.259-.552c-1.125-.544-3.219-1.557-3.685-1.265-.032.02-.068.056-.068.157a23.6,23.6,0,0,0,1.182,6.1.154.154,0,0,1-.093.194,47.548,47.548,0,0,1-8.33,2.051A33.981,33.981,0,0,1,552.391,200.28Zm-8.881-2.55c3.867,2.659,9.638,2.477,13.808,1.854a47.786,47.786,0,0,0,8.135-1.987,23.3,23.3,0,0,1-1.151-6.051.461.461,0,0,1,.212-.417c.564-.354,2.137.357,3.982,1.249a9.609,9.609,0,0,0,1.178.526.806.806,0,0,0,.574-.227c.444-1.039,1.09-5.036.118-10.146-.192-1.008-.35-2.045-.5-3.047-.682-4.463-1.326-8.678-4.784-11.564-1.884-1.572-6.319-2.386-9.615-2.613a3.35,3.35,0,0,1-1.8,2.726,5.774,5.774,0,0,1-2.991.6c-2.891-.186-3.514-.765-4.256-2.931-.171.045-.417.089-.725.144-1.485.267-4.25.765-6.212,2.518-3.73,3.332-8.382,3.667-10.369,3.81a5.323,5.323,0,0,0-.913.1,2.572,2.572,0,0,0-.106.829c-.07,1.474-.2,4.217-3.425,5.71a.381.381,0,0,0-.1.061c.168.263,2.131.813,5.626,1.024a35.107,35.107,0,0,0,10.4-.8.153.153,0,0,1,.193.16c-.227,3.171,1.333,11.247,2.264,16.072C543.231,196.256,543.387,197.062,543.511,197.73Z" transform="translate(-524.253 -164.989)" fill="#160e4d"/>
      </g>
    </g>
    <g id="Group_16365" data-name="Group 16365" transform="translate(439.414 124.702)">
      <path id="Path_51430" data-name="Path 51430" d="M588.178,215.233c-4.1-.229-8.228-.511-12.355-.795-.37-.061-2.205-.323-2.658-.39a4.073,4.073,0,0,1-1.1-.36c-1.227-.567-3.861-1.679-4.448-1.35a7.257,7.257,0,0,0-3.54,2.613c-.538.695-.98,1.845-.757,2.043a.392.392,0,0,0,.513.047,6.479,6.479,0,0,1,3.149-3.122,9.191,9.191,0,0,0-1.769,1.3,3.457,3.457,0,0,0-1.161,1.857.249.249,0,0,0,.014.169c.074.121.261.05.373-.037.219-.172,3.041-2.463,3.568-2.4a14.218,14.218,0,0,0-3.211,2.509.431.431,0,0,0,.079.292.41.41,0,0,0,.385.122,1.108,1.108,0,0,0,.386-.168,18.726,18.726,0,0,1,2.417-1.467,1.442,1.442,0,0,1,1.354-.016,6.56,6.56,0,0,0-2.115,1.284,1.242,1.242,0,0,0-.243.311c-.1.171-.2.42-.071.561.218.232.4.115.588.006a12.776,12.776,0,0,1,2.312-1.219.863.863,0,0,1,.769-.041,6.192,6.192,0,0,0,3.072.81,9.987,9.987,0,0,1,2.123.434c10.875,3,14.125,4.193,16.758,3.06.516-.222.69-.493.518-1.378C592.667,217.542,592.218,216.2,588.178,215.233Z" transform="translate(-563.107 -212.13)" fill="#fff"/>
      <path id="Path_51431" data-name="Path 51431" d="M590.184,221.65c-2.084,0-5.052-.83-10.635-2.391-1.176-.329-2.509-.7-3.958-1.1a9.989,9.989,0,0,0-2.09-.429,6.488,6.488,0,0,1-3.147-.833.751.751,0,0,0-.629.055,12.538,12.538,0,0,0-2.284,1.2l-.02.012a.54.54,0,0,1-.765-.041c-.229-.244-.021-.619.048-.742a1.4,1.4,0,0,1,.274-.349,6.556,6.556,0,0,1,1.81-1.169,1.736,1.736,0,0,0-.885.157,9.32,9.32,0,0,0-1.6.935c-.259.175-.526.356-.8.522a1.244,1.244,0,0,1-.44.188.557.557,0,0,1-.53-.177.576.576,0,0,1-.113-.4.179.179,0,0,1,.029-.088l-.041.033-.1.077a.555.555,0,0,1-.4.129.284.284,0,0,1-.194-.134.309.309,0,0,1-.043-.138A.548.548,0,0,1,563,216.9c-.365-.323.279-1.661.737-2.252a7.346,7.346,0,0,1,3.6-2.662c.711-.354,3.428.826,4.571,1.353a3.978,3.978,0,0,0,1.06.348l.607.088c.7.1,1.763.255,2.046.3,4.025.277,8.188.563,12.346.795l.027,0c4.132.986,4.6,2.392,5.063,4.793.172.888.019,1.279-.608,1.548A5.547,5.547,0,0,1,590.184,221.65Zm-20.026-5.113a.659.659,0,0,1,.363.1,6.181,6.181,0,0,0,3,.786,10.213,10.213,0,0,1,2.155.439c1.45.4,2.783.772,3.959,1.1,7.828,2.189,10.464,2.926,12.7,1.966.416-.179.593-.356.428-1.208-.454-2.339-.875-3.6-4.819-4.549-4.158-.232-8.319-.518-12.344-.795l-.014,0c-.269-.044-1.339-.2-2.048-.3l-.608-.088a4.261,4.261,0,0,1-1.144-.373c-2.172-1-3.944-1.559-4.309-1.355a.144.144,0,0,1-.032.014,7.129,7.129,0,0,0-3.462,2.56,3.358,3.358,0,0,0-.772,1.839.257.257,0,0,0,.284.056,6.67,6.67,0,0,1,3.207-3.16.154.154,0,0,1,.139.274,9.01,9.01,0,0,0-1.739,1.28,3.227,3.227,0,0,0-1.115,1.77.369.369,0,0,0-.006.055.326.326,0,0,0,.147-.069l.095-.075c3.036-2.423,3.435-2.376,3.586-2.359a.154.154,0,0,1,.036.3,15.492,15.492,0,0,0-3.112,2.4.216.216,0,0,0,.287.232.977.977,0,0,0,.331-.148c.266-.161.529-.34.785-.513a9.508,9.508,0,0,1,1.653-.965,1.591,1.591,0,0,1,1.5,0,.154.154,0,0,1-.033.27,6.359,6.359,0,0,0-2.065,1.253,1.094,1.094,0,0,0-.213.273c-.156.279-.111.363-.093.381.123.13.19.1.386-.014l.013-.008a12.808,12.808,0,0,1,2.332-1.228A1.522,1.522,0,0,1,570.158,216.537Z" transform="translate(-562.891 -211.916)"/>
    </g>
    <g id="Group_16366" data-name="Group 16366" transform="translate(459.472 113.503)">
      <path id="Path_51432" data-name="Path 51432" d="M614.407,198.9a.154.154,0,0,1-.146-.105,37.432,37.432,0,0,1-2.419-14.055.154.154,0,1,1,.307,0,37.185,37.185,0,0,0,2.4,13.958.154.154,0,0,1-.146.2Z" transform="translate(-611.842 -184.586)"/>
    </g>
    <g id="Group_16367" data-name="Group 16367" transform="translate(439.667 114.918)">
      <path id="Path_51433" data-name="Path 51433" d="M563.8,193a.154.154,0,0,1-.1-.039c-.086-.077-.086-.154-.1-1.106-.01-.7-.027-1.876-.093-3.66a.154.154,0,1,1,.307-.011c.066,1.787.084,2.964.093,3.667.007.481.012.834.029.919a.154.154,0,0,1-.134.23Zm.1-.268h0Z" transform="translate(-563.509 -188.037)"/>
    </g>
    <g id="Group_16368" data-name="Group 16368" transform="translate(441.15 116.191)">
      <path id="Path_51434" data-name="Path 51434" d="M574.1,192.207c-2.907,0-5.547-.257-6.94-.966a.051.051,0,1,1,.046-.091c2.872,1.462,11.122.983,15.967.305a.051.051,0,1,1,.014.1A69.863,69.863,0,0,1,574.1,192.207Z" transform="translate(-567.128 -191.144)" fill="#fff"/>
    </g>
    <g id="Group_16369" data-name="Group 16369" transform="translate(441.15 119.973)">
      <path id="Path_51435" data-name="Path 51435" d="M577.2,201.735a42.841,42.841,0,0,1-10.03-1.26.051.051,0,1,1,.025-.1,38.442,38.442,0,0,0,16.408.636.051.051,0,0,1,.021.1A32.121,32.121,0,0,1,577.2,201.735Z" transform="translate(-567.128 -200.374)" fill="#fff"/>
    </g>
    <g id="Group_16370" data-name="Group 16370" transform="translate(462.369 126.048)">
      <path id="Path_51436" data-name="Path 51436" d="M626.729,218.241a.051.051,0,0,1-.039-.018,8.443,8.443,0,0,0-7.718-2.806.051.051,0,0,1-.017-.1,8.549,8.549,0,0,1,7.814,2.842.052.052,0,0,1-.006.072A.052.052,0,0,1,626.729,218.241Z" transform="translate(-618.912 -215.201)" fill="#fff"/>
    </g>
    <g id="Group_16371" data-name="Group 16371" transform="translate(466.91 125.376)">
      <path id="Path_51437" data-name="Path 51437" d="M632.932,215.253a.051.051,0,0,1-.019,0,2.775,2.775,0,0,1-.784-.553c-.083-.074-.168-.15-.254-.221a3.767,3.767,0,0,0-1.836-.813.051.051,0,0,1,.015-.1,3.869,3.869,0,0,1,1.886.835c.088.072.174.149.258.224a2.7,2.7,0,0,0,.754.534.051.051,0,0,1-.019.1Z" transform="translate(-629.995 -213.561)" fill="#fff"/>
    </g>
    <g id="Group_16372" data-name="Group 16372" transform="translate(428.03 112.916)">
      <path id="Path_51438" data-name="Path 51438" d="M535.161,186.982a.055.055,0,0,1-.02,0,.051.051,0,0,1-.028-.067,9.2,9.2,0,0,0,.677-3.707.052.052,0,0,1,.05-.052h0a.051.051,0,0,1,.051.05,9.309,9.309,0,0,1-.685,3.748A.051.051,0,0,1,535.161,186.982Z" transform="translate(-535.11 -183.152)" fill="#fff"/>
    </g>
    <g id="Group_16373" data-name="Group 16373" transform="translate(429.769 112.916)">
      <path id="Path_51439" data-name="Path 51439" d="M539.405,184.635h-.011a.052.052,0,0,1-.039-.061,4.254,4.254,0,0,0,.085-1.364.051.051,0,1,1,.1-.01,4.345,4.345,0,0,1-.086,1.4A.052.052,0,0,1,539.405,184.635Z" transform="translate(-539.354 -183.152)" fill="#fff"/>
    </g>
    <g id="Group_16374" data-name="Group 16374" transform="translate(460.15 116.065)">
      <path id="Path_51440" data-name="Path 51440" d="M615.767,202.867a.154.154,0,0,1-.148-.113A68.8,68.8,0,0,1,613.5,191a.154.154,0,0,1,.306-.028,68.47,68.47,0,0,0,2.112,11.7.154.154,0,0,1-.108.189A.15.15,0,0,1,615.767,202.867Z" transform="translate(-613.496 -190.837)" fill="#fff"/>
    </g>
    <g id="Group_16375" data-name="Group 16375" transform="translate(439.497 115.925)">
      <path id="Path_51441" data-name="Path 51441" d="M563.249,195.172h0a.153.153,0,0,1-.151-.156l.066-4.368a.153.153,0,0,1,.154-.151h0a.153.153,0,0,1,.151.156l-.066,4.368A.154.154,0,0,1,563.249,195.172Z" transform="translate(-563.095 -190.497)" fill="#fff"/>
    </g>
    <g id="Group_16381" data-name="Group 16381" transform="translate(380.345 135.883)">
      <g id="Group_16376" data-name="Group 16376" transform="translate(0 0)">
        <path id="Path_51442" data-name="Path 51442" d="M419.223,242.108a3.394,3.394,0,1,1,2.419,4.146A3.394,3.394,0,0,1,419.223,242.108Z" transform="translate(-418.957 -239.422)" fill="#160e4d"/>
        <path id="Path_51443" data-name="Path 51443" d="M422.291,246.3a3.554,3.554,0,0,1-3.437-4.452h0a3.547,3.547,0,1,1,3.438,4.452Zm-3.14-4.374a3.241,3.241,0,1,0,3.959-2.31,3.245,3.245,0,0,0-3.959,2.31Z" transform="translate(-418.736 -239.201)"/>
      </g>
      <g id="Group_16380" data-name="Group 16380" transform="translate(2.122 1.214)">
        <g id="Group_16377" data-name="Group 16377" transform="translate(0 0.453)">
          <path id="Path_51444" data-name="Path 51444" d="M425.236,247.085a.954.954,0,0,1-.245-.032,1.516,1.516,0,0,1-1.064-.771.154.154,0,0,1,.285-.116,1.23,1.23,0,0,0,.857.59.672.672,0,0,0,.488-.059.653.653,0,0,0,.322-.423c.128-.486-.179-.739-.536-1.032s-.767-.631-.638-1.235a.984.984,0,0,1,.457-.591.913.913,0,0,1,.717-.118c.8.209.865.736.867.758a.154.154,0,0,1-.305.037c0-.019-.063-.346-.641-.5a.621.621,0,0,0-.477.084.69.69,0,0,0-.317.393c-.09.422.2.659.532.933.382.315.816.671.638,1.348a.961.961,0,0,1-.939.732Z" transform="translate(-423.915 -243.269)" fill="#fff"/>
        </g>
        <g id="Group_16378" data-name="Group 16378" transform="translate(1.781)">
          <path id="Path_51445" data-name="Path 51445" d="M428.417,242.951a.147.147,0,0,1-.039-.005.154.154,0,0,1-.109-.188l.126-.479a.154.154,0,1,1,.3.078l-.126.479A.154.154,0,0,1,428.417,242.951Z" transform="translate(-428.263 -242.165)" fill="#fff"/>
        </g>
        <g id="Group_16379" data-name="Group 16379" transform="translate(0.695 3.898)">
          <path id="Path_51446" data-name="Path 51446" d="M425.766,252.463a.144.144,0,0,1-.039-.005.153.153,0,0,1-.109-.188l.126-.479a.154.154,0,1,1,.3.078l-.126.479A.154.154,0,0,1,425.766,252.463Z" transform="translate(-425.612 -251.677)" fill="#fff"/>
        </g>
      </g>
    </g>
    <g id="Group_16387" data-name="Group 16387" transform="translate(506.07 115.183)">
      <g id="Group_16382" data-name="Group 16382">
        <path id="Path_51447" data-name="Path 51447" d="M726.4,194.149a3.395,3.395,0,1,1,4.637,1.242A3.395,3.395,0,0,1,726.4,194.149Z" transform="translate(-725.786 -188.904)" fill="#160e4d"/>
        <path id="Path_51448" data-name="Path 51448" d="M729.118,195.782a3.571,3.571,0,0,1-.924-.123,3.527,3.527,0,1,1,.924.123Zm-.011-6.79a3.241,3.241,0,0,0-2.8,4.861h0a3.241,3.241,0,1,0,2.8-4.861Z" transform="translate(-725.563 -188.685)"/>
      </g>
      <g id="Group_16386" data-name="Group 16386" transform="translate(2.168 1.398)">
        <g id="Group_16383" data-name="Group 16383" transform="translate(0 0.247)">
          <path id="Path_51449" data-name="Path 51449" d="M732.42,196.466a1.061,1.061,0,0,1-.393-.064.154.154,0,1,1,.121-.283,1.231,1.231,0,0,0,1.024-.184.672.672,0,0,0,.305-.385.655.655,0,0,0-.069-.527c-.252-.435-.648-.4-1.107-.356s-.988.092-1.322-.429a.983.983,0,0,1-.091-.742.911.911,0,0,1,.426-.588,1.01,1.01,0,0,1,1.15-.072.154.154,0,0,1-.191.241c-.015-.011-.288-.2-.806.1a.62.62,0,0,0-.28.4.689.689,0,0,0,.051.5c.233.363.6.329,1.035.289.493-.046,1.052-.1,1.4.509a.968.968,0,0,1,.1.768.982.982,0,0,1-.446.563A1.807,1.807,0,0,1,732.42,196.466Z" transform="translate(-730.855 -192.7)" fill="#fff"/>
        </g>
        <g id="Group_16384" data-name="Group 16384" transform="translate(0.144)">
          <path id="Path_51450" data-name="Path 51450" d="M731.607,192.833a.153.153,0,0,1-.133-.077l-.247-.429a.154.154,0,1,1,.266-.154l.247.429a.154.154,0,0,1-.133.231Z" transform="translate(-731.205 -192.096)" fill="#fff"/>
        </g>
        <g id="Group_16385" data-name="Group 16385" transform="translate(2.115 3.533)">
          <path id="Path_51451" data-name="Path 51451" d="M736.419,201.455a.153.153,0,0,1-.133-.077l-.248-.429a.154.154,0,0,1,.266-.154l.247.429a.153.153,0,0,1-.133.23Z" transform="translate(-736.017 -200.719)" fill="#fff"/>
        </g>
      </g>
    </g>
    <g id="Group_16400" data-name="Group 16400" transform="translate(384.87 85.91)">
      <g id="Group_16390" data-name="Group 16390" transform="translate(7.015 15.04)">
        <g id="Group_16388" data-name="Group 16388" transform="translate(0 2.623)">
          <path id="Path_51452" data-name="Path 51452" d="M449.429,174.712l-2.157-2.006L448,160.728l4.251,7.363Z" transform="translate(-447.119 -160.574)" fill="#160e4d"/>
          <path id="Path_51453" data-name="Path 51453" d="M449.208,174.644a.154.154,0,0,1-.1-.041l-2.157-2.006a.154.154,0,0,1-.049-.122l.727-11.978a.154.154,0,0,1,.286-.068l4.251,7.363a.154.154,0,0,1,.009.137l-2.821,6.621a.153.153,0,0,1-.109.09A.142.142,0,0,1,449.208,174.644Zm-2-2.223,1.943,1.808,2.7-6.349-3.957-6.854Z" transform="translate(-446.897 -160.353)" fill="#160e4d"/>
        </g>
        <g id="Group_16389" data-name="Group 16389" transform="translate(5.27)">
          <path id="Path_51454" data-name="Path 51454" d="M471.529,162.556l-.659-2.871-10.736-5.36,4.251,7.363Z" transform="translate(-459.98 -154.172)" fill="#160e4d"/>
          <path id="Path_51455" data-name="Path 51455" d="M471.307,162.488h-.018l-7.144-.867a.153.153,0,0,1-.114-.075l-4.251-7.363a.154.154,0,0,1,.2-.214l10.736,5.36a.154.154,0,0,1,.081.1l.659,2.871a.154.154,0,0,1-.15.188Zm-7.049-1.165,6.85.832-.594-2.587-10.214-5.1Z" transform="translate(-459.759 -153.951)" fill="#160e4d"/>
        </g>
      </g>
      <g id="Group_16391" data-name="Group 16391" transform="translate(0)">
        <path id="Path_51456" data-name="Path 51456" d="M441.7,144.093l-7.97-11.306a18.081,18.081,0,0,1-3-15.166l.025.008a18.349,18.349,0,0,1,11.448,9.9l5.941,12.846Z" transform="translate(-429.999 -117.467)" fill="#160e4d"/>
        <path id="Path_51457" data-name="Path 51457" d="M441.484,144.025a.153.153,0,0,1-.125-.065l-7.97-11.306a18.231,18.231,0,0,1-3.027-15.3.155.155,0,0,1,.073-.093.157.157,0,0,1,.118-.014l.025.008a18.452,18.452,0,0,1,11.543,9.983l5.941,12.846a.154.154,0,0,1-.063.2L441.561,144A.154.154,0,0,1,441.484,144.025Zm-10.866-26.434a17.951,17.951,0,0,0,3.022,14.886l7.889,11.191,6.2-3.577-5.882-12.719A18.149,18.149,0,0,0,430.618,117.591Z" transform="translate(-429.779 -117.246)"/>
      </g>
      <g id="Group_16392" data-name="Group 16392" transform="translate(4.73 8.67)">
        <path id="Path_51458" data-name="Path 51458" d="M441.964,141.787a2.006,2.006,0,1,1,2.74.734A2.006,2.006,0,0,1,441.964,141.787Z" transform="translate(-441.542 -138.624)" fill="#fff"/>
        <path id="Path_51459" data-name="Path 51459" d="M443.485,142.723a2.161,2.161,0,0,1-1.874-1.079h0a2.161,2.161,0,1,1,1.874,1.079Zm-1.608-1.233a1.852,1.852,0,1,0,.678-2.531,1.84,1.84,0,0,0-.678,2.531Z" transform="translate(-441.322 -138.404)"/>
      </g>
      <g id="Group_16393" data-name="Group 16393" transform="translate(12.051 23.086)">
        <rect id="Rectangle_4016" data-name="Rectangle 4016" width="6.197" height="2.138" transform="matrix(0.866, -0.5, 0.5, 0.866, 0.154, 3.252)" fill="#fff"/>
        <path id="Path_51460" data-name="Path 51460" d="M460.411,178.842a.154.154,0,0,1-.133-.077l-1.069-1.851a.153.153,0,0,1,.056-.21l5.366-3.1a.154.154,0,0,1,.21.057l1.069,1.851a.153.153,0,0,1-.056.21l-5.367,3.1A.153.153,0,0,1,460.411,178.842Zm-.859-1.949.915,1.585,5.1-2.945-.915-1.585Z" transform="translate(-459.188 -173.585)"/>
      </g>
      <g id="Group_16394" data-name="Group 16394" transform="translate(0.52 4.015)">
        <path id="Path_51461" data-name="Path 51461" d="M431.1,131.361a.051.051,0,0,1-.044-.026.051.051,0,0,1,.019-.07l7.3-4.216a.051.051,0,1,1,.051.089l-7.3,4.216A.05.05,0,0,1,431.1,131.361Z" transform="translate(-431.048 -127.043)"/>
      </g>
      <g id="Group_16399" data-name="Group 16399" transform="translate(14.677 27.041)">
        <g id="Group_16395" data-name="Group 16395" transform="translate(2.261 1.305)">
          <path id="Path_51462" data-name="Path 51462" d="M475.88,194.718a.153.153,0,0,1-.133-.077l-4.611-7.987a.154.154,0,0,1,.266-.154l4.611,7.987a.153.153,0,0,1-.133.23Z" transform="translate(-471.115 -186.424)"/>
        </g>
        <g id="Group_16396" data-name="Group 16396" transform="translate(4.522)">
          <path id="Path_51463" data-name="Path 51463" d="M479.385,188.046a.154.154,0,0,1-.133-.077l-2.6-4.5a.154.154,0,1,1,.266-.154l2.6,4.5a.154.154,0,0,1-.133.23Z" transform="translate(-476.633 -183.238)"/>
        </g>
        <g id="Group_16397" data-name="Group 16397" transform="translate(7.77 5.626)">
          <path id="Path_51464" data-name="Path 51464" d="M485.27,198.238a.154.154,0,0,1-.133-.077l-.556-.965a.154.154,0,0,1,.266-.154l.557.965a.153.153,0,0,1-.133.23Z" transform="translate(-484.559 -196.967)"/>
        </g>
        <g id="Group_16398" data-name="Group 16398" transform="translate(0 2.611)">
          <path id="Path_51465" data-name="Path 51465" d="M469.277,196.025a.153.153,0,0,1-.133-.077l-3.526-6.108a.154.154,0,0,1,.266-.154l3.526,6.108a.153.153,0,0,1-.133.23Z" transform="translate(-465.597 -189.61)"/>
        </g>
      </g>
    </g>
    <g id="Group_16408" data-name="Group 16408" transform="translate(482.221 127.969)">
      <g id="Group_16404" data-name="Group 16404" transform="translate(0 1.016)">
        <g id="Group_16401" data-name="Group 16401" transform="translate(2.93 2.931)">
          <path id="Path_51466" data-name="Path 51466" d="M679.386,239.273a4.875,4.875,0,1,1,3.431-8.337.154.154,0,0,1-.217.218,4.567,4.567,0,1,0,.985,1.451.154.154,0,0,1,.283-.121,4.876,4.876,0,0,1-4.482,6.788Z" transform="translate(-674.509 -229.522)" fill="#160e4d"/>
        </g>
        <g id="Group_16402" data-name="Group 16402">
          <path id="Path_51467" data-name="Path 51467" d="M675.167,237.981a7.8,7.8,0,1,1,1.487-15.466,7.724,7.724,0,0,1,4.41,2.552.154.154,0,1,1-.232.2,7.5,7.5,0,0,0-13.027,3.477,7.5,7.5,0,1,0,14.718,2.863,7.423,7.423,0,0,0-.676-4.829.154.154,0,1,1,.274-.14,7.729,7.729,0,0,1,.7,5.028A7.818,7.818,0,0,1,675.167,237.981Z" transform="translate(-667.359 -222.369)" fill="#160e4d"/>
        </g>
        <g id="Group_16403" data-name="Group 16403" transform="translate(5.603 5.604)">
          <path id="Path_51468" data-name="Path 51468" d="M681.444,238.079a2.049,2.049,0,1,1,1.62,2.4A2.048,2.048,0,0,1,681.444,238.079Z" transform="translate(-681.253 -236.267)" fill="#160e4d"/>
          <path id="Path_51469" data-name="Path 51469" d="M683.235,240.451a2.2,2.2,0,0,1-2.163-2.623h0a2.2,2.2,0,1,1,2.163,2.623Zm-1.861-2.564a1.895,1.895,0,1,0,2.222-1.5,1.9,1.9,0,0,0-2.222,1.5Z" transform="translate(-681.031 -236.045)" fill="#160e4d"/>
        </g>
      </g>
      <g id="Group_16405" data-name="Group 16405" transform="translate(7.652 1.962)">
        <path id="Path_51470" data-name="Path 51470" d="M686.186,231.692a.154.154,0,0,1-.086-.281l9.946-6.707a.154.154,0,1,1,.172.255l-9.946,6.707A.156.156,0,0,1,686.186,231.692Z" transform="translate(-686.032 -224.678)"/>
      </g>
      <g id="Group_16406" data-name="Group 16406" transform="translate(15.126 1.983)">
        <path id="Path_51471" data-name="Path 51471" d="M704.648,226.779l2.485-1.676,1.906.575-2.485,1.676Z" transform="translate(-704.494 -224.95)"/>
        <path id="Path_51472" data-name="Path 51472" d="M706.333,227.287a.151.151,0,0,1-.045-.007l-1.906-.575a.154.154,0,0,1-.042-.275l2.486-1.676a.156.156,0,0,1,.13-.02l1.906.575a.154.154,0,0,1,.041.275l-2.486,1.676A.15.15,0,0,1,706.333,227.287Zm-1.552-.782,1.526.461,2.156-1.454-1.526-.461Z" transform="translate(-704.273 -224.728)"/>
      </g>
      <g id="Group_16407" data-name="Group 16407" transform="translate(15.112)">
        <path id="Path_51473" data-name="Path 51473" d="M704.614,223.9l2.485-1.676.2-1.962-2.485,1.676Z" transform="translate(-704.461 -220.111)" fill="#160e4d"/>
        <path id="Path_51474" data-name="Path 51474" d="M704.393,223.835a.151.151,0,0,1-.079-.022.153.153,0,0,1-.074-.147l.2-1.962a.154.154,0,0,1,.067-.112l2.485-1.676a.154.154,0,0,1,.239.143l-.2,1.962a.154.154,0,0,1-.067.112l-2.486,1.676A.153.153,0,0,1,704.393,223.835Zm.341-2.028-.156,1.564,2.155-1.453.156-1.565Z" transform="translate(-704.239 -219.889)" fill="#160e4d"/>
      </g>
    </g>
    <g id="Group_16412" data-name="Group 16412" transform="translate(398.136 148.497)">
      <g id="Group_16409" data-name="Group 16409" transform="translate(0 0)">
        <path id="Path_51475" data-name="Path 51475" d="M465.639,279.611a6.643,6.643,0,1,1,12.107,4.244l2.323,2.075a9.74,9.74,0,1,0-17.54-6.144Z" transform="translate(-462.376 -270.208)" fill="#fff"/>
        <path id="Path_51476" data-name="Path 51476" d="M479.848,285.861a.153.153,0,0,1-.1-.039l-2.323-2.075a.153.153,0,0,1-.024-.2,6.49,6.49,0,0,0-10.2-7.99,6.431,6.431,0,0,0-1.631,3.844.154.154,0,0,1-.145.142l-3.11.175a.155.155,0,0,1-.116-.044.152.152,0,0,1-.046-.115,9.894,9.894,0,1,1,17.816,6.241.153.153,0,0,1-.108.061Zm-2.121-2.254,2.1,1.873a9.647,9.647,0,0,0-1.394-12.749,9.587,9.587,0,0,0-15.961,6.669l2.807-.158a6.8,6.8,0,0,1,11.3-4.432A6.809,6.809,0,0,1,477.728,283.607Zm-12.31-4.219h0Z" transform="translate(-462.155 -269.987)"/>
      </g>
      <g id="Group_16410" data-name="Group 16410" transform="translate(9.901 14.768)">
        <path id="Path_51477" data-name="Path 51477" d="M490.87,306.4a6.625,6.625,0,0,1-4,1.608l-.18,3.1a9.714,9.714,0,0,0,6.5-2.636Z" transform="translate(-486.539 -306.247)" fill="#160e4d"/>
        <path id="Path_51478" data-name="Path 51478" d="M486.471,311.045a.154.154,0,0,1-.154-.162l.181-3.1a.153.153,0,0,1,.145-.145,6.509,6.509,0,0,0,3.9-1.571.154.154,0,0,1,.2,0l2.323,2.075a.154.154,0,0,1,0,.227,9.862,9.862,0,0,1-6.6,2.678Zm.326-3.112-.163,2.8a9.552,9.552,0,0,0,6.107-2.477l-2.1-1.873A6.821,6.821,0,0,1,486.8,307.933Z" transform="translate(-486.317 -306.026)" fill="#160e4d"/>
      </g>
      <g id="Group_16411" data-name="Group 16411" transform="translate(0.094 10.956)">
        <path id="Path_51479" data-name="Path 51479" d="M471.042,302.387a6.637,6.637,0,0,1-5.172-5.288l-3.109.175a9.742,9.742,0,0,0,8.1,8.229Z" transform="translate(-462.606 -296.945)" fill="#160e4d"/>
        <path id="Path_51480" data-name="Path 51480" d="M470.639,305.435l-.024,0a9.9,9.9,0,0,1-8.228-8.359.154.154,0,0,1,.143-.175l3.109-.175a.157.157,0,0,1,.16.125,6.484,6.484,0,0,0,5.053,5.166.154.154,0,0,1,.122.159l-.181,3.116a.154.154,0,0,1-.154.145Zm-7.923-8.239a9.59,9.59,0,0,0,7.78,7.905l.163-2.814a6.793,6.793,0,0,1-5.137-5.249Z" transform="translate(-462.385 -296.724)"/>
      </g>
    </g>
    <g id="Group_16428" data-name="Group 16428" transform="translate(460.265 65.516)">
      <g id="Group_16413" data-name="Group 16413" transform="translate(6.009 20.114)">
        <rect id="Rectangle_4017" data-name="Rectangle 4017" width="2.319" height="1.079" transform="translate(0.441 0.154) rotate(15.467)"/>
        <path id="Path_51481" data-name="Path 51481" d="M630.831,118.529a.16.16,0,0,1-.041-.006l-2.235-.619a.153.153,0,0,1-.107-.189l.288-1.04a.154.154,0,0,1,.189-.107l2.235.618a.155.155,0,0,1,.093.073.153.153,0,0,1,.014.117l-.288,1.04A.154.154,0,0,1,630.831,118.529Zm-2.046-.879,1.939.536.206-.744-1.939-.536Z" transform="translate(-628.442 -116.563)"/>
      </g>
      <g id="Group_16415" data-name="Group 16415" transform="translate(4.329 4.287)">
        <g id="Group_16414" data-name="Group 16414">
          <path id="Path_51482" data-name="Path 51482" d="M636.332,85.8a5.911,5.911,0,1,0-10.837,1.34c.849,1.5,1.525,2.508,1.066,4.166L630.49,92.4c.453-1.638,1.515-2.175,3-3A5.893,5.893,0,0,0,636.332,85.8Z" transform="translate(-624.568 -78.162)" fill="#fff"/>
          <path id="Path_51483" data-name="Path 51483" d="M630.265,92.326a.142.142,0,0,1-.041-.006L626.3,91.234a.154.154,0,0,1-.107-.189c.412-1.489-.134-2.444-.89-3.765L625.137,87a6.064,6.064,0,1,1,11.118-1.375h0a6.016,6.016,0,0,1-2.913,3.691l-.149.082c-1.421.783-2.359,1.3-2.78,2.82a.151.151,0,0,1-.072.093A.155.155,0,0,1,630.265,92.326Zm-3.741-1.349,3.637,1.006c.476-1.533,1.493-2.093,2.885-2.86l.149-.082a5.757,5.757,0,1,0-7.79-2.2l.161.283C626.3,88.419,626.894,89.448,626.523,90.978Zm9.584-5.4h0Z" transform="translate(-624.343 -77.937)"/>
        </g>
      </g>
      <g id="Group_16416" data-name="Group 16416" transform="translate(5.443 16.141)">
        <path id="Path_51484" data-name="Path 51484" d="M627.665,109.076l.507-1.833,4.65,1.287-.507,1.833a2.412,2.412,0,0,1-2.968,1.682h0A2.413,2.413,0,0,1,627.665,109.076Z" transform="translate(-627.366 -107.09)" fill="#160e4d"/>
        <path id="Path_51485" data-name="Path 51485" d="M629.865,112.124a2.316,2.316,0,0,1-.621-.085l-.486-.134a2.317,2.317,0,0,1-1.613-2.847h0l.575-2.076a.154.154,0,0,1,.189-.107l4.65,1.287a.154.154,0,0,1,.107.189l-.574,2.076a2.317,2.317,0,0,1-2.227,1.7Zm-2.424-2.984a2.006,2.006,0,0,0,1.4,2.469l.486.135a2.007,2.007,0,0,0,2.469-1.4l.534-1.928-4.354-1.2Z" transform="translate(-627.061 -106.868)"/>
      </g>
      <g id="Group_16417" data-name="Group 16417" transform="translate(6.498 17.23)">
        <path id="Path_51486" data-name="Path 51486" d="M633.274,110.621l-.014,0-3.586-.992a.051.051,0,1,1,.027-.1l3.586.992a.051.051,0,0,1-.014.1Z" transform="translate(-629.637 -109.526)"/>
      </g>
      <g id="Group_16418" data-name="Group 16418" transform="translate(8.023 11.723)">
        <path id="Path_51487" data-name="Path 51487" d="M636.993,97.179l-.014,0-3.586-.992a.051.051,0,0,1,.027-.1l3.586.992a.051.051,0,0,1-.014.1Z" transform="translate(-633.356 -96.084)"/>
      </g>
      <g id="Group_16419" data-name="Group 16419" transform="translate(12.456 0)">
        <path id="Path_51488" data-name="Path 51488" d="M644.329,69.988a.157.157,0,0,1-.041-.006.154.154,0,0,1-.107-.189l.61-2.2a.154.154,0,0,1,.3.082l-.61,2.2A.153.153,0,0,1,644.329,69.988Z" transform="translate(-644.175 -67.476)"/>
      </g>
      <g id="Group_16420" data-name="Group 16420" transform="translate(18.053 4.938)">
        <path id="Path_51489" data-name="Path 51489" d="M657.989,80.962a.154.154,0,0,1-.076-.287l1.99-1.128a.154.154,0,1,1,.152.267l-1.991,1.128A.152.152,0,0,1,657.989,80.962Z" transform="translate(-657.835 -79.527)"/>
      </g>
      <g id="Group_16421" data-name="Group 16421" transform="translate(18.849 12.149)">
        <path id="Path_51490" data-name="Path 51490" d="M662.136,98.043a.143.143,0,0,1-.041-.006l-2.2-.61a.153.153,0,1,1,.082-.3l2.2.61a.154.154,0,0,1-.041.3Z" transform="translate(-659.777 -97.126)"/>
      </g>
      <g id="Group_16422" data-name="Group 16422" transform="translate(4.887 0.744)">
        <path id="Path_51491" data-name="Path 51491" d="M626.985,71.589a.153.153,0,0,1-.134-.078l-1.128-1.991a.153.153,0,1,1,.267-.151l1.128,1.99a.154.154,0,0,1-.134.229Z" transform="translate(-625.704 -69.291)"/>
      </g>
      <g id="Group_16423" data-name="Group 16423" transform="translate(0 6.934)">
        <path id="Path_51492" data-name="Path 51492" d="M616.136,85.314a.156.156,0,0,1-.041-.005l-2.2-.61a.154.154,0,0,1,.082-.3l2.2.61a.154.154,0,0,1-.041.3Z" transform="translate(-613.777 -84.397)"/>
      </g>
      <g id="Group_16426" data-name="Group 16426" transform="translate(7.149 10.002)">
        <g id="Group_16424" data-name="Group 16424">
          <path id="Path_51493" data-name="Path 51493" d="M631.851,98.641a.168.168,0,0,1-.035,0,.154.154,0,0,1-.115-.184c.009-.041.933-4.122-.452-6.331a.154.154,0,1,1,.261-.163c1.453,2.318.531,6.391.491,6.564A.154.154,0,0,1,631.851,98.641Z" transform="translate(-631.225 -91.886)"/>
        </g>
        <g id="Group_16425" data-name="Group 16425" transform="translate(2.131 1.619)">
          <path id="Path_51494" data-name="Path 51494" d="M636.578,101.432a.158.158,0,0,1-.047-.007.153.153,0,0,1-.1-.193c.054-.168,1.358-4.136,3.8-5.378a.154.154,0,0,1,.139.274c-2.323,1.183-3.63,5.158-3.643,5.2A.153.153,0,0,1,636.578,101.432Z" transform="translate(-636.425 -95.836)"/>
        </g>
      </g>
      <g id="Group_16427" data-name="Group 16427" transform="translate(7.15 9.655)">
        <path id="Path_51495" data-name="Path 51495" d="M637.231,93.308a.157.157,0,0,1-.041-.006.775.775,0,0,1-.5-.517c-.084-.19-.14-.3-.306-.345s-.27.02-.44.139a.718.718,0,0,1-1.2-.333c-.084-.19-.141-.3-.306-.346s-.27.02-.44.139a.719.719,0,0,1-1.2-.333c-.085-.19-.141-.3-.307-.346s-.27.02-.44.139a.773.773,0,0,1-.7.184.153.153,0,1,1,.082-.3c.166.046.27-.02.44-.139a.719.719,0,0,1,1.2.333c.084.19.141.3.307.345s.27-.019.44-.139a.718.718,0,0,1,1.2.333c.084.19.141.3.306.345s.27-.02.44-.139a.718.718,0,0,1,1.2.333c.084.19.14.3.306.345a.154.154,0,0,1-.041.3Z" transform="translate(-631.227 -91.039)"/>
      </g>
    </g>
    <g id="Group_16432" data-name="Group 16432" transform="translate(486.986 95.759)">
      <g id="Group_16429" data-name="Group 16429" transform="translate(0 0)">
        <path id="Path_51496" data-name="Path 51496" d="M690.6,154.8l-.784-.517a1.845,1.845,0,0,0-2.748.907l-.323.883-2.364-.309-.085-.936a1.845,1.845,0,0,0-2.423-1.583l-.891.3-1.233-2.041.679-.65a1.845,1.845,0,0,0-.273-2.881l-.789-.511.828-2.236.931.125a1.845,1.845,0,0,0,2.082-2.01l-.092-.935,2.264-.747.483.806a1.845,1.845,0,0,0,2.87.375l.673-.655,2,1.3-.329.88a1.845,1.845,0,0,0,1.5,2.477l.932.118c.123,1.3.1,1.075.225,2.374l-.893.291a1.845,1.845,0,0,0-1,2.714l.489.8Z" transform="translate(-679.211 -141.503)" fill="#fff"/>
        <path id="Path_51497" data-name="Path 51497" d="M686.522,156l-.02,0-2.364-.309a.153.153,0,0,1-.133-.138l-.085-.935a1.691,1.691,0,0,0-2.221-1.451l-.891.3a.154.154,0,0,1-.18-.066l-1.233-2.041a.153.153,0,0,1,.025-.191l.679-.649a1.692,1.692,0,0,0-.25-2.641l-.788-.511a.153.153,0,0,1-.061-.182l.827-2.236a.153.153,0,0,1,.165-.1l.931.126a1.691,1.691,0,0,0,1.909-1.843l-.092-.935a.154.154,0,0,1,.1-.161l2.264-.747a.154.154,0,0,1,.18.067l.483.806a1.691,1.691,0,0,0,2.63.344l.674-.655a.154.154,0,0,1,.191-.018l2,1.3a.154.154,0,0,1,.06.182l-.329.88a1.691,1.691,0,0,0,1.371,2.271l.932.118a.153.153,0,0,1,.134.138l.225,2.374a.153.153,0,0,1-.105.161l-.893.291a1.691,1.691,0,0,0-.92,2.488l.488.8a.153.153,0,0,1-.025.191l-1.715,1.656a.153.153,0,0,1-.191.018l-.785-.517a1.691,1.691,0,0,0-2.519.832l-.322.882A.153.153,0,0,1,686.522,156Zm-2.223-.6,2.12.277.28-.767a2,2,0,0,1,2.977-.983l.682.45L691.9,152.9l-.425-.7a2,2,0,0,1,1.088-2.94l.776-.253-.2-2.129-.81-.1a2,2,0,0,1-1.621-2.684l.286-.765-1.79-1.169-.586.569a2,2,0,0,1-3.108-.406l-.419-.7-2.031.67.08.813a2,2,0,0,1-2.256,2.177l-.809-.109-.742,2.005.686.444a2,2,0,0,1,.3,3.121l-.59.565,1.106,1.83.774-.259a2,2,0,0,1,2.625,1.715Z" transform="translate(-678.99 -141.282)" fill="#160e4d"/>
      </g>
      <g id="Group_16430" data-name="Group 16430" transform="translate(3.82 3.848)">
        <circle id="Ellipse_18" data-name="Ellipse 18" cx="3.359" cy="3.359" r="3.359" transform="translate(0.154 0.154)" fill="#160e4d"/>
        <path id="Path_51498" data-name="Path 51498" d="M691.824,157.7a3.513,3.513,0,1,1,3.513-3.513A3.517,3.517,0,0,1,691.824,157.7Zm0-6.719a3.206,3.206,0,1,0,3.206,3.206A3.209,3.209,0,0,0,691.824,150.98Z" transform="translate(-688.311 -150.673)" fill="#160e4d"/>
      </g>
      <g id="Group_16431" data-name="Group 16431" transform="translate(4.993 5.021)">
        <path id="Path_51499" data-name="Path 51499" d="M695.922,156.1a2.186,2.186,0,1,1-2.186-2.186A2.186,2.186,0,0,1,695.922,156.1Z" transform="translate(-691.395 -153.757)" fill="#fff"/>
        <path id="Path_51500" data-name="Path 51500" d="M693.514,158.216a2.34,2.34,0,1,1,2.34-2.34A2.342,2.342,0,0,1,693.514,158.216Zm0-4.373a2.033,2.033,0,1,0,2.033,2.033A2.035,2.035,0,0,0,693.514,153.843Z" transform="translate(-691.174 -153.536)"/>
      </g>
    </g>
    <g id="Group_16435" data-name="Group 16435" transform="translate(411.809 130.679)">
      <g id="Group_16433" data-name="Group 16433" transform="translate(0 0)">
        <path id="Path_51501" data-name="Path 51501" d="M502.8,234.988l-.791-.445-1.353.4-.424.8-1.855-.449-.01-.908-1.022-.972-.908.034-.538-1.83.781-.463.331-1.371-.483-.769,1.316-1.382.791.445,1.353-.4.424-.8,1.855.449.01.908,1.022.973.908-.034.538,1.83-.781.463c-.13.538-.2.832-.331,1.371l.483.769Z" transform="translate(-495.745 -226.724)" fill="#fff"/>
        <path id="Path_51502" data-name="Path 51502" d="M500.01,235.676a.159.159,0,0,1-.036,0l-1.854-.449a.154.154,0,0,1-.118-.148l-.009-.843-.927-.883-.843.032a.154.154,0,0,1-.153-.11l-.538-1.83a.154.154,0,0,1,.069-.176l.726-.429.3-1.245-.449-.714a.154.154,0,0,1,.019-.188l1.316-1.382a.154.154,0,0,1,.187-.028l.735.413,1.228-.361.394-.746a.154.154,0,0,1,.172-.078l1.855.449a.154.154,0,0,1,.118.148l.009.843.927.883.843-.032a.151.151,0,0,1,.153.11l.538,1.831a.153.153,0,0,1-.069.175l-.726.429-.3,1.245.449.714a.154.154,0,0,1-.019.188l-1.316,1.382a.154.154,0,0,1-.187.028l-.735-.413-1.229.361-.394.746A.154.154,0,0,1,500.01,235.676Zm-1.7-.724,1.622.393.368-.7a.152.152,0,0,1,.093-.076l1.353-.4a.155.155,0,0,1,.118.014l.688.387,1.151-1.208-.42-.668a.153.153,0,0,1-.019-.118l.332-1.371a.154.154,0,0,1,.071-.1l.679-.4-.471-1.6-.788.03a.152.152,0,0,1-.112-.042l-1.021-.973a.155.155,0,0,1-.048-.11l-.009-.788-1.622-.393-.368.7a.152.152,0,0,1-.093.075l-1.353.4a.153.153,0,0,1-.118-.013l-.688-.387-1.151,1.208.42.668a.153.153,0,0,1,.019.118l-.332,1.371a.154.154,0,0,1-.071.1l-.679.4.471,1.6.788-.029a.15.15,0,0,1,.112.042l1.021.973a.154.154,0,0,1,.048.109Z" transform="translate(-495.524 -226.503)"/>
      </g>
      <g id="Group_16434" data-name="Group 16434" transform="translate(2.637 2.647)">
        <path id="Path_51503" data-name="Path 51503" d="M505.907,235.124a1.785,1.785,0,1,1-1.785-1.786A1.785,1.785,0,0,1,505.907,235.124Z" transform="translate(-502.182 -233.184)" fill="#fff"/>
        <path id="Path_51504" data-name="Path 51504" d="M503.9,236.842a1.939,1.939,0,1,1,1.939-1.939A1.941,1.941,0,0,1,503.9,236.842Zm0-3.571a1.632,1.632,0,1,0,1.632,1.632A1.634,1.634,0,0,0,503.9,233.27Z" transform="translate(-501.96 -232.963)"/>
      </g>
    </g>
    <g id="Group_16436" data-name="Group 16436" transform="translate(443.372 138.771)">
      <path id="Path_51505" data-name="Path 51505" d="M575.944,264.843a.153.153,0,0,1-.149-.118,166.64,166.64,0,0,1-3.243-18.3.154.154,0,1,1,.3-.036,166.325,166.325,0,0,0,3.238,18.269.154.154,0,0,1-.15.189Z" transform="translate(-572.55 -246.25)"/>
    </g>
    <g id="Group_16437" data-name="Group 16437" transform="translate(452.835 144.493)">
      <path id="Path_51506" data-name="Path 51506" d="M598.633,264.032a.153.153,0,0,1-.15-.123,14.642,14.642,0,0,0-1.132-3.37,8.028,8.028,0,0,1-1.555.114.154.154,0,0,1,0-.307h0a7.592,7.592,0,0,0,1.606-.13.155.155,0,0,1,.166.084,14.924,14.924,0,0,1,1.208,3.548.154.154,0,0,1-.12.182A.155.155,0,0,1,598.633,264.032Z" transform="translate(-595.646 -260.214)"/>
    </g>
    <g id="Group_16438" data-name="Group 16438" transform="translate(464.128 138.437)">
      <path id="Path_51507" data-name="Path 51507" d="M623.618,246.728a.153.153,0,0,1-.139-.087,2.891,2.891,0,0,1-.273-1.042.154.154,0,1,1,.306-.02,2.589,2.589,0,0,0,.244.93.154.154,0,0,1-.073.2A.152.152,0,0,1,623.618,246.728Z" transform="translate(-623.205 -245.434)"/>
    </g>
    <g id="Group_16439" data-name="Group 16439" transform="translate(371.503 87.258)">
      <path id="Path_51508" data-name="Path 51508" d="M398.654,123.525a1.5,1.5,0,1,1,1.5-1.5A1.5,1.5,0,0,1,398.654,123.525Zm0-2.683a1.188,1.188,0,1,0,1.188,1.188A1.19,1.19,0,0,0,398.654,120.842Z" transform="translate(-397.159 -120.535)"/>
    </g>
    <g id="Group_16440" data-name="Group 16440" transform="translate(471.379 145.814)">
      <path id="Path_51509" data-name="Path 51509" d="M642.4,266.43a1.5,1.5,0,1,1,1.5-1.5A1.5,1.5,0,0,1,642.4,266.43Zm0-2.684a1.188,1.188,0,1,0,1.188,1.188A1.19,1.19,0,0,0,642.4,263.746Z" transform="translate(-640.901 -263.439)"/>
    </g>
    <g id="Group_16441" data-name="Group 16441" transform="translate(449.055 64.175)">
      <path id="Path_51510" data-name="Path 51510" d="M587.914,67.192a1.5,1.5,0,1,1,1.5-1.5A1.5,1.5,0,0,1,587.914,67.192Zm0-2.683A1.188,1.188,0,1,0,589.1,65.7,1.189,1.189,0,0,0,587.914,64.509Z" transform="translate(-586.419 -64.202)"/>
    </g>
    <g id="Group_16442" data-name="Group 16442" transform="translate(428.738 143.366)">
      <path id="Path_51511" data-name="Path 51511" d="M537.92,259.629A1.083,1.083,0,1,1,539,258.546,1.084,1.084,0,0,1,537.92,259.629Zm0-1.858a.775.775,0,1,0,.775.776A.776.776,0,0,0,537.92,257.77Z" transform="translate(-536.837 -257.463)"/>
    </g>
    <g id="Group_16443" data-name="Group 16443" transform="translate(411.153 64.715)">
      <path id="Path_51512" data-name="Path 51512" d="M495.006,67.687a1.083,1.083,0,1,1,1.083-1.083A1.084,1.084,0,0,1,495.006,67.687Zm0-1.858a.775.775,0,1,0,.775.775A.776.776,0,0,0,495.006,65.828Z" transform="translate(-493.923 -65.521)"/>
    </g>
    <g id="Group_16444" data-name="Group 16444" transform="translate(382.718 156.312)">
      <rect id="Rectangle_4018" data-name="Rectangle 4018" width="3.245" height="3.245" transform="translate(2.448 0.154) rotate(45)" fill="#160e4d"/>
      <path id="Path_51513" data-name="Path 51513" d="M426.976,293.954a.155.155,0,0,1-.109-.045l-2.294-2.294a.153.153,0,0,1,0-.217l2.294-2.294a.154.154,0,0,1,.218,0l2.294,2.294a.153.153,0,0,1,0,.217l-2.294,2.294A.155.155,0,0,1,426.976,293.954Zm-2.077-2.448,2.077,2.077,2.077-2.077-2.077-2.077Z" transform="translate(-424.528 -289.058)" fill="#160e4d"/>
    </g>
    <g id="Group_16445" data-name="Group 16445" transform="translate(394.567 75.676)">
      <rect id="Rectangle_4019" data-name="Rectangle 4019" width="3.245" height="3.245" transform="translate(2.448 0.154) rotate(45.001)" fill="#160e4d"/>
      <path id="Path_51514" data-name="Path 51514" d="M455.894,97.168a.155.155,0,0,1-.109-.045l-2.294-2.294a.154.154,0,0,1,0-.218l2.294-2.294a.154.154,0,0,1,.218,0l2.294,2.294a.154.154,0,0,1,0,.218L456,97.122A.154.154,0,0,1,455.894,97.168Zm-2.077-2.448,2.077,2.077,2.077-2.077-2.077-2.077Z" transform="translate(-453.445 -92.271)" fill="#160e4d"/>
    </g>
    <g id="Group_16446" data-name="Group 16446" transform="translate(475.269 92.5)">
      <rect id="Rectangle_4020" data-name="Rectangle 4020" width="1.979" height="1.979" transform="translate(1.553 0.154) rotate(45)" fill="#160e4d"/>
      <path id="Path_51515" data-name="Path 51515" d="M651.946,136.434a.155.155,0,0,1-.109-.045l-1.4-1.4a.153.153,0,0,1,0-.217l1.4-1.4a.154.154,0,0,1,.218,0l1.4,1.4a.153.153,0,0,1,0,.217l-1.4,1.4A.155.155,0,0,1,651.946,136.434Zm-1.182-1.553,1.182,1.182,1.182-1.182-1.182-1.182Z" transform="translate(-650.394 -133.329)" fill="#160e4d"/>
    </g>
    <g id="Group_16447" data-name="Group 16447" transform="translate(445.492 169.966)">
      <rect id="Rectangle_4021" data-name="Rectangle 4021" width="1.979" height="1.979" transform="translate(1.553 0.154) rotate(45)"/>
      <path id="Path_51516" data-name="Path 51516" d="M579.278,325.485a.152.152,0,0,1-.109-.045l-1.4-1.4a.153.153,0,0,1,0-.217l1.4-1.4a.153.153,0,0,1,.217,0l1.4,1.4a.154.154,0,0,1,0,.217l-1.4,1.4A.152.152,0,0,1,579.278,325.485Zm-1.182-1.553,1.182,1.182,1.182-1.182-1.182-1.182Z" transform="translate(-577.725 -322.38)"/>
    </g>
    <g id="Group_16448" data-name="Group 16448" transform="translate(490.401 81.265)">
      <path id="Path_51517" data-name="Path 51517" d="M690.146,111.5h0a2.807,2.807,0,0,1-.984-.177.154.154,0,1,1,.107-.288,2.511,2.511,0,0,0,.877.157h0a2.5,2.5,0,0,0,.26-.013.154.154,0,1,1,.032.306A2.881,2.881,0,0,1,690.146,111.5Zm1.426-.415a.154.154,0,0,1-.083-.284,2.538,2.538,0,0,0,.8-.82.154.154,0,1,1,.263.159,2.844,2.844,0,0,1-.9.92A.153.153,0,0,1,691.573,111.089Zm-3.374-.427a.153.153,0,0,1-.112-.049,2.831,2.831,0,0,1-.645-1.115.154.154,0,1,1,.294-.089,2.526,2.526,0,0,0,.574.994.154.154,0,0,1-.112.259Zm4.6-1.6h-.013a.153.153,0,0,1-.141-.166c.006-.07.009-.141.009-.211a2.5,2.5,0,0,0-.176-.925.154.154,0,1,1,.286-.113,2.811,2.811,0,0,1,.2,1.038c0,.079,0,.158-.009.236A.154.154,0,0,1,692.8,109.06Zm-5.325-.224a.154.154,0,0,1-.154-.154,2.79,2.79,0,0,1,.294-1.255.154.154,0,1,1,.275.137,2.486,2.486,0,0,0-.262,1.118A.154.154,0,0,1,687.477,108.836Zm4.452-1.982a.153.153,0,0,1-.1-.04,2.521,2.521,0,0,0-1.005-.554.154.154,0,0,1,.083-.3,2.831,2.831,0,0,1,1.128.622.154.154,0,0,1-.1.268Zm-3.4-.143a.153.153,0,0,1-.093-.276,2.826,2.826,0,0,1,1.177-.524.154.154,0,0,1,.057.3,2.514,2.514,0,0,0-1.048.467A.155.155,0,0,1,688.531,106.712Z" transform="translate(-687.323 -105.909)"/>
    </g>
    <g id="Group_16449" data-name="Group 16449" transform="translate(364.249 138.616)">
      <path id="Path_51518" data-name="Path 51518" d="M382.272,251.461a2.8,2.8,0,0,1-1-.183.154.154,0,1,1,.109-.287,2.52,2.52,0,0,0,1.138.151.154.154,0,1,1,.03.306C382.457,251.457,382.364,251.461,382.272,251.461Zm1.415-.406a.154.154,0,0,1-.082-.284,2.538,2.538,0,0,0,.808-.816.154.154,0,1,1,.262.161,2.849,2.849,0,0,1-.906.915A.153.153,0,0,1,383.686,251.055Zm-3.37-.45a.153.153,0,0,1-.113-.05,2.829,2.829,0,0,1-.636-1.121.154.154,0,0,1,.3-.086,2.519,2.519,0,0,0,.566,1,.154.154,0,0,1-.113.258Zm4.609-1.573h-.014a.154.154,0,0,1-.14-.166c.007-.073.01-.148.01-.222a2.5,2.5,0,0,0-.172-.915.154.154,0,1,1,.286-.112,2.8,2.8,0,0,1,.193,1.027c0,.083,0,.166-.011.248A.154.154,0,0,1,384.925,249.033Zm-5.316-.235a.154.154,0,0,1-.154-.154,2.782,2.782,0,0,1,.294-1.254.154.154,0,1,1,.275.137,2.484,2.484,0,0,0-.262,1.117A.154.154,0,0,1,379.609,248.8Zm4.452-1.973a.153.153,0,0,1-.1-.04,2.521,2.521,0,0,0-1-.556.154.154,0,1,1,.083-.3,2.836,2.836,0,0,1,1.127.624.154.154,0,0,1-.1.268Zm-3.4-.15a.154.154,0,0,1-.093-.276,2.828,2.828,0,0,1,1.178-.522.154.154,0,0,1,.057.3,2.516,2.516,0,0,0-1.049.465A.154.154,0,0,1,380.665,246.674Z" transform="translate(-379.455 -245.873)"/>
    </g>
    <g id="Group_16450" data-name="Group 16450" transform="translate(410.976 70.557)">
      <path id="Path_51519" data-name="Path 51519" d="M499.118,85.8c-1.33-1.095-2.972-1.36-4.226-.149a3.764,3.764,0,0,0-.168,4.975c1.364,1.316,4.606,1.3,6.378,1.267,3.41-.059,6.879.1,10.29.1,6.391,0,5.7-5.49,3.993-6.661a2.18,2.18,0,0,0-2.707.22c.32-2.311-1.1-4.767-3.063-5.3s-4.17.945-4.762,3.182a2.935,2.935,0,0,0-3.522-.837A4.453,4.453,0,0,0,499.118,85.8Z" transform="translate(-493.71 -79.998)" fill="#fff"/>
      <path id="Path_51520" data-name="Path 51520" d="M511.172,91.931c-1.446,0-2.926-.03-4.358-.059-1.95-.039-3.966-.08-5.93-.046-1.636.028-5.039.087-6.488-1.31a3.335,3.335,0,0,1-.908-2.41,3.912,3.912,0,0,1,1.076-2.786,3.1,3.1,0,0,1,4.236-.011,4.505,4.505,0,0,1,2.242-3.061,3.048,3.048,0,0,1,3.521.668,4.713,4.713,0,0,1,2.093-2.6,3.643,3.643,0,0,1,2.778-.422,4.963,4.963,0,0,1,3.212,5.1,2.339,2.339,0,0,1,2.6,0,3.851,3.851,0,0,1,1.063,4.065C515.982,90.129,514.871,91.931,511.172,91.931Zm-8.734-.425c1.466,0,2.943.03,4.383.059s2.909.059,4.352.059c3.5,0,4.542-1.666,4.85-2.66a3.576,3.576,0,0,0-.944-3.72,2.036,2.036,0,0,0-2.516.205.153.153,0,0,1-.256-.134c.307-2.224-1.072-4.62-2.951-5.128a3.338,3.338,0,0,0-2.544.392,4.411,4.411,0,0,0-2.029,2.681.154.154,0,0,1-.267.059,2.8,2.8,0,0,0-3.336-.8,4.287,4.287,0,0,0-2.131,3.088.154.154,0,0,1-.248.088c-1.414-1.163-2.917-1.222-4.021-.157a3.6,3.6,0,0,0-.982,2.566,3.029,3.029,0,0,0,.814,2.189c1.357,1.309,4.8,1.25,6.269,1.224Q501.654,91.505,502.437,91.506Z" transform="translate(-493.489 -79.777)"/>
    </g>
    <g id="Group_16451" data-name="Group 16451" transform="translate(454.378 155.237)">
      <path id="Path_51521" data-name="Path 51521" d="M602.337,295.12c3.222.09,6.446.18,9.668.139,1.619-.021,3.487-.2,4.4-1.542a2.585,2.585,0,1,0-4.29-2.885,3.314,3.314,0,1,0-6.544-.487,1.956,1.956,0,0,0-1.625-1.116,3.531,3.531,0,0,0-4.064,2.714A2.46,2.46,0,0,0,602.337,295.12Z" transform="translate(-599.629 -286.656)" fill="#fff"/>
      <path id="Path_51522" data-name="Path 51522" d="M610.128,295.2c-2.687,0-5.388-.075-8.015-.149a2.642,2.642,0,0,1-2.221-1.076,2.759,2.759,0,0,1-.377-2.3,3.679,3.679,0,0,1,4.226-2.819,2.23,2.23,0,0,1,1.467.745,3.547,3.547,0,0,1,1.055-2.109,3.273,3.273,0,0,1,5.118.381,3.543,3.543,0,0,1,.731,2.242,2.843,2.843,0,0,1,1.41-.721,2.739,2.739,0,0,1,2.79,4.189c-.94,1.378-2.813,1.587-4.523,1.609Q610.96,295.2,610.128,295.2Zm-6.954-6.069a3.364,3.364,0,0,0-3.367,2.639,2.431,2.431,0,0,0,.337,2.029,2.375,2.375,0,0,0,1.978.946h0c3.166.089,6.439.18,9.662.138,1.63-.021,3.413-.213,4.273-1.475a2.431,2.431,0,0,0-4.034-2.713.154.154,0,0,1-.278-.118,3.149,3.149,0,1,0-6.241-.464.154.154,0,0,1-.3.068,1.79,1.79,0,0,0-1.5-1.021A5.153,5.153,0,0,0,603.174,289.131Z" transform="translate(-599.41 -286.435)"/>
    </g>
  </g>
</svg>
