<svg xmlns="http://www.w3.org/2000/svg" width="115" height="125" viewBox="0 0 115 125">
  <g id="Group_16998" data-name="Group 16998" transform="translate(22274 11271)">
    <rect id="Rectangle_4121" data-name="Rectangle 4121" width="115" height="125" transform="translate(-22274 -11271)" fill="none"/>
    <g id="Professional_development_of_teachers" data-name="Professional development of teachers" transform="translate(-22604.59 -11598.738)">
      <g id="Group_16544" data-name="Group 16544" transform="translate(339.707 339.385)">
        <path id="Path_51673" data-name="Path 51673" d="M522.307,408.6l69.348-.185a2.39,2.39,0,0,1,2.631,2.365l-4.06,64.9a2.5,2.5,0,0,1-2.631,1.979h-3.043l-.632-.326-87.105.316a2.487,2.487,0,0,1-2.647-2.478l4.062-64.591a2.541,2.541,0,0,1,2.587-2.1Z" transform="translate(-491.355 -408.398)" fill="#160e4d"/>
        <path id="Path_51674" data-name="Path 51674" d="M475.22,412.211h69.164a2.386,2.386,0,0,1,2.625,2.364l-4.026,64.654a2.491,2.491,0,0,1-2.628,1.982H449.8a2.386,2.386,0,0,1-2.625-2.364l4.026-64.654a2.491,2.491,0,0,1,2.625-1.978Z" transform="translate(-447.176 -411.975)" fill="#fff"/>
        <g id="Group_16543" data-name="Group 16543" transform="translate(1.44 0.116)">
          <path id="Path_51675" data-name="Path 51675" d="M563.177,479.369a.132.132,0,1,1,0-.265,2.3,2.3,0,0,0,2.42-1.864l4.026-64.441a1.76,1.76,0,0,0-.469-1.378,2.737,2.737,0,0,0-2.023-.838H476.575a2.375,2.375,0,0,0-2.494,1.857l-2.388,40.13a.132.132,0,1,1-.264-.016l2.387-40.137a2.607,2.607,0,0,1,2.756-2.1h90.556a2.964,2.964,0,0,1,2.221.926,2.021,2.021,0,0,1,.536,1.578l-4.026,64.441a2.561,2.561,0,0,1-2.682,2.1Z" transform="translate(-471.43 -410.313)"/>
          <path id="Path_51676" data-name="Path 51676" d="M1358.962,1559.594h-18.025a.133.133,0,0,1,0-.265h18.026a.133.133,0,1,1,0,.265Z" transform="translate(-1288.766 -1490.544)"/>
        </g>
      </g>
      <g id="Group_16545" data-name="Group 16545" transform="translate(404.443 343.606)">
        <path id="Path_51677" data-name="Path 51677" d="M1840.931,481.8h-7.391a.132.132,0,0,1,0-.265h7.391a1.249,1.249,0,1,0,0-2.5h-8.5a.132.132,0,1,1,0-.265h8.5a1.515,1.515,0,1,1,0,3.03Z" transform="translate(-1814.126 -478.775)"/>
        <path id="Path_51678" data-name="Path 51678" d="M1544.049,753.479h-8.079a1.515,1.515,0,0,1,0-3.03h8.079a1.515,1.515,0,0,1,0,3.03Zm-8.079-2.763a1.249,1.249,0,1,0,0,2.5h8.079a1.249,1.249,0,1,0,0-2.5Z" transform="translate(-1534.121 -734.189)"/>
        <path id="Path_51679" data-name="Path 51679" d="M1541.726,575.5h-5.181a1.515,1.515,0,0,1,0-3.03h4.846a.132.132,0,0,1,0,.265h-4.846a1.249,1.249,0,1,0,0,2.5h5.181a.132.132,0,1,1,0,.265Z" transform="translate(-1534.659 -566.864)"/>
        <path id="Path_51680" data-name="Path 51680" d="M1531.911,669.364h-1.494a1.514,1.514,0,1,1,0-3.028h4.8a.132.132,0,1,1,0,.265h-4.8a1.25,1.25,0,0,0,0,2.5h1.494a.132.132,0,1,1,0,.265Z" transform="translate(-1528.902 -655.11)"/>
      </g>
      <g id="Group_16546" data-name="Group 16546" transform="translate(345.577 369.351)">
        <path id="Path_51681" data-name="Path 51681" d="M708.647,985.909H696.819a.132.132,0,0,1,0-.265h11.827a.95.95,0,0,0,0-1.9H697.715a.132.132,0,1,1,0-.265h10.931a1.215,1.215,0,0,1,0,2.429Z" transform="translate(-687.626 -979.015)"/>
        <path id="Path_51682" data-name="Path 51682" d="M684.957,1059.294H673.972a.132.132,0,1,1,0-.265h10.985a.95.95,0,0,0,0-1.9H671.942a.133.133,0,1,1,0-.265h13.015a1.214,1.214,0,1,1,0,2.429Z" transform="translate(-664.243 -1048.008)"/>
        <path id="Path_51683" data-name="Path 51683" d="M565.869,1132.8H546.66a1.215,1.215,0,0,1,0-2.429h19.208a1.215,1.215,0,0,1,0,2.429Zm-19.208-2.164a.95.95,0,0,0,0,1.9h19.208a.95.95,0,1,0,0-1.9Z" transform="translate(-545.443 -1117.12)"/>
        <path id="Path_51684" data-name="Path 51684" d="M565.868,911.325H555.531a.132.132,0,1,1,0-.265h10.338a.95.95,0,0,0,0-1.9H546.659a.95.95,0,0,0-.69,1.6.133.133,0,0,1-.2.182,1.2,1.2,0,0,1-.329-.9,1.215,1.215,0,0,1,1.212-1.146h19.208a1.214,1.214,0,1,1,0,2.429Z" transform="translate(-545.442 -908.895)"/>
      </g>
      <g id="Group_16547" data-name="Group 16547" transform="translate(395.458 388.891)">
        <path id="Path_51685" data-name="Path 51685" d="M1474.308,1307.377h-13.685a1.144,1.144,0,0,1,0-2.288h13.685a1.144,1.144,0,1,1,0,2.288Zm-13.685-2.023a.88.88,0,0,0-.639,1.484.871.871,0,0,0,.639.276h13.685a.88.88,0,1,0,0-1.759Z" transform="translate(-1454.648 -1300.917)"/>
        <path id="Path_51686" data-name="Path 51686" d="M1402.4,1375.987h-17.958a1.142,1.142,0,1,1,0-2.285H1402.4a1.142,1.142,0,1,1,0,2.285Zm-17.958-2.023a.88.88,0,1,0,0,1.76H1402.4a.88.88,0,1,0,0-1.76Z" transform="translate(-1383.022 -1365.42)"/>
        <path id="Path_51687" data-name="Path 51687" d="M1397.91,1444.718h-17.958a1.142,1.142,0,1,1,0-2.285h17.958a1.142,1.142,0,1,1,0,2.285Zm-17.958-2.023a.88.88,0,1,0,0,1.76h17.958a.88.88,0,1,0,0-1.76Z" transform="translate(-1378.807 -1430.034)"/>
        <path id="Path_51688" data-name="Path 51688" d="M1397.91,1237.647h-17.958a1.144,1.144,0,1,1,0-2.288h17.958a1.144,1.144,0,1,1,0,2.288Zm-17.958-2.023a.88.88,0,1,0,0,1.76h17.958a.88.88,0,0,0,0-1.76Z" transform="translate(-1378.807 -1235.359)"/>
      </g>
      <g id="Group_16570" data-name="Group 16570" transform="translate(361.386 385.594)">
        <path id="Path_51689" data-name="Path 51689" d="M1045.79,1552.54h-21.436a1.124,1.124,0,1,0,0,2.248h18.559a1.122,1.122,0,0,1,1.12,1.19l-1.879,31.905,2.332-.088,2.423-34.049a1.122,1.122,0,0,0-1.12-1.206Z" transform="translate(-1010.44 -1530.255)" fill="#160e4d"/>
        <g id="Group_16564" data-name="Group 16564" transform="translate(0 0)">
          <g id="Group_16563" data-name="Group 16563" transform="translate(0 0)">
            <g id="Group_16555" data-name="Group 16555" transform="translate(5.935 6.035)">
              <g id="Group_16548" data-name="Group 16548" transform="translate(8.61 46.643)">
                <path id="Path_51690" data-name="Path 51690" d="M1067.635,2059.2l-.232,2.635,2.505.013.443-2.629Z" transform="translate(-1067.271 -2059.055)" fill="#fff"/>
                <path id="Path_51691" data-name="Path 51691" d="M1067.829,2059.893h0l-2.505-.013a.133.133,0,0,1-.1-.043.132.132,0,0,1-.034-.1l.232-2.639a.14.14,0,0,1,.133-.121l2.716.019a.132.132,0,0,1,.129.155l-.443,2.628A.132.132,0,0,1,1067.829,2059.893Zm-2.361-.277,2.248.011.4-2.364-2.439-.017Z" transform="translate(-1065.193 -2056.976)"/>
              </g>
              <g id="Group_16549" data-name="Group 16549" transform="translate(15.69 46.653)">
                <path id="Path_51692" data-name="Path 51692" d="M1186.034,2059.2l-.248,3.081,2.485.012.647-3.074Z" transform="translate(-1185.651 -2059.066)" fill="#fff"/>
                <path id="Path_51693" data-name="Path 51693" d="M1186.19,2060.343h0l-2.485-.012a.133.133,0,0,1-.133-.141l.248-3.08a.132.132,0,0,1,.132-.122h0l2.884.019a.133.133,0,0,1,.129.159l-.647,3.075A.133.133,0,0,1,1186.19,2060.343Zm-2.346-.277,2.234.011.591-2.811-2.6-.017Z" transform="translate(-1183.572 -2056.987)"/>
              </g>
              <g id="Group_16550" data-name="Group 16550" transform="translate(14.704 48.965)">
                <path id="Path_51694" data-name="Path 51694" d="M1172.824,2097.91h-2.649a.467.467,0,0,0-.428.248,6.169,6.169,0,0,0-.649,2.75.619.619,0,0,0,.651.535h7.769a.517.517,0,0,0,.557-.587,2.053,2.053,0,0,0-1.233-1.27c-1.379-.7-3.112-1.392-3.659-1.608A.986.986,0,0,0,1172.824,2097.91Z" transform="translate(-1168.969 -2097.772)" fill="#fff"/>
                <path id="Path_51695" data-name="Path 51695" d="M1175.443,2099.492h-7.769a.75.75,0,0,1-.782-.66,6.341,6.341,0,0,1,.662-2.815.6.6,0,0,1,.547-.325h2.648a1.121,1.121,0,0,1,.409.077c.509.2,2.279.911,3.67,1.613a2.181,2.181,0,0,1,1.3,1.36.561.561,0,0,1-.112.489.731.731,0,0,1-.575.26Zm-7.343-3.534a.337.337,0,0,0-.309.173,6.078,6.078,0,0,0-.636,2.687.489.489,0,0,0,.519.411h7.769a.467.467,0,0,0,.367-.164.3.3,0,0,0,.061-.26,2,2,0,0,0-1.163-1.184c-1.381-.7-3.142-1.4-3.648-1.6a.847.847,0,0,0-.312-.059Z" transform="translate(-1166.892 -2095.693)"/>
              </g>
              <g id="Group_16551" data-name="Group 16551" transform="translate(7.438 48.96)">
                <path id="Path_51696" data-name="Path 51696" d="M1051.454,2097.79h-2.648a.468.468,0,0,0-.428.248,6.172,6.172,0,0,0-.649,2.751.619.619,0,0,0,.651.535h7.769a.516.516,0,0,0,.557-.587,2.053,2.053,0,0,0-1.233-1.271c-1.379-.7-3.112-1.393-3.659-1.608A.981.981,0,0,0,1051.454,2097.79Z" transform="translate(-1047.598 -2097.662)" fill="#fff"/>
                <path id="Path_51697" data-name="Path 51697" d="M1054.073,2099.382H1046.3a.75.75,0,0,1-.782-.66,6.353,6.353,0,0,1,.662-2.815.6.6,0,0,1,.548-.325h2.648a1.108,1.108,0,0,1,.409.077c.509.2,2.277.91,3.67,1.613a2.181,2.181,0,0,1,1.3,1.36.562.562,0,0,1-.112.489A.732.732,0,0,1,1054.073,2099.382Zm-7.343-3.535a.34.34,0,0,0-.309.173,6.086,6.086,0,0,0-.636,2.687.488.488,0,0,0,.519.411h7.769a.468.468,0,0,0,.367-.164.3.3,0,0,0,.063-.259,2,2,0,0,0-1.164-1.185c-1.383-.7-3.142-1.4-3.648-1.6a.841.841,0,0,0-.312-.059Z" transform="translate(-1045.522 -2095.583)"/>
              </g>
              <g id="Group_16552" data-name="Group 16552" transform="translate(0 20.377)">
                <path id="Path_51698" data-name="Path 51698" d="M936.484,1628.342c.757,3.624-2.242,13.535-2.871,15.951a.7.7,0,0,1-.674.536h-2.794a.713.713,0,0,1-.7-.732c.025-2.866.524-13.315-1.185-16.324-.989-1.742-3.679-2.527-4.887-3.356-2.907-1.989-1.812-6.394-1.812-6.394l11.125,5.9a6.95,6.95,0,0,1,3.8,4.419Z" transform="translate(-921.359 -1618.023)" fill="#160e4d"/>
                <path id="Path_51699" data-name="Path 51699" d="M955.258,1635.027s9.584.09,12.609,3.856c2.716,3.386-1.865,18.291-2.708,21.274a.7.7,0,0,1-.671.521h-3.6a.139.139,0,0,1-.137-.143l.554-15.793a2.965,2.965,0,0,0-1.283-2.469,10.068,10.068,0,0,0-5.854-1.743c-8.958.069-7.364-5.632-7.364-5.632Z" transform="translate(-945.176 -1633.89)" fill="#160e4d"/>
              </g>
              <g id="Group_16554" data-name="Group 16554" transform="translate(8.497 0)">
                <g id="Group_16553" data-name="Group 16553" transform="translate(0)">
                  <path id="Path_51700" data-name="Path 51700" d="M1064.289,1289.857a.918.918,0,0,1-.891-1.138l2.541-10.44a.917.917,0,0,1,.891-.7l8.151-.022h0a.918.918,0,0,1,.891,1.138l-2.541,10.44a.917.917,0,0,1-.891.7l-8.151.021Zm0-.132Zm10.7-11.9h0l-8.151.021a.653.653,0,0,0-.634.5l-2.542,10.439a.654.654,0,0,0,.635.81h0l8.152-.021a.652.652,0,0,0,.633-.5l2.542-10.44a.653.653,0,0,0-.635-.81Z" transform="translate(-1063.371 -1277.559)"/>
                </g>
              </g>
            </g>
            <g id="Group_16556" data-name="Group 16556" transform="translate(24.094 7.625)">
              <path id="Path_51701" data-name="Path 51701" d="M1227.158,1308.979a.675.675,0,0,1,.945.163c.177.286.489.319.6-.173l.64-2.581c.08-.345,1.687.627.751,3.805-.075.253-.886,2.125-.918,2.166-.35.451-.847.357-1.289.064-.017-.012.13-.587.239-1a1.022,1.022,0,0,0-.107-.782l-.966-1.6Z" transform="translate(-1226.921 -1306.191)" fill="#fff"/>
              <path id="Path_51702" data-name="Path 51702" d="M1226.5,1310.718a1.412,1.412,0,0,1-.765-.268c-.1-.067-.1-.067.184-1.14a.88.88,0,0,0-.093-.677l-.965-1.6a.132.132,0,0,1,.036-.176l.1-.073a.808.808,0,0,1,1.131.2c.063.1.139.16.2.151s.124-.086.17-.279l.64-2.583a.209.209,0,0,1,.152-.157.6.6,0,0,1,.524.236c.262.265,1.06,1.322.331,3.8-.062.211-.88,2.132-.94,2.21a.866.866,0,0,1-.7.359Zm-.55-.445a.734.734,0,0,0,1.037-.072c.08-.154.833-1.9.9-2.129.655-2.224.009-3.216-.205-3.468a.7.7,0,0,0-.3-.23l-.63,2.541c-.089.375-.28.46-.385.477a.473.473,0,0,1-.458-.267.542.542,0,0,0-.755-.124h0l.9,1.493a1.147,1.147,0,0,1,.121.88c-.146.571-.2.805-.224.9Zm1.443-5.938Z" transform="translate(-1224.843 -1304.115)"/>
            </g>
            <g id="Group_16559" data-name="Group 16559" transform="translate(5.083 9.245)">
              <g id="Group_16558" data-name="Group 16558" transform="translate(0 0)">
                <g id="Group_16557" data-name="Group 16557">
                  <path id="Path_51703" data-name="Path 51703" d="M928.962,1336.791a30.223,30.223,0,0,1-2.789,4.587.441.441,0,0,1-.747-.144c-.554-1.556-1.857-4.818-3.439-6.182a6.686,6.686,0,0,0-4.9-1.669l-3.849.218h-.009c-3.892.443-3.7,6.105-3.7,6.105l-.221,13.16a29.56,29.56,0,0,0,4.951.684c2.086.118,4.887.017,5.953-.03,2.612-.116,2.971-1.811,2.971-1.811a5.545,5.545,0,0,1-1.564-1.231,4.288,4.288,0,0,1-.816-4.474,5,5,0,0,0,.328-1.858c.636.667,1.213,1.259,1.681,1.741a8.5,8.5,0,0,0,1.955,1.056,2.327,2.327,0,0,0,2.365-.3c3.242-2.8,4.388-9.857,4.388-9.857Z" transform="translate(-909.183 -1333.231)" fill="#fff"/>
                  <path id="Path_51704" data-name="Path 51704" d="M914.492,1351.618c-.788,0-1.591-.015-2.314-.056a29.968,29.968,0,0,1-4.975-.69.132.132,0,0,1-.1-.13l.221-13.16c0-.051-.153-5.773,3.8-6.234h.027l3.849-.218a6.754,6.754,0,0,1,4.993,1.7c1.576,1.357,2.855,4.492,3.478,6.239a.309.309,0,0,0,.523.1,30.276,30.276,0,0,0,2.769-4.559.133.133,0,0,1,.118-.073h2.557a.132.132,0,0,1,.131.153c-.047.293-1.192,7.136-4.432,9.936a2.459,2.459,0,0,1-2.5.325,8.566,8.566,0,0,1-2-1.085l-.123-.127c-.379-.391-.839-.863-1.335-1.381a5.139,5.139,0,0,1-.331,1.579,4.137,4.137,0,0,0,.79,4.336,5.365,5.365,0,0,0,1.527,1.2.133.133,0,0,1,.072.147c-.016.073-.41,1.8-3.095,1.916C917.426,1351.569,915.988,1351.618,914.492,1351.618Zm-7.124-.977a30.427,30.427,0,0,0,4.825.659c2.084.118,4.848.018,5.939-.03,2.122-.1,2.695-1.265,2.818-1.611a5.812,5.812,0,0,1-1.5-1.208,4.4,4.4,0,0,1-.844-4.612,4.849,4.849,0,0,0,.32-1.805.132.132,0,0,1,.228-.1c.581.609,1.122,1.165,1.556,1.613l.124.127a8.081,8.081,0,0,0,1.912,1.027,2.193,2.193,0,0,0,2.23-.286c2.9-2.508,4.12-8.576,4.312-9.62h-2.318a28.836,28.836,0,0,1-2.771,4.542.574.574,0,0,1-.971-.187c-.494-1.387-1.814-4.761-3.4-6.127a6.6,6.6,0,0,0-4.79-1.638l-3.845.218h-.009c-3.735.425-3.589,5.916-3.587,5.971Z" transform="translate(-907.105 -1331.111)"/>
                </g>
                <path id="Path_51705" data-name="Path 51705" d="M1069.541,1458.535a.13.13,0,0,1-.1-.042,12.166,12.166,0,0,1-2.449-3.922.133.133,0,1,1,.247-.1,11.907,11.907,0,0,0,2.4,3.837.132.132,0,0,1-.007.187.13.13,0,0,1-.089.038Z" transform="translate(-1057.416 -1447.017)"/>
              </g>
            </g>
            <g id="Group_16562" data-name="Group 16562">
              <g id="Group_16560" data-name="Group 16560" transform="translate(9.244 2.252)">
                <path id="Path_51706" data-name="Path 51706" d="M984.339,1216.658a4.7,4.7,0,0,0,.885,2.248.186.186,0,0,1,.025.221l-.3.5a.707.707,0,0,0-.064.137l-.495,1.455a.355.355,0,0,1-.306.24c-.31.026-1.107-.1-1.158.112-.3,1.258.045,1.616.067,2.711a.977.977,0,0,1-.776.96,5.005,5.005,0,0,1-2.385-.027,1.018,1.018,0,0,1-.645-1.223,7.677,7.677,0,0,0,.63-3.57l-.993-2.082a1.807,1.807,0,0,1,1.857-1.766Z" transform="translate(-978.697 -1216.434)" fill="#fff"/>
                <path id="Path_51707" data-name="Path 51707" d="M979,1223.411a4.7,4.7,0,0,1-1.28-.163,1.145,1.145,0,0,1-.732-1.389c.075-.242.147-.448.216-.646a6.426,6.426,0,0,0,.409-2.852l-.977-2.053a.13.13,0,0,1-.013-.06,1.914,1.914,0,0,1,.6-1.355,1.935,1.935,0,0,1,1.4-.54l3.657.091a.132.132,0,0,1,.128.117,4.593,4.593,0,0,0,.851,2.17.318.318,0,0,1,.041.377l-.293.5a.566.566,0,0,0-.052.111l-.495,1.456a.489.489,0,0,1-.42.328,3.512,3.512,0,0,1-.391,0,2.176,2.176,0,0,0-.652.029,3.572,3.572,0,0,0-.032,1.672,6.355,6.355,0,0,1,.107.99,1.1,1.1,0,0,1-.88,1.092A5.176,5.176,0,0,1,979,1223.411Zm-2.116-7.193.977,2.053a.131.131,0,0,1,.013.053,6.668,6.668,0,0,1-.422,2.975c-.068.2-.139.4-.213.637a.886.886,0,0,0,.561,1.059,4.923,4.923,0,0,0,2.313.024.844.844,0,0,0,.673-.828,5.992,5.992,0,0,0-.1-.951,3.843,3.843,0,0,1,.04-1.794c.062-.253.477-.235.917-.217a3.482,3.482,0,0,0,.359,0,.222.222,0,0,0,.2-.151l.495-1.454a.831.831,0,0,1,.075-.162l.293-.5a.055.055,0,0,0-.01-.065,4.6,4.6,0,0,1-.9-2.2l-3.544-.088a1.669,1.669,0,0,0-1.208.466,1.649,1.649,0,0,0-.508,1.144Z" transform="translate(-976.618 -1214.353)"/>
              </g>
              <path id="Path_51708" data-name="Path 51708" d="M957.313,1178.765a.445.445,0,0,1-.189.647l-.149.068L954.1,1180.9a.221.221,0,0,1-.226-.017.476.476,0,0,0-.547-.056.953.953,0,0,0,.408,1.478.183.183,0,0,1,.116.241,3.422,3.422,0,0,1-.2.4,1.9,1.9,0,0,1-3.157.154,3.9,3.9,0,0,1-.468-3.892C951.079,1176.409,955.37,1175.8,957.313,1178.765Z" transform="translate(-942.088 -1176.808)" fill="#160e4d"/>
              <path id="Path_51709" data-name="Path 51709" d="M830.469,1182.306a3.036,3.036,0,0,0-3.088-.911c-1.834.577-1.928,3.68-2.14,5.615-.749,6.814-2.412,9.295-2.95,9.911-.6.684,4.092.22,5.669-.319,4.552-1.551,2.15-5.934,1.941-6.723s-1.911-5.206.2-5.722l1.07-.911Z" transform="translate(-822.24 -1180.997)" fill="#160e4d"/>
              <g id="Group_16561" data-name="Group 16561" transform="translate(7.268 1.054)">
                <path id="Path_51710" data-name="Path 51710" d="M946.126,1198.858l.022.008a.391.391,0,0,0,.495-.227l.559-1.511a.382.382,0,0,0-.229-.489l-.022-.008a.391.391,0,0,0-.495.227l-.559,1.511a.382.382,0,0,0,.229.489Z" transform="translate(-945.741 -1196.471)" fill="#fff"/>
                <path id="Path_51711" data-name="Path 51711" d="M944.2,1196.941a.517.517,0,0,1-.178-.031L944,1196.9a.514.514,0,0,1-.308-.662l.559-1.511a.519.519,0,0,1,.664-.306l.022.009a.514.514,0,0,1,.307.662l-.559,1.511A.519.519,0,0,1,944.2,1196.941Zm-.109-.293.022.008a.254.254,0,0,0,.326-.149L945,1195a.248.248,0,0,0-.008-.191.252.252,0,0,0-.143-.131l-.022-.009a.254.254,0,0,0-.326.149l-.559,1.511a.246.246,0,0,0,.008.19A.25.25,0,0,0,944.09,1196.648Z" transform="translate(-943.659 -1194.392)"/>
              </g>
            </g>
          </g>
        </g>
        <g id="Group_16569" data-name="Group 16569" transform="translate(0.001 16.714)">
          <g id="Group_16565" data-name="Group 16565" transform="translate(2.977 20.022)">
            <path id="Path_51712" data-name="Path 51712" d="M877.669,1815.113H872.35V1796.15h-2.7v18.963h-5.608a2.541,2.541,0,0,0-2.541,2.541v.293h19.011a2.835,2.835,0,0,0-2.842-2.835Z" transform="translate(-861.364 -1796.014)" fill="#fff"/>
            <path id="Path_51713" data-name="Path 51713" d="M878.429,1816H859.417a.132.132,0,0,1-.132-.132v-.293a2.678,2.678,0,0,1,2.675-2.675h5.48v-18.834a.132.132,0,0,1,.132-.132h2.7a.132.132,0,0,1,.132.132V1812.9h5.181a2.973,2.973,0,0,1,2.97,2.97A.132.132,0,0,1,878.429,1816Zm-18.879-.265h18.743a2.709,2.709,0,0,0-2.7-2.573h-5.317a.132.132,0,0,1-.132-.132v-18.838h-2.436v18.834a.132.132,0,0,1-.132.132h-5.613a2.414,2.414,0,0,0-2.411,2.411Z" transform="translate(-859.285 -1793.935)"/>
          </g>
          <g id="Group_16568" data-name="Group 16568" transform="translate(0 0)">
            <g id="Group_16567" data-name="Group 16567">
              <g id="Group_16566" data-name="Group 16566">
                <path id="Path_51714" data-name="Path 51714" d="M816.162,1461.74h1.359a7.722,7.722,0,0,1,7.527,6.118l1.581,7.3a3.692,3.692,0,0,0,3.6,2.925h2.856a2.729,2.729,0,1,1,0,5.458h-4.638v.013h-8.161a6.09,6.09,0,0,1-5.937-4.824l-2.507-11.571a4.45,4.45,0,0,1,4.322-5.414Z" transform="translate(-811.61 -1461.608)" fill="#fff"/>
                <path id="Path_51715" data-name="Path 51715" d="M826.377,1481.6h-8.161a6.256,6.256,0,0,1-6.066-4.928l-2.507-11.571a4.6,4.6,0,0,1,.917-3.88,4.516,4.516,0,0,1,3.53-1.693h1.359a7.9,7.9,0,0,1,7.659,6.223l1.581,7.3a3.581,3.581,0,0,0,3.47,2.82h2.856a2.861,2.861,0,1,1,0,5.722h-4.586a.111.111,0,0,1-.051.012Zm-12.29-21.808a4.255,4.255,0,0,0-3.323,1.594,4.337,4.337,0,0,0-.864,3.658l2.507,11.572a5.994,5.994,0,0,0,5.808,4.719h8.113a.107.107,0,0,1,.05-.013h4.638a2.6,2.6,0,1,0,0-5.192H828.16a3.848,3.848,0,0,1-3.728-3.03l-1.582-7.3a7.638,7.638,0,0,0-7.4-6.014Z" transform="translate(-809.535 -1459.529)"/>
              </g>
            </g>
          </g>
        </g>
      </g>
      <g id="Group_16576" data-name="Group 16576" transform="translate(332.855 335)">
        <circle id="Ellipse_22" data-name="Ellipse 22" cx="13.136" cy="13.136" r="13.136" transform="translate(0 0)" fill="#438ffe"/>
        <g id="Group_16575" data-name="Group 16575" transform="translate(2.301 5.271)">
          <g id="Group_16571" data-name="Group 16571" transform="translate(3.393 5.385)">
            <path id="Path_51716" data-name="Path 51716" d="M430.154,515.232v6.508c0,1.955,3.268,3.547,7.3,3.547s7.3-1.588,7.3-3.547v-6.508Z" transform="translate(-430.024 -515.1)" fill="#fff"/>
            <path id="Path_51717" data-name="Path 51717" d="M435.375,523.34c-4.1,0-7.429-1.651-7.429-3.679v-6.508a.132.132,0,0,1,.132-.132h14.6a.132.132,0,0,1,.132.132v6.508C442.806,521.689,439.472,523.34,435.375,523.34Zm-7.166-10.055v6.375c0,1.883,3.215,3.415,7.166,3.415s7.166-1.532,7.166-3.415v-6.375Z" transform="translate(-427.946 -513.021)"/>
          </g>
          <g id="Group_16572" data-name="Group 16572" transform="translate(0.003 0.729)">
            <path id="Path_51718" data-name="Path 51718" d="M391.956,440.613l-7.488-3.168a.649.649,0,0,0-.436,0l-7.488,3.168h-2.98v.723a.226.226,0,0,0,.152.216l10.315,3.675a.65.65,0,0,0,.436,0l10.315-3.675a.226.226,0,0,0,.153-.216v-.723Z" transform="translate(-373.432 -437.279)" fill="#160e4d"/>
            <path id="Path_51719" data-name="Path 51719" d="M382.172,443.328a.781.781,0,0,1-.263-.045l-10.315-3.675a.358.358,0,0,1-.24-.34v-.723a.132.132,0,0,1,.132-.132h2.954l7.462-3.157a.79.79,0,0,1,.532,0l7.47,3.16h2.953a.132.132,0,0,1,.132.132v.723a.358.358,0,0,1-.241.34l-10.315,3.675a.78.78,0,0,1-.26.042Zm-10.557-4.652v.586a.1.1,0,0,0,.065.091l10.315,3.675a.52.52,0,0,0,.347,0l10.315-3.675a.1.1,0,0,0,.065-.091v-.586h-2.848a.132.132,0,0,1-.052-.011l-7.487-3.168a.516.516,0,0,0-.34,0l-7.48,3.165a.13.13,0,0,1-.052.011Z" transform="translate(-371.353 -435.209)" fill="#160e4d"/>
          </g>
          <g id="Group_16573" data-name="Group 16573" transform="translate(0 0)">
            <path id="Path_51720" data-name="Path 51720" d="M394.784,429.038l-10.315-3.675a.651.651,0,0,0-.436,0l-10.315,3.675a.229.229,0,0,0,0,.432l10.315,3.675a.649.649,0,0,0,.436,0l10.315-3.675a.23.23,0,0,0,0-.432Z" transform="translate(-373.429 -425.19)" fill="#fff"/>
            <path id="Path_51721" data-name="Path 51721" d="M382.172,431.239a.783.783,0,0,1-.263-.045l-10.314-3.675a.362.362,0,0,1,0-.684l10.315-3.675a.782.782,0,0,1,.525,0l10.315,3.675a.362.362,0,0,1,0,.684l-10.315,3.675a.783.783,0,0,1-.263.045Zm0-7.857a.52.52,0,0,0-.174.03l-10.315,3.675a.1.1,0,0,0,0,.183L382,430.946a.52.52,0,0,0,.347,0l10.315-3.675a.1.1,0,0,0,0-.183l-10.315-3.675A.521.521,0,0,0,382.172,423.382Z" transform="translate(-371.35 -423.114)"/>
          </g>
          <g id="Group_16574" data-name="Group 16574" transform="translate(15.765 9.218)">
            <path id="Path_51722" data-name="Path 51722" d="M637.6,579.224a.391.391,0,0,0-.391.362l-.4,5.742h1.564l-.4-5.742A.391.391,0,0,0,637.6,579.224Z" transform="translate(-636.688 -579.095)" fill="#fff"/>
            <path id="Path_51723" data-name="Path 51723" d="M636.3,583.381h-1.564a.132.132,0,0,1-.132-.142l.4-5.742a.521.521,0,0,1,1.039,0l.4,5.742a.132.132,0,0,1-.132.142Zm-1.426-.265h1.285l-.391-5.6a.256.256,0,0,0-.511,0Z" transform="translate(-634.609 -577.016)"/>
          </g>
          <path id="Path_51724" data-name="Path 51724" d="M555.862,494.227a.132.132,0,0,1-.132-.132v-2.943l-5.767-2.144a.132.132,0,1,1,.092-.248l5.855,2.176a.132.132,0,0,1,.086.124v3.035a.132.132,0,0,1-.134.132Z" transform="translate(-539.186 -484.819)"/>
        </g>
      </g>
      <g id="Group_16595" data-name="Group 16595" transform="translate(333.114 369.808)">
        <g id="Group_16585" data-name="Group 16585" transform="translate(2.887 27.431)">
          <g id="Group_16579" data-name="Group 16579" transform="translate(0 37.647)">
            <g id="Group_16577" data-name="Group 16577" transform="translate(1.928 0)">
              <path id="Path_51725" data-name="Path 51725" d="M422.327,2005.95l-.675,4.742-1.728.007-.081-4.663Z" transform="translate(-419.709 -2005.822)" fill="#fff"/>
              <path id="Path_51726" data-name="Path 51726" d="M417.845,2008.754a.132.132,0,0,1-.132-.13l-.081-4.663a.133.133,0,0,1,.128-.135l2.485-.084a.129.129,0,0,1,.1.044.132.132,0,0,1,.032.107l-.675,4.742a.132.132,0,0,1-.131.113l-1.728.007Zm.053-4.668.077,4.4,1.483-.006.637-4.473Z" transform="translate(-417.632 -2003.742)"/>
            </g>
            <g id="Group_16578" data-name="Group 16578" transform="translate(0 3.602)">
              <path id="Path_51727" data-name="Path 51727" d="M391.465,2071.759a15.957,15.957,0,0,1-3.037-.018.834.834,0,0,1-.745-.968,10.8,10.8,0,0,1,1.716-4.594l.455.649.27-.671c.043-.072,1.189-.12,1.213.017l.069.654.65-.728-.035,2.393a3.622,3.622,0,0,0,.074.782l.171.827a1.574,1.574,0,0,1-.372,1.4A.751.751,0,0,1,391.465,2071.759Z" transform="translate(-387.537 -2065.957)" fill="#fff"/>
              <path id="Path_51728" data-name="Path 51728" d="M388.078,2069.922c-.489,0-1.063-.021-1.736-.081a.946.946,0,0,1-.673-.366.978.978,0,0,1-.2-.754c.055-.337.571-3.335,1.748-4.666a.133.133,0,0,1,.207.012l.316.449.179-.445a.151.151,0,0,1,.009-.019c.109-.182,1.089-.132,1.224-.106.058.01.21.039.233.167l.039.367.452-.506a.132.132,0,0,1,.231.09l-.035,2.393a3.508,3.508,0,0,0,.071.758l.171.827a1.7,1.7,0,0,1-.406,1.513.865.865,0,0,1-.512.3,12.444,12.444,0,0,1-1.322.064Zm-.762-5.562a11.364,11.364,0,0,0-1.577,4.4.71.71,0,0,0,.14.549.685.685,0,0,0,.489.266,15.751,15.751,0,0,0,3.012.018.631.631,0,0,0,.347-.22,1.439,1.439,0,0,0,.339-1.279l-.171-.827a3.767,3.767,0,0,1-.077-.815l.03-2.037-.413.463a.132.132,0,0,1-.231-.074l-.064-.594a3.729,3.729,0,0,0-.985.01l-.25.619a.132.132,0,0,1-.231.027Z" transform="translate(-385.462 -2063.92)"/>
            </g>
            <path id="Path_51729" data-name="Path 51729" d="M401.55,2143.51a10,10,0,0,1-1.728-.153.132.132,0,1,1,.046-.261,8.571,8.571,0,0,0,2.875.056.133.133,0,0,1,.053.26,6.843,6.843,0,0,1-1.245.1Z" transform="translate(-398.857 -2134.758)"/>
            <path id="Path_51730" data-name="Path 51730" d="M412.932,2115.514h-1.564a.132.132,0,0,1,0-.265h1.564a.132.132,0,1,1,0,.265Z" transform="translate(-409.688 -2108.574)"/>
          </g>
          <g id="Group_16582" data-name="Group 16582" transform="translate(16.421 37.599)">
            <g id="Group_16580" data-name="Group 16580" transform="translate(0.396 0)">
              <path id="Path_51731" data-name="Path 51731" d="M668.592,2005.689l.608,5.527,2.324.489-.142-6.481Z" transform="translate(-668.46 -2005.089)" fill="#fff"/>
              <path id="Path_51732" data-name="Path 51732" d="M669.447,2009.755h-.027l-2.324-.489a.132.132,0,0,1-.1-.115l-.608-5.527a.132.132,0,0,1,.109-.145l2.792-.467a.133.133,0,0,1,.155.128l.142,6.481a.133.133,0,0,1-.132.135Zm-2.2-.729,2.067.433-.135-6.158-2.517.421Z" transform="translate(-666.382 -2003.01)"/>
            </g>
            <g id="Group_16581" data-name="Group 16581" transform="translate(0 4.984)">
              <path id="Path_51733" data-name="Path 51733" d="M662,2092.066a6.984,6.984,0,0,1,.538-3.617l1.857.662v-.4a.233.233,0,0,1,.208-.241l1.037-.059a2.255,2.255,0,0,1,1.126.232c1.043.513,4.215,1.828,4.655,3.306a.7.7,0,0,1-.666.885c-1.044.031-3.554.063-8.059-.091a.725.725,0,0,1-.7-.68Z" transform="translate(-661.846 -2088.281)" fill="#fff"/>
              <path id="Path_51734" data-name="Path 51734" d="M666.6,2090.921c-1.384,0-3.34-.027-5.982-.116a.851.851,0,0,1-.826-.811c-.053-1-.05-2.8.56-3.694a.132.132,0,0,1,.154-.05l1.683.6v-.21a.365.365,0,0,1,.332-.373l1.037-.06a2.4,2.4,0,0,1,1.193.245c.124.062.28.134.456.217,1.35.634,3.863,1.812,4.268,3.17a.8.8,0,0,1-.123.7.859.859,0,0,1-.667.353C668.236,2090.9,667.554,2090.921,666.6,2090.921Zm-6.544-.941a.587.587,0,0,0,.571.56c4.458.152,6.958.122,8.051.091a.586.586,0,0,0,.459-.243.538.538,0,0,0,.084-.472c-.371-1.244-2.907-2.434-4.126-3.006-.179-.084-.335-.157-.46-.219a2.137,2.137,0,0,0-1.061-.218l-1.037.059a.1.1,0,0,0-.083.109v.4a.133.133,0,0,1-.177.125l-1.759-.628a7.221,7.221,0,0,0-.461,3.438Z" transform="translate(-659.77 -2086.204)"/>
            </g>
            <path id="Path_51735" data-name="Path 51735" d="M680.708,2141.057a44.421,44.421,0,0,1-5.048-.284.132.132,0,1,1,.03-.263,42.878,42.878,0,0,0,7.271.218.132.132,0,1,1,.02.263C682.964,2140.989,682.091,2141.057,680.708,2141.057Z" transform="translate(-674.598 -2132.275)"/>
            <path id="Path_51736" data-name="Path 51736" d="M722.008,2098.844a.129.129,0,0,1-.077-.024l-1.791-1.289a.132.132,0,1,1,.154-.215l1.791,1.287a.132.132,0,0,1-.077.24Z" transform="translate(-716.474 -2091.645)"/>
          </g>
          <g id="Group_16584" data-name="Group 16584" transform="translate(0.849 0)">
            <g id="Group_16583" data-name="Group 16583" transform="translate(0)">
              <path id="Path_51737" data-name="Path 51737" d="M418.48,1379.219s3.332,22.861,2.623,38.122l-1.04.1a11.267,11.267,0,0,1-1.682.041l-.986-.05s-3.974-23.178-5.963-27.027c0,0-5.4,20.612-5.6,26.2a11.449,11.449,0,0,1-3.355-.1c-.513-5.389-.662-10.967-.684-14.467-.073-10.023.88-14.576,1.41-16.735.482-1.983,1-3.6,1.377-4.685l1.262-3.6Z" transform="translate(-401.656 -1376.877)" fill="#fff"/>
              <path id="Path_51738" data-name="Path 51738" d="M416.863,1415.551q-.285,0-.569-.015l-.986-.05a.132.132,0,0,1-.124-.109c-.039-.226-3.794-22.042-5.793-26.662-.714,2.756-5.318,20.709-5.508,25.813a.133.133,0,0,1-.119.127,11.35,11.35,0,0,1-3.412-.111.132.132,0,0,1-.087-.111c-.548-5.759-.667-11.545-.684-14.481-.07-9.532.773-14.134,1.413-16.768.385-1.583.849-3.164,1.381-4.7l1.262-3.6a.133.133,0,0,1,.148-.087l12.643,2.208a.132.132,0,0,1,.109.111c.033.229,3.323,23.048,2.624,38.144a.133.133,0,0,1-.119.125l-1.04.1A11.272,11.272,0,0,1,416.863,1415.551Zm-1.436-.323.88.044a11.123,11.123,0,0,0,1.662-.041l.926-.093c.657-14.575-2.382-36.265-2.613-37.885l-12.437-2.172-1.225,3.494c-.529,1.525-.99,3.1-1.373,4.672-.637,2.62-1.475,7.2-1.406,16.7.022,2.917.138,8.651.678,14.369a11.266,11.266,0,0,0,3.1.08c.275-5.7,5.55-25.9,5.6-26.109a.132.132,0,0,1,.245-.027C411.4,1391.994,415.1,1413.322,415.427,1415.229Z" transform="translate(-399.576 -1374.799)"/>
            </g>
            <path id="Path_51739" data-name="Path 51739" d="M557.813,1559.85a.133.133,0,0,1-.128-.167l.554-2.018a1.623,1.623,0,0,1,1.242-1.165l.519-.107a.132.132,0,1,1,.054.259l-.519.108a1.36,1.36,0,0,0-1.041.978l-.554,2.017a.132.132,0,0,1-.127.1Z" transform="translate(-548.219 -1545.525)"/>
            <path id="Path_51740" data-name="Path 51740" d="M435.463,1502.068a.132.132,0,1,1-.022-.263,4.073,4.073,0,0,0,3.49-2.778.132.132,0,1,1,.257.063,4.406,4.406,0,0,1-3.7,2.976Z" transform="translate(-433.193 -1491.497)"/>
            <path id="Path_51741" data-name="Path 51741" d="M654.869,1484.869a.129.129,0,0,1-.053-.011,2.772,2.772,0,0,1-1.752-2.5.133.133,0,0,1,.265.01,2.465,2.465,0,0,0,1.593,2.248.133.133,0,0,1-.053.254Z" transform="translate(-637.894 -1475.802)"/>
          </g>
        </g>
        <g id="Group_16590" data-name="Group 16590" transform="translate(0 10.28)">
          <path id="Path_51742" data-name="Path 51742" d="M357.432,1088.219a58.551,58.551,0,0,0-10.145-.4,6.539,6.539,0,0,0-3.128,1.327c-2.189,1.889-6.317,6.048-7.008,11.039a1.413,1.413,0,0,0,1.095,1.571l3.812.845s-1.521,5.994-1.4,7.029,3.274,2.8,7.215,1.352c3.073-1.127,7.423-2.022,10.184-1.051.026.009.293,2.131.318,2.135.887.129,1.78-.216,1.759-1.466l-.42-6.472,5.056-.668.452-.151a2.512,2.512,0,0,0,1.545-3.3c-1.188-3.023-2.979-7.917-6.3-10.62a6.953,6.953,0,0,0-3.037-1.17Z" transform="translate(-337.138 -1087.755)" fill="#438ffe"/>
          <g id="Group_16588" data-name="Group 16588" transform="translate(17.116 7.732)">
            <g id="Group_16586" data-name="Group 16586" transform="translate(0 0)">
              <path id="Path_51743" data-name="Path 51743" d="M626.1,1232.232H634a.747.747,0,0,0,.724-.567l2.737-11.021a.747.747,0,0,0-.724-.927H628.83a.746.746,0,0,0-.724.567l-2.737,11.021a.747.747,0,0,0,.727.927Z" transform="translate(-625.218 -1219.576)" fill="#fff"/>
              <path id="Path_51744" data-name="Path 51744" d="M631.918,1230.276h-7.9a.88.88,0,0,1-.853-1.091l2.737-11.021a.88.88,0,0,1,.853-.668h7.9a.88.88,0,0,1,.853,1.091l-2.737,11.021a.88.88,0,0,1-.853.668Zm-5.167-12.512a.613.613,0,0,0-.6.466l-2.737,11.021a.614.614,0,0,0,.6.763h7.9a.613.613,0,0,0,.6-.466l2.737-11.021a.614.614,0,0,0-.6-.762Z" transform="translate(-623.139 -1217.496)"/>
            </g>
            <g id="Group_16587" data-name="Group 16587" transform="translate(6.313 5.296)">
              <path id="Path_51745" data-name="Path 51745" d="M735.341,1308.422l-.266,1.112-.955-.318a7.445,7.445,0,0,1-1.505-.7l-.548-.332a.751.751,0,0,0-1.1.4c-.338.959-.271,2.565,3.169,3.575,1.9.557,2.444-1.876,2.2-3.226a1.135,1.135,0,0,0-.407-.706.367.367,0,0,0-.585.195Z" transform="translate(-730.702 -1307.951)" fill="#fff"/>
              <path id="Path_51746" data-name="Path 51746" d="M732.6,1310.3a2,2,0,0,1-.563-.086c-1.662-.489-2.731-1.173-3.171-2.029a2.129,2.129,0,0,1-.086-1.715.885.885,0,0,1,1.293-.466l.548.332a7.317,7.317,0,0,0,1.479.684l.818.273.232-.972h0a.5.5,0,0,1,.8-.267,1.264,1.264,0,0,1,.454.782,3.664,3.664,0,0,1-.789,3.077,1.475,1.475,0,0,1-1.012.387Zm-2.983-4.16a.622.622,0,0,0-.586.417,1.845,1.845,0,0,0,.071,1.507c.406.791,1.417,1.429,3.01,1.9a1.309,1.309,0,0,0,1.323-.243,3.381,3.381,0,0,0,.706-2.835,1.008,1.008,0,0,0-.36-.627.235.235,0,0,0-.374.124l-.265,1.111a.132.132,0,0,1-.17.1l-.955-.318a7.568,7.568,0,0,1-1.533-.708l-.548-.333a.615.615,0,0,0-.319-.095Z" transform="translate(-728.639 -1305.873)"/>
            </g>
          </g>
          <g id="Group_16589" data-name="Group 16589" transform="translate(0.369 6.221)">
            <path id="Path_51747" data-name="Path 51747" d="M354.832,1195.192a6.059,6.059,0,0,1-1.336,1.031,75.242,75.242,0,0,0-6.606,4.073c-1.256,1.075-1.857,1.473-.847,4.234,1.645,4.5,9.315-7.051,9.315-7.051s2.248.408,2.758-1.564a4.136,4.136,0,0,0,1.662.008.459.459,0,0,0-.142-.87l-3.24-.6a1.369,1.369,0,0,0-1.22.391Z" transform="translate(-345.403 -1194.295)" fill="#fff"/>
            <path id="Path_51748" data-name="Path 51748" d="M345.23,1203.627a1.407,1.407,0,0,1-.16-.009,1.479,1.479,0,0,1-1.185-1.117c-1.011-2.764-.413-3.272.775-4.284l.11-.1a75.19,75.19,0,0,1,6.626-4.088,5.913,5.913,0,0,0,1.307-1.009h0l.346-.354a1.5,1.5,0,0,1,1.338-.429l3.241.6a.569.569,0,0,1,.5.5.586.586,0,0,1-.334.624,3.748,3.748,0,0,1-1.621.021,2.469,2.469,0,0,1-2.79,1.558C352.821,1196.394,347.887,1203.627,345.23,1203.627Zm7.663-10.417a6.2,6.2,0,0,1-1.368,1.055,75.3,75.3,0,0,0-6.585,4.058l-.11.1c-1.163.991-1.645,1.4-.7,3.992.214.586.53.894.967.945a1.2,1.2,0,0,0,.141.008c2.608,0,7.918-7.95,7.973-8.032a.133.133,0,0,1,.134-.057c.087.016,2.138.361,2.607-1.466a.132.132,0,0,1,.153-.1,3.845,3.845,0,0,0,1.586.016.325.325,0,0,0,.177-.345.308.308,0,0,0-.285-.273l-3.246-.6a1.236,1.236,0,0,0-1.1.353Z" transform="translate(-343.371 -1192.216)"/>
          </g>
        </g>
        <g id="Group_16594" data-name="Group 16594" transform="translate(11.637 0)">
          <g id="Group_16591" data-name="Group 16591" transform="translate(0 4.981)">
            <path id="Path_51749" data-name="Path 51749" d="M539.418,1003.368l.242,3.374a1.075,1.075,0,0,0,.8.912l1.186.309-.769.586a4.771,4.771,0,0,1-5.774.005l-1.217-.923,1.472-.328a1.075,1.075,0,0,0,.825-.86l.65-4.465Z" transform="translate(-533.748 -1001.84)" fill="#fff"/>
            <path id="Path_51750" data-name="Path 51750" d="M535.9,1007.57a4.9,4.9,0,0,1-2.964-.993l-1.217-.923a.132.132,0,0,1,.051-.235l1.472-.328a.942.942,0,0,0,.723-.755l.65-4.46a.132.132,0,0,1,.2-.1l2.586,1.391a.132.132,0,0,1,.069.107l.242,3.374a.937.937,0,0,0,.7.794l1.186.309a.132.132,0,0,1,.047.234l-.769.587a4.9,4.9,0,0,1-2.971,1Zm-3.793-1.955.99.751a4.652,4.652,0,0,0,5.614,0l.552-.421-.922-.24a1.2,1.2,0,0,1-.9-1.024l-.237-3.308-2.356-1.271-.624,4.277a1.208,1.208,0,0,1-.928.971Z" transform="translate(-531.669 -999.762)"/>
          </g>
          <g id="Group_16593" data-name="Group 16593" transform="translate(2.315)">
            <path id="Path_51751" data-name="Path 51751" d="M577.48,918.327c-.811-.429-.158.907-2.826-1.4-1.062-.92-1.1.8-1.377.559-1.021-.88-.984-.849-1.629-.961-.426-.074-1,.514-1.166,1.075-.224.735.265,1.173.1,2.866-.117,1.189-.489,1.772-.149,2.11s.91-.076,1.317.268c.526.446-.074,1.437.314,2.139.244.443,1.049.964,2.737.924a.574.574,0,0,0,.551-.48c.058-.348.127-.788.159-1.213.151-2.029-.285-2.7.145-3.05.659-.532,1.779.459,2.254-.008a2.016,2.016,0,0,0-.428-2.828Z" transform="translate(-570.292 -916.517)" fill="#160e4d"/>
            <g id="Group_16592" data-name="Group 16592" transform="translate(2.954 2.597)">
              <path id="Path_51752" data-name="Path 51752" d="M621.922,962.4l.033.554a5.667,5.667,0,0,1-.007.782c-.038.489-.1,1.331-.1,1.805,0,.7,2.156.832,2.156.832l.273-.3.252.011a.283.283,0,0,0,.142-.028.272.272,0,0,0,.144-.285,9.788,9.788,0,0,1-.083-3.03,2.944,2.944,0,0,0-2.812-.336Z" transform="translate(-621.724 -962.055)" fill="#fff"/>
              <path id="Path_51753" data-name="Path 51753" d="M621.934,964.4h-.009c-.38-.024-2.276-.183-2.281-.964,0-.489.058-1.347.1-1.816a5.59,5.59,0,0,0,.006-.765l-.033-.554a.133.133,0,0,1,.084-.131,3.051,3.051,0,0,1,2.95.361.132.132,0,0,1,.047.127,9.774,9.774,0,0,0,.083,2.982.4.4,0,0,1-.422.468l-.191-.008-.232.257A.132.132,0,0,1,621.934,964.4Zm-1.955-4.018.027.456a5.846,5.846,0,0,1-.007.8c-.036.466-.1,1.319-.1,1.795,0,.385,1.131.635,1.969.7l.23-.256a.131.131,0,0,1,.1-.044l.252.011a.152.152,0,0,0,.075-.014.14.14,0,0,0,.074-.147,10.023,10.023,0,0,1-.1-2.992,2.8,2.8,0,0,0-2.527-.306Z" transform="translate(-619.645 -959.941)"/>
            </g>
            <path id="Path_51754" data-name="Path 51754" d="M600.5,975.773s-.079-1.332-.676-1.164a.673.673,0,1,0,.676,1.164Z" transform="translate(-597.725 -971.119)" fill="#fff"/>
          </g>
        </g>
      </g>
      <g id="Group_16600" data-name="Group 16600" transform="translate(404.998 411.919)">
        <g id="Group_16599" data-name="Group 16599" transform="translate(0 0)">
          <g id="Group_16596" data-name="Group 16596" transform="translate(0.024)">
            <path id="Path_51755" data-name="Path 51755" d="M1578.139,1622.229l-10.063,9.052-27.247-.085a.04.04,0,0,1-.032-.07l9.912-8.915Z" transform="translate(-1540.651 -1622.079)" fill="#fff"/>
            <path id="Path_51756" data-name="Path 51756" d="M1566,1629.335h0l-27.247-.085a.176.176,0,0,1-.166-.112.169.169,0,0,1,.046-.188l9.912-8.916a.133.133,0,0,1,.089-.034h0l27.43.019a.132.132,0,0,1,.088.231l-10.063,9.051a.132.132,0,0,1-.088.034Zm-27.013-.349,26.962.084,9.769-8.788-27.034-.018Z" transform="translate(-1538.573 -1620)"/>
          </g>
          <g id="Group_16597" data-name="Group 16597" transform="translate(27.363 0.021)">
            <path id="Path_51757" data-name="Path 51757" d="M2007.579,1622.65v23.166l-9.911,8.92a.062.062,0,0,1-.1-.039v-23.005S2007.443,1622.65,2007.579,1622.65Z" transform="translate(-1997.431 -1622.513)" fill="#fff"/>
            <path id="Path_51758" data-name="Path 51758" d="M1995.545,1652.8a.2.2,0,0,1-.081-.018.185.185,0,0,1-.113-.17v-23.006a.133.133,0,0,1,.043-.1c9.907-9.07,10.036-9.076,10.1-9.079a.132.132,0,0,1,.1.037.134.134,0,0,1,.041.1v23.166a.132.132,0,0,1-.044.1l-9.911,8.919a.2.2,0,0,1-.13.054Zm.071-23.134v22.782l9.75-8.775V1620.84c-1.18,1.008-7.26,6.55-9.743,8.828Z" transform="translate(-1995.352 -1620.434)"/>
          </g>
          <g id="Group_16598" data-name="Group 16598" transform="translate(0 8.998)">
            <path id="Path_51759" data-name="Path 51759" d="M1567.79,1795.767l-27.363-.084c.059.053.021-23.043.021-23.043l27.342.066Z" transform="translate(-1540.291 -1772.508)" fill="#fff"/>
            <path id="Path_51760" data-name="Path 51760" d="M1565.707,1793.821h0l-27.359-.084a.12.12,0,0,1-.092-.034.132.132,0,0,1-.04-.13c.043-.54.03-15.258.018-23.012a.132.132,0,0,1,.132-.132h0l27.342.066a.132.132,0,0,1,.132.132v23.062a.133.133,0,0,1-.132.132Zm-27.225-.348,27.093.083v-22.794l-27.076-.065c0,.892.01,6.134.011,11.379v7.917c0,1.081-.006,1.982-.01,2.615-.006.45-.006.714-.016.87Z" transform="translate(-1538.212 -1770.429)"/>
          </g>
        </g>
        <path id="Path_51761" data-name="Path 51761" d="M1616.248,1871.08l-5.4,1.453a.391.391,0,0,0-.189.635l.566.632a.391.391,0,0,1-.03.549l-3.083,2.769a.391.391,0,0,1-.549-.029l-3.3-3.669a.391.391,0,0,0-.549-.03l-8.253,7.39a.391.391,0,0,0-.029.55l1.2,1.341a.391.391,0,0,0,.549.03l6.334-5.665a.391.391,0,0,1,.549.029l3.294,3.667a.39.39,0,0,0,.549.029l5-4.49a.391.391,0,0,1,.549.03l.61.684a.391.391,0,0,0,.654-.122l1.989-5.269a.391.391,0,0,0-.465-.516Z" transform="translate(-1591.905 -1856.04)" fill="#438ffe"/>
      </g>
      <g id="Group_16606" data-name="Group 16606" transform="translate(363.413 341.18)">
        <g id="Group_16604" data-name="Group 16604" transform="translate(6.247 7.771)">
          <g id="Group_16602" data-name="Group 16602" transform="translate(0 0)">
            <path id="Path_51762" data-name="Path 51762" d="M1079.78,1017.358a.489.489,0,0,1,0-.561,1.321,1.321,0,0,0,.25-.754c0-1.23-1.9-2.227-4.255-2.227s-4.255,1-4.255,2.227a1.319,1.319,0,0,0,.25.754.489.489,0,0,1,0,.561,1.32,1.32,0,0,0-.25.754,1.872,1.872,0,0,0,1.13,1.511.9.9,0,0,0-.024.2c0,.91,1.41,1.648,3.148,1.648s3.148-.738,3.148-1.648a.876.876,0,0,0-.024-.2,1.872,1.872,0,0,0,1.131-1.511A1.322,1.322,0,0,0,1079.78,1017.358Z" transform="translate(-1064.116 -987.138)" fill="#160e4d"/>
            <g id="Group_16601" data-name="Group 16601">
              <path id="Path_51763" data-name="Path 51763" d="M973.01,582.29a11.543,11.543,0,1,0-19.452,8.113,11.883,11.883,0,0,1,3.167,5.445l.026.1a4.559,4.559,0,0,0,4.412,3.412h.851a4.56,4.56,0,0,0,4.412-3.411l.016-.061a11.669,11.669,0,0,1,3.118-5.427,11.382,11.382,0,0,0,3.449-8.169Z" transform="translate(-949.798 -570.455)" fill="#fff"/>
              <path id="Path_51764" data-name="Path 51764" d="M959.938,597.419h-.851a4.692,4.692,0,0,1-4.544-3.507l-.026-.1a11.765,11.765,0,0,0-3.128-5.385,11.864,11.864,0,0,1-3.671-8.367,11.692,11.692,0,0,1,3.458-8.217,11.528,11.528,0,0,1,8.2-3.443,11.91,11.91,0,0,1,11.687,11.818,11.46,11.46,0,0,1-3.485,8.267,11.534,11.534,0,0,0-3.083,5.365l-.016.061A4.692,4.692,0,0,1,959.938,597.419Zm-.562-28.756a11.462,11.462,0,0,0-11.394,11.4,11.6,11.6,0,0,0,3.593,8.177,12.03,12.03,0,0,1,3.2,5.506l.026.1a4.428,4.428,0,0,0,4.284,3.313h.851a4.428,4.428,0,0,0,4.284-3.312l.016-.062a11.8,11.8,0,0,1,3.154-5.489,11.2,11.2,0,0,0,3.4-8.077,11.642,11.642,0,0,0-11.422-11.55Z" transform="translate(-947.718 -568.379)"/>
            </g>
          </g>
          <g id="Group_16603" data-name="Group 16603" transform="translate(2.052 3.062)">
            <path id="Path_51765" data-name="Path 51765" d="M1062.012,719.473a1.255,1.255,0,0,1-.89-.371,2.118,2.118,0,0,1-.293-2.15,4.832,4.832,0,0,1,.926-1.788,2.092,2.092,0,0,0-2.689.88,2.315,2.315,0,0,0-.162,1.043.132.132,0,0,1-.264.018,2.613,2.613,0,0,1,.181-1.161,2.379,2.379,0,0,1,3.135-.994,2.638,2.638,0,0,1,.912-.587,2.718,2.718,0,0,1,2.605.443,2.785,2.785,0,0,1,2.328-.332,2.15,2.15,0,0,1,1.459,1.811.132.132,0,0,1-.261.044,1.9,1.9,0,0,0-1.279-1.6,2.518,2.518,0,0,0-2.041.262,3.6,3.6,0,0,1,1.075,3.374,1.132,1.132,0,0,1-.929.811,1.45,1.45,0,0,1-1.417-.6c-.28-.4-.613-1.312.3-2.926a2.535,2.535,0,0,1,.544-.67q-.086-.065-.174-.12a2.466,2.466,0,0,0-2.123-.242,2.339,2.339,0,0,0-.741.453,3.359,3.359,0,0,1,1.184,3.088,1.558,1.558,0,0,1-1.029,1.271A1.244,1.244,0,0,1,1062.012,719.473Zm.006-4.214a4.527,4.527,0,0,0-.938,1.765,1.872,1.872,0,0,0,.23,1.891.978.978,0,0,0,.984.251,1.3,1.3,0,0,0,.845-1.066,3.082,3.082,0,0,0-1.128-2.841Zm3.443-.112a2.263,2.263,0,0,0-.519.629c-.843,1.487-.559,2.294-.316,2.639a1.184,1.184,0,0,0,1.156.495.862.862,0,0,0,.718-.623,3.317,3.317,0,0,0-1.038-3.14Z" transform="translate(-1054.042 -708.522)"/>
            <path id="Path_51766" data-name="Path 51766" d="M1228.9,791.559a.132.132,0,0,1-.07-.244,9.222,9.222,0,0,0,4.07-5.776.132.132,0,1,1,.258.058,9.487,9.487,0,0,1-4.188,5.942A.132.132,0,0,1,1228.9,791.559Z" transform="translate(-1213.998 -775.489)"/>
            <path id="Path_51767" data-name="Path 51767" d="M984.482,633.984a.132.132,0,0,1-.1-.044,9.418,9.418,0,0,1,2.854-14.692.132.132,0,1,1,.117.237,9.154,9.154,0,0,0-2.775,14.28.132.132,0,0,1-.1.22Z" transform="translate(-982.007 -619.235)"/>
            <path id="Path_51768" data-name="Path 51768" d="M1152.677,1064.948a.132.132,0,1,1-.023-.263,10.979,10.979,0,0,0,1.127-.253.132.132,0,1,1,.072.254,11.27,11.27,0,0,1-1.154.259Z" transform="translate(-1142.342 -1037.779)" fill="#fff"/>
            <path id="Path_51769" data-name="Path 51769" d="M1122.707,1094.738a.132.132,0,1,1,0-.265,8.282,8.282,0,0,0,3.343-.673.132.132,0,0,1,.112.239,8.552,8.552,0,0,1-3.452.7Z" transform="translate(-1114.166 -1065.379)" fill="#fff"/>
          </g>
        </g>
        <g id="Group_16605" data-name="Group 16605" transform="translate(0 0)">
          <path id="Path_51770" data-name="Path 51770" d="M1141.487,443.545h0a.133.133,0,0,1-.13-.135l.1-5.043a.132.132,0,1,1,.265.006l-.1,5.043A.133.133,0,0,1,1141.487,443.545Z" transform="translate(-1123.521 -438.237)"/>
          <path id="Path_51771" data-name="Path 51771" d="M846.718,694.357H843.5a.132.132,0,0,1,0-.265h3.22a.132.132,0,0,1,0,.265Z" transform="translate(-843.366 -678.776)"/>
          <path id="Path_51772" data-name="Path 51772" d="M889.9,550.99a.132.132,0,0,1-.063-.016l-3.631-1.968a.132.132,0,0,1,.126-.233l3.631,1.968a.132.132,0,0,1-.064.249Z" transform="translate(-883.574 -542.142)"/>
          <path id="Path_51773" data-name="Path 51773" d="M1383.767,694.357a.132.132,0,0,1,0-.265h3.22a.132.132,0,1,1,0,.265Z" transform="translate(-1351.297 -678.776)"/>
          <path id="Path_51774" data-name="Path 51774" d="M1334.127,550.99a.132.132,0,0,1-.063-.249l3.631-1.968a.132.132,0,0,1,.126.233l-3.631,1.968A.133.133,0,0,1,1334.127,550.99Z" transform="translate(-1304.623 -542.142)"/>
        </g>
      </g>
      <g id="Group_16625" data-name="Group 16625" transform="translate(381.579 343.321)">
        <path id="Path_51775" data-name="Path 51775" d="M1650.647,475.173a2.346,2.346,0,0,0-2.228,2.926c.241,1.474,1.826,1.789,2.611,2.52,2.541,2.363,3.375,10.1,7.084,12.121a8.984,8.984,0,0,0,10.866-2.658c2.542-3.481,2.768-8.4-.326-10.494-2.781-1.885-4.4.734-7.344-1.006-2.9-1.715-2.314-3.669-4.091-4.337C1654.792,473.33,1654.137,475.356,1650.647,475.173Z" transform="translate(-1618.362 -474.006)" fill="#160e4d"/>
        <g id="Group_16607" data-name="Group 16607" transform="translate(25.394 11.189)">
          <path id="Path_51776" data-name="Path 51776" d="M1575.447,672.317c-1.3,7.974-1.453,8.092-1.629,8.926a35.142,35.142,0,0,0-.66,4.61c-.124,1.963.244,13.751,6.338,16.346,2.2.937,2.835-.782,7.526-.6,4.8.2,5.775,1.9,7.87,1.3,4.533-1.3,6.014-11.023,5.767-17.035-.2-4.9-2.639-9.519-7.513-18.768-.742-1.409-1.93-3.559-3.844-3.833-.88-.125-1.228.009-4.751.977-3.832,1.052-4.8-.067-6.451.97C1576.395,666.289,1576.1,668.326,1575.447,672.317Z" transform="translate(-1573.02 -663.095)" fill="#fff"/>
          <path id="Path_51777" data-name="Path 51777" d="M1591.926,701.066a6.252,6.252,0,0,1-2.011-.461,15.764,15.764,0,0,0-4.991-.967,13.07,13.07,0,0,0-4.63.57,3.812,3.812,0,0,1-2.939.019c-2.585-1.1-4.514-4.041-5.578-8.5a32.176,32.176,0,0,1-.841-7.975,35.6,35.6,0,0,1,.663-4.63c.029-.14.059-.26.092-.4.169-.7.452-1.881,1.536-8.519l.131.022-.131-.022.041-.248c.636-3.9.956-5.865,2.671-6.94a3.821,3.821,0,0,1,2.444-.5,12.577,12.577,0,0,0,4.045-.489l.91-.25c2.721-.75,3.071-.847,3.894-.729,2.04.293,3.277,2.639,3.942,3.9,4.876,9.251,7.323,13.895,7.526,18.82a36.072,36.072,0,0,1-1.093,10.325c-.733,2.709-2.156,6.1-4.767,6.842A3.267,3.267,0,0,1,1591.926,701.066Zm-7.691-1.708q.334,0,.7.015a16.2,16.2,0,0,1,5.066.977,4.2,4.2,0,0,0,2.761.326c4.343-1.24,5.929-10.63,5.67-16.9-.2-4.866-2.639-9.492-7.5-18.708-.643-1.22-1.84-3.491-3.746-3.763-.768-.11-1.112-.015-3.786.722l-.911.25a12.806,12.806,0,0,1-4.12.495,3.569,3.569,0,0,0-2.293.459c-1.613,1.017-1.927,2.932-2.55,6.76l-.04.248c-1.086,6.647-1.368,7.832-1.539,8.538-.033.138-.062.256-.091.391a35.282,35.282,0,0,0-.657,4.594,31.866,31.866,0,0,0,.834,7.9c.727,3.052,2.259,6.971,5.424,8.319a3.556,3.556,0,0,0,2.763-.029,13.253,13.253,0,0,1,4.012-.59Z" transform="translate(-1570.93 -660.999)"/>
        </g>
        <g id="Group_16612" data-name="Group 16612" transform="translate(31.837 25.897)">
          <g id="Group_16608" data-name="Group 16608" transform="translate(2.845 40.554)">
            <path id="Path_51778" data-name="Path 51778" d="M1728.52,1586.35v3.856l1.857-.113.366-3.743Z" transform="translate(-1728.383 -1586.224)" fill="#fff"/>
            <path id="Path_51779" data-name="Path 51779" d="M1726.437,1588.265a.133.133,0,0,1-.132-.132v-3.856a.133.133,0,0,1,.132-.133h2.221a.133.133,0,0,1,.132.146l-.366,3.744a.132.132,0,0,1-.124.119l-1.857.113Zm.132-3.856v3.583l1.6-.1.34-3.486Z" transform="translate(-1726.305 -1584.144)"/>
          </g>
          <g id="Group_16609" data-name="Group 16609" transform="translate(0.879 43.092)">
            <path id="Path_51780" data-name="Path 51780" d="M1699.685,1634.849a12.626,12.626,0,0,1-3.433-.114.808.808,0,0,1-.641-1.014,36.107,36.107,0,0,1,1.643-4.828l.342.625.274-.661a.287.287,0,0,1,.219-.138l.985.006c.293,0,.314.158.353.28l.2.513.271-.695.506,5.144a.8.8,0,0,1-.715.881Z" transform="translate(-1695.456 -1628.595)" fill="#fff"/>
            <path id="Path_51781" data-name="Path 51781" d="M1696.332,1632.981a12.767,12.767,0,0,1-2.165-.184.939.939,0,0,1-.747-1.18,36.937,36.937,0,0,1,1.652-4.85.132.132,0,0,1,.235,0l.21.383.168-.406a.108.108,0,0,1,.009-.018.42.42,0,0,1,.321-.2l1,0h0a.421.421,0,0,1,.466.344l.009.027.07.185.146-.375a.132.132,0,0,1,.255.035l.506,5.144a.94.94,0,0,1-.831,1.025A12.334,12.334,0,0,1,1696.332,1632.981Zm-1.132-5.865a40.785,40.785,0,0,0-1.525,4.572.664.664,0,0,0,.079.541.678.678,0,0,0,.459.306,12.459,12.459,0,0,0,3.4.114.674.674,0,0,0,.6-.736l-.451-4.594-.069.179a.133.133,0,0,1-.123.084h0a.133.133,0,0,1-.123-.085l-.207-.552c-.031-.106-.051-.154-.216-.156l-.986-.006a.154.154,0,0,0-.1.067l-.27.65a.132.132,0,0,1-.239.012Z" transform="translate(-1693.385 -1626.526)"/>
          </g>
          <path id="Path_51782" data-name="Path 51782" d="M1710.828,1712.349a6.689,6.689,0,0,1-1.7-.216.132.132,0,0,1,.067-.256,6.452,6.452,0,0,0,3.226,0,.132.132,0,0,1,.079.252A6.054,6.054,0,0,1,1710.828,1712.349Z" transform="translate(-1707.22 -1663.68)"/>
          <path id="Path_51783" data-name="Path 51783" d="M1723.168,1682.224h-1.693a.132.132,0,1,1,0-.265h1.693a.132.132,0,1,1,0,.265Z" transform="translate(-1718.79 -1635.55)"/>
          <g id="Group_16610" data-name="Group 16610" transform="translate(16.491 38.507)">
            <path id="Path_51784" data-name="Path 51784" d="M1956.53,1552.27l.548,4.649,1.739-.061v-4.588Z" transform="translate(-1956.392 -1552.131)" fill="#fff"/>
            <path id="Path_51785" data-name="Path 51785" d="M1954.994,1554.967a.132.132,0,0,1-.131-.117l-.548-4.649a.131.131,0,0,1,.032-.1.133.133,0,0,1,.1-.044h2.287a.132.132,0,0,1,.132.132v4.588a.132.132,0,0,1-.127.132l-1.739.061Zm-.4-4.649.517,4.38,1.49-.052v-4.328Z" transform="translate(-1954.314 -1550.053)"/>
          </g>
          <g id="Group_16611" data-name="Group 16611" transform="translate(16.471 41.986)">
            <path id="Path_51786" data-name="Path 51786" d="M1956.146,1610.338a23.656,23.656,0,0,0-.154,2.9,17.763,17.763,0,0,0,1.324,3.362,1.123,1.123,0,0,0,.95.674c.489.021,1.166.046,1.714.046a1.206,1.206,0,0,0,1-1.653,12.4,12.4,0,0,0-1.261-2.639,19.42,19.42,0,0,1-1.148-2.751h-1.417l-.279,1.173Z" transform="translate(-1955.852 -1610.143)" fill="#fff"/>
            <path id="Path_51787" data-name="Path 51787" d="M1957.9,1615.372h0c-.551,0-1.239-.025-1.72-.046a1.258,1.258,0,0,1-1.063-.75,16.832,16.832,0,0,1-1.337-3.407,23.26,23.26,0,0,1,.155-2.921.132.132,0,0,1,.243-.059l.562.853.207-.88a.133.133,0,0,1,.129-.1h1.417a.132.132,0,0,1,.125.09,19.416,19.416,0,0,0,1.135,2.722,12.491,12.491,0,0,1,1.271,2.67,1.471,1.471,0,0,1-.19,1.327A1.152,1.152,0,0,1,1957.9,1615.372Zm-3.74-6.726a19.268,19.268,0,0,0-.117,2.5,15.929,15.929,0,0,0,1.313,3.316,1,1,0,0,0,.836.6c.477.02,1.161.045,1.708.046h0a.891.891,0,0,0,.722-.391,1.207,1.207,0,0,0,.153-1.088,12.236,12.236,0,0,0-1.248-2.614,17.993,17.993,0,0,1-1.131-2.689h-1.218l-.254,1.075a.132.132,0,0,1-.239.042Z" transform="translate(-1953.774 -1608.065)"/>
          </g>
          <path id="Path_51788" data-name="Path 51788" d="M1973.2,1673.458c-.628,0-1.166-.88-1.189-.917l-.807-1.564a.133.133,0,0,1,.236-.121l.8,1.553c.128.212.56.782.958.782h1.223a.132.132,0,1,1,0,.265H1973.2Z" transform="translate(-1953.689 -1625.051)"/>
          <path id="Path_51789" data-name="Path 51789" d="M1992.851,1683.184H1991.3a.132.132,0,1,1,0-.265h1.551a.132.132,0,0,1,0,.265Z" transform="translate(-1972.47 -1636.453)"/>
          <path id="Path_51790" data-name="Path 51790" d="M1678.72,908.827s.185,14.189.782,23.426,1.772,16.3,1.772,16.3a6.859,6.859,0,0,0,3.352.346s1.1-8.1,1.35-10.842-.413-4.1-.469-6.339.966-12.138.966-12.138,7.624,22.375,8.5,27.316a5.657,5.657,0,0,0,3.149-.4s.041-8.8-.144-10.158c-.342-2.519-2.31-5-2.663-7.674s-.558-9.39-1.532-13.417a65.923,65.923,0,0,0-2.883-8.552Z" transform="translate(-1678.72 -906.695)" fill="#160e4d"/>
          <path id="Path_51791" data-name="Path 51791" d="M1848.23,994.8a.131.131,0,0,1-.05-.01,5.8,5.8,0,0,1-2.542-2.033.132.132,0,0,1,.215-.155,5.542,5.542,0,0,0,2.426,1.942.132.132,0,0,1-.05.255Z" transform="translate(-1835.623 -987.409)" fill="#fff"/>
          <path id="Path_51792" data-name="Path 51792" d="M1694.987,990.143a.132.132,0,0,1-.091-.229,3.291,3.291,0,0,0,1.127-1.962l.052-.2a.132.132,0,1,1,.256.066l-.051.2a3.543,3.543,0,0,1-1.2,2.09A.131.131,0,0,1,1694.987,990.143Z" transform="translate(-1693.895 -982.806)" fill="#fff"/>
        </g>
        <g id="Group_16622" data-name="Group 16622" transform="translate(0 8.385)">
          <g id="Group_16613" data-name="Group 16613" transform="translate(9.918 8.18)">
            <path id="Path_51793" data-name="Path 51793" d="M1315.688,754.128a5.664,5.664,0,0,1,1.666.765c1.024,1.065,1.629-.594,1.629-.594a11.431,11.431,0,0,0-2.885-1.271C1314.085,752.713,1314.573,753.908,1315.688,754.128Z" transform="translate(-1314.588 -752.841)" fill="#fff"/>
            <path id="Path_51794" data-name="Path 51794" d="M1315.941,753.312a1.088,1.088,0,0,1-.763-.4,5.8,5.8,0,0,0-1.6-.727c-.648-.128-1.136-.57-1.066-.966.032-.186.246-.6,1.523-.4a11.347,11.347,0,0,1,2.932,1.293.132.132,0,0,1,.056.159c-.014.036-.333.9-.934,1.022A.722.722,0,0,1,1315.941,753.312Zm-2.515-2.278c-.418,0-.628.1-.652.234-.033.189.293.548.857.66a5.721,5.721,0,0,1,1.737.8.75.75,0,0,0,.669.306c.33-.069.586-.5.7-.754a10.645,10.645,0,0,0-2.737-1.2,3.764,3.764,0,0,0-.58-.049Z" transform="translate(-1312.507 -750.77)"/>
          </g>
          <g id="Group_16616" data-name="Group 16616" transform="translate(0 0)">
            <path id="Path_51795" data-name="Path 51795" d="M1161.3,624.446a.132.132,0,0,1-.076-.024l-14.331-10.05a.133.133,0,1,1,.152-.217l14.331,10.05a.132.132,0,0,1-.076.24Z" transform="translate(-1146.833 -614.13)"/>
            <g id="Group_16615" data-name="Group 16615" transform="translate(11.628 7.342)">
              <g id="Group_16614" data-name="Group 16614" transform="translate(0 0)">
                <path id="Path_51796" data-name="Path 51796" d="M1344.3,739.431a2.812,2.812,0,0,0,1.278.674,2.379,2.379,0,0,0,.565.055c1.5-.057,1.142,2.06,4.337,2.561a11.716,11.716,0,0,1,.268,2.444c-1.306-.555-3.03-1.781-3.85-1.554a1.888,1.888,0,0,1-2.316-.716c-.827-.939.293-1.857.293-1.857a3.376,3.376,0,0,1-.782-.355C1343.174,740.189,1342.969,738.06,1344.3,739.431Z" transform="translate(-1343.221 -738.844)" fill="#fff"/>
                <path id="Path_51797" data-name="Path 51797" d="M1348.667,743.208a.134.134,0,0,1-.052-.011c-.417-.178-.88-.425-1.33-.664-.946-.5-1.926-1.025-2.432-.885a1.989,1.989,0,0,1-2.374-.668l-.076-.089a1.214,1.214,0,0,1-.334-.919,1.705,1.705,0,0,1,.477-.972,6.459,6.459,0,0,1-.6-.293,1.8,1.8,0,0,1-.8-1.513c.021-.293.169-.391.255-.418.228-.082.526.072.912.473a2.686,2.686,0,0,0,1.209.636,2.226,2.226,0,0,0,.534.052c.706-.026,1.042.391,1.432.869a4.086,4.086,0,0,0,2.932,1.694c.111.018.178.028.293,1.159.055.553.1,1.163.091,1.418a.133.133,0,0,1-.132.131Zm-3.629-1.846a6.346,6.346,0,0,1,2.371.938c.377.2.765.408,1.122.571a15.837,15.837,0,0,0-.216-2.12,4.348,4.348,0,0,1-3.03-1.778c-.373-.46-.645-.795-1.217-.771a2.513,2.513,0,0,1-.6-.057,2.945,2.945,0,0,1-1.346-.712c-.336-.348-.55-.437-.631-.408-.043.016-.073.086-.081.19a1.524,1.524,0,0,0,.66,1.261,3.555,3.555,0,0,0,.747.342.133.133,0,0,1,.06.232,1.611,1.611,0,0,0-.544.946.958.958,0,0,0,.269.721l.079.1a1.721,1.721,0,0,0,2.1.587.956.956,0,0,1,.256-.04Z" transform="translate(-1341.146 -736.756)"/>
              </g>
              <path id="Path_51798" data-name="Path 51798" d="M1363.114,769.358a.132.132,0,0,1-.035-.26.43.43,0,0,0,.324-.283,1.081,1.081,0,0,0-.276-.907.768.768,0,0,0-.6-.338,1.174,1.174,0,0,0-.755.445.132.132,0,0,1-.21-.161,1.427,1.427,0,0,1,.96-.548,1.032,1.032,0,0,1,.811.435,1.346,1.346,0,0,1,.323,1.155.684.684,0,0,1-.505.458A.124.124,0,0,1,1363.114,769.358Z" transform="translate(-1360.31 -765.475)"/>
            </g>
          </g>
          <g id="Group_16617" data-name="Group 16617" transform="translate(28.35 3.054)">
            <path id="Path_51799" data-name="Path 51799" d="M1624.534,668.054s4.553-.651,9.034-.782c0,0,5.892,15.737,5.892,16.727s-2.822,3.235-5.62,1.448c-4.668-2.98-7.583-1.964-9.884-1.426C1620.507,684.826,1624.534,668.054,1624.534,668.054Z" transform="translate(-1622.436 -667.143)" fill="#fff"/>
            <path id="Path_51800" data-name="Path 51800" d="M1634.036,684.169a4.159,4.159,0,0,1-2.27-.69c-4.3-2.743-7.067-2.068-9.294-1.526-.166.04-.33.08-.489.117a.906.906,0,0,1-.9-.239c-1.984-2,1.185-15.321,1.321-15.887a.132.132,0,0,1,.11-.1c.046-.007,4.612-.654,9.048-.782a.132.132,0,0,1,.128.086c.241.643,5.9,15.772,5.9,16.773,0,.521-.625,1.24-1.485,1.711a4.39,4.39,0,0,1-2.07.535Zm-8.3-2.974a11.263,11.263,0,0,1,6.177,2.061,3.91,3.91,0,0,0,4.07.143c.843-.461,1.346-1.114,1.347-1.479,0-.759-3.807-11.132-5.85-16.592-4.051.124-8.182.675-8.835.765-.276,1.178-3.172,13.738-1.368,15.551a.648.648,0,0,0,.654.169c.159-.037.32-.076.489-.117a13.545,13.545,0,0,1,3.313-.5Z" transform="translate(-1620.431 -665.064)"/>
          </g>
          <path id="Path_51801" data-name="Path 51801" d="M1415.72,683.131a7.908,7.908,0,0,0,4.012,2.874,7.617,7.617,0,0,0,7.789-1.611l-.414,9.5a21.738,21.738,0,0,0,2.327,1.257c0-.122,1.017-21.19,1.017-21.19a3.751,3.751,0,0,0-2.715,1.223c-.838,1.191-4.008,6.118-7.651,6.177a5.938,5.938,0,0,1-2.983-.847Z" transform="translate(-1399.628 -670.378)" fill="#fff"/>
          <path id="Path_51802" data-name="Path 51802" d="M1425.259,686.778h-.006a.132.132,0,0,1-.126-.138l.175-4.008a7.858,7.858,0,0,1-7.683,1.419,7.955,7.955,0,0,1-3.975-2.795l-.1-.121a.133.133,0,0,1-.015-.146l1.381-2.617a.133.133,0,0,1,.161-.063,3.864,3.864,0,0,1,.438.206,4.8,4.8,0,0,0,2.5.632c3.357-.055,6.376-4.429,7.368-5.865l.176-.254a3.837,3.837,0,0,1,2.822-1.279.135.135,0,0,1,.1.04.133.133,0,0,1,.037.1s-.4,8.361-.7,14.579a.133.133,0,0,1-.265-.013c.276-5.734.64-13.294.7-14.433a3.475,3.475,0,0,0-2.468,1.157l-.175.252c-1.012,1.466-4.089,5.924-7.582,5.981a5.045,5.045,0,0,1-2.625-.663c-.11-.058-.21-.109-.3-.149l-1.284,2.433.044.054a7.713,7.713,0,0,0,3.851,2.71,7.535,7.535,0,0,0,7.651-1.575.132.132,0,0,1,.229.1l-.189,4.331a.132.132,0,0,1-.131.125Z" transform="translate(-1397.549 -668.297)"/>
          <g id="Group_16619" data-name="Group 16619" transform="translate(24.197 6.923)">
            <g id="Group_16618" data-name="Group 16618" transform="translate(0)">
              <path id="Path_51803" data-name="Path 51803" d="M1553.84,731.984h8.8a.626.626,0,0,1,.587.52l2,12.334a.425.425,0,0,1-.419.52h-8.8a.626.626,0,0,1-.587-.52l-2-12.334a.424.424,0,0,1,.418-.52Z" transform="translate(-1553.273 -731.852)" fill="#fff"/>
              <path id="Path_51804" data-name="Path 51804" d="M1562.724,743.414h-8.8a.754.754,0,0,1-.718-.631l-2-12.334a.6.6,0,0,1,.124-.484.546.546,0,0,1,.424-.191h8.8a.754.754,0,0,1,.718.632l2,12.334a.6.6,0,0,1-.125.484.547.547,0,0,1-.423.191Zm-10.97-13.375a.286.286,0,0,0-.223.1.327.327,0,0,0-.064.27l2,12.334a.5.5,0,0,0,.457.41h8.8a.286.286,0,0,0,.223-.1.327.327,0,0,0,.066-.27l-2-12.334a.5.5,0,0,0-.457-.41Z" transform="translate(-1551.196 -729.774)"/>
            </g>
          </g>
          <g id="Group_16621" data-name="Group 16621" transform="translate(31.144 4.794)">
            <g id="Group_16620" data-name="Group 16620" transform="translate(0 7.12)">
              <path id="Path_51805" data-name="Path 51805" d="M1672.917,815.373l.147.932a.669.669,0,0,1-.789.675l-2.29-.417a.558.558,0,0,0-.66.575,1.044,1.044,0,0,0,.358.684c.118.115,2.151,1.662,3.714,1.385.068-.013,1.534.812,1.589.771a2,2,0,0,0,.472-1.211c0-.041-1.214-.727-1.337-1.1s-.023-.673-.178-1.338A1.382,1.382,0,0,0,1672.917,815.373Z" transform="translate(-1669.192 -815.24)" fill="#fff"/>
              <path id="Path_51806" data-name="Path 51806" d="M1672.916,818.042a4.1,4.1,0,0,1-.962-.452c-.246-.129-.549-.286-.637-.323-1.691.281-3.787-1.408-3.805-1.425a1.18,1.18,0,0,1-.4-.776.676.676,0,0,1,.23-.549.692.692,0,0,1,.586-.164l2.3.417a.537.537,0,0,0,.632-.533l-.145-.923a.132.132,0,0,1,.157-.15,1.5,1.5,0,0,1,1.128,1.055,4.168,4.168,0,0,1,.1.815,1.822,1.822,0,0,0,.071.512c.074.229.761.684,1.055.872.271.178.3.2.293.293a2.083,2.083,0,0,1-.526,1.3.116.116,0,0,1-.08.026ZM1671.329,817a3.248,3.248,0,0,1,.749.357c.269.141.658.344.8.4a2.054,2.054,0,0,0,.366-1.011c-.041-.028-.1-.069-.162-.108-.535-.352-1.065-.719-1.16-1.011a2.055,2.055,0,0,1-.084-.586,3.878,3.878,0,0,0-.1-.767,1.157,1.157,0,0,0-.733-.794l.113.721a.14.14,0,0,1,0,.018.8.8,0,0,1-.944.808l-2.3-.417a.43.43,0,0,0-.364.1.413.413,0,0,0-.141.335.928.928,0,0,0,.318.6c.177.172,2.142,1.613,3.6,1.349l.026,0Zm1.955-.22Zm-.033-.1Z" transform="translate(-1667.114 -813.161)"/>
            </g>
            <path id="Path_51807" data-name="Path 51807" d="M1748.969,704.2c1.011.164,1.151.662,2.406.11,2.827-1.242,2.292-5.582,1.811-7.742a13.124,13.124,0,0,0-.357-1.284c-.246-.75,2.79-1.443,3.323-.865a13.193,13.193,0,0,1,1.927,2.666c1.76,3.226,2.334,10.447-3.556,11.751-3.1.684-5.572-1.857-6.458-2.947C1747.874,705.637,1748.685,704.149,1748.969,704.2Z" transform="translate(-1743.201 -694.201)" fill="#fff"/>
            <path id="Path_51808" data-name="Path 51808" d="M1751.412,767.136c-2.653,0-4.682-2.113-5.5-3.114-.21-.26.189-1,.317-1.218.282-.489.519-.716.708-.684a4.027,4.027,0,0,1,.769.213,1.679,1.679,0,0,0,1.564-.093c2.2-.965,2.3-3.871,1.995-6.139a.133.133,0,0,1,.263-.035c.314,2.358.2,5.385-2.151,6.415a1.927,1.927,0,0,1-1.759.1,3.8,3.8,0,0,0-.723-.2,2.182,2.182,0,0,0-.569.806,1.3,1.3,0,0,0-.2.672c.887,1.093,3.284,3.572,6.324,2.9a5.439,5.439,0,0,0,4.2-3.675.132.132,0,0,1,.249.088,5.76,5.76,0,0,1-4.4,3.845,5.056,5.056,0,0,1-1.093.122Z" transform="translate(-1741.144 -752.255)"/>
          </g>
        </g>
        <g id="Group_16624" data-name="Group 16624" transform="translate(30.483 4.295)">
          <g id="Group_16623" data-name="Group 16623" transform="translate(0 0)">
            <path id="Path_51809" data-name="Path 51809" d="M1662.368,549.582a.164.164,0,0,1-.238-.079c-.183-.45-.476-1.319-1.075-1.458-.768-.177-2.012-.407-2.119.2a3.849,3.849,0,0,1-.544,2.117c-.054.064-.007.166.059.216l.353.293a.627.627,0,0,1,.148.339,5.259,5.259,0,0,0,.424,1.368,3.268,3.268,0,0,0,1.166.1l.519,2.288a.187.187,0,0,1-.132.234l-.927.316s.744,1.043,3.07.886a4.569,4.569,0,0,0,2.575-1.149,4.105,4.105,0,0,1-3.28-3.827.214.214,0,0,1,.084-.2c.231-.173.851-.684.743-1.2C1663.081,549.488,1662.671,549.4,1662.368,549.582Z" transform="translate(-1658.238 -547.728)" fill="#fff"/>
            <path id="Path_51810" data-name="Path 51810" d="M1660.529,554.5a3.24,3.24,0,0,1-2.708-.958.132.132,0,0,1,.066-.2l.927-.316a.064.064,0,0,0,.043-.028.057.057,0,0,0,0-.043l-.5-2.187a2.5,2.5,0,0,1-1.144-.129,4.828,4.828,0,0,1-.474-1.466.551.551,0,0,0-.1-.247l-.358-.3a.338.338,0,0,1-.128-.221.237.237,0,0,1,.053-.181,2.624,2.624,0,0,0,.467-1.578,4.73,4.73,0,0,1,.048-.477.515.515,0,0,1,.232-.35,3.266,3.266,0,0,1,2.047.043c.615.142.918.906,1.118,1.412l.05.124a.032.032,0,0,0,.02.019.033.033,0,0,0,.027,0,.655.655,0,0,1,.6-.052.763.763,0,0,1,.419.593c.116.555-.447,1.075-.793,1.334a.081.081,0,0,0-.032.073,3.946,3.946,0,0,0,3.168,3.714.132.132,0,0,1,.073.227,4.659,4.659,0,0,1-2.658,1.185C1660.842,554.492,1660.676,554.5,1660.529,554.5Zm-2.362-.977a3.736,3.736,0,0,0,2.823.7,4.362,4.362,0,0,0,2.3-.946,4.288,4.288,0,0,1-3.128-3.882.346.346,0,0,1,.136-.316c.238-.179.782-.641.693-1.068a.527.527,0,0,0-.266-.406.391.391,0,0,0-.362.037h0a.293.293,0,0,1-.427-.143l-.051-.126c-.18-.455-.453-1.141-.931-1.252a2.943,2.943,0,0,0-1.841-.08.251.251,0,0,0-.117.176,4.355,4.355,0,0,0-.044.45,2.851,2.851,0,0,1-.519,1.718.089.089,0,0,0,.027.037l.359.3a.732.732,0,0,1,.2.428,6.054,6.054,0,0,0,.382,1.286,3.172,3.172,0,0,0,1.069.062.134.134,0,0,1,.137.1l.519,2.288a.319.319,0,0,1-.229.391ZM1657.4,550.434Zm2.9-2.914Z" transform="translate(-1656.161 -545.667)"/>
          </g>
        </g>
      </g>
    </g>
  </g>
</svg>
