<svg xmlns="http://www.w3.org/2000/svg" width="20.974" height="20.455" viewBox="0 0 20.974 20.455">
  <g id="like-svgrepo-com_1_" data-name="like-svgrepo-com (1)" transform="translate(0 -1.163)">
    <g id="Group_16740" data-name="Group 16740" transform="translate(0 1.163)">
      <g id="Group_16738" data-name="Group 16738" transform="translate(5.988)">
        <path id="Path_51906" data-name="Path 51906" d="M37.919,2.414c.715,1.081.8,2.686.24,4.781,1.381.473,3.141,1.8,3.558,5.469.36,3.156-.154,5.538-1.529,7.079a5.933,5.933,0,0,1-4.649,1.875,18.388,18.388,0,0,1-7.613-2.231,2.063,2.063,0,0,1-1.083-1.817v-8.8a2.063,2.063,0,0,1,1.706-2.034c.3-.052,2.925-.565,3.493-2.357.619-1.952,2.029-3.213,3.594-3.213A2.712,2.712,0,0,1,37.919,2.414Zm-8.8,15.026a16.122,16.122,0,0,0,6.417,1.9,3.715,3.715,0,0,0,2.947-1.113c.924-1.035,1.249-2.819.965-5.3-.271-2.376-1.253-3.69-2.767-3.7l-1.6-.009.528-1.508c.665-1.9.815-3.407.4-4.032a.464.464,0,0,0-.383-.23c-.44,0-1.087.568-1.42,1.621-.89,2.809-4.093,3.675-5.092,3.879v8.5Z" transform="translate(-26.843 -1.163)" fill="#160e4d"/>
      </g>
      <g id="Group_16739" data-name="Group 16739" transform="translate(0 6.056)">
        <path id="Path_51907" data-name="Path 51907" d="M4.464,40.315V28.763a.451.451,0,0,0-.452-.451H.451A.451.451,0,0,0,0,28.763V40.315a.451.451,0,0,0,.451.451H4.012A.451.451,0,0,0,4.464,40.315ZM3.107,38.988a.875.875,0,1,1-.875-.875A.876.876,0,0,1,3.107,38.988Z" transform="translate(0 -28.312)" fill="#160e4d"/>
      </g>
    </g>
  </g>
</svg>
