<svg xmlns="http://www.w3.org/2000/svg" width="42" height="29.092" viewBox="0 0 42 29.092">
  <g id="play-svgrepo-com" transform="translate(0 -43.028)">
    <path id="Path_51899" data-name="Path 51899" d="M27.454,43.028H14.546a14.546,14.546,0,1,0,0,29.092H27.454a14.546,14.546,0,0,0,0-29.092Zm0,26.392H14.546a11.846,11.846,0,0,1,0-23.692H27.454a11.846,11.846,0,0,1,0,23.692Z" fill="#160e4d"/>
    <path id="Path_51900" data-name="Path 51900" d="M121.74,96.554l-6.331-5.294a2.087,2.087,0,0,0-3.426,1.6v10.587a2.087,2.087,0,0,0,3.426,1.6l6.331-5.293A2.087,2.087,0,0,0,121.74,96.554Z" transform="translate(-95.186 -40.581)" fill="#160e4d"/>
  </g>
</svg>
