<svg xmlns="http://www.w3.org/2000/svg" width="60" height="60" viewBox="0 0 60 60">
  <path id="user-svgrepo-com" d="M33.2,3.2a30,30,0,1,0,30,30A30,30,0,0,0,33.2,3.2Zm0,2.5A27.484,27.484,0,0,1,54.349,50.767c-2.741-1.144-9.215-3.39-13.219-4.574-.342-.108-.4-.124-.4-1.547a8.2,8.2,0,0,1,.954-3.358,17.212,17.212,0,0,0,1.334-4.558,10.279,10.279,0,0,0,1.967-4.75c.467-2.338.249-3.189-.061-3.986-.033-.084-.066-.166-.091-.251a26.177,26.177,0,0,1,.443-5.606,10.264,10.264,0,0,0-2.159-7.407c-1.318-1.686-3.841-3.754-8.448-4.042l-2.528,0a11,11,0,0,0-8.37,4.04,10.274,10.274,0,0,0-2.157,7.407,26.235,26.235,0,0,1,.448,5.6,1.8,1.8,0,0,1-.094.26c-.307.8-.528,1.648-.059,3.986a10.228,10.228,0,0,0,1.967,4.75,17.039,17.039,0,0,0,1.334,4.558,8.116,8.116,0,0,1,.549,3.409c0,1.423-.054,1.44-.373,1.54-4.143,1.224-10.736,3.606-13.2,4.682A27.479,27.479,0,0,1,33.2,5.7ZM14,52.867c2.816-1.149,8.427-3.151,12.115-4.239,2.143-.675,2.143-2.481,2.143-3.932a10.788,10.788,0,0,0-.785-4.474,14.163,14.163,0,0,1-1.158-4.164,1.234,1.234,0,0,0-.422-.832,7.45,7.45,0,0,1-1.533-3.735C24,29.679,24.155,29.282,24.3,28.9a5.13,5.13,0,0,0,.174-.506c.3-1.1-.035-4.7-.4-6.7a7.824,7.824,0,0,1,1.667-5.419,8.536,8.536,0,0,1,6.481-3.083l2.37,0a8.593,8.593,0,0,1,6.558,3.086,7.809,7.809,0,0,1,1.665,5.421c-.361,2-.7,5.6-.4,6.7.052.183.11.345.174.509.15.382.3.781-.059,2.593A7.443,7.443,0,0,1,41,35.228a1.259,1.259,0,0,0-.422.832,14.072,14.072,0,0,1-1.154,4.164,10.619,10.619,0,0,0-1.191,4.422c0,1.451,0,3.257,2.166,3.939,3.529,1.043,9.168,2.98,12.145,4.15a27.439,27.439,0,0,1-38.537.136Z" transform="translate(-3.205 -3.205)" fill="#f5f7f9"/>
</svg>
