<svg id="Group_16163" data-name="Group 16163" xmlns="http://www.w3.org/2000/svg" width="19.123" height="19.101" viewBox="0 0 19.123 19.101">
  <path id="Path_51178" data-name="Path 51178" d="M18.837.507s0,0,0-.006-.01,0-.014-.009a.736.736,0,0,0-.142-.087C18.661.4,18.649.384,18.632.377l-.006,0c-.017-.007-.032-.02-.049-.026A.786.786,0,0,0,18.37.31c-.021,0-.042-.011-.064-.011a.793.793,0,0,0-.276.047L.524,6.712a.8.8,0,0,0-.19,1.4l5.293,3.781.747,5.234a.8.8,0,0,0,1.424.364l1.878-2.5L14.6,19.208a.8.8,0,0,0,.519.192.811.811,0,0,0,.266-.045.8.8,0,0,0,.516-.607L19.109,1.256A.793.793,0,0,0,18.837.507ZM8.956,13.284l-.057.083L7.678,15l-.462-3.239,6.9-5.985Z" transform="translate(0.001 -0.299)" fill="#fff"/>
</svg>
