<svg xmlns="http://www.w3.org/2000/svg" width="21" height="22" viewBox="0 0 21 22">
  <g id="Group_16998" data-name="Group 16998" transform="translate(20638 7582)">
    <rect id="Rectangle_4121" data-name="Rectangle 4121" width="21" height="22" transform="translate(-20638 -7582)" fill="none"/>
    <path id="Icon_awesome-twitter-square" data-name="Icon awesome-twitter-square" d="M21.977,13.785c.012.163.012.331.012.494a10.854,10.854,0,0,1-16.7,9.137,8.031,8.031,0,0,0,.918.047,7.643,7.643,0,0,0,4.732-1.628,3.817,3.817,0,0,1-3.563-2.645,4.109,4.109,0,0,0,1.721-.07,3.813,3.813,0,0,1-3.052-3.743v-.047a3.81,3.81,0,0,0,1.721.482,3.8,3.8,0,0,1-1.7-3.174,3.765,3.765,0,0,1,.517-1.924A10.825,10.825,0,0,0,14.444,14.7a3.82,3.82,0,0,1,6.5-3.482,7.47,7.47,0,0,0,2.418-.918,3.8,3.8,0,0,1-1.674,2.1,7.587,7.587,0,0,0,2.2-.593A8.024,8.024,0,0,1,21.977,13.785Z" transform="translate(-20642.289 -7589.019)" fill="#160e4d"/>
  </g>
</svg>
