<svg xmlns="http://www.w3.org/2000/svg" width="200" height="170" viewBox="0 0 200 170">
  <g id="Group_16999" data-name="Group 16999" transform="translate(-3056 12895)">
    <rect id="Rectangle_4121" data-name="Rectangle 4121" width="200" height="170" transform="translate(3056 -12895)" fill="none"/>
    <g id="Group_16998" data-name="Group 16998" transform="translate(3057.42 -12915.925)">
      <g id="Group_16784" data-name="Group 16784" transform="translate(29.21 36.925)">
        <path id="Path_51927" data-name="Path 51927" d="M120.166,39.315A12.772,12.772,0,0,0,107.4,38.088C87.194,47.382,20.489,80.178,34.541,102.1c16.516,25.768,75.092,66.417,96.585,64.478S176.972,128.6,171.5,104.874C166.9,84.939,135.992,50.7,120.166,39.315Z" transform="translate(-32.614 -36.925)" fill="#438ffe"/>
        <path id="Path_51928" data-name="Path 51928" d="M120.166,39.315A12.772,12.772,0,0,0,107.4,38.088C87.194,47.382,20.489,80.178,34.541,102.1c16.516,25.768,75.092,66.417,96.585,64.478S176.972,128.6,171.5,104.874C166.9,84.939,135.992,50.7,120.166,39.315Z" transform="translate(-32.614 -36.925)" fill="#fff" opacity="0.7"/>
      </g>
      <g id="Group_16785" data-name="Group 16785" transform="translate(120.525 100.848)">
        <path id="Path_51929" data-name="Path 51929" d="M360.032,242.668a13.888,13.888,0,0,0,2.62,3.124c.022.02.853-1.788.893-1.908.455-1.39.518-4.343-.807-5.306a1.939,1.939,0,0,0-2.8.682A4.051,4.051,0,0,0,360.032,242.668Z" transform="translate(-345.064 -236.988)" fill="#263238"/>
        <path id="Path_51930" data-name="Path 51930" d="M363.662,259.017c-1.056-1.252-4-.975-5.351-.42-.117.048-1.86,1.008-1.838,1.029l.025.024c-.465.04-.962.089-1.5.152-1,.126-2.131.277-3.35.524a34.444,34.444,0,0,0-3.895.984,25.292,25.292,0,0,0-4.156,1.71l-.047.027c.338-.341,1.25-1.326,1.311-1.41.866-1.179,1.847-3.965.888-5.293a1.938,1.938,0,0,0-2.876-.226,4.051,4.051,0,0,0-.97,3.268,13.491,13.491,0,0,0,1.5,3.751,34.318,34.318,0,0,0-3.853,2.473c-.718.526-1.426,1.078-2.128,1.64.283-.3.533-.578.564-.621.866-1.179,1.847-3.965.888-5.293a1.938,1.938,0,0,0-2.876-.226,4.052,4.052,0,0,0-.971,3.268,12.851,12.851,0,0,0,1.441,3.649c-.267.218-.536.434-.8.653-1.278,1.053-2.548,2.109-3.826,3.106-.45.352-.906.682-1.361,1.014.25-.27.459-.5.487-.539.866-1.179,1.847-3.965.888-5.293a1.939,1.939,0,0,0-2.876-.226,4.051,4.051,0,0,0-.97,3.268,12.365,12.365,0,0,0,1.389,3.553c-.476.326-.953.653-1.43.947-.33.193-.634.4-.976.578l-1,.538c-.645.319-1.309.652-1.946.948-.442.209-.866.4-1.293.593.452-.345,1.323-1.039,1.389-1.105a7.529,7.529,0,0,0,1.8-3.345,2.253,2.253,0,0,0,.277-.328,1.938,1.938,0,0,0-.577-2.826c-1.436-.789-4.081.527-5.144,1.531-.063.059-.672.778-1.048,1.238.18-.3.359-.6.54-.912.364-.621.708-1.251,1.082-1.928l.511-1.01c.178-.333.323-.708.488-1.065.365-.835.694-1.7,1.006-2.577a12.725,12.725,0,0,0,3.585,1.533,4.052,4.052,0,0,0,3.3-.875,1.939,1.939,0,0,0-.142-2.881c-1.3-1-4.113-.1-5.317.734-.075.052-.871.746-1.3,1.135.184-.529.37-1.056.538-1.6.487-1.563.93-3.159,1.38-4.75.138-.488.28-.971.421-1.457a13.465,13.465,0,0,0,3.7,1.6,4.052,4.052,0,0,0,3.3-.875,1.938,1.938,0,0,0-.143-2.881c-1.3-1-4.113-.1-5.317.734-.091.063-1.235,1.062-1.513,1.331.311-1.068.631-2.129.989-3.163a34.124,34.124,0,0,1,1.7-4.089,13.7,13.7,0,0,0,3.724,1.615,4.051,4.051,0,0,0,3.3-.876,1.938,1.938,0,0,0-.143-2.881c-1.3-1-4.113-.1-5.317.734-.095.065-1.325,1.142-1.534,1.352.038-.076.069-.16.108-.236a24.983,24.983,0,0,1,2.412-3.725c.5-.651,1.006-1.246,1.516-1.813a13.039,13.039,0,0,0,3.448,1.958,4.052,4.052,0,0,0,3.371-.508,1.939,1.939,0,0,0,.175-2.879c-1.182-1.134-4.078-.549-5.365.145-.07.038-.739.5-1.222.845.234-.253.471-.518.7-.756.857-.894,1.7-1.66,2.447-2.332.429-.379.825-.713,1.2-1.021a12.975,12.975,0,0,0,3.943.145,4.052,4.052,0,0,0,2.758-2,1.939,1.939,0,0,0-1.172-2.636c-1.572-.462-3.872,1.392-4.695,2.6-.071.1-.994,1.867-.965,1.872l.034.005c-.365.29-.754.605-1.171.958-.766.657-1.625,1.407-2.5,2.286a34.389,34.389,0,0,0-2.706,2.97,25.32,25.32,0,0,0-2.524,3.718c-.008.016-.015.033-.023.049.093-.471.31-1.8.315-1.9.072-1.461-.647-4.326-2.179-4.9a1.939,1.939,0,0,0-2.524,1.4,4.053,4.053,0,0,0,.993,3.261,13.48,13.48,0,0,0,3.317,2.3,34.332,34.332,0,0,0-1.849,4.188c-.309.835-.6,1.685-.87,2.541.067-.409.125-.777.128-.828.072-1.461-.647-4.326-2.179-4.9a1.938,1.938,0,0,0-2.523,1.4,4.05,4.05,0,0,0,.993,3.261,12.841,12.841,0,0,0,3.214,2.249c-.1.33-.208.657-.309.987-.485,1.583-.962,3.165-1.477,4.7-.181.542-.38,1.069-.577,1.6.06-.364.107-.671.109-.718.072-1.461-.647-4.326-2.179-4.9a1.939,1.939,0,0,0-2.524,1.4,4.053,4.053,0,0,0,.993,3.262,12.367,12.367,0,0,0,3.119,2.2c-.218.534-.435,1.07-.67,1.578-.168.343-.307.686-.495,1.021l-.533,1c-.362.622-.732,1.266-1.1,1.864-.253.418-.5.811-.752,1.208.187-.537.531-1.6.549-1.688.293-1.433.016-4.374-1.411-5.178a1.938,1.938,0,0,0-2.706,1,4.051,4.051,0,0,0,.487,3.374,13.318,13.318,0,0,0,2.911,2.765c-.415.656-.825,1.289-1.222,1.881-.2.3-.4.59-.589.871l.7.739c.227-.346.459-.7.7-1.08.424-.664.865-1.382,1.31-2.124a21.02,21.02,0,0,0,2.347.786,14.186,14.186,0,0,0,.906,3.778c-.708.318-1.4.62-2.057.894a6.229,6.229,0,0,1-.83.238l.749.787a2.973,2.973,0,0,0,.466-.134c.72-.319,1.484-.676,2.264-1.048a13.329,13.329,0,0,0,2.68,2.991,4.053,4.053,0,0,0,3.359.586,1.938,1.938,0,0,0,1.077-2.676c-.762-1.45-3.694-1.812-5.135-1.561-.085.015-.99.278-1.557.454.318-.154.628-.3.954-.463.646-.317,1.281-.653,1.965-1.011l.983-.559c.332-.18.66-.412.995-.619.766-.5,1.516-1.034,2.261-1.594a12.733,12.733,0,0,0,2.144,3.257,4.052,4.052,0,0,0,3.231,1.087,1.938,1.938,0,0,0,1.47-2.482c-.534-1.548-3.377-2.35-4.839-2.321-.091,0-1.138.141-1.711.229.445-.34.891-.677,1.33-1.036,1.268-1.035,2.518-2.122,3.771-3.2.384-.331.77-.656,1.155-.982a13.461,13.461,0,0,0,2.2,3.38,4.051,4.051,0,0,0,3.231,1.088,1.938,1.938,0,0,0,1.47-2.482c-.534-1.549-3.377-2.351-4.839-2.321-.11,0-1.616.2-2,.275.849-.719,1.7-1.428,2.571-2.093a34.129,34.129,0,0,1,3.671-2.475,13.683,13.683,0,0,0,2.215,3.4A4.053,4.053,0,0,0,348.939,268a1.938,1.938,0,0,0,1.47-2.482c-.534-1.549-3.377-2.35-4.839-2.321-.115,0-1.735.221-2.026.282.074-.042.147-.1.221-.137a24.955,24.955,0,0,1,4.067-1.776c.773-.27,1.527-.484,2.265-.676a13.043,13.043,0,0,0,1.8,3.535,4.052,4.052,0,0,0,3.092,1.436,1.938,1.938,0,0,0,1.734-2.305c-.361-1.6-3.1-2.707-4.555-2.838-.079-.007-.892.01-1.485.03.334-.082.678-.173,1-.244,1.208-.273,2.331-.448,3.327-.6.567-.079,1.081-.14,1.563-.191a12.965,12.965,0,0,0,3.208,2.3,4.054,4.054,0,0,0,3.406-.15A1.939,1.939,0,0,0,363.662,259.017Z" transform="translate(-314.703 -234.396)" fill="#263238"/>
        <path id="Path_51931" data-name="Path 51931" d="M423.475,300.443c.007.029,1.7-1.02,1.8-1.1,1.147-.908,2.828-3.337,2.254-4.871a1.938,1.938,0,0,0-2.714-.977,4.049,4.049,0,0,0-1.8,2.9A13.889,13.889,0,0,0,423.475,300.443Z" transform="translate(-387.918 -274.216)" fill="#263238"/>
      </g>
      <g id="Group_16786" data-name="Group 16786" transform="translate(27.58 100.848)">
        <path id="Path_51932" data-name="Path 51932" d="M125.958,242.668a13.887,13.887,0,0,1-2.62,3.124c-.022.02-.853-1.788-.892-1.908-.456-1.39-.519-4.343.806-5.306a1.939,1.939,0,0,1,2.8.682A4.051,4.051,0,0,1,125.958,242.668Z" transform="translate(-91.537 -236.988)" fill="#263238"/>
        <path id="Path_51933" data-name="Path 51933" d="M28.011,259.017c1.056-1.252,4-.975,5.351-.42.117.048,1.86,1.008,1.838,1.029l-.026.024c.465.04.962.089,1.5.152,1,.126,2.131.277,3.35.524a34.443,34.443,0,0,1,3.895.984,25.291,25.291,0,0,1,4.156,1.71c.016.008.031.019.047.027-.338-.341-1.25-1.326-1.311-1.41-.866-1.179-1.847-3.965-.888-5.293a1.938,1.938,0,0,1,2.876-.226,4.051,4.051,0,0,1,.97,3.268,13.5,13.5,0,0,1-1.5,3.751,34.34,34.34,0,0,1,3.853,2.473c.718.526,1.426,1.078,2.128,1.64-.282-.3-.533-.578-.563-.621-.866-1.179-1.847-3.965-.888-5.293a1.938,1.938,0,0,1,2.876-.226,4.052,4.052,0,0,1,.971,3.268,12.851,12.851,0,0,1-1.441,3.649c.267.218.537.434.8.653,1.278,1.053,2.548,2.109,3.826,3.106.45.352.906.682,1.362,1.014-.251-.27-.459-.5-.488-.539-.866-1.179-1.847-3.965-.888-5.293a1.939,1.939,0,0,1,2.876-.226,4.052,4.052,0,0,1,.97,3.268,12.357,12.357,0,0,1-1.389,3.553c.476.326.953.653,1.43.947.33.193.634.4.976.578l1,.538c.645.319,1.309.652,1.946.948.442.209.867.4,1.293.593-.452-.345-1.323-1.039-1.389-1.105a7.529,7.529,0,0,1-1.8-3.345,2.254,2.254,0,0,1-.277-.328,1.938,1.938,0,0,1,.578-2.826c1.435-.789,4.081.527,5.144,1.531.062.059.671.778,1.048,1.238-.18-.3-.359-.6-.54-.912-.364-.621-.708-1.251-1.082-1.928l-.511-1.01c-.178-.333-.323-.708-.488-1.065-.365-.835-.694-1.7-1.007-2.577a12.725,12.725,0,0,1-3.585,1.533,4.052,4.052,0,0,1-3.3-.875,1.939,1.939,0,0,1,.142-2.881c1.3-1,4.113-.1,5.317.734.075.052.871.746,1.3,1.135-.184-.529-.37-1.056-.538-1.6-.487-1.563-.93-3.159-1.38-4.75-.138-.488-.28-.971-.421-1.457a13.465,13.465,0,0,1-3.7,1.6,4.052,4.052,0,0,1-3.3-.875,1.938,1.938,0,0,1,.143-2.881c1.3-1,4.113-.1,5.317.734.091.063,1.235,1.062,1.513,1.331-.311-1.068-.631-2.129-.989-3.163a34.18,34.18,0,0,0-1.7-4.089,13.707,13.707,0,0,1-3.724,1.615,4.051,4.051,0,0,1-3.3-.876,1.938,1.938,0,0,1,.143-2.881c1.3-1,4.113-.1,5.317.734.095.065,1.325,1.142,1.534,1.352-.038-.076-.07-.16-.108-.236a25.013,25.013,0,0,0-2.413-3.725c-.5-.651-1.006-1.246-1.516-1.813a13.039,13.039,0,0,1-3.448,1.958,4.052,4.052,0,0,1-3.371-.508,1.939,1.939,0,0,1-.175-2.879c1.182-1.134,4.078-.549,5.365.145.07.038.739.5,1.222.845-.234-.253-.471-.518-.7-.756-.858-.894-1.7-1.66-2.447-2.332-.43-.379-.825-.713-1.2-1.021a12.975,12.975,0,0,1-3.943.145,4.051,4.051,0,0,1-2.758-2,1.938,1.938,0,0,1,1.172-2.636c1.572-.462,3.872,1.392,4.695,2.6.071.1.994,1.867.965,1.872l-.034.005c.365.29.754.605,1.171.958.766.657,1.625,1.407,2.5,2.286a34.439,34.439,0,0,1,2.705,2.97,25.267,25.267,0,0,1,2.524,3.718c.008.016.015.033.023.049-.093-.471-.31-1.8-.315-1.9-.072-1.461.647-4.326,2.179-4.9a1.939,1.939,0,0,1,2.524,1.4,4.052,4.052,0,0,1-.993,3.261,13.48,13.48,0,0,1-3.317,2.3,34.336,34.336,0,0,1,1.849,4.188c.309.835.595,1.685.87,2.541-.067-.409-.125-.777-.128-.828-.072-1.461.647-4.326,2.179-4.9a1.938,1.938,0,0,1,2.524,1.4,4.051,4.051,0,0,1-.993,3.261,12.836,12.836,0,0,1-3.214,2.249c.1.33.208.657.309.987.485,1.583.962,3.165,1.477,4.7.181.542.38,1.069.577,1.6-.06-.364-.107-.671-.109-.718-.072-1.461.647-4.326,2.179-4.9a1.939,1.939,0,0,1,2.524,1.4,4.052,4.052,0,0,1-.993,3.262,12.371,12.371,0,0,1-3.119,2.2c.218.534.435,1.07.67,1.578.169.343.307.686.495,1.021l.533,1c.362.622.732,1.266,1.1,1.864.253.418.5.811.752,1.208-.187-.537-.53-1.6-.549-1.688-.293-1.433-.016-4.374,1.411-5.178a1.938,1.938,0,0,1,2.706,1,4.051,4.051,0,0,1-.488,3.374,13.318,13.318,0,0,1-2.911,2.765c.415.656.825,1.289,1.222,1.881.2.3.4.59.589.871l-.7.739c-.227-.346-.459-.7-.7-1.08-.425-.664-.865-1.382-1.31-2.124a21,21,0,0,1-2.347.786,14.187,14.187,0,0,1-.906,3.778c.708.318,1.4.62,2.057.894a6.229,6.229,0,0,0,.83.238l-.749.787a2.956,2.956,0,0,1-.466-.134c-.72-.319-1.484-.676-2.264-1.048a13.329,13.329,0,0,1-2.68,2.991,4.053,4.053,0,0,1-3.359.586,1.938,1.938,0,0,1-1.077-2.676c.762-1.45,3.694-1.812,5.135-1.561.085.015.99.278,1.557.454-.318-.154-.628-.3-.954-.463-.646-.317-1.281-.653-1.966-1.011L64.3,275.8c-.332-.18-.66-.412-.994-.619-.766-.5-1.517-1.034-2.261-1.594a12.74,12.74,0,0,1-2.144,3.257,4.053,4.053,0,0,1-3.232,1.087,1.938,1.938,0,0,1-1.47-2.482c.534-1.548,3.377-2.35,4.839-2.321.091,0,1.138.141,1.711.229-.445-.34-.891-.677-1.33-1.036-1.268-1.035-2.518-2.122-3.771-3.2-.384-.331-.77-.656-1.155-.982a13.465,13.465,0,0,1-2.2,3.38,4.05,4.05,0,0,1-3.231,1.088,1.938,1.938,0,0,1-1.47-2.482c.534-1.549,3.377-2.351,4.839-2.321.11,0,1.616.2,2,.275-.849-.719-1.7-1.428-2.571-2.093a34.1,34.1,0,0,0-3.671-2.475,13.682,13.682,0,0,1-2.214,3.4A4.052,4.052,0,0,1,42.733,268a1.938,1.938,0,0,1-1.471-2.482c.534-1.549,3.377-2.35,4.839-2.321.115,0,1.735.221,2.026.282-.074-.042-.147-.1-.221-.137a24.957,24.957,0,0,0-4.067-1.776c-.773-.27-1.527-.484-2.265-.676a13.041,13.041,0,0,1-1.8,3.535,4.053,4.053,0,0,1-3.092,1.436,1.938,1.938,0,0,1-1.734-2.305c.361-1.6,3.1-2.707,4.555-2.838.079-.007.892.01,1.485.03-.334-.082-.678-.173-1-.244-1.208-.273-2.332-.448-3.328-.6-.567-.079-1.081-.14-1.563-.191a12.959,12.959,0,0,1-3.208,2.3,4.054,4.054,0,0,1-3.406-.15A1.939,1.939,0,0,1,28.011,259.017Z" transform="translate(-27.58 -234.396)" fill="#263238"/>
        <path id="Path_51934" data-name="Path 51934" d="M61.6,300.443c-.007.029-1.7-1.02-1.8-1.1-1.147-.908-2.828-3.337-2.254-4.871a1.938,1.938,0,0,1,2.714-.977,4.051,4.051,0,0,1,1.8,2.9A13.886,13.886,0,0,1,61.6,300.443Z" transform="translate(-47.772 -274.216)" fill="#263238"/>
      </g>
      <ellipse id="Ellipse_92" data-name="Ellipse 92" cx="25.041" cy="3.028" rx="25.041" ry="3.028" transform="translate(74.395 167.762)" fill="#263238"/>
      <g id="Group_16787" data-name="Group 16787" transform="translate(145.846 146.485)">
        <rect id="Rectangle_4064" data-name="Rectangle 4064" width="16.49" height="5.82" transform="translate(0 7.88)" fill="none" stroke="#263238" stroke-linecap="round" stroke-linejoin="round" stroke-width="1"/>
        <rect id="Rectangle_4065" data-name="Rectangle 4065" width="15.454" height="9.373" transform="translate(0.518 13.69)" fill="none" stroke="#263238" stroke-linecap="round" stroke-linejoin="round" stroke-width="1"/>
        <rect id="Rectangle_4066" data-name="Rectangle 4066" width="3.542" height="15.235" transform="translate(6.474 7.91)" fill="none" stroke="#263238" stroke-linecap="round" stroke-linejoin="round" stroke-width="1"/>
        <path id="Path_51935" data-name="Path 51935" d="M407.87,392.752s-1.771-3.725-3.847-3.3S402.985,392.936,407.87,392.752Z" transform="translate(-399.745 -384.875)" fill="none" stroke="#263238" stroke-linecap="round" stroke-linejoin="round" stroke-width="1"/>
        <path id="Path_51936" data-name="Path 51936" d="M418.479,392.752s1.771-3.725,3.847-3.3S423.364,392.936,418.479,392.752Z" transform="translate(-410.207 -384.875)" fill="none" stroke="#263238" stroke-linecap="round" stroke-linejoin="round" stroke-width="1"/>
        <path id="Path_51937" data-name="Path 51937" d="M421.414,375.377a2.2,2.2,0,0,1-1.587,2.321c-1.283.55-1.954-.977-3.3.428s.27,5.13.27,5.13,4.433-.611,4.615,1.1-1.221,2.5-.794,3.542,1.771.306,1.893-.855" transform="translate(-408.527 -375.377)" fill="none" stroke="#263238" stroke-linecap="round" stroke-linejoin="round" stroke-width="1"/>
      </g>
      <g id="Group_16789" data-name="Group 16789" transform="translate(148.718 37.725)">
        <circle id="Ellipse_93" data-name="Ellipse 93" cx="8.424" cy="8.424" r="8.424" transform="translate(0 0)" fill="none" stroke="#263238" stroke-linecap="round" stroke-linejoin="round" stroke-width="1"/>
        <g id="Group_16788" data-name="Group 16788" transform="translate(5.621 1.701)">
          <path id="Path_51938" data-name="Path 51938" d="M422.012,58.2V57.051a2.664,2.664,0,0,1-2.094-.914,4.113,4.113,0,0,1-.757-2.442l1.746-.341a5.685,5.685,0,0,0,.15,1.132,1.59,1.59,0,0,0,.389.757.95.95,0,0,0,.7.266.807.807,0,0,0,.7-.293,1.241,1.241,0,0,0,.211-.744,1.983,1.983,0,0,0-.334-1.187,5.592,5.592,0,0,0-.866-.928l-1.405-1.228a5.14,5.14,0,0,1-.668-.716,3.006,3.006,0,0,1-.45-.846,3.341,3.341,0,0,1-.164-1.1,2.614,2.614,0,0,1,.709-1.944,2.84,2.84,0,0,1,1.91-.771v-1.1h.587v1.091a2.525,2.525,0,0,1,1.146.307,2.1,2.1,0,0,1,.716.682,3.136,3.136,0,0,1,.4.934,5.541,5.541,0,0,1,.157,1.078l-1.719.3a6.714,6.714,0,0,0-.109-.935,1.3,1.3,0,0,0-.307-.655.8.8,0,0,0-.662-.211.9.9,0,0,0-.7.3,1.093,1.093,0,0,0-.239.723,1.591,1.591,0,0,0,.259.948,4.8,4.8,0,0,0,.641.716l1.391,1.214a7.706,7.706,0,0,1,.812.859,3.915,3.915,0,0,1,.6,1.037,3.56,3.56,0,0,1,.225,1.31,2.875,2.875,0,0,1-.293,1.316,2.408,2.408,0,0,1-.825.934,2.81,2.81,0,0,1-1.269.437V58.2Z" transform="translate(-419.161 -44.652)" fill="#263238"/>
        </g>
      </g>
      <g id="Group_16793" data-name="Group 16793" transform="translate(39.64 39.902)">
        <g id="Group_16790" data-name="Group 16790" transform="translate(5.659 0)">
          <circle id="Ellipse_94" data-name="Ellipse 94" cx="2.787" cy="2.787" r="2.787" transform="translate(0.635 1.267) rotate(-13.135)" fill="none" stroke="#263238" stroke-linecap="round" stroke-linejoin="round" stroke-width="1"/>
          <path id="Path_51939" data-name="Path 51939" d="M90.285,71.605C90.21,69.046,88.458,67,86.3,67s-3.908,2.049-3.983,4.608" transform="translate(-82.319 -60.239)" fill="none" stroke="#263238" stroke-linecap="round" stroke-linejoin="round" stroke-width="1"/>
        </g>
        <g id="Group_16791" data-name="Group 16791" transform="translate(13.262 0.56)">
          <circle id="Ellipse_95" data-name="Ellipse 95" cx="2.316" cy="2.316" r="2.316" transform="translate(0.472)" fill="none" stroke="#263238" stroke-linecap="round" stroke-linejoin="round" stroke-width="1"/>
          <path id="Path_51940" data-name="Path 51940" d="M111.9,67.594c-.062-2.127-1.518-3.83-3.31-3.83a3.221,3.221,0,0,0-2.788,1.826" transform="translate(-105.806 -58.613)" fill="none" stroke="#263238" stroke-linecap="round" stroke-linejoin="round" stroke-width="1"/>
        </g>
        <g id="Group_16792" data-name="Group 16792" transform="translate(0 0.56)">
          <circle id="Ellipse_96" data-name="Ellipse 96" cx="2.316" cy="2.316" r="2.316" transform="translate(0.994)" fill="none" stroke="#263238" stroke-linecap="round" stroke-linejoin="round" stroke-width="1"/>
          <path id="Path_51941" data-name="Path 51941" d="M64.836,67.594c.062-2.127,1.518-3.83,3.31-3.83a3.221,3.221,0,0,1,2.788,1.826" transform="translate(-64.836 -58.613)" fill="none" stroke="#263238" stroke-linecap="round" stroke-linejoin="round" stroke-width="1"/>
        </g>
      </g>
      <g id="Group_16795" data-name="Group 16795" transform="translate(37.546 148.813)">
        <circle id="Ellipse_97" data-name="Ellipse 97" cx="8.424" cy="8.424" r="8.424" transform="matrix(0.987, -0.159, 0.159, 0.987, 0, 2.675)" fill="none" stroke="#263238" stroke-linecap="round" stroke-linejoin="round" stroke-width="1"/>
        <g id="Group_16794" data-name="Group 16794" transform="translate(4.916 4.916)">
          <line id="Line_17" data-name="Line 17" y2="9.477" transform="translate(4.738)" fill="none" stroke="#263238" stroke-linecap="round" stroke-linejoin="round" stroke-width="4"/>
          <line id="Line_18" data-name="Line 18" x1="9.477" transform="translate(0 4.738)" fill="none" stroke="#263238" stroke-linecap="round" stroke-linejoin="round" stroke-width="4"/>
        </g>
      </g>
      <g id="Group_16809" data-name="Group 16809" transform="translate(71.354 47.552)">
        <g id="Group_16796" data-name="Group 16796" transform="translate(2.432 1.771)">
          <path id="Path_51942" data-name="Path 51942" d="M222.526,80.1v98.231a4.882,4.882,0,0,1-4.882,4.882H175.2a4.882,4.882,0,0,1-4.882-4.882V80.1a4.879,4.879,0,0,1,4.879-4.879h18.218l.015.056c.454,1.634,1.5,2.7,2.659,2.7h.665c1.16,0,2.2-1.063,2.659-2.7l.017-.056h18.213A4.882,4.882,0,0,1,222.526,80.1Z" transform="translate(-170.318 -75.223)" fill="#fff" stroke="#263238" stroke-linecap="round" stroke-linejoin="round" stroke-width="1"/>
        </g>
        <g id="Group_16808" data-name="Group 16808" transform="translate(0)">
          <path id="Path_51943" data-name="Path 51943" d="M220.764,99.867V90.056h-.887V77.5a7.743,7.743,0,0,0-7.742-7.742H170.546A7.743,7.743,0,0,0,162.8,77.5v99.81a7.743,7.743,0,0,0,7.742,7.742h41.588a7.743,7.743,0,0,0,7.742-7.742V108.229h.887v-5.8h-.887V99.867Zm-3.32,71.907a7.743,7.743,0,0,1-7.743,7.743H172.979a7.743,7.743,0,0,1-7.743-7.743V79.265a7.743,7.743,0,0,1,7.743-7.741h15.355l.015.056c.454,1.634,1.5,2.7,2.659,2.7h.665c1.16,0,2.2-1.063,2.659-2.7l.017-.056H209.7a7.743,7.743,0,0,1,7.743,7.741Z" transform="translate(-162.804 -69.753)" fill="#438ffe" stroke="#263238" stroke-linecap="round" stroke-linejoin="round" stroke-width="1"/>
          <path id="Path_51944" data-name="Path 51944" d="M213.386,73.048H173.04a7.467,7.467,0,0,0-7.467,7.467v98.228a7.467,7.467,0,0,0,7.467,7.467h40.346a7.467,7.467,0,0,0,7.467-7.467V80.515A7.467,7.467,0,0,0,213.386,73.048Zm5.931,101.231a7.468,7.468,0,0,1-7.468,7.468H174.577a7.468,7.468,0,0,1-7.468-7.468V81.217a7.465,7.465,0,0,1,7.465-7.465h15.633l.015.056c.454,1.634,1.5,2.7,2.659,2.7h.665c1.16,0,2.2-1.063,2.659-2.7l.017-.056h15.627a7.468,7.468,0,0,1,7.468,7.468Z" transform="translate(-164.677 -71.981)" fill="#263238" stroke="#263238" stroke-linecap="round" stroke-linejoin="round" stroke-width="1"/>
          <path id="Path_51945" data-name="Path 51945" d="M249.674,74.848a.727.727,0,1,0-.727.727A.727.727,0,0,0,249.674,74.848Z" transform="translate(-220.57 -72.707)" fill="#fff"/>
          <g id="Group_16807" data-name="Group 16807" transform="translate(5.975 4.011)">
            <g id="Group_16797" data-name="Group 16797" transform="translate(0 0.299)">
              <path id="Path_51946" data-name="Path 51946" d="M182.36,83.683c0,.735-.826,1-.829,1.561v.039h.8v.247h-1.07v-.209c0-.788.826-.941.826-1.628,0-.251-.084-.383-.286-.383s-.286.143-.286.359v.216h-.254v-.2c0-.373.171-.62.547-.62S182.36,83.31,182.36,83.683Z" transform="translate(-181.262 -83.066)" fill="#263238"/>
              <path id="Path_51947" data-name="Path 51947" d="M186.485,83.679v.062a.485.485,0,0,1-.3.5.485.485,0,0,1,.3.505v.188c0,.373-.174.617-.551.617s-.547-.244-.547-.617V84.77h.254v.185c0,.219.091.352.286.352s.286-.129.286-.376v-.188c0-.241-.1-.355-.307-.362h-.146v-.244h.161a.293.293,0,0,0,.293-.334V83.69c0-.251-.087-.38-.286-.38s-.286.136-.286.355v.125h-.254v-.111c0-.373.174-.613.547-.613S186.485,83.307,186.485,83.679Z" transform="translate(-184.052 -83.066)" fill="#263238"/>
              <path id="Path_51948" data-name="Path 51948" d="M189.859,85.531v.338H189.6v-.338Zm0,1.328V87.2H189.6v-.338Z" transform="translate(-186.899 -84.733)" fill="#263238"/>
              <path id="Path_51949" data-name="Path 51949" d="M191.516,84.134a.392.392,0,0,1,.363-.2c.314,0,.453.23.453.578v.477c0,.373-.178.617-.55.617s-.547-.244-.547-.617v-.164h.254v.181c0,.219.091.352.286.352s.286-.132.286-.352v-.474c0-.219-.091-.352-.286-.352a.263.263,0,0,0-.275.262V84.5h-.254l.066-1.356h.962v.244h-.718Z" transform="translate(-188.006 -83.117)" fill="#263238"/>
              <path id="Path_51950" data-name="Path 51950" d="M196.492,83.676v.045h-.254v-.063c0-.219-.091-.348-.289-.348s-.3.132-.3.394v.547a.393.393,0,0,1,.394-.261c.314,0,.453.227.453.578v.369c0,.373-.185.617-.558.617s-.561-.244-.561-.617V83.693c0-.387.174-.627.561-.627S196.492,83.3,196.492,83.676Zm-.84.913v.366c0,.219.091.352.289.352s.289-.132.289-.352v-.366c0-.22-.094-.352-.289-.352S195.652,84.369,195.652,84.589Z" transform="translate(-190.81 -83.066)" fill="#263238"/>
            </g>
            <g id="Group_16806" data-name="Group 16806" transform="translate(31.626)">
              <rect id="Rectangle_4067" data-name="Rectangle 4067" width="0.689" height="1.722" transform="translate(0 1.016)" fill="#263238"/>
              <rect id="Rectangle_4068" data-name="Rectangle 4068" width="0.689" height="2.067" transform="translate(0.918 0.671)" fill="#263238"/>
              <rect id="Rectangle_4069" data-name="Rectangle 4069" width="0.689" height="2.312" transform="translate(1.837 0.426)" fill="#263238"/>
              <rect id="Rectangle_4070" data-name="Rectangle 4070" width="0.689" height="2.738" transform="translate(2.755)" fill="#263238"/>
              <g id="Group_16801" data-name="Group 16801" transform="translate(7.835 0.165)">
                <g id="Group_16798" data-name="Group 16798">
                  <path id="Path_51951" data-name="Path 51951" d="M307.3,85.179h-4.133V82.653H307.3Zm-3.9-.23h3.674V82.883h-3.674Z" transform="translate(-303.164 -82.653)" fill="#263238"/>
                </g>
                <g id="Group_16799" data-name="Group 16799" transform="translate(0.574 0.479)">
                  <rect id="Rectangle_4071" data-name="Rectangle 4071" width="2.181" height="1.567" fill="#263238"/>
                </g>
                <g id="Group_16800" data-name="Group 16800" transform="translate(3.989 0.965)">
                  <rect id="Rectangle_4072" data-name="Rectangle 4072" width="0.52" height="0.595" fill="#263238"/>
                </g>
              </g>
              <g id="Group_16802" data-name="Group 16802" transform="translate(4.565 1.578)">
                <path id="Path_51952" data-name="Path 51952" d="M294.817,87.581a.152.152,0,0,1-.079-.022,1.2,1.2,0,0,0-1.42-.016.154.154,0,0,1-.2-.232,1.5,1.5,0,0,1,1.781-.017.154.154,0,0,1-.079.287Z" transform="translate(-293.062 -87.018)" fill="#263238"/>
              </g>
              <g id="Group_16803" data-name="Group 16803" transform="translate(4.254 0.966)">
                <path id="Path_51953" data-name="Path 51953" d="M294.478,85.783a.155.155,0,0,1-.079-.022,1.743,1.743,0,0,0-2.042-.017.154.154,0,1,1-.2-.231,2.054,2.054,0,0,1,2.4-.017.155.155,0,0,1-.079.287Z" transform="translate(-292.101 -85.127)" fill="#263238"/>
              </g>
              <g id="Group_16804" data-name="Group 16804" transform="translate(3.972 0.277)">
                <path id="Path_51954" data-name="Path 51954" d="M294.17,83.743a.154.154,0,0,1-.079-.022,2.2,2.2,0,0,0-2.607-.016.154.154,0,0,1-.2-.232,2.539,2.539,0,0,1,2.968-.017.154.154,0,0,1-.079.287Z" transform="translate(-291.228 -82.998)" fill="#263238"/>
              </g>
              <g id="Group_16805" data-name="Group 16805" transform="translate(5.081 2.013)">
                <path id="Path_51955" data-name="Path 51955" d="M295.429,88.747a.387.387,0,1,1-.387-.387A.387.387,0,0,1,295.429,88.747Z" transform="translate(-294.655 -88.36)" fill="#263238"/>
              </g>
            </g>
          </g>
        </g>
      </g>
      <g id="Group_16814" data-name="Group 16814" transform="translate(48.589 53.299)">
        <line id="Line_19" data-name="Line 19" x2="3.775" transform="translate(0 13.921)" fill="none" stroke="#263238" stroke-linecap="round" stroke-linejoin="round" stroke-width="1"/>
        <line id="Line_20" data-name="Line 20" x2="3.775" transform="translate(29.258 13.921)" fill="none" stroke="#263238" stroke-linecap="round" stroke-linejoin="round" stroke-width="1"/>
        <line id="Line_21" data-name="Line 21" x2="2.124" y2="1.652" transform="translate(3.775 4.011)" fill="none" stroke="#263238" stroke-linecap="round" stroke-linejoin="round" stroke-width="1"/>
        <line id="Line_22" data-name="Line 22" x1="2.124" y2="1.652" transform="translate(26.663 4.011)" fill="none" stroke="#263238" stroke-linecap="round" stroke-linejoin="round" stroke-width="1"/>
        <line id="Line_23" data-name="Line 23" x2="0.236" y2="3.539" transform="translate(12.27 0)" fill="none" stroke="#263238" stroke-linecap="round" stroke-linejoin="round" stroke-width="1"/>
        <line id="Line_24" data-name="Line 24" x1="0.472" y2="3.067" transform="translate(20.056 0.472)" fill="none" stroke="#263238" stroke-linecap="round" stroke-linejoin="round" stroke-width="1"/>
        <g id="Group_16813" data-name="Group 16813" transform="translate(5.509 6.726)">
          <rect id="Rectangle_4073" data-name="Rectangle 4073" width="20.373" height="17.582" transform="translate(0 2.775)" fill="#fff" stroke="#263238" stroke-linecap="round" stroke-linejoin="round" stroke-width="1"/>
          <rect id="Rectangle_4074" data-name="Rectangle 4074" width="3.843" height="17.582" transform="translate(3.724 2.775)" fill="#438ffe" stroke="#263238" stroke-linecap="round" stroke-linejoin="round" stroke-width="1"/>
          <rect id="Rectangle_4075" data-name="Rectangle 4075" width="8.93" height="17.582" transform="translate(11.443 2.775)" fill="#fff" stroke="#263238" stroke-linecap="round" stroke-linejoin="round" stroke-width="1"/>
          <g id="Group_16812" data-name="Group 16812" transform="translate(1.83)">
            <path id="Path_51956" data-name="Path 51956" d="M123.443,109.626l-2.986-1.307a1.334,1.334,0,0,0-.221-.012l-.05-.023h-3.006l2.342,1.1a3.244,3.244,0,0,0,.075.49,1.554,1.554,0,0,0,1.066,1.023l.018.092h.311l5.2.07S124.861,110.343,123.443,109.626Z" transform="translate(-116.525 -108.285)" fill="#438ffe" stroke="#263238" stroke-linecap="round" stroke-linejoin="round" stroke-width="1"/>
            <g id="Group_16810" data-name="Group 16810" transform="translate(0 0.016)">
              <path id="Path_51957" data-name="Path 51957" d="M121.834,111.094s-3.248-1.744-4.992-2.512-1.814.419-1.6,1.326,1.4,1.116,1.4,1.116Z" transform="translate(-115.154 -108.336)" fill="#438ffe" stroke="#263238" stroke-linecap="round" stroke-linejoin="round" stroke-width="1"/>
            </g>
            <path id="Path_51958" data-name="Path 51958" d="M133.191,112.927h-1.143a1.242,1.242,0,0,0-1.242,1.242h3.627A1.242,1.242,0,0,0,133.191,112.927Z" transform="translate(-125.739 -111.424)" fill="#438ffe" stroke="#263238" stroke-linecap="round" stroke-linejoin="round" stroke-width="1"/>
            <g id="Group_16811" data-name="Group 16811" transform="translate(5.736 0.016)">
              <path id="Path_51959" data-name="Path 51959" d="M148.246,108.361H145.6l-.344,1.307c-1.418.717-2.752,1.433-2.752,1.433l5.2-.07h.311l.018-.092a1.554,1.554,0,0,0,1.066-1.023C149.279,109.162,149.257,108.22,148.246,108.361Z" transform="translate(-139.389 -108.343)" fill="#438ffe" stroke="#263238" stroke-linecap="round" stroke-linejoin="round" stroke-width="1"/>
              <path id="Path_51960" data-name="Path 51960" d="M132.873,111.094s3.248-1.744,4.992-2.512,1.814.419,1.6,1.326-1.4,1.116-1.4,1.116Z" transform="translate(-132.873 -108.336)" fill="#438ffe" stroke="#263238" stroke-linecap="round" stroke-linejoin="round" stroke-width="1"/>
            </g>
          </g>
        </g>
      </g>
      <g id="Group_16825" data-name="Group 16825" transform="translate(53.38 58.16)">
        <g id="Group_16824" data-name="Group 16824">
          <g id="Group_16815" data-name="Group 16815" transform="translate(0 20.277)">
            <path id="Path_51961" data-name="Path 51961" d="M108.663,171.647s-1.7-1.134-1.33-1.492,2.2.429,2.616.96.207.9-.137.936A3.319,3.319,0,0,1,108.663,171.647Z" transform="translate(-107.28 -168.477)" fill="#fff" stroke="#263238" stroke-linecap="round" stroke-linejoin="round" stroke-width="1"/>
            <path id="Path_51962" data-name="Path 51962" d="M111.6,169.583s-2.639-1.372-2.005-.106a7.642,7.642,0,0,0,2.85,2.744,19.715,19.715,0,0,0,4.116.211,4.362,4.362,0,0,0-1.266-1.478C114.657,170.638,111.6,169.583,111.6,169.583Z" transform="translate(-108.776 -167.717)" fill="#fff" stroke="#263238" stroke-linecap="round" stroke-linejoin="round" stroke-width="1"/>
            <path id="Path_51963" data-name="Path 51963" d="M116.314,168.143s-3.483-1.9-3.589-1.161,2.744,3.167,3.694,3.589a6.838,6.838,0,0,0,2.322.422Z" transform="translate(-110.96 -166.277)" fill="#fff" stroke="#263238" stroke-linecap="round" stroke-linejoin="round" stroke-width="1"/>
            <path id="Path_51964" data-name="Path 51964" d="M133.749,170.279s-1.266-2.955-2.216-3.378-9.5.422-9.5.422-4.116-3.378-3.8-1.689,2.955,3.694,3.694,4.222,6.228.317,6.228.317l1.689,1.583Z" transform="translate(-114.676 -165.162)" fill="#fff" stroke="#263238" stroke-linecap="round" stroke-linejoin="round" stroke-width="1"/>
          </g>
          <g id="Group_16819" data-name="Group 16819" transform="translate(63.53 3.409)">
            <path id="Path_51965" data-name="Path 51965" d="M326.283,193.272a1.782,1.782,0,0,0-.149,1.242,3.041,3.041,0,0,0,.745,1.093l.248,1.54,3.379.149-1.391-5.167Z" transform="translate(-318.777 -166.531)" fill="#fff" stroke="#263238" stroke-linecap="round" stroke-linejoin="round" stroke-width="1"/>
            <g id="Group_16816" data-name="Group 16816" transform="translate(3.921 16.865)">
              <path id="Path_51966" data-name="Path 51966" d="M319.627,165.42s1.409,9.161,1.621,9.725a2.566,2.566,0,0,0,2.4.916c.564-.282-.423-1.621-.423-1.621l.282-8.808S321.107,164.716,319.627,165.42Z" transform="translate(-318.339 -165.154)" fill="#263238" stroke="#263238" stroke-linecap="round" stroke-linejoin="round" stroke-width="1"/>
              <path id="Path_51967" data-name="Path 51967" d="M327.471,174.845s-1.973-.141-2.044.211-.071,1.55.282,1.691a11.837,11.837,0,0,0,3.171.211,1.176,1.176,0,0,0,.493-1.621C328.951,174.7,327.471,174.845,327.471,174.845Z" transform="translate(-322.237 -171.689)" fill="#fff" stroke="#263238" stroke-linecap="round" stroke-linejoin="round" stroke-width="1"/>
              <path id="Path_51968" data-name="Path 51968" d="M327.986,181.829s-1.9,0-1.832.423-.141,1.339.634,1.48a9.392,9.392,0,0,0,2.819-.071.833.833,0,0,0,.353-1.48A3.346,3.346,0,0,0,327.986,181.829Z" transform="translate(-322.752 -176.419)" fill="#fff" stroke="#263238" stroke-linecap="round" stroke-linejoin="round" stroke-width="1"/>
              <path id="Path_51969" data-name="Path 51969" d="M317.825,179.934s-.242-1.776-.815-1.726c-.427.037-1.448.358-1.355,1.14a9.39,9.39,0,0,0,.9,2.674.833.833,0,0,0,1.518-.1A3.345,3.345,0,0,0,317.825,179.934Z" transform="translate(-315.649 -173.981)" fill="#fff" stroke="#263238" stroke-linecap="round" stroke-linejoin="round" stroke-width="1"/>
              <path id="Path_51970" data-name="Path 51970" d="M328.682,187.706s-1.721,0-1.658.407-.128,1.287.574,1.423a8,8,0,0,0,2.55-.068.817.817,0,0,0,.319-1.423C329.958,187.571,328.682,187.706,328.682,187.706Z" transform="translate(-323.341 -180.394)" fill="#fff" stroke="#263238" stroke-linecap="round" stroke-linejoin="round" stroke-width="1"/>
              <path id="Path_51971" data-name="Path 51971" d="M329.5,192.493s-1.44,0-1.387.34-.107,1.077.48,1.191a6.7,6.7,0,0,0,2.134-.057.684.684,0,0,0,.266-1.191C330.566,192.379,329.5,192.493,329.5,192.493Z" transform="translate(-324.077 -183.633)" fill="#fff" stroke="#263238" stroke-linecap="round" stroke-linejoin="round" stroke-width="1"/>
            </g>
            <g id="Group_16818" data-name="Group 16818">
              <path id="Path_51972" data-name="Path 51972" d="M308.353,125.478a4.818,4.818,0,0,0-3.707,7.893,4.706,4.706,0,0,0,3.707,1.743c4.229-.26,15.311,5.676,15.311,5.676V119.8S312.74,125.564,308.353,125.478Z" transform="translate(-303.537 -117.617)" fill="#fff" stroke="#263238" stroke-linecap="round" stroke-linejoin="round" stroke-width="1"/>
              <g id="Group_16817" data-name="Group 16817" transform="translate(0 7.559)">
                <path id="Path_51973" data-name="Path 51973" d="M307.493,141.7a6.02,6.02,0,0,1,3.147-5.292,9.715,9.715,0,0,1-2.287.3,4.818,4.818,0,0,0-3.707,7.893,4.706,4.706,0,0,0,3.707,1.743,6.889,6.889,0,0,1,1.464.1A6.005,6.005,0,0,1,307.493,141.7Z" transform="translate(-303.537 -136.404)" fill="#438ffe" stroke="#263238" stroke-linecap="round" stroke-linejoin="round" stroke-width="1"/>
              </g>
              <circle id="Ellipse_98" data-name="Ellipse 98" cx="10.494" cy="10.494" r="10.494" transform="matrix(0.237, -0.972, 0.972, 0.237, 7.449, 20.393)" fill="#fff" stroke="#263238" stroke-linecap="round" stroke-linejoin="round" stroke-width="1"/>
              <path id="Path_51974" data-name="Path 51974" d="M355.975,133.534a8.945,8.945,0,1,1-8.945-8.945A8.945,8.945,0,0,1,355.975,133.534Z" transform="translate(-326.904 -120.855)" fill="#a6a6a6" stroke="#263238" stroke-linecap="round" stroke-linejoin="round" stroke-width="1"/>
              <path id="Path_51975" data-name="Path 51975" d="M347.03,142.694v4.369l-6.883,3.526a8.96,8.96,0,0,1-1.343-9.223Z" transform="translate(-326.904 -132.201)" fill="#fff" stroke="#263238" stroke-linecap="round" stroke-linejoin="round" stroke-width="1"/>
              <path id="Path_51976" data-name="Path 51976" d="M363.336,147.656a2.185,2.185,0,1,1-2.185-2.185A2.184,2.184,0,0,1,363.336,147.656Z" transform="translate(-341.024 -134.977)" fill="#fff" stroke="#263238" stroke-linecap="round" stroke-linejoin="round" stroke-width="1"/>
            </g>
          </g>
          <g id="Group_16820" data-name="Group 16820" transform="translate(13.851 23.34)">
            <path id="Path_51977" data-name="Path 51977" d="M326.414,203.825l-.349-1.466,4.538-.559-.1,2.036Z" transform="translate(-269.093 -193.003)" fill="#fff" stroke="#263238" stroke-linecap="round" stroke-linejoin="round" stroke-width="1"/>
            <path id="Path_51978" data-name="Path 51978" d="M151.116,178.743l-1.047-1.676,4.817-2.444.4,2.054Z" transform="translate(-150.069 -174.624)" fill="#fff" stroke="#263238" stroke-linecap="round" stroke-linejoin="round" stroke-width="1"/>
            <path id="Path_51979" data-name="Path 51979" d="M181.03,177.588s-7.742-.86-8.43-.516-10.494,11.957-10.494,11.957l-6.021-12.043-5.075,2.237s6.365,21.677,7.4,21.935,10.838-6.279,10.838-6.279l-.6,8.6a12.328,12.328,0,0,0,9.806,8.6c8,1.376,12.731-4.817,13.763-6.881a42.029,42.029,0,0,0,1.979-5.075l3.7-10.924s10.408,8.516,12.731,9.548,4.473,1.978,4.731,1.462-2.323-14.279-2.323-14.279l-5.505.258.258,2.15s-7.139-9.376-7.742-10.322-2.408-.774-4.559-1.376S181.03,177.588,181.03,177.588Z" transform="translate(-150.705 -175.894)" fill="#438ffe" stroke="#263238" stroke-linecap="round" stroke-linejoin="round" stroke-width="1"/>
            <line id="Line_25" data-name="Line 25" y1="4.301" x2="5.763" transform="translate(18.54 14.682)" fill="none" stroke="#263238" stroke-linecap="round" stroke-linejoin="round" stroke-width="1"/>
            <line id="Line_26" data-name="Line 26" y1="0.516" x2="2.925" transform="translate(22.239 15.8)" fill="none" stroke="#263238" stroke-linecap="round" stroke-linejoin="round" stroke-width="1"/>
            <line id="Line_27" data-name="Line 27" y1="6.967" x2="1.978" transform="translate(47.184 6.338)" fill="none" stroke="#263238" stroke-linecap="round" stroke-linejoin="round" stroke-width="1"/>
            <line id="Line_28" data-name="Line 28" y1="3.011" x2="2.15" transform="translate(47.958 8.059)" fill="none" stroke="#263238" stroke-linecap="round" stroke-linejoin="round" stroke-width="1"/>
            <line id="Line_29" data-name="Line 29" x2="0.087" y2="1.701" transform="translate(57.333 17.454)" fill="none" stroke="#263238" stroke-linecap="round" stroke-linejoin="round" stroke-width="1"/>
            <line id="Line_30" data-name="Line 30" x2="0.157" y2="3.066" transform="translate(57.076 12.446)" fill="none" stroke="#263238" stroke-linecap="round" stroke-linejoin="round" stroke-width="1"/>
            <line id="Line_31" data-name="Line 31" x2="1.806" y2="3.785" transform="translate(11.401 13.134)" fill="none" stroke="#263238" stroke-linecap="round" stroke-linejoin="round" stroke-width="1"/>
          </g>
          <path id="Path_51980" data-name="Path 51980" d="M238.226,175.108l-3.785.688a7.852,7.852,0,0,0-2.15,3.7,31.215,31.215,0,0,0-1.032,4.817l3.269.172-2.581,2.581s.774,1.118,2.409,3.527a51.37,51.37,0,0,0,4.215,5.161l-4.817,6.194s5.849-1.29,9.462-5.247a34.383,34.383,0,0,0,5.763-9.892l-2.839-2.237,3.01-.6s.6-4.9-2.58-8.086S238.226,175.108,238.226,175.108Z" transform="translate(-191.126 -151.021)" fill="#438ffe" stroke="#263238" stroke-linecap="round" stroke-linejoin="round" stroke-width="1"/>
          <g id="Group_16821" data-name="Group 16821" transform="translate(45.166 23.915)">
            <path id="Path_51981" data-name="Path 51981" d="M257.257,178.638a15.44,15.44,0,0,0-1.2,5.677c-.157,2.881-1.668,6.552-3,9.149-1.059,2.065-2.005,3.452-2.073,3.239a19.364,19.364,0,0,1-1.45-3.493c-.216-.624-.45-1.349-.7-2.186-1.29-4.3-2.408-11.267-1.893-12.643a15.54,15.54,0,0,1,.861-1.979A6.975,6.975,0,0,0,257.257,178.638Z" transform="translate(-246.805 -176.401)" fill="#fff" stroke="#263238" stroke-linecap="round" stroke-linejoin="round" stroke-width="1"/>
            <path id="Path_51982" data-name="Path 51982" d="M257.7,210.909l1.041,3.041c-1.059,2.065-2.005,3.452-2.073,3.239a19.365,19.365,0,0,1-1.45-3.493l1.45-2.615-1.438-2.689,1.7-1.7,2.322,2.322Z" transform="translate(-252.493 -196.888)" fill="#263238" stroke="#263238" stroke-linecap="round" stroke-linejoin="round" stroke-width="1"/>
            <path id="Path_51983" data-name="Path 51983" d="M251.72,209.618l2.839-2.925,3.458,3.261" transform="translate(-250.129 -196.888)" fill="none" stroke="#263238" stroke-linecap="round" stroke-linejoin="round" stroke-width="1"/>
            <path id="Path_51984" data-name="Path 51984" d="M249.859,176.4a17.877,17.877,0,0,0,1.032,5.075,28.067,28.067,0,0,0,2.408,4.731l4.043-5.763A8.653,8.653,0,0,1,249.859,176.4Z" transform="translate(-248.87 -176.401)" fill="none" stroke="#263238" stroke-linecap="round" stroke-linejoin="round" stroke-width="1"/>
          </g>
          <g id="Group_16823" data-name="Group 16823" transform="translate(39.626)">
            <path id="Path_51985" data-name="Path 51985" d="M287.871,148.231s1.228-.194,1.228,1.486a13.947,13.947,0,0,1-.711,3.75Z" transform="translate(-269.038 -133.43)" fill="#fff" stroke="#263238" stroke-linecap="round" stroke-linejoin="round" stroke-width="1"/>
            <g id="Group_16822" data-name="Group 16822">
              <path id="Path_51986" data-name="Path 51986" d="M251.515,125.663s.86,7.828.946,10.15-.172,4.387-.946,5.419-3.871,5.161-5.505,5.333a6.223,6.223,0,0,1-4.129-1.29c-.688-.6-3.957-5.763-3.957-5.763s-2.495-.172-3.1-3.441,2.753-2.495,2.753-2.495a13.944,13.944,0,0,1-1.979-5.591c-.172-2.753-.688-3.785,6.71-3.957S251.515,125.663,251.515,125.663Z" transform="translate(-233.116 -117.059)" fill="#fff" stroke="#263238" stroke-linecap="round" stroke-linejoin="round" stroke-width="1"/>
              <path id="Path_51987" data-name="Path 51987" d="M272.236,146.108l2.064,7.139-3.183-.946" transform="translate(-257.707 -131.999)" fill="none" stroke="#263238" stroke-linecap="round" stroke-linejoin="round" stroke-width="1"/>
              <line id="Line_32" data-name="Line 32" x1="2.495" y2="0.516" transform="translate(7.733 19.442)" fill="none" stroke="#263238" stroke-linecap="round" stroke-linejoin="round" stroke-width="1"/>
              <path id="Path_51988" data-name="Path 51988" d="M257.565,163.912a4.043,4.043,0,0,0,3.355,2.753,8.917,8.917,0,0,0,4.129-.086" transform="translate(-248.542 -144.04)" fill="none" stroke="#263238" stroke-linecap="round" stroke-linejoin="round" stroke-width="1"/>
              <path id="Path_51989" data-name="Path 51989" d="M259.689,168.163s-.086,4.3,1.462,4.473,1.2-3.1,1.2-3.1A7.093,7.093,0,0,1,259.689,168.163Z" transform="translate(-249.978 -146.915)" fill="#263238" stroke="#263238" stroke-linecap="round" stroke-linejoin="round" stroke-width="1"/>
              <path id="Path_51990" data-name="Path 51990" d="M260.671,177.35c.211.785.563,1.434,1.145,1.5a.82.82,0,0,0,.776-.322A4.094,4.094,0,0,0,260.671,177.35Z" transform="translate(-250.642 -153.128)" fill="#fff" stroke="#263238" stroke-linecap="round" stroke-linejoin="round" stroke-width="1"/>
              <path id="Path_51991" data-name="Path 51991" d="M261.036,150.423c0,.475-.212.86-.473.86s-.473-.385-.473-.86.212-.86.473-.86S261.036,149.948,261.036,150.423Z" transform="translate(-250.249 -134.336)" fill="#263238"/>
              <path id="Path_51992" data-name="Path 51992" d="M278.839,148.031c0,.475-.212.86-.473.86s-.473-.385-.473-.86.212-.86.473-.86S278.839,147.556,278.839,148.031Z" transform="translate(-262.289 -132.718)" fill="#263238"/>
              <path id="Path_51993" data-name="Path 51993" d="M256.768,145.123a3.653,3.653,0,0,1,3.269-1.2" transform="translate(-248.003 -130.498)" fill="none" stroke="#263238" stroke-linecap="round" stroke-linejoin="round" stroke-width="1"/>
              <path id="Path_51994" data-name="Path 51994" d="M275.369,140.159s1.118-2.065,2.925-1.032" transform="translate(-260.583 -127.082)" fill="none" stroke="#263238" stroke-linecap="round" stroke-linejoin="round" stroke-width="1"/>
              <path id="Path_51995" data-name="Path 51995" d="M238.972,111.3s-2.667-.43-2.065.344,1.979,1.721,1.29,2.323-2.408,1.634-2.323,2.15a9.869,9.869,0,0,1,0,3.183,1.3,1.3,0,0,1-1.462.516c-.6-.086-1.462-1.634-1.806-2.064s-3.441-3.527-2.839-6.021,7.053-4.473,7.053-4.473,4.129-4.645,6.881-4.731,1.721,2.495,1.634,2.753,3.957-.258,4.731,2.236.516,3.183-3.01,4.129S238.972,111.3,238.972,111.3Z" transform="translate(-229.691 -102.523)" fill="#263238" stroke="#263238" stroke-linecap="round" stroke-linejoin="round" stroke-width="1"/>
            </g>
          </g>
        </g>
        <path id="Path_51996" data-name="Path 51996" d="M406.024,119.022l-7.011,1.813,1.451.725-3.989,1.209,8.1-1.088-2.055-.967Z" transform="translate(-302.86 -113.681)" fill="#263238"/>
        <path id="Path_51997" data-name="Path 51997" d="M409.062,168.684l-7.091-1.468.981,1.291-4.113-.676,7.747,2.6-1.417-1.775Z" transform="translate(-304.459 -146.274)" fill="#263238"/>
        <path id="Path_51998" data-name="Path 51998" d="M387.854,197.953l-5.971-4.1.405,1.57-3.531-2.215,6.138,5.394-.62-2.185Z" transform="translate(-290.878 -163.854)" fill="#263238"/>
      </g>
      <g id="Group_16826" data-name="Group 16826" transform="translate(78.194 124.411)">
        <path id="Path_51999" data-name="Path 51999" d="M207.24,317.1v-9.911h2.374a5.232,5.232,0,0,1,1.695.239,1.945,1.945,0,0,1,1.052.814,2.929,2.929,0,0,1,.361,1.566,4.8,4.8,0,0,1-.11,1.077,2.05,2.05,0,0,1-.373.813,1.682,1.682,0,0,1-.728.52l1.383,4.882h-1.811l-1.2-4.54h-.832v4.54Zm1.811-5.678h.563a1.918,1.918,0,0,0,.838-.153.893.893,0,0,0,.447-.489,2.351,2.351,0,0,0,.135-.863,1.88,1.88,0,0,0-.275-1.12,1.231,1.231,0,0,0-1.046-.373h-.661Z" transform="translate(-199.697 -307.186)" fill="#438ffe"/>
        <path id="Path_52000" data-name="Path 52000" d="M228.37,317.1v-9.911h4.161v1.272h-2.349v2.851h1.848v1.26h-1.848v3.28h2.374V317.1Z" transform="translate(-213.987 -307.186)" fill="#438ffe"/>
        <path id="Path_52001" data-name="Path 52001" d="M244.549,317.1v-9.911h4.075v1.248H246.36v2.888h1.848v1.261H246.36V317.1Z" transform="translate(-224.928 -307.186)" fill="#438ffe"/>
        <path id="Path_52002" data-name="Path 52002" d="M260.047,317.1v-9.911h4.161v1.272h-2.349v2.851h1.848v1.26h-1.848v3.28h2.374V317.1Z" transform="translate(-235.409 -307.186)" fill="#438ffe"/>
        <path id="Path_52003" data-name="Path 52003" d="M276.226,317.1v-9.911H278.6a5.232,5.232,0,0,1,1.695.239,1.945,1.945,0,0,1,1.052.814,2.93,2.93,0,0,1,.361,1.566,4.8,4.8,0,0,1-.11,1.077,2.045,2.045,0,0,1-.373.813,1.681,1.681,0,0,1-.728.52l1.383,4.882h-1.811l-1.2-4.54h-.832v4.54Zm1.811-5.678h.563a1.919,1.919,0,0,0,.838-.153.893.893,0,0,0,.446-.489,2.35,2.35,0,0,0,.135-.863,1.883,1.883,0,0,0-.276-1.12,1.231,1.231,0,0,0-1.046-.373h-.661Z" transform="translate(-246.351 -307.186)" fill="#438ffe"/>
        <path id="Path_52004" data-name="Path 52004" d="M183.937,356.457l1.982-9.911h1.933l1.982,9.911h-1.676l-.392-2.288h-1.725l-.4,2.288Zm2.288-3.438h1.346l-.673-4.16Z" transform="translate(-183.937 -333.805)" fill="#438ffe"/>
        <path id="Path_52005" data-name="Path 52005" d="M214.252,356.457v-9.911h4.075v1.248h-2.264v2.888h1.847v1.261h-1.847v4.515Z" transform="translate(-204.439 -333.805)" fill="#438ffe"/>
        <path id="Path_52006" data-name="Path 52006" d="M229.75,356.457v-9.911h2.374a5.232,5.232,0,0,1,1.695.239,1.949,1.949,0,0,1,1.052.814,2.93,2.93,0,0,1,.361,1.566,4.822,4.822,0,0,1-.11,1.077,2.053,2.053,0,0,1-.373.814,1.684,1.684,0,0,1-.728.52l1.383,4.882h-1.811l-1.2-4.54h-.832v4.54Zm1.811-5.678h.563a1.924,1.924,0,0,0,.838-.153.9.9,0,0,0,.447-.489,2.359,2.359,0,0,0,.135-.863,1.88,1.88,0,0,0-.275-1.12,1.23,1.23,0,0,0-1.046-.374h-.661Z" transform="translate(-214.92 -333.805)" fill="#438ffe"/>
        <path id="Path_52007" data-name="Path 52007" d="M251.031,356.457v-9.911h1.787v9.911Z" transform="translate(-229.312 -333.805)" fill="#438ffe"/>
        <path id="Path_52008" data-name="Path 52008" d="M261.276,356.457v-9.911h4.16v1.272h-2.349v2.851h1.848v1.261h-1.848v3.28h2.374v1.248Z" transform="translate(-236.241 -333.805)" fill="#438ffe"/>
        <path id="Path_52009" data-name="Path 52009" d="M277.453,356.457v-9.911h1.261l2.41,5.653v-5.653h1.493v9.911h-1.2l-2.423-5.922v5.922Z" transform="translate(-247.181 -333.805)" fill="#438ffe"/>
        <path id="Path_52010" data-name="Path 52010" d="M298.055,356.457v-9.911h2.337a4.4,4.4,0,0,1,1.89.331,1.927,1.927,0,0,1,.967,1.015,4.521,4.521,0,0,1,.287,1.737v3.622a4.839,4.839,0,0,1-.287,1.792,2,2,0,0,1-.955,1.065,3.989,3.989,0,0,1-1.829.349Zm1.811-1.26h.551a1.419,1.419,0,0,0,.893-.22.971.971,0,0,0,.33-.642,7.362,7.362,0,0,0,.062-1.034v-3.793a4.411,4.411,0,0,0-.086-.967.829.829,0,0,0-.355-.538,1.679,1.679,0,0,0-.869-.171h-.526Z" transform="translate(-261.114 -333.805)" fill="#438ffe"/>
      </g>
    </g>
  </g>
</svg>
