<svg xmlns="http://www.w3.org/2000/svg" width="200" height="170" viewBox="0 0 200 170">
  <g id="Group_16999" data-name="Group 16999" transform="translate(-3058 12895)">
    <rect id="Rectangle_4121" data-name="Rectangle 4121" width="200" height="170" transform="translate(3058 -12895)" fill="none"/>
    <g id="Group_16998" data-name="Group 16998" transform="translate(2670.594 -13815.365)">
      <g id="Group_16833" data-name="Group 16833" transform="translate(414.87 990.975)">
        <g id="Group_16829" data-name="Group 16829" transform="translate(0 1.974)">
          <g id="Group_16827" data-name="Group 16827" transform="translate(0 16.585)">
            <path id="Path_52011" data-name="Path 52011" d="M620.479,2772.481c.747,6.563,9.529,5.076,15.376,9.949s.106,11.593,13.466,12.969c8.229.847,7.634-2.595,15.85,5.825,7.233,7.413,8.52-4.871,16.584-2.964,10.4,2.46,11.1-18,1.513-21.94s-14.257,1.657-16.051-6.93-8.257-11.784-16.439-9.826c-10.127,2.423-8.656,11.283-13.9,6.43S619.491,2763.8,620.479,2772.481Z" transform="translate(-620.422 -2759.006)" fill="#438ffe" opacity="0.5"/>
            <path id="Path_52012" data-name="Path 52012" d="M994.269,3119.525C964.962,3097,930.4,3092.093,930.4,3092.093c.35.032,35.4,3.472,65.062,26.27Z" transform="translate(-918.769 -3079.599)" fill="#fff"/>
          </g>
          <g id="Group_16828" data-name="Group 16828" transform="translate(38.798)">
            <path id="Path_52013" data-name="Path 52013" d="M1655.27,2319.546c-2.155,3.977,3.358,6.588,4.728,11.618s-4.174,8.559,2.786,14.573c4.287,3.7,6.913-2.137,10.726,3.844s1.479,7.32,5.23,9.209c6.54,3.293,14.9-6.511,11.063-12.483s-10.125-4.7-7.763-10.228,3.207-7.885-2.155-10c-6.636-2.613-11.824,1.036-12.864-3.746S1658.121,2314.286,1655.27,2319.546Z" transform="translate(-1654.776 -2316.854)" fill="#438ffe"/>
            <path id="Path_52014" data-name="Path 52014" d="M1880.561,2544.653l1.3-.847c-7.709-24.437-30.314-48.682-30.5-48.837C1851.36,2494.969,1872.949,2520.526,1880.561,2544.653Z" transform="translate(-1843.986 -2488.288)" fill="#fff"/>
          </g>
        </g>
        <g id="Group_16832" data-name="Group 16832" transform="translate(73.305 12.909)">
          <g id="Group_16830" data-name="Group 16830" transform="translate(3.82)">
            <path id="Path_52015" data-name="Path 52015" d="M2879.77,2615.882c.4,6.592-8.5,6.651-13.418,12.465s1.906,11.435-11.013,15.107c-7.958,2.261-7.968-1.232-14.6,8.486-5.838,8.555-9.236-3.32-16.847-.044-9.82,4.227-14.055-15.806-5.294-21.345s14.327-.841,14.6-9.608,6.089-13.038,14.487-12.529c10.394.63,10.481,9.611,14.8,3.922S2879.238,2607.163,2879.77,2615.882Z" transform="translate(-2808.685 -2608.373)" fill="#438ffe" opacity="0.5"/>
            <path id="Path_52016" data-name="Path 52016" d="M2677.929,2874.4c24.957-27.264,58.148-38.093,58.148-38.093-.34.092-34.257,9.557-59.52,37.155Z" transform="translate(-2676.557 -2827.759)" fill="#438ffe"/>
          </g>
          <g id="Group_16831" data-name="Group 16831" transform="translate(0 0.756)">
            <path id="Path_52017" data-name="Path 52017" d="M2594.068,2629.716c2.2,2.369-1.147,5.163-1.2,8.891s4.421,5.18.676,10.589c-2.307,3.331-5.169-.244-6.74,4.58s.285,5.333-1.975,7.312c-3.939,3.45-11.483-1.844-9.893-6.666s6.17-5.067,3.547-8.47-3.631-4.887-.3-7.308c4.128-3,8.373-1.4,8.238-4.894S2591.154,2626.583,2594.068,2629.716Z" transform="translate(-2574.722 -2628.529)" fill="#438ffe"/>
            <path id="Path_52018" data-name="Path 52018" d="M2653.311,2806.246l-1.05-.355c.969-18.3,12.287-39.131,12.386-39.272C2664.648,2766.619,2654.268,2788.177,2653.311,2806.246Z" transform="translate(-2649.353 -2761.439)" fill="#fff"/>
          </g>
        </g>
        <circle id="Ellipse_99" data-name="Ellipse 99" cx="0.804" cy="0.804" r="0.804" transform="translate(97.811 67.15) rotate(-10.003)" fill="#7be0df"/>
        <path id="Path_52019" data-name="Path 52019" d="M661.735,3391.455a2.509,2.509,0,0,1-.28-.016,2.472,2.472,0,1,1,2.732-2.182h0a2.473,2.473,0,0,1-2.452,2.2Zm-.009-4.59a2.12,2.12,0,1,0,.24.013A2.138,2.138,0,0,0,661.726,3386.864Z" transform="translate(-657.801 -3344.413)" fill="#7be0df"/>
        <path id="Path_52020" data-name="Path 52020" d="M4320.4,2269.162a2.521,2.521,0,0,1-.28-.016,2.466,2.466,0,1,1,.28.016Zm-.009-4.59a2.124,2.124,0,1,0,.239.013A2.188,2.188,0,0,0,4320.387,2264.572Z" transform="translate(-4179.227 -2264.217)" fill="#7be0df"/>
      </g>
      <g id="Group_16853" data-name="Group 16853" transform="translate(406.86 1040.422)">
        <g id="Group_16852" data-name="Group 16852" transform="translate(0)">
          <path id="Path_52021" data-name="Path 52021" d="M561.693,3652.625c-1.733.171-149.779.864-150.617.711-3.523,0-4.881-3.352-3.913-5.9a4.349,4.349,0,0,1,.787-1.318,9.51,9.51,0,0,1,2.451-.763l14.032-17.065c.782-.951,4.046-1.712,7.308-1.722l109.81-.324c3.242-.009,6.521.729,7.343,1.673l14.687,16.2a3.482,3.482,0,0,1,3.644,3C567.764,3649.572,566.368,3652.625,561.693,3652.625Z" transform="translate(-406.86 -3624.598)" fill="#5e5e5e"/>
          <path id="Path_52022" data-name="Path 52022" d="M561.693,4188.4c-1.733.171-149.779.864-150.617.713-3.523,0-4.881-3.353-3.913-5.905.023,1.593.722,3.53,3.9,3.752,5.5.384,153.009-1.215,153.009-1.215a3.7,3.7,0,0,0,3.15-2.849C567.764,4185.346,566.368,4188.4,561.693,4188.4Z" transform="translate(-406.86 -4160.372)" fill="#5e5e5e"/>
          <g id="Group_16851" data-name="Group 16851" transform="translate(0.909)">
            <g id="Group_16834" data-name="Group 16834">
              <path id="Path_52023" data-name="Path 52023" d="M431.427,3603.749l16.118-19.263c.788-.941,4.072-1.7,7.352-1.7l110.42-.321c3.26-.009,6.561.722,7.391,1.656l16.978,19.083c1.367,1.537-1.013,2.833-5.359,2.849l-147.351.523C432.6,3606.587,430.128,3605.3,431.427,3603.749Z" transform="translate(-431.08 -3582.46)" fill="#5e5e5e"/>
              <path id="Path_52024" data-name="Path 52024" d="M457.774,3610.391a1.5,1.5,0,0,1,.2-.308l15.978-19.271c.673-.812,3.55-1.469,6.424-1.478l110.676-.322c2.856-.008,5.748.631,6.458,1.435l16.842,19.093c.033.038.064.076.092.113.459.611.247,1.189-.607,1.626a9.8,9.8,0,0,1-4.124.71l-146.936.52C459.344,3612.521,457.2,3611.6,457.774,3610.391Z" transform="translate(-456.683 -3588.766)" fill="#0e0e0e"/>
              <path id="Path_52025" data-name="Path 52025" d="M605.208,3624.057l16.488-21.793,113.185-.331,17.831,21.605Z" transform="translate(-598.676 -3601.202)" fill="#e3f7fa"/>
            </g>
            <path id="Path_52026" data-name="Path 52026" d="M3797.745,3623.586l-14.667-21.623,10.473-.031,17.831,21.605Z" transform="translate(-3657.346 -3601.202)" fill="#438ffe"/>
            <g id="Group_16837" data-name="Group 16837" transform="translate(141.338 18.384)">
              <g id="Group_16836" data-name="Group 16836">
                <g id="Group_16835" data-name="Group 16835">
                  <path id="Path_52027" data-name="Path 52027" d="M4251.068,4074.43l-1.106-1.5c-.022-.029.013-.055.086-.064l2.293-.29a.578.578,0,0,1,.18.009.223.223,0,0,1,.12.054l1.6,2.074c.017.022,0,.043-.038.057a.439.439,0,0,1-.168.01l-2.78-.284A.3.3,0,0,1,4251.068,4074.43Zm-.685-1.452,1.039,1.4,2.35.24-1.445-1.886Z" transform="translate(-4248.049 -4072.573)" fill="#fff"/>
                  <path id="Path_52028" data-name="Path 52028" d="M4224.4,4084.3l-.928-1.279c-.027-.037.037-.068.143-.068a.369.369,0,0,1,.243.067l.9,1.228a.658.658,0,0,0,.435.128c.155,0,.294-.016.311-.052l4.2.427a.319.319,0,0,1,.189.066l.359.46c.031.04-.033.072-.142.072a.386.386,0,0,1-.253-.071l-.318-.409-3.9-.393A1.781,1.781,0,0,1,4224.4,4084.3Z" transform="translate(-4222.557 -4082.562)" fill="#fff"/>
                  <path id="Path_52029" data-name="Path 52029" d="M4199.7,4087.874a.832.832,0,0,1-.558-.155c-.062-.086.087-.157.333-.158a.829.829,0,0,1,.558.155C4200.1,4087.8,4199.95,4087.873,4199.7,4087.874Z" transform="translate(-4199.131 -4086.999)" fill="#fff"/>
                  <path id="Path_52030" data-name="Path 52030" d="M4214.829,4109a.832.832,0,0,1-.563-.158c-.063-.088.087-.16.334-.161a.838.838,0,0,1,.563.158C4215.226,4108.93,4215.077,4109,4214.829,4109Z" transform="translate(-4213.684 -4107.33)" fill="#fff"/>
                  <path id="Path_52031" data-name="Path 52031" d="M4265.319,4100.933c-.028-.038.037-.069.144-.069l2.531-.009a.376.376,0,0,1,.247.068c.029.038-.034.069-.141.069l-2.535.008A.36.36,0,0,1,4265.319,4100.933Z" transform="translate(-4262.83 -4099.794)" fill="#fff"/>
                  <path id="Path_52032" data-name="Path 52032" d="M4257.818,4085.628c-.022-.031.018-.06.1-.067l2.367-.209a.484.484,0,0,1,.27.05c.052.037.015.073-.083.082l-2.37.21a.471.471,0,0,1-.27-.05A.07.07,0,0,1,4257.818,4085.628Z" transform="translate(-4255.61 -4084.87)" fill="#fff"/>
                  <path id="Path_52033" data-name="Path 52033" d="M4272.571,4110.972a.02.02,0,0,1-.005-.01c-.013-.038.067-.064.178-.059l2.642.122c.111.005.212.04.225.078s-.064.065-.175.06l-2.647-.124A.339.339,0,0,1,4272.571,4110.972Z" transform="translate(-4269.809 -4109.465)" fill="#fff"/>
                  <path id="Path_52034" data-name="Path 52034" d="M4281.567,4078.33l-1.342-1.786c-.027-.037.036-.067.142-.068a.368.368,0,0,1,.243.067l1.35,1.785c.029.039-.034.07-.143.071A.382.382,0,0,1,4281.567,4078.33Z" transform="translate(-4277.177 -4076.33)" fill="#fff"/>
                </g>
                <path id="Path_52035" data-name="Path 52035" d="M4384.159,4135.853l-.323-.416.593,0,.326.416c.042.054-.045.1-.194.1h-.055A.534.534,0,0,1,4384.159,4135.853Z" transform="translate(-4376.907 -4133.077)" fill="#fff"/>
              </g>
            </g>
            <path id="Path_52036" data-name="Path 52036" d="M3959.412,3756.788l-5.625-7.888,2.226-.007,5.853,7.887Z" transform="translate(-3821.651 -3742.65)" fill="#d2f2f4"/>
            <g id="Group_16838" data-name="Group 16838" transform="translate(115.787 1.526)">
              <path id="Path_52037" data-name="Path 52037" d="M3531.776,3642.749a10.956,10.956,0,0,1-3.018-.408,2.913,2.913,0,0,1-1.752-1.041l-9.014-17.074a.378.378,0,0,1,.008-.387c.247-.41,1.324-.677,2.747-.681h.031c1.563,0,3.384.35,3.747.941l10.491,17.067a.611.611,0,0,1,.03.647c-.314.564-1.582.932-3.23.938Zm-10.995-19.374h-.034c-1.456,0-2.389.292-2.56.575a.16.16,0,0,0,0,.172l9.014,17.074c.383.726,2.474,1.333,4.578,1.333h.038c1.786-.007,2.813-.419,3.04-.826a.394.394,0,0,0-.025-.425l-10.492-17.067C3524.089,3623.806,3522.6,3623.375,3520.782,3623.375Z" transform="translate(-3517.943 -3623.156)" fill="#438ffe"/>
              <path id="Path_52038" data-name="Path 52038" d="M3740.767,4064.293l-.834-1.579,7.684-.026.971,1.579c.473.771-.915,1.411-3.107,1.418h0C3743.287,4065.692,3741.174,4065.064,3740.767,4064.293Z" transform="translate(-3731.606 -4046.201)" fill="#438ffe"/>
            </g>
            <g id="Group_16842" data-name="Group 16842" transform="translate(87.195 1.86)" opacity="0.5">
              <g id="Group_16841" data-name="Group 16841">
                <g id="Group_16839" data-name="Group 16839">
                  <path id="Path_52039" data-name="Path 52039" d="M2756.651,3639.621l-.974-7.168c-.025-.183.474-.332,1.114-.334l20.324-.06c.639,0,1.224.144,1.306.327l3.208,7.156c.1.222-.394.4-1.1.407l-22.535.071C2757.281,3640.022,2756.681,3639.843,2756.651,3639.621Z" transform="translate(-2755.676 -3632.059)" fill="#438ffe"/>
                  <path id="Path_52040" data-name="Path 52040" d="M3386.6,3880.368l-3.015.01,4.167,10.191,3.39-.012Z" transform="translate(-3360.03 -3871.054)" fill="#438ffe"/>
                  <path id="Path_52041" data-name="Path 52041" d="M3263.838,3880.762l-3.015.01,3.254,9.232,3.355-.012Z" transform="translate(-3241.875 -3871.433)" fill="#438ffe"/>
                  <path id="Path_52042" data-name="Path 52042" d="M3141.049,3881.156l-3.016.01,2.129,7.188,3.281-.011Z" transform="translate(-3123.691 -3871.813)" fill="#438ffe"/>
                </g>
                <g id="Group_16840" data-name="Group 16840" transform="translate(1.283 9.454)">
                  <path id="Path_52043" data-name="Path 52043" d="M2791.143,3893.8l-1.267-9.321c-.027-.2.448-.359,1.06-.361l5.784-.019c.613,0,1.146.156,1.192.354l2.176,9.315c.057.246-.453.449-1.141.451l-6.5.022C2791.761,3894.25,2791.177,3894.052,2791.143,3893.8Z" transform="translate(-2789.875 -3884.104)" fill="#438ffe"/>
                </g>
              </g>
            </g>
            <g id="Group_16846" data-name="Group 16846" transform="translate(51.431 1.95)" opacity="0.5">
              <g id="Group_16845" data-name="Group 16845">
                <g id="Group_16843" data-name="Group 16843" transform="translate(3.273)">
                  <path id="Path_52044" data-name="Path 52044" d="M1889.468,3642.021l2.022-7.183c.052-.184.613-.333,1.254-.335l20.358-.06c.641,0,1.164.144,1.17.327l.219,7.172c.007.222-.563.4-1.273.407l-22.576.071C1889.931,3642.423,1889.405,3642.244,1889.468,3642.021Z" transform="translate(-1889.463 -3634.443)" fill="#438ffe"/>
                  <path id="Path_52045" data-name="Path 52045" d="M2472.891,3883.291l-3.02.01-.091,10.215,3.4-.012Z" transform="translate(-2448.013 -3873.957)" fill="#438ffe"/>
                  <path id="Path_52046" data-name="Path 52046" d="M2336.757,3883.686l-3.021.01-.6,9.255,3.362-.012Z" transform="translate(-2316.492 -3874.337)" fill="#438ffe"/>
                  <path id="Path_52047" data-name="Path 52047" d="M2206.757,3884.08l-3.022.01-.875,7.206,3.288-.011Z" transform="translate(-2191.105 -3874.717)" fill="#438ffe"/>
                </g>
                <g id="Group_16844" data-name="Group 16844" transform="translate(0 9.475)">
                  <path id="Path_52048" data-name="Path 52048" d="M1802.216,3896.759l2.63-9.343c.056-.2.6-.36,1.212-.362l5.8-.019c.614,0,1.081.156,1.045.354l-1.718,9.338c-.045.247-.641.45-1.33.453l-6.512.022C1802.649,3897.205,1802.146,3897.006,1802.216,3896.759Z" transform="translate(-1802.209 -3887.035)" fill="#438ffe"/>
                </g>
              </g>
            </g>
            <g id="Group_16850" data-name="Group 16850" transform="translate(12.132 2.042)" opacity="0.5">
              <g id="Group_16849" data-name="Group 16849">
                <g id="Group_16847" data-name="Group 16847" transform="translate(8.257)">
                  <path id="Path_52049" data-name="Path 52049" d="M974.689,3644.481l5.1-7.2a2.258,2.258,0,0,1,1.4-.335l20.392-.061c.642,0,1.1.145,1.03.328l-2.849,7.188c-.088.223-.737.406-1.449.409l-22.618.071C974.98,3644.884,974.531,3644.7,974.689,3644.481Z" transform="translate(-974.657 -3636.886)" fill="#438ffe"/>
                  <path id="Path_52050" data-name="Path 52050" d="M1426.8,3886.286l-3.026.01-4.461,10.241,3.4-.013Z" transform="translate(-1402.633 -3876.931)" fill="#438ffe"/>
                  <path id="Path_52051" data-name="Path 52051" d="M1300.957,3886.682l-3.027.009-4.563,9.277,3.369-.011Z" transform="translate(-1281.412 -3877.312)" fill="#438ffe"/>
                  <path id="Path_52052" data-name="Path 52052" d="M1193.208,3887.077l-3.028.01-3.959,7.224,3.294-.012Z" transform="translate(-1178.286 -3877.692)" fill="#438ffe"/>
                </g>
                <g id="Group_16848" data-name="Group 16848" transform="translate(0 9.496)">
                  <path id="Path_52053" data-name="Path 52053" d="M754.563,3899.786l6.633-9.366a2.1,2.1,0,0,1,1.368-.363l5.806-.019c.615,0,1.015.157.894.355l-5.716,9.361a2.151,2.151,0,0,1-1.525.454l-6.526.022C754.8,3900.234,754.388,3900.033,754.563,3899.786Z" transform="translate(-754.523 -3890.038)" fill="#438ffe"/>
                </g>
              </g>
            </g>
          </g>
        </g>
        <path id="Path_52054" data-name="Path 52054" d="M3519.855,4251.923h-34.428a1.129,1.129,0,0,1-1.125-1.125h0a1.128,1.128,0,0,1,1.125-1.125h34.428a1.128,1.128,0,0,1,1.125,1.125h0A1.129,1.129,0,0,1,3519.855,4251.923Z" transform="translate(-3368.868 -4224.646)" fill="#0e0e0e"/>
        <path id="Path_52055" data-name="Path 52055" d="M2071.14,4251.923h-34.429a1.128,1.128,0,0,1-1.125-1.125h0a1.128,1.128,0,0,1,1.125-1.125h34.429a1.128,1.128,0,0,1,1.125,1.125h0A1.128,1.128,0,0,1,2071.14,4251.923Z" transform="translate(-1974.493 -4224.646)" fill="#0e0e0e"/>
      </g>
      <g id="Group_16864" data-name="Group 16864" transform="translate(437.651 1004.578)">
        <g id="Group_16856" data-name="Group 16856" transform="translate(43.837 3.501)">
          <path id="Path_52056" data-name="Path 52056" d="M2422.089,2838.892a2.238,2.238,0,0,0-1.966,1.074,2.082,2.082,0,0,0,.17,2.224,2.742,2.742,0,0,0-2.68,2.3,2.192,2.192,0,0,0,1.774,2.583,2.431,2.431,0,0,0,1.152,3.064c1.987,1.343,3.923-1.127,3.923-1.127a2.682,2.682,0,0,0,2.984-1,2.606,2.606,0,0,0-.132-3.3,2.568,2.568,0,0,0,.761-2.434,1.782,1.782,0,0,0-1.606-1.762,1.507,1.507,0,0,0-.071-1.777c-.728-.752-1.888-.094-1.888-.094s-.345-1.3-1.269-1.126S2422.089,2838.892,2422.089,2838.892Z" transform="translate(-2416.794 -2833.098)" fill="#853c28"/>
          <path id="Path_52057" data-name="Path 52057" d="M2646.081,2730.129l2.89-4.178,0-5.612,1.054-.139s.863,5.1.86,6.188c0,.963-2.933,6.083-2.933,6.083Z" transform="translate(-2636.717 -2720.2)" fill="#ffa88f"/>
          <path id="Path_52058" data-name="Path 52058" d="M2525.346,2977.64c1.007-.85,3.918-.454,3.918-.454s1.9,1.56,2.056,2.713c.112.827-.369,5.435-.369,5.435h-4.667l-1.765-4.842S2524.338,2978.49,2525.346,2977.64Z" transform="translate(-2519.703 -2967.457)" fill="#f13005"/>
          <path id="Path_52059" data-name="Path 52059" d="M2481.1,3295.47c-.382,2.249-.825,5.907-1,8.456-.844,2.719-.934,6.4-1.139,9.3a1.363,1.363,0,0,0,1.375.078c.471-2.653,1.829-5.51,2.169-8.65l2.528-8.211.064-.164C2485.831,3293.8,2481.681,3292.315,2481.1,3295.47Z" transform="translate(-2475.859 -3272.167)" fill="#ffa88f"/>
          <path id="Path_52060" data-name="Path 52060" d="M2590.352,3196.771a21.739,21.739,0,0,1,.948,3.981c.364,2.421,1.556,19.354,1.556,19.354l-1.325.008c-.708-2.9-2.115-5.21-1.941-8.944l-3.361-10.27,1.647-4.129Z" transform="translate(-2579.109 -3178.895)" fill="#ffa88f"/>
          <path id="Path_52061" data-name="Path 52061" d="M2402.457,2740.667l-2.859-3.614-2.011-6.2-1.142.3s.462,6.219,1.033,7.141c.508.818,3.783,5.226,3.783,5.226C2401.993,2743.86,2403.085,2742.242,2402.457,2740.667Z" transform="translate(-2396.445 -2730.451)" fill="#ffa88f"/>
          <path id="Path_52062" data-name="Path 52062" d="M2527.878,2810.561c1.33,1.134,1.961,2.49,1,3.63a2.938,2.938,0,0,1-4.147.012,2.982,2.982,0,0,1-.671-4.118C2525.021,2808.945,2526.547,2809.427,2527.878,2810.561Z" transform="translate(-2518.733 -2806.087)" fill="#ffa88f"/>
          <path id="Path_52063" data-name="Path 52063" d="M2579.528,2941.209h-1.917l-.07,1.889c0,.391.905.942,1.64.9.571-.033,1.116-.433.931-.845Z" transform="translate(-2570.748 -2932.919)" fill="#ffa88f"/>
          <path id="Path_52064" data-name="Path 52064" d="M2470.961,3208.656a59.292,59.292,0,0,0-1.965-11.886h-4.663a7.34,7.34,0,0,0-2.053,2.979,54.627,54.627,0,0,0-2.137,8.906C2463.831,3209.992,2470.487,3209.5,2470.961,3208.656Z" transform="translate(-2457.754 -3178.895)" fill="#f13005"/>
          <path id="Path_52065" data-name="Path 52065" d="M2563.185,3178.076l.227.829h4.822l.041-.829Z" transform="translate(-2556.931 -3160.902)" fill="#0d0d0d"/>
          <g id="Group_16854" data-name="Group 16854" transform="translate(12.284 41.211)">
            <path id="Path_52066" data-name="Path 52066" d="M2728.7,3820.222c0-.017-.785-.017-1.625-.014-.967,0-2.17.014-2.17.014a4.382,4.382,0,0,1,.085-1.331l1.514-.008a10.306,10.306,0,0,1,1.156.295c.049.015.1.025.154.038C2728.988,3819.489,2728.7,3820.257,2728.7,3820.222Z" transform="translate(-2724.851 -3818.883)" fill="#0e0e0e"/>
            <path id="Path_52067" data-name="Path 52067" d="M2783.783,3827.795c0-.017-.786-.017-1.625-.014a.738.738,0,0,1-.04-.242.847.847,0,0,1,.624-.788c.049.013.1.025.154.038C2784.072,3827.062,2783.783,3827.829,2783.783,3827.795Z" transform="translate(-2779.935 -3826.456)" fill="#0e0e0e"/>
            <rect id="Rectangle_4076" data-name="Rectangle 4076" width="3.925" height="0.239" transform="translate(0 1.102)" fill="#0e0e0e"/>
          </g>
          <g id="Group_16855" data-name="Group 16855" transform="translate(1.193 40.876)">
            <path id="Path_52068" data-name="Path 52068" d="M2431.9,3811.541c-.027,0-.489-.005-1.061-.011-.932-.009-2.156-.016-2.271.011-.325-.785.348-1.187.968-1.409.264-.094.52-.155.683-.2l1.579.009A5.242,5.242,0,0,1,2431.9,3811.541Z" transform="translate(-2428.473 -3809.934)" fill="#0e0e0e"/>
            <rect id="Rectangle_4077" data-name="Rectangle 4077" width="3.488" height="0.286" transform="translate(3.488 1.608) rotate(180)" fill="#0e0e0e"/>
          </g>
          <path id="Path_52069" data-name="Path 52069" d="M2430.838,3816.348c-.932-.009-2.156-.016-2.271.011-.325-.784.348-1.187.968-1.409a1.288,1.288,0,0,1,1.109.365A.89.89,0,0,1,2430.838,3816.348Z" transform="translate(-2427.28 -3773.877)" fill="#0e0e0e"/>
          <path id="Path_52070" data-name="Path 52070" d="M2507.215,2785.766c-.053-.036,1.084,1.646-1.043,3.778-1.994-.478-2.862-4.05.255-4.452a1.539,1.539,0,0,1,2.706-.4c1.4-.333,1.854.948.951,1.213A3.012,3.012,0,0,1,2507.215,2785.766Z" transform="translate(-2500.327 -2781.657)" fill="#853c28"/>
          <circle id="Ellipse_100" data-name="Ellipse 100" cx="0.523" cy="0.523" r="0.523" transform="translate(5.239 7.917) rotate(-51.174)" fill="#ffa88f"/>
          <path id="Path_52071" data-name="Path 52071" d="M2728.845,3813.233a4.5,4.5,0,0,1,.755.276.835.835,0,0,0-.772.41c-.632-.1-1.258-.373-1.3-.527C2727.473,3813.16,2728.651,3813.113,2728.845,3813.233Z" transform="translate(-2715.11 -3772.172)" fill="#ffa88f"/>
          <path id="Path_52072" data-name="Path 52072" d="M2451.953,3804.767a5.1,5.1,0,0,1,.733-.268s1.351-.476,1.7.013c0,0-.122.371-.892.532A1.978,1.978,0,0,0,2451.953,3804.767Z" transform="translate(-2449.871 -3763.627)" fill="#ffa88f"/>
        </g>
        <g id="Group_16861" data-name="Group 16861" transform="translate(78.274 0)">
          <path id="Path_52073" data-name="Path 52073" d="M3628.841,3346.248s.168,2.963-1.133,2.48c-.761-.282-.589-2.25-.589-2.25s-.593.255-.818.081.713-1.033,1.583-1.4C3628.169,3345.036,3628.872,3345.635,3628.841,3346.248Z" transform="translate(-3614.574 -3318.199)" fill="#ffa88f"/>
          <g id="Group_16858" data-name="Group 16858" transform="translate(1.33 0.908)">
            <g id="Group_16857" data-name="Group 16857">
              <path id="Path_52074" data-name="Path 52074" d="M3362.945,2658.567s-.72-2.029.081-2.672a4.736,4.736,0,0,1,1.464.071s1.073.588.753,1.114a17.651,17.651,0,0,1-1.051,1.423S3363.138,2658.586,3362.945,2658.567Z" transform="translate(-3362.172 -2655.668)" fill="#ffa88f"/>
              <path id="Path_52075" data-name="Path 52075" d="M3350.98,2651.1s.412.7.12,1.031a.745.745,0,0,1-1.119-.3C3349.915,2651.465,3350.954,2650.982,3350.98,2651.1Z" transform="translate(-3349.978 -2651.085)" fill="#ffa88f"/>
            </g>
          </g>
          <path id="Path_52076" data-name="Path 52076" d="M3485.815,2978.729c.7-.54,1.446-1.707.443-2.238s-4.532-.985-4.272.849S3485.111,2979.269,3485.815,2978.729Z" transform="translate(-3475.691 -2962.927)" fill="#f13005"/>
          <path id="Path_52077" data-name="Path 52077" d="M3337.491,2725.062c1.586,0,.928,3.045-.454,3.5,0,0-5.1-4.173-5.949-6.254-.423-1.033.869-6.722.869-6.722-.012-.272-.009-.428.371-.587l1.406.286a.963.963,0,0,1,.171.708l-.479,5.266Z" transform="translate(-3330.385 -2711.697)" fill="#f13005"/>
          <path id="Path_52078" data-name="Path 52078" d="M3474.2,3284.877a194.924,194.924,0,0,0,3.4,20.448l-1.472.94a156.1,156.1,0,0,1-7.092-21.387Z" transform="translate(-3463.238 -3260.195)" fill="#4d2401"/>
          <path id="Path_52079" data-name="Path 52079" d="M3384.875,3266.736l-.909,21.861c1.2.27,2.032.284,1.991-.38l4.083-20.8Z" transform="translate(-3381.361 -3242.735)" fill="#4d2401"/>
          <path id="Path_52080" data-name="Path 52080" d="M3416.21,2998.673s-1.636-1.5-5.318-1.1c-.833.833-2.53,7.344-2.688,10.495,1.882,1.321,7.166.978,7.446.217Z" transform="translate(-3404.69 -2983.599)" fill="#fff"/>
          <path id="Path_52081" data-name="Path 52081" d="M3402.711,3009.625a8.593,8.593,0,0,1-3.334-1.214c.158-3.151,2.186-9.954,3.018-10.787.36-.036.854-.067,1.032-.065A23.758,23.758,0,0,0,3402.711,3009.625Z" transform="translate(-3396.194 -2983.655)" fill="#f13005"/>
          <path id="Path_52082" data-name="Path 52082" d="M3537.862,3009.836a3.868,3.868,0,0,1,1.3.71v10.267c-.126.343-1.827.7-3.214.764C3535.95,3017.807,3536.273,3012.727,3537.862,3009.836Z" transform="translate(-3527.642 -2995.471)" fill="#f13005"/>
          <path id="Path_52083" data-name="Path 52083" d="M3569.81,3021.218c-1.291-1.106-2.735-.083-2.256,1.9l2.915,4.838s-.04,4.734-.058,4.974a.6.6,0,0,0,.231.436l1.607.474s.266,0,.32-.382a35.65,35.65,0,0,0,.3-5.993A19.021,19.021,0,0,0,3569.81,3021.218Z" transform="translate(-3557.972 -3005.99)" fill="#f13005"/>
          <path id="Path_52084" data-name="Path 52084" d="M3502.079,2810.582a2.41,2.41,0,0,0,1.188,3.84,3.22,3.22,0,0,0,3.79-2.285,3.036,3.036,0,0,0-1.826-3.859A2.426,2.426,0,0,0,3502.079,2810.582Z" transform="translate(-3494.506 -2801.375)" fill="#ffa88f"/>
          <path id="Path_52085" data-name="Path 52085" d="M3507.232,2928.823l-.445,3.291c-.3,1.178-3.26.527-2.746-.422l1.221-3.033Z" transform="translate(-3496.875 -2917.339)" fill="#ffa88f"/>
          <path id="Path_52086" data-name="Path 52086" d="M3499.293,2792.364a4.566,4.566,0,0,1-3.063.094c-1.865-.432-2.75-1.542-2.288-2.6.277.531,1.249.209,1.97-.025.6-.194,3.761-.613,3.831,1.912,1.433,1.058.511,2.461-.115,3A4.622,4.622,0,0,1,3499.293,2792.364Z" transform="translate(-3487.096 -2783.57)" fill="#733602"/>
          <circle id="Ellipse_101" data-name="Ellipse 101" cx="0.678" cy="0.678" r="0.678" transform="matrix(0.973, -0.23, 0.23, 0.973, 11.631, 11.004)" fill="#ffa88f"/>
          <path id="Path_52087" data-name="Path 52087" d="M3500.441,2914.574a1.992,1.992,0,0,0,1.886,1.535,4.5,4.5,0,0,0,2.858-.693c.047.09.091.181.134.262-.7,1.63-4.119,1.361-4.119,1.361A2.964,2.964,0,0,1,3500.441,2914.574Z" transform="translate(-3493.425 -2903.782)" fill="#733602"/>
          <path id="Path_52088" data-name="Path 52088" d="M3634.9,2880.892a4.156,4.156,0,0,1-.158,1.646,1.115,1.115,0,0,1,.792-.274S3636,2881.031,3634.9,2880.892Z" transform="translate(-3622.727 -2871.364)" fill="#733602"/>
          <path id="Path_52089" data-name="Path 52089" d="M3552.143,2993.208a7.017,7.017,0,0,0-1.107,4.06c.235-1.214,2.459-3.157,2.179-4.125S3552.078,2992.868,3552.143,2993.208Z" transform="translate(-3542.165 -2978.928)" fill="#f13005"/>
          <path id="Path_52090" data-name="Path 52090" d="M3476.377,2984.067s-.346.864-1.244,4.356c-.1-1.827-.488-2.878.118-3.995A.8.8,0,0,1,3476.377,2984.067Z" transform="translate(-3468.902 -2970.566)" fill="#f13005"/>
          <g id="Group_16859" data-name="Group 16859" transform="translate(1.349 44.56)">
            <path id="Path_52091" data-name="Path 52091" d="M3350.485,3815.5l.574-.175c.379-.745,1.994-.652,1.769.254a1.184,1.184,0,0,0,.967-.221,2.571,2.571,0,0,1,.189,1.715h-3.422Z" transform="translate(-3350.485 -3814.83)" fill="#853c28"/>
          </g>
          <g id="Group_16860" data-name="Group 16860" transform="translate(12.249 44.56)">
            <path id="Path_52092" data-name="Path 52092" d="M3644.607,3815.5l-.574-.175c-.378-.745-1.994-.652-1.769.254a1.184,1.184,0,0,1-.967-.221,3.058,3.058,0,0,0-.189,1.715h3.421Z" transform="translate(-3641.075 -3814.83)" fill="#853c28"/>
          </g>
          <path id="Path_52093" data-name="Path 52093" d="M3317.683,3833.631c0-.008,0-.016,0-.023a1.578,1.578,0,1,0-3.156,0c0,.008,0,.016,0,.023Z" transform="translate(-3314.527 -3786.824)" fill="#c77762"/>
          <path id="Path_52094" data-name="Path 52094" d="M3687.045,3833.631c0-.008,0-.016,0-.023a1.578,1.578,0,0,1,3.156,0c0,.008,0,.016,0,.023Z" transform="translate(-3673.072 -3786.824)" fill="#c77762"/>
          <path id="Path_52095" data-name="Path 52095" d="M3363.567,2629.093c.012-.5-.063-2.11-.063-2.11s-.508-.418-.7.379l-.2.8s-1.015.586-.868,1.284C3361.941,2630.422,3363.555,2629.593,3363.567,2629.093Z" transform="translate(-3359.951 -2626.873)" fill="#ffa88f"/>
        </g>
        <g id="Group_16863" data-name="Group 16863" transform="translate(0 4.436)">
          <path id="Path_52096" data-name="Path 52096" d="M1342.025,2794.013a.967.967,0,0,1-1.1.489,1.1,1.1,0,0,1-1.5-.564s-1.36.473-1.617-.608a1.4,1.4,0,0,1-1.145-1.606c-.677-.637-.173-1.979-.173-1.979s-1.2-.589-.589-1.643c-.547-1.111.713-2.219.713-2.219s-.491-1,.329-1.517c.04-1.133.545-1.708,1.922-1.519a1.5,1.5,0,0,1,2.084-.83s.871-1.641,2.047-.789c1.71-.314,2.042.986,2.042.986a1.233,1.233,0,0,1,1.608.687c1.152.57,1.13,1.272.989,1.711.761.04.9,1.076.579,1.476a1.173,1.173,0,0,1,.043,1.628,1.51,1.51,0,0,1-.17,1.287c.195,1.019-.91,1.588-.91,1.588a2.144,2.144,0,0,1-.32,1.547,3.121,3.121,0,0,1-1.216,1.375s-.586.982-1.154.824c-.738.488-1.572.2-1.554-.037S1342.068,2794.6,1342.025,2794.013Z" transform="translate(-1331.675 -2779.639)" fill="#0e0e0e"/>
          <path id="Path_52097" data-name="Path 52097" d="M1356.318,3860.968s-2.245.3-2.743,1.345c-.1.339.94.7,2.743.4a3.757,3.757,0,0,0,1.905-.757,3.526,3.526,0,0,0,.085-1.1C1358.223,3860.535,1356.408,3860.363,1356.318,3860.968Z" transform="translate(-1348.85 -3818.726)" fill="#0e0e0e"/>
          <path id="Path_52098" data-name="Path 52098" d="M1633.148,3865.675h2.022s3.24-.243,3.034,1.352c-.184.269-2.143.264-5.442.1A1.424,1.424,0,0,1,1633.148,3865.675Z" transform="translate(-1617.486 -3823.632)" fill="#0e0e0e"/>
          <path id="Path_52099" data-name="Path 52099" d="M1520.379,3207.864a6.048,6.048,0,0,0-.392-4.5c-.788-1.883-4.147-1.757-5.089-.867,0,0-2.663,3.047-2.452,5.365Z" transform="translate(-1501.756 -3184.742)" fill="#0e0e0e"/>
          <path id="Path_52100" data-name="Path 52100" d="M1500.254,3034.852l-5.8,1.026c-.036-2.324-2.282-4.973-2.129-6.294a2.318,2.318,0,0,1,1.3-1.515,6.353,6.353,0,0,1,2.9-.822,2.815,2.815,0,0,1,.646.065c.81.19,2.79,1.187,3.182,2.67A48.123,48.123,0,0,0,1500.254,3034.852Z" transform="translate(-1482.391 -3016.667)" fill="#f13005"/>
          <path id="Path_52101" data-name="Path 52101" d="M1605.432,2755.888l3.488-4.357,1.289-6.37,1.29-.012s.294,5.254-.451,7.2a25.429,25.429,0,0,1-3.128,5.944C1606.674,2759.505,1604.337,2757.917,1605.432,2755.888Z" transform="translate(-1590.992 -2745.149)" fill="#7a4b42"/>
          <path id="Path_52102" data-name="Path 52102" d="M1597.047,2989.185c.091,0,1.616-1.482,1.616-1.482a2.275,2.275,0,0,1,1.724.873c.861.946.626,1.373.626,1.373l-1.216,2.808s-1.077.609-2.354-.73A2.418,2.418,0,0,1,1597.047,2989.185Z" transform="translate(-1582.91 -2978.603)" fill="#f13005"/>
          <path id="Path_52103" data-name="Path 52103" d="M1430.264,3278.26l-3.3,20.433h1.958l6.064-20.188C1435.617,3275.914,1431.005,3274.995,1430.264,3278.26Z" transform="translate(-1419.488 -3256.247)" fill="#0e0e0e"/>
          <path id="Path_52104" data-name="Path 52104" d="M1625.963,3279.244l-1.241,21.01h-1.958l-.906-21.043C1621.97,3277.194,1625.885,3276.8,1625.963,3279.244Z" transform="translate(-1607.075 -3257.583)" fill="#0e0e0e"/>
          <path id="Path_52105" data-name="Path 52105" d="M1521.227,2974.809l-.973-2.361-2.3.515.7,2.323C1519.08,2975.844,1521.069,2975.433,1521.227,2974.809Z" transform="translate(-1507.071 -2963.922)" fill="#7a4b42"/>
          <path id="Path_52106" data-name="Path 52106" d="M1467.47,2857.567a2.857,2.857,0,0,1-1.616,3.686,2.978,2.978,0,0,1-3.537-2.126,2.856,2.856,0,0,1,1.8-3.6A2.735,2.735,0,0,1,1467.47,2857.567Z" transform="translate(-1453.391 -2851.279)" fill="#7a4b42"/>
          <path id="Path_52107" data-name="Path 52107" d="M1408.736,3073.362c1.054-1.5-1.308-3.426-2.346-1.676-1.858,2.355-3.614,5.209-3.166,5.493l.693.513C1405.685,3078.271,1408.414,3073.82,1408.736,3073.362Z" transform="translate(-1396.574 -3058.769)" fill="#7a4b42"/>
          <path id="Path_52108" data-name="Path 52108" d="M1462.184,3057.424c.036-.05,1.932.542,2.32,1.8,3.872-3.857-.019-4.925-.435-4.3A6.482,6.482,0,0,0,1462.184,3057.424Z" transform="translate(-1453.391 -3043.147)" fill="#f13005"/>
          <path id="Path_52109" data-name="Path 52109" d="M1299.776,3074.753c.525,1.4-.6,2.728-1.558,1.821a25.724,25.724,0,0,1-4.276-5.58l1-.9Z" transform="translate(-1291.46 -3057.911)" fill="#7a4b42"/>
          <g id="Group_16862" data-name="Group 16862" transform="translate(0 10.891)">
            <path id="Path_52110" data-name="Path 52110" d="M1272.033,3036.776s-1.282-1.007-1.76-1.27c0,0-.26.109.154.576s.6.512.6.512S1271.69,3037.758,1272.033,3036.776Z" transform="translate(-1268.601 -3035.507)" fill="#7a4b42"/>
            <path id="Path_52111" data-name="Path 52111" d="M1230.639,3041.883a8.613,8.613,0,0,1-1.149.012c-1.413-.2-1.9-1.614-1.674-1.731a6.206,6.206,0,0,1,1.64.236s-1.495-.558-1.3-.82,2.905,1.022,2.905,1.022A.708.708,0,0,1,1230.639,3041.883Z" transform="translate(-1227.764 -3039.392)" fill="#7a4b42"/>
          </g>
        </g>
        <circle id="Ellipse_102" data-name="Ellipse 102" cx="0.584" cy="0.584" r="0.584" transform="translate(8.554 12.225)" fill="#7a4b42"/>
        <circle id="Ellipse_103" data-name="Ellipse 103" cx="0.584" cy="0.584" r="0.584" transform="translate(13.31 10.051)" fill="#7a4b42"/>
        <circle id="Ellipse_104" data-name="Ellipse 104" cx="0.195" cy="0.195" r="0.195" transform="translate(14.088 10.899)" fill="#d9ffff"/>
        <circle id="Ellipse_105" data-name="Ellipse 105" cx="0.195" cy="0.195" r="0.195" transform="translate(9.123 13.198)" fill="#d9ffff"/>
        <path id="Path_52112" data-name="Path 52112" d="M1530.6,3029.239c-1.578.736-2.863-.7-3.3-1.168a6.352,6.352,0,0,1,2.9-.821C1530.85,3027.527,1531.543,3028.8,1530.6,3029.239Z" transform="translate(-1516.067 -3012.231)" fill="#7a4b42"/>
      </g>
      <g id="Group_16870" data-name="Group 16870" transform="translate(428.473 941.355)">
        <g id="Group_16866" data-name="Group 16866" transform="translate(0 1.345)">
          <path id="Path_52113" data-name="Path 52113" d="M1045.942,2727.7v-.017l-36.685.593Z" transform="translate(-1008.275 -2662.023)" fill="#fff"/>
          <path id="Path_52114" data-name="Path 52114" d="M1025.046,1035.174l-.037-2.283-.017-.95-.037-2.283-.014-.951-.04-2.283-.014-.95-.037-2.283-.017-.95-.037-2.283-.017-.95-.037-2.28-.014-.953-.04-2.28-.014-.95-.037-2.283-.017-.95-.037-2.283-.017-.95-.037-2.283-.014-.95-.039-2.283-.014-.95-.037-2.283-.017-.95-.037-2.28-.017-.953-.037-2.28-.014-.95-.04-2.283-.014-.95-.037-2.283-.017-.95-.031-1.865a4.154,4.154,0,0,1-.771-.074,4.422,4.422,0,0,1-3.631-4.283l-36.685.579.024,1.618a2.124,2.124,0,0,1,.064,4.248l.034,2.25a2.123,2.123,0,1,1,.063,4.245l.034,2.25a2.124,2.124,0,0,1,.064,4.248l.034,2.247a2.124,2.124,0,0,1,.063,4.248l.034,2.25a2.123,2.123,0,1,1,.063,4.245l.034,2.25a2.124,2.124,0,0,1,.064,4.248l.033,2.247a2.124,2.124,0,0,1,.064,4.248l.034,2.25a2.123,2.123,0,1,1,.063,4.245l.034,2.25a2.124,2.124,0,0,1,.064,4.248l.034,2.25a2.123,2.123,0,0,1,.063,4.245l.02,1.347,36.685-.593a4.428,4.428,0,0,1,4.223-4.475h.019c.039,0,.075,0,.114,0l-.037-2.278Z" transform="translate(-983.077 -977.223)" fill="#e9983a"/>
          <g id="Group_16865" data-name="Group 16865" transform="translate(22.45 10.79)">
            <rect id="Rectangle_4078" data-name="Rectangle 4078" width="14.268" height="2.915" transform="matrix(1, -0.015, 0.015, 1, 0, 0.217)" fill="#3b3b3b"/>
            <rect id="Rectangle_4079" data-name="Rectangle 4079" width="14.268" height="3.784" transform="translate(0.064 4.393) rotate(-0.872)" fill="#3b3b3b"/>
            <rect id="Rectangle_4080" data-name="Rectangle 4080" width="14.268" height="2.659" transform="translate(0.137 9.199) rotate(-0.872)" fill="#3b3b3b"/>
            <rect id="Rectangle_4081" data-name="Rectangle 4081" width="14.268" height="2.148" transform="translate(0.187 12.523) rotate(-0.872)" fill="#3b3b3b"/>
            <rect id="Rectangle_4082" data-name="Rectangle 4082" width="14.268" height="2.557" transform="translate(0.235 15.642) rotate(-0.872)" fill="#3b3b3b"/>
            <rect id="Rectangle_4083" data-name="Rectangle 4083" width="14.268" height="3.375" transform="translate(0.285 18.915) rotate(-0.872)" fill="#3b3b3b"/>
            <rect id="Rectangle_4084" data-name="Rectangle 4084" width="14.268" height="2.25" transform="translate(0.352 23.312) rotate(-0.872)" fill="#3b3b3b"/>
            <rect id="Rectangle_4085" data-name="Rectangle 4085" width="14.268" height="3.375" transform="translate(0.398 26.38) rotate(-0.872)" fill="#3b3b3b"/>
            <rect id="Rectangle_4086" data-name="Rectangle 4086" width="14.268" height="0.511" transform="translate(0.461 30.522) rotate(-0.872)" fill="#3b3b3b"/>
            <rect id="Rectangle_4087" data-name="Rectangle 4087" width="14.268" height="3.682" transform="translate(0.485 32.056) rotate(-0.872)" fill="#3b3b3b"/>
            <rect id="Rectangle_4088" data-name="Rectangle 4088" width="14.268" height="1.841" transform="translate(0.617 40.749) rotate(-0.872)" fill="#3b3b3b"/>
            <rect id="Rectangle_4089" data-name="Rectangle 4089" width="14.268" height="3.171" transform="translate(0.549 36.249) rotate(-0.872)" fill="#3b3b3b"/>
          </g>
        </g>
        <path id="Path_52115" data-name="Path 52115" d="M2136.625,941.355l-73.521,1.188v.022a4.427,4.427,0,0,1-4.362,4.494.839.839,0,0,1-.086,0h0a4.134,4.134,0,0,1-.777-.074l.032,1.951.77-.012.017.95h0l-.773.012.037,2.283.773-.012.014.95h0l-.77.011.037,2.283.773-.012h0l.014.95-.77.012.037,2.283.771-.014.017.953h0l-.773.012.037,2.283.773-.014.017.95h0l-.773.014.037,2.28.773-.012h0l.014.95h0l-.771.014.037,2.28.773-.011.014.95h0l-.773.014.037,2.28.773-.012.017.95-.773.012.037,2.283.773-.012.017.95-.773.012.037,2.283.773-.011.014.95h0l-.773.012.037,2.283.776-.014.014.953h0l-.773.011.037,2.283.773-.014.017.95h0l-.773.014.037,2.283.773-.014.017.95h0l-.776.014.037,2.28.776-.012.014.95h0l-.773.014.037,2.28.776-.012.014.95-.773.012.037,2.283.773-.012h0l.017.95h0l-.776.012.037,2.283.776-.012h0l.017.95-.776.012.038,2.347a5.19,5.19,0,0,1,.778-.079v0h0a4.427,4.427,0,0,1,4.493,4.337l73.521-1.188Z" transform="translate(-2017.564 -941.355)" fill="#160e4d"/>
        <g id="Group_16868" data-name="Group 16868" transform="translate(53.331 15.081)">
          <path id="Path_52116" data-name="Path 52116" d="M2421.6,1371.375l-8.048.132c-.03,1.368-.147,3.843-.229,5.265.665-1.168,2.656-1.727,4.076-1.751,4.261-.07,5.836,2.956,5.911,7.532l.093,5.629c.083,5.05-1.248,10.491-9.034,10.619-8.417.138-9.4-5.212-9.468-9.368l-.021-1.262,7.786-.128.042,2.525c.019,1.157.244,2.048,1.19,2.032.842-.014,1.145-.808,1.124-2.071l-.112-6.839c-.025-1.525-.451-1.834-1.083-1.824-.737.012-1.254.494-1.16,3.071l-7.582-.3c.487-5.638.787-12.957,1.04-20.012l16.2-.266Z" transform="translate(-2404.879 -1363.579)" fill="#fff"/>
          <path id="Path_52117" data-name="Path 52117" d="M2978.178,1352.608l.268,16.307c.1,5.892-2.739,9.464-9.419,9.573-7.049.116-9.325-3.9-9.413-9.264l-.267-16.255c-.113-6.839,4-9.484,9.156-9.569C2973.921,1343.312,2978.071,1346.085,2978.178,1352.608Zm-10.747-.771.3,18.1c.022,1.368.351,2.152,1.3,2.136.842-.014,1.251-.757,1.227-2.177l-.3-18.1c-.019-1.157-.3-1.995-1.3-1.978C2967.715,1349.833,2967.414,1350.732,2967.432,1351.837Z" transform="translate(-2938.547 -1343.399)" fill="#fff"/>
          <path id="Path_52118" data-name="Path 52118" d="M3525.651,1396.911l.05,3.041c.04,2.408-1.051,3.872-3.489,3.912s-3.514-1.3-3.614-3.7l-.051-3.1c-.031-1.836.693-3.625,3.493-3.671A3.318,3.318,0,0,1,3525.651,1396.911Zm-4.46,16.274,8.531-19.593,2.077-.034-8.471,19.592Zm.424-16.388.057,3.492c.009.572.194.81.495.805s.449-.188.438-.85l-.057-3.462c-.009-.572-.193-.75-.464-.745C3521.782,1396.041,3521.6,1396.225,3521.615,1396.8Zm12.924,9.514.05,3.041c.04,2.408-1.051,3.872-3.489,3.912s-3.515-1.358-3.614-3.7l-.051-3.1c-.029-1.746.694-3.625,3.493-3.671A3.318,3.318,0,0,1,3534.538,1406.311Zm-4.037-.114.057,3.492c.01.572.194.81.5.8s.448-.188.438-.85l-.057-3.462c-.009-.572-.193-.75-.464-.745C3530.67,1405.441,3530.492,1405.625,3530.5,1406.2Z" transform="translate(-3476.773 -1391.511)" fill="#fff"/>
          <g id="Group_16867" data-name="Group 16867" transform="translate(42.685 23.523)">
            <path id="Path_52119" data-name="Path 52119" d="M3548.394,1977.5c.053,3.26-1.08,4.6-2.723,4.629-1.964.032-2.769-2.035-2.808-4.41s.865-4.418,2.777-4.449C3547.733,1973.231,3548.361,1975.519,3548.394,1977.5Zm-3.784.216c.032,1.964.421,2.959,1.1,2.948.706-.012.955-1.3.926-3.058-.025-1.515-.279-2.885-1.036-2.872C3544.933,1974.74,3544.579,1975.85,3544.609,1977.712Z" transform="translate(-3542.862 -1973.162)" fill="#fff"/>
            <path id="Path_52120" data-name="Path 52120" d="M3716.915,1972.784l3.761-.062.024,1.463-2.08.034.037,2.22,1.951-.032.023,1.4-1.951.032.059,3.569-1.682.028Z" transform="translate(-3710.386 -1972.639)" fill="#fff"/>
            <path id="Path_52121" data-name="Path 52121" d="M3851.075,1970.58l3.762-.062.024,1.464-2.08.034.036,2.221,1.951-.032.023,1.4-1.951.032.058,3.569-1.681.028Z" transform="translate(-3839.514 -1970.518)" fill="#fff"/>
          </g>
        </g>
        <g id="Group_16869" data-name="Group 16869" transform="translate(10.033 17.535)">
          <path id="Path_52122" data-name="Path 52122" d="M1266.392,2176.583a2.292,2.292,0,0,1,2.41,2.277c.036,2.188-1.882,2.47-3.949,2.5-2.491.041-3.971-.666-4-2.456a2.165,2.165,0,0,1,2.328-2.268l.022,1.362c-.261.026-1.2.059-1.182.908.014.865,1.076,1.058,2.837,1.029,1.451-.024,2.81-.191,2.8-1.083-.013-.821-.944-.872-1.239-.9Z" transform="translate(-1260.466 -2147.785)" fill="#3b3b3b"/>
          <path id="Path_52123" data-name="Path 52123" d="M1262.335,2025.457c2.813-.046,4.051.7,4.08,2.472.027,1.656-1.166,2.484-4.013,2.531-2.776.046-3.91-.876-3.936-2.463C1258.438,2026.32,1259.664,2025.5,1262.335,2025.457Zm.03,3.59c1.825-.03,2.907-.324,2.893-1.132-.014-.85-1.024-1.076-2.926-1.045-1.787.03-2.714.3-2.7,1.139S1260.651,2029.075,1262.365,2029.047Z" transform="translate(-1258.168 -2002.326)" fill="#3b3b3b"/>
          <path id="Path_52124" data-name="Path 52124" d="M1258.182,1874.166l5.293-.087c.63-.01,1.376-.179,1.362-1.026-.013-.819-.647-.984-1.386-.972l-5.3.087-.023-1.38,5.323-.087c1.381-.023,2.513.5,2.543,2.356.03,1.829-1.017,2.379-2.466,2.4l-5.322.088Z" transform="translate(-1257.842 -1853.375)" fill="#3b3b3b"/>
          <path id="Path_52125" data-name="Path 52125" d="M1256.61,1723.373l-.038-2.315a2.283,2.283,0,0,1,4.566.032l.014.828,3.129-.052.023,1.38Zm3.436-1.437-.011-.672c-.012-.764-.4-1.1-1.209-1.083-.769.013-1.146.417-1.135,1.048l.012.746Z" transform="translate(-1256.346 -1707.171)" fill="#3b3b3b"/>
          <path id="Path_52126" data-name="Path 52126" d="M1254.775,1565.277c2.813-.046,4.05.7,4.08,2.472.027,1.656-1.166,2.484-4.013,2.531-2.776.046-3.91-.876-3.936-2.463C1250.878,1566.14,1252.1,1565.321,1254.775,1565.277Zm.031,3.59c1.825-.03,2.906-.325,2.893-1.132-.014-.85-1.024-1.077-2.926-1.045-1.787.029-2.714.3-2.7,1.139S1253.091,1568.9,1254.805,1568.867Z" transform="translate(-1250.892 -1559.407)" fill="#3b3b3b"/>
          <path id="Path_52127" data-name="Path 52127" d="M1258.326,1413.572l-7.693.126-.026-1.565c4.225-1.66,5.031-1.979,5.407-2.078v-.012c-.923.081-2.055.1-3.316.123l-2.122.035-.02-1.231,7.693-.126.025,1.5c-4.506,1.718-5.318,2.022-5.67,2.128v.012c.947-.073,2.08-.092,3.458-.115l2.244-.037Z" transform="translate(-1250.555 -1408.845)" fill="#3b3b3b"/>
        </g>
        <rect id="Rectangle_4090" data-name="Rectangle 4090" width="56.633" height="5.722" transform="matrix(1, -0.015, 0.015, 1, 53.077, 56.143)" fill="#e9983a"/>
        <path id="Path_52128" data-name="Path 52128" d="M2468.136,1093.65l.724,2.119,2.239-.034-1.792,1.344.724,2.119-1.831-1.288-1.792,1.344.659-2.14-1.832-1.289,2.239-.034Z" transform="translate(-2409.642 -1087.937)" fill="#fff"/>
        <path id="Path_52129" data-name="Path 52129" d="M2675.876,1090.488l.724,2.119,2.239-.034-1.792,1.344.724,2.119-1.831-1.289-1.792,1.344.659-2.14-1.832-1.289,2.24-.034Z" transform="translate(-2609.59 -1084.894)" fill="#fff"/>
        <path id="Path_52130" data-name="Path 52130" d="M2883.616,1087.325l.724,2.119,2.239-.034-1.792,1.344.725,2.119-1.832-1.289-1.792,1.344.659-2.14-1.832-1.289,2.239-.034Z" transform="translate(-2809.537 -1081.85)" fill="#fff"/>
        <path id="Path_52131" data-name="Path 52131" d="M3091.356,1084.164l.724,2.119,2.239-.034-1.791,1.344.724,2.119-1.832-1.289-1.792,1.344.66-2.14-1.832-1.288,2.239-.034Z" transform="translate(-3009.485 -1078.807)" fill="#fff"/>
        <path id="Path_52132" data-name="Path 52132" d="M3299.1,1081l.725,2.119,2.239-.034-1.792,1.344.724,2.119-1.832-1.289-1.792,1.344.66-2.14-1.832-1.289,2.239-.034Z" transform="translate(-3209.433 -1075.764)" fill="#fff"/>
        <path id="Path_52133" data-name="Path 52133" d="M3506.836,1077.84l.724,2.119,2.24-.034-1.792,1.344.724,2.119-1.832-1.289-1.791,1.344.659-2.14-1.832-1.289,2.24-.034Z" transform="translate(-3409.38 -1072.72)" fill="#fff"/>
        <path id="Path_52134" data-name="Path 52134" d="M3714.576,1074.678l.724,2.119,2.239-.034-1.792,1.344.724,2.119-1.831-1.288-1.792,1.344.659-2.14-1.832-1.289,2.239-.034Z" transform="translate(-3609.328 -1069.677)" fill="#fff"/>
      </g>
      <g id="Group_16873" data-name="Group 16873" transform="translate(460.174 1035.979)">
        <g id="Group_16871" data-name="Group 16871" transform="translate(0 0)">
          <path id="Path_52135" data-name="Path 52135" d="M1874.471,3467.917c-.041,0-.075-.043-.078-.1,0,0,0-.01,0-.024,0-.446-.044-2.679-1.135-2.906-.118-.025-.326.04-.523.3a3.712,3.712,0,0,0-.411,2.559.1.1,0,0,1-.067.117c-.042.006-.081-.036-.086-.094a3.951,3.951,0,0,1,.457-2.735.7.7,0,0,1,.653-.359c1.218.253,1.269,2.642,1.267,3.118v.012c0,.057-.03.105-.072.109Z" transform="translate(-1870.49 -3464.647)" fill="#fc7474"/>
          <path id="Path_52136" data-name="Path 52136" d="M1828.931,3534.3l-.715,13.983,3.4-.03-.534-13.972Z" transform="translate(-1828.216 -3531.649)" fill="#e84923"/>
          <path id="Path_52137" data-name="Path 52137" d="M1918.521,3533.114l.013,13.976,5.583-.049-.949-13.968Z" transform="translate(-1915.133 -3530.483)" fill="#f15e3c"/>
          <path id="Path_52138" data-name="Path 52138" d="M1877.579,3534.172l-.469,12.263,1.566,1.7-.013-13.977Z" transform="translate(-1875.276 -3531.531)" fill="#d94421"/>
          <path id="Path_52139" data-name="Path 52139" d="M1830.05,3861.348l-1.834,1.734,3.4-.03Z" transform="translate(-1828.216 -3846.444)" fill="#d94421"/>
          <path id="Path_52140" data-name="Path 52140" d="M1948.988,3467.261c-.041,0-.075-.043-.078-.1,0,0,0-.01,0-.024,0-.445-.044-2.679-1.135-2.906-.118-.025-.326.04-.523.3a3.711,3.711,0,0,0-.411,2.558.1.1,0,0,1-.068.117c-.042.006-.081-.035-.086-.093a3.95,3.95,0,0,1,.457-2.735.706.706,0,0,1,.653-.359c1.218.253,1.269,2.642,1.267,3.118v.012c0,.057-.03.105-.072.108Z" transform="translate(-1942.211 -3464.015)" fill="#fc7474"/>
          <path id="Path_52141" data-name="Path 52141" d="M1986.771,3613.221h-2.053l-.327,11.041,3.125-.079Z" transform="translate(-1978.533 -3607.624)" fill="#e84923"/>
        </g>
        <g id="Group_16872" data-name="Group 16872" transform="translate(7.069 3.953)">
          <path id="Path_52142" data-name="Path 52142" d="M2051.761,3572.361c-.031,0-.057-.033-.059-.076v-.018c0-.338-.034-2.033-.861-2.205-.09-.019-.248.03-.4.23a2.817,2.817,0,0,0-.312,1.941.078.078,0,0,1-.051.089c-.033,0-.062-.027-.065-.071a3,3,0,0,1,.347-2.075.535.535,0,0,1,.5-.273c.924.192.963,2,.961,2.366v.009a.074.074,0,0,1-.054.083Z" transform="translate(-2048.74 -3569.879)" fill="#1fbfc7"/>
          <path id="Path_52143" data-name="Path 52143" d="M2017.2,3622.734l-.543,10.61,2.58-.023-.4-10.6Z" transform="translate(-2016.662 -3620.72)" fill="#1f72eb"/>
          <path id="Path_52144" data-name="Path 52144" d="M2085.186,3621.832l.01,10.605,4.236-.038-.72-10.6Z" transform="translate(-2082.615 -3619.835)" fill="#438ffe"/>
          <path id="Path_52145" data-name="Path 52145" d="M2054.119,3622.635l-.356,9.305,1.188,1.293-.01-10.605Z" transform="translate(-2052.372 -3620.631)" fill="#129fa6"/>
          <path id="Path_52146" data-name="Path 52146" d="M2018.054,3870.9l-1.392,1.315,2.58-.022Z" transform="translate(-2016.662 -3859.588)" fill="#13a9b0"/>
          <path id="Path_52147" data-name="Path 52147" d="M2108.3,3571.862c-.031,0-.057-.033-.059-.075,0,0,0-.008,0-.018,0-.338-.033-2.033-.862-2.206-.09-.019-.247.03-.4.23a2.814,2.814,0,0,0-.312,1.941.078.078,0,0,1-.051.089c-.032,0-.061-.027-.065-.071a3,3,0,0,1,.347-2.076.535.535,0,0,1,.5-.273c.924.192.963,2,.962,2.366v.009a.075.075,0,0,1-.055.083Z" transform="translate(-2103.163 -3569.399)" fill="#1fbfc7"/>
        </g>
      </g>
      <path id="Path_52148" data-name="Path 52148" d="M1707.235,2694.69a9.612,9.612,0,0,1-1.126-1.787c.4-.437.752.165,1.054.6.722.114,1.66-.071,1.509,1.175C1708.644,2695.256,1707.405,2695.135,1707.235,2694.69Z" transform="translate(-1250.515 -1685.703)" fill="#7a4b42"/>
      <path id="Path_52149" data-name="Path 52149" d="M2396.2,2696.538s.556-.32.542-1.61c-.439-.2-.444.556-.444.556s-1.489.172-1.272.937S2396.2,2696.538,2396.2,2696.538Z" transform="translate(-1913.568 -1687.766)" fill="#ffa88f"/>
      <path id="Path_52150" data-name="Path 52150" d="M2708.012,2693.4s-.413-.1-.527-.808-.13-.544-.13-.544.389-.2.6.616a1.52,1.52,0,0,1,.991.261.372.372,0,0,1,.077.384C2708.936,2693.541,2708.088,2693.512,2708.012,2693.4Z" transform="translate(-2214.205 -1685.007)" fill="#ffa88f"/>
      <g id="Group_16874" data-name="Group 16874" transform="translate(429.501 1027.812)">
        <circle id="Ellipse_106" data-name="Ellipse 106" cx="4.075" cy="4.075" r="4.075" transform="translate(0 0)" fill="#ffdf6b"/>
        <path id="Path_52151" data-name="Path 52151" d="M1040.5,3361.256a2.955,2.955,0,0,0,5.9,0Z" transform="translate(-1039.377 -3356.944)" fill="#d62b05"/>
        <path id="Path_52152" data-name="Path 52152" d="M1049.192,3307.278a.074.074,0,0,1-.074-.074.869.869,0,1,0-1.739,0,.074.074,0,0,1-.148,0,1.017,1.017,0,1,1,2.035,0A.074.074,0,0,1,1049.192,3307.278Z" transform="translate(-1045.852 -3303.94)" fill="#474747"/>
        <path id="Path_52153" data-name="Path 52153" d="M1137.719,3307.278a.074.074,0,0,1-.074-.074.87.87,0,1,0-1.739,0,.074.074,0,0,1-.148,0,1.017,1.017,0,1,1,2.034,0A.074.074,0,0,1,1137.719,3307.278Z" transform="translate(-1131.058 -3303.94)" fill="#474747"/>
      </g>
      <g id="Group_16875" data-name="Group 16875" transform="translate(543.335 1026.078)">
        <path id="Path_52154" data-name="Path 52154" d="M4118,3261.269a16.21,16.21,0,0,1-1.916.167,6.6,6.6,0,0,1-2.158-.7v-3.428l2.11-.7,1.964-.167a1.274,1.274,0,0,1,1.274,1.273V3260A1.274,1.274,0,0,1,4118,3261.269Z" transform="translate(-4111.347 -3254.325)" fill="#003fad"/>
        <rect id="Rectangle_4091" data-name="Rectangle 4091" width="2.242" height="4.637" transform="translate(0 2.336)" fill="#003fad"/>
        <path id="Path_52155" data-name="Path 52155" d="M4115.917,3200.117a.853.853,0,0,0-1.1.5l-.914,2.432,1.747.189.759-2.023A.853.853,0,0,0,4115.917,3200.117Z" transform="translate(-4111.333 -3200.063)" fill="#003fad"/>
      </g>
      <path id="Path_52156" data-name="Path 52156" d="M2883.984,2987.388c1.13,2.291-3.823,5.073-3.823,5.073s-4.929-2.686-3.823-5.073c1.225-2.643,3.856.469,3.856.469S2882.827,2985.044,2883.984,2987.388Z" transform="translate(-2376.693 -1968.262)" fill="#fff"/>
    </g>
  </g>
</svg>
