<svg xmlns="http://www.w3.org/2000/svg" width="21" height="22" viewBox="0 0 21 22">
  <g id="Group_16998" data-name="Group 16998" transform="translate(20644 7580)">
    <rect id="Rectangle_4121" data-name="Rectangle 4121" width="21" height="22" transform="translate(-20644 -7580)" fill="none"/>
    <path id="Icon_ionic-logo-youtube" data-name="Icon ionic-logo-youtube" d="M18.916,7.654a2.891,2.891,0,0,0-2.752-3.02C14.1,4.537,12,4.5,9.856,4.5H9.186c-2.142,0-4.247.037-6.308.134A2.9,2.9,0,0,0,.13,7.661C.037,8.985,0,10.309,0,11.633s.037,2.648.126,3.976A2.9,2.9,0,0,0,2.875,18.64c2.165.1,4.385.145,6.643.141s4.474-.037,6.643-.141a2.9,2.9,0,0,0,2.752-3.031c.089-1.328.13-2.652.126-3.98S19.005,8.982,18.916,7.654ZM7.7,15.282V7.974l5.393,3.652Z" transform="translate(-20643 -7580.5)" fill="#160e4d"/>
  </g>
</svg>
