<svg xmlns="http://www.w3.org/2000/svg" width="36" height="36" viewBox="0 0 36 36">
  <g id="Group_16234" data-name="Group 16234" transform="translate(9770.456 -3691)">
    <path id="Path_51215" data-name="Path 51215" d="M18,0A18,18,0,1,0,36,18,18.02,18.02,0,0,0,18,0Zm0,33.429A15.429,15.429,0,1,1,33.429,18,15.446,15.446,0,0,1,18,33.429Z" transform="translate(-9734.456 3691) rotate(90)" fill="#b5bbc7"/>
    <path id="Path_51216" data-name="Path 51216" d="M94.258,85.065a1.071,1.071,0,0,0-1.515,0l-3.081,3.081L86.58,85.065a1.071,1.071,0,0,0-1.515,1.515l3.082,3.082-3.082,3.082a1.071,1.071,0,0,0,1.515,1.515l3.082-3.082,3.082,3.082a1.071,1.071,0,0,0,1.515-1.515l-3.082-3.082,3.082-3.082A1.071,1.071,0,0,0,94.258,85.065Z" transform="translate(-9752.456 3582.2) rotate(45)" fill="#b5bbc7"/>
  </g>
</svg>
