<svg xmlns="http://www.w3.org/2000/svg" width="87" height="41" viewBox="0 0 87 41">
  <g id="Path_51215" data-name="Path 51215" fill="#fff" stroke-dasharray="2">
    <path d="M0,0H62.615L87,21.867,62.615,41H0Z" stroke="none"/>
    <path d="M 4 0 L 6 0 L 6 1 L 4 1 L 4 0 Z M 8 0 L 10 0 L 10 1 L 8 1 L 8 0 Z M 12 0 L 14 0 L 14 1 L 12 1 L 12 0 Z M 16 0 L 18 0 L 18 1 L 16 1 L 16 0 Z M 20 0 L 22 0 L 22 1 L 20 1 L 20 0 Z M 24 0 L 26 0 L 26 1 L 24 1 L 24 0 Z M 28 0 L 30 0 L 30 1 L 28 1 L 28 0 Z M 32 0 L 34 0 L 34 1 L 32 1 L 32 0 Z M 36 0 L 38 0 L 38 1 L 36 1 L 36 0 Z M 40 0 L 42 0 L 42 1 L 40 1 L 40 0 Z M 44 0 L 46 0 L 46 1 L 44 1 L 44 0 Z M 48 0 L 50 0 L 50 1 L 48 1 L 48 0 Z M 52 0 L 54 0 L 54 1 L 52 1 L 52 0 Z M 56 0 L 58 0 L 58 1 L 56 1 L 56 0 Z M 60 0 L 62 0 L 62 1 L 60 1 L 60 0 Z M 63.64622497558594 0.9244117736816406 C 63.64622497558594 0.9244117736816406 64.70429229736328 1.873214721679688 65.03660583496094 2.171215057373047 L 65.03822326660156 2.172660827636719 C 65.03926849365234 2.173603057861328 65.04034423828125 2.174564361572266 65.0413818359375 2.175491333007812 L 65.04756164550781 2.181037902832031 C 65.04783630371094 2.181285858154297 65.04811096191406 2.181529998779297 65.04838562011719 2.181774139404297 L 65.048828125 2.182170867919922 C 65.04927825927734 2.182579040527344 65.04972076416016 2.182975769042969 65.0501708984375 2.183380126953125 L 65.13522338867188 2.259647369384766 L 64.46759796142578 3.004154205322266 L 62.97859954833984 1.668907165527344 L 63.64622497558594 0.9244117736816406 Z M 66.62422180175781 3.594894409179688 C 66.62422180175781 3.594894409179688 68.11322021484375 4.930141448974609 68.11322021484375 4.930141448974609 L 67.44560241699219 5.674648284912109 L 65.95660400390625 4.339401245117188 L 66.62422180175781 3.594894409179688 Z M 69.60222625732422 6.265388488769531 C 69.60222625732422 6.265388488769531 71.09122467041016 7.600635528564453 71.09122467041016 7.600635528564453 L 70.42359924316406 8.345130920410156 L 68.93460083007812 7.009883880615234 L 69.60222625732422 6.265388488769531 Z M 72.58022308349609 8.935882568359375 C 72.58022308349609 8.935882568359375 74.06922149658203 10.2711296081543 74.06922149658203 10.2711296081543 L 73.40159606933594 11.01562309265137 L 71.91259765625 9.680376052856445 L 72.58022308349609 8.935882568359375 Z M 75.5582275390625 11.60637664794922 C 75.5582275390625 11.60637664794922 76.01560974121094 12.01652908325195 76.42339324951172 12.38220596313477 L 76.42559051513672 12.3841724395752 C 76.42707061767578 12.38550186157227 76.42849731445312 12.38677597045898 76.42996978759766 12.38810348510742 L 77.04721832275391 12.94161415100098 L 76.37960052490234 13.68611717224121 L 74.89060211181641 12.35087013244629 L 75.5582275390625 11.60637664794922 Z M 78.53622436523438 14.2768611907959 L 80.02522277832031 15.61210823059082 L 79.35759735107422 16.35661125183105 L 77.86859893798828 15.02136421203613 L 78.53622436523438 14.27685928344727 Z M 81.51422119140625 16.94735336303711 L 83.00321960449219 18.28260040283203 L 82.33560180664062 19.0270938873291 L 80.84660339355469 17.69184684753418 L 81.51422119140625 16.94735336303711 Z M 84.49222564697266 19.61784744262695 C 84.49222564697266 19.61784744262695 85.98122406005859 20.95309448242188 85.98122406005859 20.95309448242188 L 85.3135986328125 21.69758796691895 L 83.82460021972656 20.36234092712402 L 84.49222564697266 19.61784744262695 Z M 85.88581085205078 21.46982383728027 L 86.50310516357422 22.25655364990234 C 86.50310516357422 22.25655364990234 84.92965698242188 23.49115371704102 84.92965698242188 23.49115371704102 L 84.31235504150391 22.70443534851074 L 85.88581085205078 21.46982383728027 Z M 82.73890686035156 23.93903541564941 L 83.35620880126953 24.72576522827148 L 82.54499816894531 25.36227798461914 C 82.54446411132812 25.36269378662109 82.54400634765625 25.36305618286133 82.54347991943359 25.36346817016602 L 82.54035949707031 25.36591339111328 C 82.53949737548828 25.36659049987793 82.53860473632812 25.36729431152344 82.53773498535156 25.36797332763672 L 82.53656005859375 25.368896484375 C 82.53584289550781 25.36946105957031 82.53509521484375 25.37004661560059 82.53437805175781 25.3706111907959 L 82.53063201904297 25.3735466003418 C 82.15065002441406 25.67169952392578 81.78275299072266 25.96036529541016 81.78275299072266 25.96036529541016 L 81.16545104980469 25.17364692687988 L 82.73890686035156 23.93903541564941 Z M 79.59200286865234 26.40824699401855 L 80.20930480957031 27.19497680664062 L 79.32472991943359 27.8890495300293 C 79.32406616210938 27.88957214355469 79.32341766357422 27.89008331298828 79.32274627685547 27.89060592651367 L 79.32057952880859 27.89230728149414 C 79.31829071044922 27.89410400390625 79.31591796875 27.89596557617188 79.31363677978516 27.89775848388672 L 79.31143188476562 27.89948272705078 C 78.95841217041016 28.17647743225098 78.63584899902344 28.4295768737793 78.63584899902344 28.4295768737793 L 78.0185546875 27.64284706115723 L 79.59200286865234 26.40824699401855 Z M 76.44509124755859 28.8774585723877 L 77.06240081787109 29.66417694091797 C 77.06240081787109 29.66417694091797 76.66996002197266 29.97210693359375 76.27707672119141 30.2803840637207 L 76.27367401123047 30.28305625915527 C 76.27328491210938 30.28335762023926 76.27293395996094 30.28363800048828 76.27254486083984 30.28393936157227 L 76.27023315429688 30.28575325012207 C 76.26941680908203 30.2863941192627 76.26860809326172 30.28702735900879 76.26779174804688 30.28766632080078 L 76.26490020751953 30.28993797302246 C 76.26446533203125 30.29027557373047 76.26398468017578 30.29065895080566 76.2635498046875 30.29099655151367 L 75.48895263671875 30.89878463745117 L 74.87164306640625 30.11205863952637 L 76.44509124755859 28.8774585723877 Z M 73.29818725585938 31.34667015075684 L 73.91549682617188 32.13338851928711 C 73.91549682617188 32.13338851928711 73.57034301757812 32.40421295166016 73.20332336425781 32.69219207763672 L 73.20108032226562 32.6939582824707 C 73.19892883300781 32.69564819335938 73.19676971435547 32.69733428955078 73.19461822509766 32.69902801513672 L 73.19187927246094 32.70117950439453 C 73.19106292724609 32.70181655883789 73.19020080566406 32.70249176025391 73.18938446044922 32.70313262939453 L 72.342041015625 33.36799621582031 L 71.72473907470703 32.58126831054688 L 73.29818725585938 31.34667015075684 Z M 70.15129089355469 33.81587219238281 L 70.76858520507812 34.60260009765625 C 70.76858520507812 34.60260009765625 70.46804809570312 34.83842086791992 70.12969970703125 35.10390853881836 L 70.12393951416016 35.10842895507812 C 70.12246704101562 35.10957717895508 70.12104797363281 35.11069869995117 70.11957550048828 35.11185073852539 L 70.11947631835938 35.11193084716797 C 70.11686706542969 35.11397552490234 70.11426544189453 35.11601638793945 70.11165618896484 35.11806106567383 L 70.1087646484375 35.12033081054688 C 70.10810089111328 35.12085342407227 70.10741424560547 35.12139129638672 70.10675048828125 35.12191390991211 L 70.10474395751953 35.12348937988281 C 70.10417175292969 35.12393569946289 70.10353851318359 35.12443542480469 70.10296630859375 35.12488174438477 L 70.09905242919922 35.12795639038086 C 70.09905242919922 35.12795639038086 70.0989990234375 35.12799835205078 70.0989990234375 35.12799835205078 L 69.19513702392578 35.83720779418945 L 68.57783508300781 35.05048370361328 L 70.15129089355469 33.81587219238281 Z M 67.00438690185547 36.28508377075195 L 67.62168121337891 37.07181167602539 C 67.62168121337891 37.07181167602539 66.04823303222656 38.30641174316406 66.04823303222656 38.30641174316406 L 65.43093109130859 37.51969528198242 L 67.00438690185547 36.28508377075195 Z M 63.85748291015625 38.75429534912109 L 64.47479248046875 39.54102325439453 L 63.58976745605469 40.23544692993164 C 63.58938598632812 40.23574829101562 63.58902740478516 40.23603057861328 63.58864593505859 40.236328125 L 63.58580017089844 40.23855972290039 C 63.58370590209961 40.24020385742188 63.58158874511719 40.24186325073242 63.57949829101562 40.24350738525391 L 63.57668304443359 40.24571228027344 C 63.22372055053711 40.52266311645508 62.90132904052734 40.7756233215332 62.90132904052734 40.7756233215332 L 62.28403472900391 39.98889541625977 L 63.85748291015625 38.75429534912109 Z M 58.97884750366211 40 L 60.97884750366211 40 L 60.97884750366211 41 C 60.97884750366211 41 58.97884750366211 41 58.97884750366211 41 L 58.97884750366211 40 Z M 54.97884750366211 40 L 56.97884750366211 40 L 56.97884750366211 41 C 56.97884750366211 41 54.97884750366211 41 54.97884750366211 41 L 54.97884750366211 40 Z M 50.97884750366211 40 L 52.97884750366211 40 L 52.97884750366211 41 C 52.97884750366211 41 50.97884750366211 41 50.97884750366211 41 L 50.97884750366211 40 Z M 46.97884750366211 40 L 48.97884750366211 40 L 48.97884750366211 41 C 48.97884750366211 41 46.97884750366211 41 46.97884750366211 41 L 46.97884750366211 40 Z M 42.97884750366211 40 L 44.97884750366211 40 L 44.97884750366211 41 C 44.97884750366211 41 42.97884750366211 41 42.97884750366211 41 L 42.97884750366211 40 Z M 38.97884750366211 40 L 40.97884750366211 40 L 40.97884750366211 41 C 40.97884750366211 41 38.97884750366211 41 38.97884750366211 41 L 38.97884750366211 40 Z M 34.97884750366211 40 L 36.97884750366211 40 L 36.97884750366211 41 C 36.97884750366211 41 34.97884750366211 41 34.97884750366211 41 L 34.97884750366211 40 Z M 30.97884750366211 40 L 32.97884750366211 40 L 32.97884750366211 41 C 32.97884750366211 41 30.97884750366211 41 30.97884750366211 41 L 30.97884750366211 40 Z M 26.97884750366211 40 L 28.97884750366211 40 L 28.97884750366211 41 C 28.97884750366211 41 26.97884750366211 41 26.97884750366211 41 L 26.97884750366211 40 Z M 22.97884368896484 40 L 24.97884750366211 40 L 24.97884750366211 41 C 24.97884750366211 41 22.97884368896484 41 22.97884368896484 41 L 22.97884368896484 40 Z M 18.97884368896484 40 L 20.97884368896484 40 L 20.97884368896484 41 C 20.97884368896484 41 18.97884368896484 41 18.97884368896484 41 L 18.97884368896484 40 Z M 14.97884368896484 40 L 16.97884368896484 40 L 16.97884368896484 41 C 16.97884368896484 41 14.97884368896484 41 14.97884368896484 41 L 14.97884368896484 40 Z M 10.97884368896484 40 L 12.97884368896484 40 L 12.97884368896484 41 C 12.97884368896484 41 10.97884368896484 41 10.97884368896484 41 L 10.97884368896484 40 Z M 6.978843688964844 40 L 8.978843688964844 40 L 8.978843688964844 41 C 8.978843688964844 41 6.978843688964844 41 6.978843688964844 41 L 6.978843688964844 40 Z M 2.978843688964844 40 L 4.978843688964844 40 L 4.978843688964844 41 C 4.978843688964844 41 2.978843688964844 41 2.978843688964844 41 L 2.978843688964844 40 Z M 0 39.97884750366211 L 1 39.97884750366211 L 1 41 L 0.9788436889648438 41 L 1 41 L 0.9788436889648438 41 C 0.9788436889648438 41 0 41 0 41 L 0 39.97884750366211 Z M 0 35.97884750366211 L 1 35.97884750366211 L 1 37.97884750366211 L 0 37.97884750366211 L 0 35.97884750366211 Z M 0 31.97884750366211 L 1 31.97884750366211 L 1 33.97884750366211 L 0 33.97884750366211 L 0 31.97884750366211 Z M 0 27.97884750366211 L 1 27.97884750366211 L 1 29.97884750366211 L 0 29.97884750366211 L 0 27.97884750366211 Z M 0 23.97884750366211 L 1 23.97884750366211 L 1 25.97884750366211 L 0 25.97884750366211 L 0 23.97884750366211 Z M 0 19.97884750366211 L 1 19.97884750366211 L 1 21.97884750366211 L 0 21.97884750366211 L 0 19.97884750366211 Z M 0 15.97884750366211 L 1 15.97884750366211 L 1 17.97884750366211 L 0 17.97884750366211 L 0 15.97884750366211 Z M 0 11.97884750366211 L 1 11.97884750366211 L 1 13.97884750366211 L 0 13.97884750366211 L 0 11.97884750366211 Z M 0 7.978847503662109 L 1 7.978847503662109 L 1 9.978847503662109 L 0 9.978847503662109 L 0 7.978847503662109 Z M 0 3.978847503662109 L 1 3.978847503662109 L 1 5.978847503662109 L 0 5.978847503662109 L 0 3.978847503662109 Z M 0 0 L 2 0 L 2 1 L 1 1 L 1 1.978847503662109 L 0 1.978847503662109 L 0 0 Z" stroke="none" fill="#b5bbc7"/>
  </g>
</svg>
