<svg xmlns="http://www.w3.org/2000/svg" width="29.243" height="26.05" viewBox="0 0 29.243 26.05">
  <path id="attachment-svgrepo-com" d="M27.366,6.739a2.759,2.759,0,0,0-4,.045L11.611,18.539a.7.7,0,0,0,1,1L22.33,9.811a1.451,1.451,0,1,1,2.052,2.052l-9.724,9.723a3.606,3.606,0,1,1-5.1-5.1L21.314,4.732a5.66,5.66,0,0,1,8.171.022,5.659,5.659,0,0,1-.044,8.146L15.675,26.666a7.936,7.936,0,0,1-11.34,0,7.936,7.936,0,0,1,0-11.34L16.09,3.57a1.451,1.451,0,1,1,2.052,2.052L6.386,17.378a5.032,5.032,0,0,0,0,7.236,5.032,5.032,0,0,0,7.236,0L27.41,10.827l.045-.044a2.758,2.758,0,0,0-.045-4l-.044-.045Z" transform="translate(-1.95 -3)" fill="#b5bbc7"/>
</svg>
