<svg id="XMLID_90_" xmlns="http://www.w3.org/2000/svg" width="18.333" height="15.942" viewBox="0 0 18.333 15.942">
  <path id="XMLID_91_" d="M16.5,90H1.833a1.61,1.61,0,1,0,0,3.188H16.5A1.61,1.61,0,1,0,16.5,90Z" transform="translate(0 -90)" fill="#160e4d"/>
  <path id="XMLID_92_" d="M16.5,150H1.833a1.61,1.61,0,1,0,0,3.188H16.5a1.61,1.61,0,1,0,0-3.188Z" transform="translate(0 -143.623)" fill="#160e4d"/>
  <path id="XMLID_93_" d="M16.5,210H1.833a1.61,1.61,0,1,0,0,3.188H16.5a1.61,1.61,0,1,0,0-3.188Z" transform="translate(0 -197.247)" fill="#160e4d"/>
</svg>
