<svg xmlns="http://www.w3.org/2000/svg" width="26.728" height="26.719" viewBox="0 0 26.728 26.719">
  <g id="edit-svgrepo-com_1_" data-name="edit-svgrepo-com (1)" transform="translate(0 -0.087)">
    <g id="Group_16177" data-name="Group 16177" transform="translate(0 0.087)">
      <g id="Group_16176" data-name="Group 16176" transform="translate(0 0)">
        <path id="Path_51179" data-name="Path 51179" d="M90.579,147.648,78,160.236a.935.935,0,1,0,1.319,1.325L91.9,148.978a.938.938,0,0,0,0-1.325A.926.926,0,0,0,90.579,147.648Z" transform="translate(-73.486 -139.345)"/>
        <path id="Path_51180" data-name="Path 51180" d="M305.659,10.543a.933.933,0,0,0,.66-.273L307.692,8.9a4.064,4.064,0,0,0,0-5.746l-1.875-1.875a4.067,4.067,0,0,0-5.746,0L298.7,2.649a.938.938,0,0,0,0,1.325l6.3,6.3A.951.951,0,0,0,305.659,10.543ZM301.4,2.589a2.2,2.2,0,0,1,3.107,0l1.875,1.875a2.195,2.195,0,0,1,0,3.1l-.72.72L300.676,3.3Z" transform="translate(-282.154 -0.087)"/>
        <path id="Path_51181" data-name="Path 51181" d="M8.878,110.149,22.152,96.874a.937.937,0,0,0-1.325-1.325L7.782,108.606l-5.757.774.774-5.757L15.261,91.161a.937.937,0,0,0-1.325-1.325L1.256,102.527a.928.928,0,0,0-.267.534l-.981,7.283A.935.935,0,0,0,.934,111.4a.974.974,0,0,0,.125-.011l7.283-.981A.875.875,0,0,0,8.878,110.149Z" transform="translate(0 -84.684)"/>
      </g>
    </g>
  </g>
</svg>
