<svg xmlns="http://www.w3.org/2000/svg" width="40.047" height="34.041" viewBox="0 0 40.047 34.041">
  <path id="path6596" d="M22.35,96.105q-1.146-.124-2.327-.142A24.58,24.58,0,0,0,9.647,98.417a26.427,26.427,0,0,0-7.064,5.145c-1.041,1.1-2.369,2.7-2.584,4.4.025,1.474,1.607,3.293,2.584,4.4A26.026,26.026,0,0,0,9.647,117.5l.276.132-2.505,4.375,3.4,2.012,18.4-32.038-3.277-2Zm7.77,2.185-2.5,4.334a8.71,8.71,0,0,1,1.833,5.336,9.232,9.232,0,0,1-9.432,9.019c-.225,0-.444-.024-.665-.039L17.7,119.8c.763.082,1.535.141,2.322.152A24.7,24.7,0,0,0,30.4,117.5a26.438,26.438,0,0,0,7.066-5.145c1.041-1.1,2.369-2.7,2.584-4.4-.025-1.474-1.607-3.293-2.584-4.4A26.039,26.039,0,0,0,30.4,98.417c-.091-.044-.184-.084-.276-.127Zm-10.1.65c.228,0,.455.009.679.024l-1.938,3.356A5.828,5.828,0,0,0,14,107.957a5.53,5.53,0,0,0,.364,1.98s0,0,0,0l-1.943,3.366a8.72,8.72,0,0,1-1.833-5.346,9.232,9.232,0,0,1,9.432-9.019Zm5.639,7.076-4.368,7.567a5.822,5.822,0,0,0,4.732-5.627,5.508,5.508,0,0,0-.364-1.941Z" transform="translate(0 -89.98)" fill="#160e4d"/>
</svg>
