<svg xmlns="http://www.w3.org/2000/svg" width="25.858" height="25.858" viewBox="0 0 25.858 25.858">
  <g id="menu-svgrepo-com" transform="translate(-185.191 -92.595)">
    <path id="Path_51122" data-name="Path 51122" d="M187.777,97.767h20.686a2.586,2.586,0,0,0,0-5.172H187.777a2.586,2.586,0,1,0,0,5.172Z" transform="translate(0)" fill="#160e4d"/>
    <path id="Path_51123" data-name="Path 51123" d="M187.777,228.491h20.686a2.586,2.586,0,0,0,0-5.172H187.777a2.586,2.586,0,1,0,0,5.172Z" transform="translate(0 -120.381)" fill="#160e4d"/>
    <path id="Path_51124" data-name="Path 51124" d="M187.777,359.214h20.686a2.586,2.586,0,1,0,0-5.172H187.777a2.586,2.586,0,1,0,0,5.172Z" transform="translate(0 -240.761)" fill="#160e4d"/>
  </g>
</svg>
