<svg xmlns="http://www.w3.org/2000/svg" width="30.71" height="24.382" viewBox="0 0 30.71 24.382">
  <g id="image-svgrepo-com_1_" data-name="image-svgrepo-com (1)" transform="translate(0 -23.935)">
    <path id="Path_51176" data-name="Path 51176" d="M29.719,23.935H.991A.991.991,0,0,0,0,24.926v22.4a.991.991,0,0,0,.991.991H29.719a.991.991,0,0,0,.991-.991v-22.4A.991.991,0,0,0,29.719,23.935Zm-.991,1.983V44.833L20.8,36.4a.991.991,0,0,0-.722-.312h0a.992.992,0,0,0-.722.312L15.966,40l-4.54-5.987a.991.991,0,0,0-.79-.392h0a.991.991,0,0,0-.79.394l-7.862,10.4v-18.5Zm-1.31,20.416H3.017l7.62-10.082,4.458,5.878a.991.991,0,0,0,1.512.08l3.468-3.685Z" fill="#b5bbc7"/>
    <path id="Path_51177" data-name="Path 51177" d="M133.522,58.25a2.941,2.941,0,1,0-2.941-2.941A2.944,2.944,0,0,0,133.522,58.25Zm0-4.093a1.152,1.152,0,1,1-1.152,1.152A1.153,1.153,0,0,1,133.522,54.157Z" transform="translate(-112.865 -24.541)" fill="#b5bbc7"/>
  </g>
</svg>
