<svg xmlns="http://www.w3.org/2000/svg" width="649" height="238" viewBox="0 0 649 238">
  <g id="Group_16234" data-name="Group 16234" transform="translate(-1693 -72)">
    <rect id="Rectangle_3990" data-name="Rectangle 3990" width="649" height="238" transform="translate(1693 72)" fill="#f8f8f8"/>
    <g id="user-svgrepo-com" transform="translate(1934 108)">
      <g id="Group_16200" data-name="Group 16200">
        <path id="Path_51182" data-name="Path 51182" d="M142.548,24.452a83.506,83.506,0,0,0-118.1,118.1,83.506,83.506,0,0,0,118.1-118.1ZM83.5,157.779A74.279,74.279,0,1,1,157.779,83.5,74.376,74.376,0,0,1,83.5,157.779Z" fill="#b5bbc7"/>
        <path id="Path_51183" data-name="Path 51183" d="M202.62,119.375A21.737,21.737,0,1,0,180.9,97.62,21.753,21.753,0,0,0,202.62,119.375Zm0-34.254a12.5,12.5,0,1,1-12.5,12.5A12.505,12.505,0,0,1,202.62,85.121Z" transform="translate(-119.12 -49.979)" fill="#b5bbc7"/>
        <path id="Path_51184" data-name="Path 51184" d="M193.216,247.9C185.6,236.7,174.535,231,160.294,231s-25.306,5.669-32.922,16.9c-5.669,8.333-9.289,19.705-10.724,33.707a4.6,4.6,0,0,0,9.153.956c2.9-28.107,14.514-42.348,34.493-42.348s31.59,14.241,34.493,42.348a4.619,4.619,0,0,0,4.576,4.132,2.253,2.253,0,0,0,.478-.034,4.6,4.6,0,0,0,4.1-5.054C202.5,267.576,198.885,256.238,193.216,247.9Z" transform="translate(-76.794 -152.11)" fill="#b5bbc7"/>
      </g>
    </g>
  </g>
</svg>
