<svg xmlns="http://www.w3.org/2000/svg" width="134.552" height="60" viewBox="0 0 134.552 60">
  <g id="Logo" transform="translate(16583.576 4755.333)">
    <g id="Group_16232" data-name="Group 16232" transform="translate(-16583.576 -4753.314)">
      <path id="Path_51207" data-name="Path 51207" d="M77.853,22.03c-.006.025.738.781.831.906.319.444.6.925.888,1.394q.872,1.406,1.656,2.857a27.207,27.207,0,0,1,2.938,6.651,11.913,11.913,0,0,1-.756,7.389,58.055,58.055,0,0,1-5.257,9.1c-.756-.569-1.469.106-2.225.088-3.988-.081-7.976-.056-11.964-.019a2.188,2.188,0,0,1-1.794-.663c.513-.95,1.025-1.907,1.538-2.857,1.95-3.638,4.288-7.063,6.032-10.814a3.828,3.828,0,0,0,1.406-1.531c.9-1.719,2.025-3.325,2.838-5.076C75.159,26.912,77.228,24.843,77.853,22.03Z" transform="translate(-23.307 -8.255)" fill="#0160ea"/>
      <path id="Path_51208" data-name="Path 51208" d="M52.463,66.34A2.2,2.2,0,0,0,54.257,67c3.988-.031,7.976-.063,11.964.019.75.012,1.469-.656,2.225-.088-1.656,2.857-3.057,5.876-5.119,8.476A14.36,14.36,0,0,1,51.725,81c-2.75.031-5.495-.019-8.245-.038-1.788-4.432-4.688-8.264-6.895-12.477a1.5,1.5,0,0,1-.038-1.719c4.719-.025,9.439-.044,14.158-.081C51.3,66.678,51.963,66.89,52.463,66.34Z" transform="translate(-13.606 -24.868)" fill="#0157d5"/>
      <path id="Path_51209" data-name="Path 51209" d="M26.439,59.111a1.5,1.5,0,0,0,.038,1.719c2.207,4.213,5.1,8.039,6.895,12.477-3.119.013-6.245.156-9.358,0a12.057,12.057,0,0,1-10.389-6.626c-1.394-2.469-2.863-4.9-4.294-7.345.594-.881,1.238-1.731,1.769-2.65q2.813-4.885,5.538-9.808c.331-.6.669-1.044,1.419-.938C20.725,50.2,23.163,54.6,25.576,59a.382.382,0,0,0,.519.2A3.512,3.512,0,0,1,26.439,59.111Z" transform="translate(-3.496 -17.214)" fill="#0f0933"/>
      <path id="Path_51210" data-name="Path 51210" d="M72.878,13.768c-.631,2.813-2.694,4.882-3.876,7.42-.813,1.75-1.938,3.357-2.838,5.076A3.918,3.918,0,0,1,64.759,27.8c-2.819-4.363-5.2-8.983-7.814-13.464-.044-.231-.05-.488-.369-.519C55.007,11.1,49.113,1.554,48.9.148,52.726.116,56.582-.4,60.352.66a14.791,14.791,0,0,1,8,5.351A45.141,45.141,0,0,1,72.878,13.768Z" transform="translate(-18.332 0.006)" fill="#1876fe"/>
      <path id="Path_51211" data-name="Path 51211" d="M22.058,22.82a1.62,1.62,0,0,0-.3-.025h0c-.481-.463-1.081-.275-1.631-.275q-7.079-.038-14.158-.05l-.206.3A48.084,48.084,0,0,0,1.243,30.7,14.349,14.349,0,0,0,1.33,42.585c1.263,2.757,2.982,5.307,4.494,7.951.594-.881,1.238-1.731,1.769-2.65Q10.407,43,13.132,38.078c.331-.6.669-1.044,1.419-.938-.363-.663.044-1.163.344-1.694Q18.477,29.127,22.058,22.82Z" transform="translate(0.003 -8.42)" fill="#100a38"/>
      <path id="Path_51212" data-name="Path 51212" d="M30.7,22.963l15.027-.113c.506.019,1.013.031,1.519.05,2.613,4.482,4.994,9.1,7.814,13.464-1.75,3.751-4.082,7.176-6.032,10.814-.513.95-1.025,1.907-1.538,2.857-.5.55-1.163.331-1.756.338-4.719.038-9.439.056-14.158.081-.113.025-.231.056-.35.081-.175-.063-.35-.131-.519-.2-2.407-4.413-4.851-8.8-7.52-13.064-.363-.663.044-1.163.344-1.694Q27.119,29.276,30.7,22.963Z" transform="translate(-8.637 -8.563)" fill="#fdfcfc"/>
      <path id="Path_51213" data-name="Path 51213" d="M35.31,66.84c.175.069.35.131.519.2A.388.388,0,0,1,35.31,66.84Z" transform="translate(-13.237 -25.055)" fill="#81293f"/>
      <path id="Path_51214" data-name="Path 51214" d="M41.887,14.078c.006-.013.013-.019.019-.031-.281-.263-.994-.025-1.225.269.413-.525,1.581.088.875-1.056q-2.3-3.722-4.488-7.514c-.038-.063-.075-.125-.106-.188q-1.135-1.969-2.244-3.963C34.5,1.22,34.367.545,34.03.282,33.661-.005,33.017.17,32.592.157c-.725-.013-1.45-.031-2.175-.044-1.45-.025-2.9-.044-4.351-.006A14.7,14.7,0,0,0,15.958,4.239c-2.919,2.775-4.326,6.52-6.388,9.845l7.689.019c4.207.013,8.414.131,12.621.219,2.1.044,4.207.081,6.307.094q2.353.009,4.707.025C41.249,14.441,41.687,14.416,41.887,14.078Z" transform="translate(-3.586 -0.028)" fill="#130c43"/>
    </g>
    <g id="Group_16233" data-name="Group 16233" transform="translate(-16504.158 -4751.292)">
      <path id="Path_51215" data-name="Path 51215" d="M2.26-3.44V0H1.193V-9.1h2.5a3.3,3.3,0,0,1,2.263.711,2.538,2.538,0,0,1,.8,2.006,2.759,2.759,0,0,1-.892,2.12,3.408,3.408,0,0,1-2.409.825Zm0-4.7v3.732H3.377a2.5,2.5,0,0,0,1.685-.5,1.787,1.787,0,0,0,.581-1.425q0-1.8-2.133-1.8ZM12.543,0H11.5V-1.016h-.025a2.179,2.179,0,0,1-2,1.168,2.137,2.137,0,0,1-1.52-.514,1.781,1.781,0,0,1-.549-1.365q0-1.822,2.146-2.12L11.5-4.12q0-1.657-1.339-1.657a3.2,3.2,0,0,0-2.12.8V-6.043a4.028,4.028,0,0,1,2.209-.609q2.292,0,2.292,2.425ZM11.5-3.288l-1.568.216a2.546,2.546,0,0,0-1.092.359,1.034,1.034,0,0,0-.368.911.992.992,0,0,0,.34.778,1.312,1.312,0,0,0,.9.3A1.671,1.671,0,0,0,11-1.266a1.939,1.939,0,0,0,.5-1.374Zm6.392-2.158a1.273,1.273,0,0,0-.787-.209,1.328,1.328,0,0,0-1.114.628,2.905,2.905,0,0,0-.448,1.714V0H14.5V-6.5h1.041v1.339h.025a2.27,2.27,0,0,1,.679-1.07,1.549,1.549,0,0,1,1.022-.384,1.7,1.7,0,0,1,.622.089ZM22.039-.063a2.007,2.007,0,0,1-.971.2q-1.708,0-1.708-1.9V-5.611H18.243V-6.5H19.36V-8.087L20.4-8.423V-6.5h1.638v.889H20.4v3.663a1.518,1.518,0,0,0,.222.933.887.887,0,0,0,.736.279,1.094,1.094,0,0,0,.679-.216Zm4.716-3.148H23.29v-.819h3.466Zm7.4-4.926H31.522V0H30.456V-8.138H27.834V-9.1H34.15Zm1.822-.013a.66.66,0,0,1-.476-.19.643.643,0,0,1-.2-.482.653.653,0,0,1,.2-.486.654.654,0,0,1,.476-.194.672.672,0,0,1,.486.194.648.648,0,0,1,.2.486.643.643,0,0,1-.2.476A.667.667,0,0,1,35.972-8.15ZM36.48,0H35.439V-6.5H36.48ZM47.817,0H46.776V-3.732a2.816,2.816,0,0,0-.333-1.562,1.264,1.264,0,0,0-1.12-.482,1.387,1.387,0,0,0-1.133.609,2.331,2.331,0,0,0-.467,1.46V0H42.682V-3.859q0-1.917-1.479-1.917a1.37,1.37,0,0,0-1.13.574,2.375,2.375,0,0,0-.444,1.495V0H38.587V-6.5h1.041v1.028h.025a2.208,2.208,0,0,1,2.019-1.181,1.882,1.882,0,0,1,1.162.371,1.868,1.868,0,0,1,.679.974,2.32,2.32,0,0,1,2.158-1.346q2.146,0,2.146,2.647Zm7.192-2.99H50.419A2.431,2.431,0,0,0,51-1.314a2.013,2.013,0,0,0,1.536.59,3.194,3.194,0,0,0,2.019-.724V-.47a3.773,3.773,0,0,1-2.266.622,2.747,2.747,0,0,1-2.165-.885,3.624,3.624,0,0,1-.787-2.491A3.554,3.554,0,0,1,50.2-5.7a2.758,2.758,0,0,1,2.136-.955,2.444,2.444,0,0,1,1.974.825,3.44,3.44,0,0,1,.7,2.292Zm-1.066-.882a2.118,2.118,0,0,0-.435-1.4,1.481,1.481,0,0,0-1.19-.5,1.682,1.682,0,0,0-1.25.527,2.391,2.391,0,0,0-.635,1.377Z" transform="translate(0.125 13.957)" fill="#160e4d"/>
      <path id="Path_51217" data-name="Path 51217" d="M8.239,0H7.059L6.094-2.552H2.234L1.327,0H.14L3.631-9.1h1.1ZM5.745-3.51,4.316-7.389A3.714,3.714,0,0,1,4.177-8H4.151a3.4,3.4,0,0,1-.146.609L2.59-3.51ZM13.87-.3a3.383,3.383,0,0,1-1.777.451,2.943,2.943,0,0,1-2.244-.9A3.278,3.278,0,0,1,8.995-3.1a3.6,3.6,0,0,1,.92-2.58,3.22,3.22,0,0,1,2.457-.974,3.419,3.419,0,0,1,1.511.317v1.066a2.647,2.647,0,0,0-1.549-.508,2.093,2.093,0,0,0-1.635.714,2.71,2.71,0,0,0-.638,1.876,2.58,2.58,0,0,0,.6,1.8,2.068,2.068,0,0,0,1.609.66,2.609,2.609,0,0,0,1.6-.565ZM20.1,0H19.056V-1.016H19.03a2.179,2.179,0,0,1-2,1.168,2.137,2.137,0,0,1-1.52-.514,1.781,1.781,0,0,1-.549-1.365q0-1.822,2.146-2.12l1.949-.273q0-1.657-1.339-1.657a3.2,3.2,0,0,0-2.12.8V-6.043a4.028,4.028,0,0,1,2.209-.609q2.292,0,2.292,2.425ZM19.056-3.288l-1.568.216a2.546,2.546,0,0,0-1.092.359,1.034,1.034,0,0,0-.368.911.992.992,0,0,0,.34.778,1.312,1.312,0,0,0,.9.3,1.671,1.671,0,0,0,1.279-.543,1.939,1.939,0,0,0,.5-1.374ZM27.606,0H26.565V-1.1H26.54A2.4,2.4,0,0,1,24.305.152,2.428,2.428,0,0,1,22.347-.72,3.581,3.581,0,0,1,21.614-3.1a3.9,3.9,0,0,1,.813-2.583,2.68,2.68,0,0,1,2.165-.971A2.084,2.084,0,0,1,26.54-5.6h.025V-9.623h1.041ZM26.565-2.939V-3.9a1.86,1.86,0,0,0-.521-1.333,1.746,1.746,0,0,0-1.32-.546,1.8,1.8,0,0,0-1.5.7,3.06,3.06,0,0,0-.546,1.93A2.752,2.752,0,0,0,23.2-1.374a1.712,1.712,0,0,0,1.406.651,1.778,1.778,0,0,0,1.412-.628A2.341,2.341,0,0,0,26.565-2.939Zm8.373-.051H30.348a2.431,2.431,0,0,0,.584,1.676,2.013,2.013,0,0,0,1.536.59,3.194,3.194,0,0,0,2.019-.724V-.47a3.773,3.773,0,0,1-2.266.622,2.747,2.747,0,0,1-2.165-.885,3.624,3.624,0,0,1-.787-2.491,3.554,3.554,0,0,1,.86-2.472,2.758,2.758,0,0,1,2.136-.955,2.444,2.444,0,0,1,1.974.825,3.44,3.44,0,0,1,.7,2.292Zm-1.066-.882a2.118,2.118,0,0,0-.435-1.4,1.481,1.481,0,0,0-1.19-.5A1.682,1.682,0,0,0,31-5.25a2.391,2.391,0,0,0-.635,1.377ZM45.741,0H44.7V-3.732a2.816,2.816,0,0,0-.333-1.562,1.264,1.264,0,0,0-1.12-.482,1.387,1.387,0,0,0-1.133.609,2.331,2.331,0,0,0-.467,1.46V0H40.606V-3.859q0-1.917-1.479-1.917A1.37,1.37,0,0,0,38-5.2a2.375,2.375,0,0,0-.444,1.495V0H36.512V-6.5h1.041v1.028h.025A2.208,2.208,0,0,1,39.6-6.652a1.882,1.882,0,0,1,1.162.371,1.868,1.868,0,0,1,.679.974A2.32,2.32,0,0,1,43.6-6.652q2.146,0,2.146,2.647Zm7.141-6.5-2.99,7.541q-.8,2.019-2.247,2.019a2.382,2.382,0,0,1-.679-.083V2.044a1.93,1.93,0,0,0,.616.114,1.276,1.276,0,0,0,1.181-.939l.521-1.231L46.744-6.5H47.9l1.758,5q.032.1.133.5h.038q.032-.152.127-.482L51.8-6.5Z" transform="translate(0.125 47.957)" fill="#160e4d"/>
      <path id="Path_51216" data-name="Path 51216" d="M1.561,0V-11.9H4.947a3.7,3.7,0,0,1,2.449.755,2.441,2.441,0,0,1,.9,1.967,2.9,2.9,0,0,1-.548,1.76A2.954,2.954,0,0,1,6.242-6.358v.033a3.028,3.028,0,0,1,1.926.909,2.8,2.8,0,0,1,.722,2,3.112,3.112,0,0,1-1.1,2.474A4.078,4.078,0,0,1,5.03,0ZM2.955-10.642V-6.8H4.383a2.711,2.711,0,0,0,1.8-.552A1.922,1.922,0,0,0,6.84-8.907q0-1.735-2.283-1.735Zm0,5.1v4.283H4.848a2.836,2.836,0,0,0,1.905-.581,1.99,1.99,0,0,0,.677-1.594q0-2.108-2.872-2.108ZM20.254,0H18.859V-5.429H12.7V0H11.306V-11.9H12.7v5.221h6.159V-11.9h1.395ZM35.511,0H34.125V-7.985q0-.946.116-2.316h-.033a7.4,7.4,0,0,1-.357,1.154L29.783,0H29.1L25.043-9.081a7.114,7.114,0,0,1-.357-1.22h-.033q.066.714.066,2.333V0H23.375V-11.9h1.843L28.87-3.6a10.628,10.628,0,0,1,.548,1.428h.05q.357-.979.573-1.461L33.768-11.9h1.743Zm2.573-.481V-2.125a3.192,3.192,0,0,0,.677.448,5.481,5.481,0,0,0,.83.336,6.608,6.608,0,0,0,.876.212,4.883,4.883,0,0,0,.813.075A3.186,3.186,0,0,0,43.2-1.531a1.614,1.614,0,0,0,.635-1.374,1.613,1.613,0,0,0-.212-.838A2.384,2.384,0,0,0,43.04-4.4a5.807,5.807,0,0,0-.884-.564q-.51-.27-1.1-.569-.623-.315-1.162-.639a5.036,5.036,0,0,1-.938-.714,2.978,2.978,0,0,1-.627-.884A2.736,2.736,0,0,1,38.1-8.923a2.723,2.723,0,0,1,.357-1.415,3.061,3.061,0,0,1,.938-.992,4.252,4.252,0,0,1,1.324-.581,6.062,6.062,0,0,1,1.515-.191,5.805,5.805,0,0,1,2.565.423v1.569a4.649,4.649,0,0,0-2.706-.73,4.45,4.45,0,0,0-.913.1,2.579,2.579,0,0,0-.813.311,1.8,1.8,0,0,0-.581.556,1.476,1.476,0,0,0-.224.83,1.709,1.709,0,0,0,.17.789,1.933,1.933,0,0,0,.5.606,5,5,0,0,0,.809.531q.477.257,1.1.564.639.315,1.212.664a5.539,5.539,0,0,1,1,.772,3.43,3.43,0,0,1,.685.938A2.637,2.637,0,0,1,45.3-3a2.989,2.989,0,0,1-.344,1.49,2.827,2.827,0,0,1-.93.992,4.06,4.06,0,0,1-1.349.552,7.387,7.387,0,0,1-1.61.17,6.562,6.562,0,0,1-.7-.046Q39.952.108,39.52.021A6.909,6.909,0,0,1,38.7-.2,2.544,2.544,0,0,1,38.084-.481Z" transform="translate(0.125 32.957)" fill="#160e4d"/>
    </g>
    <path id="Path_51218" data-name="Path 51218" d="M0,0H1V60H0Z" transform="translate(-16512.031 -4755.333)" fill="#1876fe"/>
  </g>
</svg>
